<svg xmlns="http://www.w3.org/2000/svg" width="2560" height="1600"><style>  .a{fill:#ffe500;stroke-opacity:null;stroke-width:2;stroke:#000;}.b{fill:#ff00e5;stroke-opacity:null;stroke-width:2;stroke:#000;}.c{fill:#f00;stroke-opacity:null;stroke-width:2;stroke:#000;}.d{fill-opacity:null;}</style><defs><radialGradient r="0.436" gradientTransform="rotate(16.758620689655167,0.50390625,0.484375) translate(0,0.003340517241379317) scale(1,0.993103448275862)" fy="0.078125" fx="0.5" cy="0.484" cx="0.504" spreadMethod="pad" id="svg_22"><stop offset="0" stop-color="#ffdd21" stop-opacity="0.996"/><stop offset="1" stop-color="#65ede8" stop-opacity="0.996"/></radialGradient></defs><title>  background</title><title>  Layer 1</title><title>  background</title><rect id="canvas_background" height="402" width="582" y="-1" x="-1" fill="none"/><title>  Layer 1</title><rect id="svg_23" height="1631.948" width="2601.917" y="-10.974" x="-28.958" style="fill:url(#svg_22);stroke-opacity:null;stroke-width:2;stroke:#000"/><path d="m123.037 49.024c0 0-6 2-10 6 -4 4-10.413 7.625-14 12 -4.572 5.576-9.835 10.113-14 15.999 -5.776 8.163-9.082 13.405-12 19.999 -3.336 7.541-4.987 15.757-6 21.999 -1.281 7.896 0 14 0 19.999 0 6 0 12 0 17.999 0 6 2.832 13.522 6 19.999 2.779 5.681 7.127 11.405 12 21.999 2.643 5.746 8.388 15.777 14 25.999 6.456 11.761 9.544 18.239 15.999 29.999 5.612 10.223 15.917 18.062 21.999 25.999 6.551 8.548 12 15.999 17.999 23.999 0 0 14.587 15.453 21.999 23.999 6.552 7.554 15.037 13.082 21.999 21.999 7.177 9.192 14.742 15.493 19.999 23.999 2.351 3.804 7.026 7.188 10 12 3.325 5.38 4.288 9.868 6 14 2.42 5.843 2 10 4 15.999 2 6 4 10 4 15.999 0 4 2 10 2 15.999 0 4 0 10 0 15.999 0 6 0 12 0 17.999 0 6 0 12 0 17.999 0 4 1.378 8.16 0 14 -1.027 4.352-3.081 8.107-4 12 -1.027 4.352-3.385 8.372-6 12 -3.308 4.589-6.423 9.428-12 14 -4.375 3.586-9.385 12.372-12 15.999 -3.308 4.589-6.161 8.974-10 14 -4.377 5.731-9.428 8.423-14 14 -3.586 4.375-8 8-12 12 -4 4-6.62 7.438-12 14 -4.572 5.576-14.071 23.008-19.999 31.999 -4.671 7.084-10 10-14 17.999 -2 4-6 8-8 14 -2 6-6.288 11.868-8 16 -2.42 5.843-5.24 11.337-8 17.999 -3.902 9.421-5.098 21.627-8 31.999 -3.278 11.715-4 23.999-6 33.999 -2 10-3.039 18.077-4 23.999 -1.013 6.243-2 12-2 17.999 0 6 0.987 11.757 2 17.999 0.961 5.922 2.987 11.757 4 17.999 0.961 5.922 1.58 12.156 4 17.999 3.423 8.263 7.083 11.405 10 17.999 3.336 7.541 5.385 14.372 8 17.999 4.961 6.883 10.44 13.589 15.999 19.999 6.552 7.554 12 16 17.999 25.999 6 10 13.038 19.116 17.999 25.999 5.23 7.256 8.413 13.625 12 17.999 4.572 5.576 6.692 11.411 10 16 2.615 3.628 3.937 8.824 8 16 4.181 7.384 11.297 14.391 15.999 21.999 5.257 8.506 11.648 14.195 14 17.999 5.257 8.506 8.831 13.522 12 19.999 2.779 5.681 1.694 12.082 4 19.999 1.768 6.072 4 10 4 15.999 0 6 0 12 0 18 0 6 0 12 0 17.999 0 8-2.992 11.815-4 19.999 -0.733 5.955-2.289 11.868-4 16 -2.42 5.843-2 10-4 15.999 -2 6-4.987 11.757-6 18 -0.961 5.922-4.987 9.757-6 15.999 -0.641 3.948-3.097 9.54-6 18 -3.31 9.646-6.295 13.886-10 23.999 -2.175 5.939-5.835 8.774-8 14 -1.531 3.695-1.835 8.113-6 14 -5.776 8.163-7.227 10.594-12 16 -2.96 3.353-4.987 5.757-6 12 -0.32 1.974-2.972 5.647-4 10 -0.919 3.893-2.972 5.647-4 10 -0.459 1.946-2.972 3.647-4 8 -0.46 1.947-2.586 4.586-4 6 -2.828 2.828-1.385 4.372-4 8 -1.654 2.294-2.838 6.838-6 10 -3.162 3.162-4.692 7.411-8 12 -2.615 3.628-6.38 7.763-10 14 -2.245 3.868-5.856 9.222-10 14 -2.93 3.378-4.917 5.387-6 8 -0.765 1.848-2.918 3.387-4 6 -1.531 3.695-2 4-2 6 0 2-2 4-2 6 0 2 0 6 0 8 0 4 0 6 0 8 0 2 0.992 3.815 2 12 0.489 3.97 1.081 6.107 2 10 1.027 4.352 2 8 4 10 2 2 2.586 4.586 4 6 1.414 1.414 2.918 3.387 4 6 0.765 1.848 2 4 2 6l2 2 2 2 2 2" id="svg_25" style="fill:none;stroke-width:2;stroke:#000"/><path d="m447.027 1524.977c0 0 0-6-2-12 -2-6-5.342-16.425-12-25.999 -7.311-10.514-13.763-22.145-19.999-31.999 -7.712-12.187-13.221-22.318-15.999-27.999 -3.168-6.478-7.579-16.156-10-21.999 -3.423-8.263-5.094-16.224-8-25.999 -3.069-10.324-8.951-19.723-12-31.999 -2.932-11.806-2.534-22.089-4-33.999 -1.008-8.184-2.992-17.815-4-25.999 -1.222-9.925 0-18 0-29.999 0-10-1.182-24.058 0-35.999 1.005-10.148 3.175-20.033 4-29.999 1.003-12.124 4.336-17.84 8-25.999 4.412-9.825 6-16 12-25.999 6-10 11.763-18.145 17.999-27.999 3.856-6.093 8.823-14.808 15.999-23.999 6.962-8.917 10.804-17.087 19.999-25.999 7.18-6.96 14.094-13.875 21.999-19.999 10.123-7.843 15.876-16.157 25.999-23.999 7.905-6.124 13.876-14.157 23.999-21.999 7.905-6.124 13.453-14.587 21.999-21.999 7.554-6.552 14-14 21.999-21.999 6-6 15.127-12.735 21.999-19.999 9.911-10.477 14.587-21.452 21.999-29.999 6.552-7.554 10.44-15.589 15.999-21.999 6.552-7.554 12.38-17.763 16-23.999 6.734-11.604 10.686-19.752 14-29.999 5.074-15.692 6.191-23.954 8-31.999 2.237-9.949 2.817-20.058 4-31.999 1.005-10.148 2.825-22.033 2-31.999 -1.003-12.124-4-21.999-6-33.999 -2-12-4-21.999-8-33.999 -4-12-7.742-24.106-12-33.999 -11.321-26.302-18.391-41.782-25.999-55.998 -6.33-11.828-14-23.999-21.999-37.999 -8-14-13.543-26.238-19.999-37.999 -5.612-10.223-11.763-16.145-17.999-25.999 -7.712-12.187-15.266-22.395-21.999-33.999 -7.239-12.473-23.807-34.129-31.999-45.999 -9.773-14.159-20.547-25.472-33.999-39.999 -12.528-13.529-24.226-25.84-33.999-39.999 -8.192-11.869-16.666-23.5-29.999-41.999 -4.216-5.85-11.702-12.97-15.999-21.999 -3.544-7.446-6.832-13.522-10-19.999 -2.779-5.681-4-14-6-17.999 -2-4-2-8-2-12 0-4 0-10 0-14 0-4 0.992-7.815 2-15.999 0.733-5.955 1.081-10.107 2-14 1.027-4.352 4.972-7.647 6-12 1.378-5.839 2.918-9.387 4-12 0.765-1.848 0-4 2-6l0-2" id="svg_26" style="fill:none;stroke-width:2;stroke:#000"/><path d="m1039.008 145.021c0 0-4.372 1.385-8 4 -6.883 4.961-10.466 7.179-17.999 12 -10.787 6.902-15.493 16.742-23.999 21.999 -7.608 4.702-15.999 12-23.999 19.999 -6 6-14 14-19.999 19.999 -8 8-13.428 16.423-17.999 21.999 -5.379 6.562-9.807 14.033-12 25.999 -1.838 10.031-3.175 22.033-4 31.999 -1.003 12.124-2 27.999-2 43.999 0 17.999 0.797 34.174 4 51.998 2.917 16.232 7.257 32.264 14 49.998 10.826 28.474 17.999 41.999 25.999 53.998 16 23.999 23.485 36.381 33.999 49.998 9.546 12.364 21.475 30.474 35.999 45.999 25.12 26.85 42.06 41.927 55.998 53.998 16.071 13.918 28.872 22.879 41.999 33.999 10.79 9.141 22.928 16.928 29.999 23.999 7.071 7.071 21.999 25.999 27.999 31.999 8 8 13.587 14.174 17.999 23.999 10.992 24.477 16.798 33.795 19.999 47.998 2.675 11.867 4.999 25.952 6 57.998 0.499 15.992 1.711 46.103 0 59.998 -2.015 16.368-9.21 28.365-15.999 41.999 -7.187 14.433-13.669 26.17-19.999 37.999 -7.608 14.216-15.807 26.13-23.999 37.999 -9.773 14.159-28.954 26.954-39.999 37.999 -11.045 11.045-22.06 21.891-39.999 31.999 -14.047 7.915-28.06 15.891-45.999 25.999 -14.047 7.915-26.455 19.391-39.999 29.999 -14.516 11.37-26.283 21.627-49.998 39.999 -10.123 7.843-21.569 16.454-29.999 23.999 -9.542 8.541-21.451 13.448-29.999 19.999 -7.937 6.083-14.457 15.459-23.999 23.999 -6.322 5.659-12 10-17.999 17.999 -6 8-12.231 15.927-14 21.999 -2.305 7.917-4 14-4 19.999 0 4-1.378 8.16 0 14 1.027 4.352 8 10 12 14 4 4 8.901 8.901 14 14 5.099 5.099 13.438 10.62 19.999 15.999 5.576 4.572 13.949 8.041 21.999 18 2.811 3.478 6 8 8 10l2 0" id="svg_27" style="fill:none;stroke-width:2;stroke:#000"/><path d="m1452.994 1374.982c0 0-2.866-9.605-8-21.999 -7.261-17.529-13.601-34.226-23.999-51.998 -15.416-26.349-35.799-59.541-55.998-85.997 -16.328-21.386-36.061-45.943-53.998-65.998 -16.055-17.95-27.543-32.238-33.999-43.999 -5.612-10.223-9.188-17.008-14-25.999 -4.004-7.481-10.231-13.927-12-19.999 -2.305-7.917-4.992-17.815-6-25.999 -1.222-9.925-2-21.999-2-31.999 0-12 4.743-21.493 10-29.999 7.053-11.412 12.071-23.008 17.999-31.999 6.228-9.445 15.459-18.457 23.999-27.999 11.318-12.645 22.348-26.149 39.999-37.999 18.564-12.463 37.503-23.372 57.998-29.999 23.538-7.611 49.998-14 73.998-19.999 23.999-6 46.064-13.745 69.998-19.999 22.062-5.766 42.348-15.175 61.998-23.999 16.318-7.328 33.173-21.462 49.998-29.999 19.209-9.747 38.421-17.302 51.998-25.999 14.487-9.28 27.369-16.253 37.999-25.999 9.439-8.654 17.098-15.212 23.999-25.999 4.82-7.534 8-14 10-19.999 2-6 4.994-26.03 4-41.999 -1.002-16.093-8-35.999-19.999-55.998 -12-19.999-29.999-39.999-47.999-57.998 -12-12-29.301-28.865-43.999-39.999 -17.244-13.063-38.782-24.543-65.998-35.999 -30.899-13.006-71.715-24.922-115.996-37.999 -43.738-12.917-91.791-23.171-133.996-29.999 -29.876-4.833-54.336-5.515-77.997-10 -20.515-3.888-35.999-10-49.998-12 -14-2-26.353-4.69-35.999-8 -12.69-4.354-23.999-12-35.999-17.999 -12-6-24.391-11.297-31.999-15.999 -8.506-5.257-14-10-19.999-15.999 -2-2-4-4-4-6 0-2-1.051-4.299 0-6 2.351-3.804 7.188-9.026 12-12 5.38-3.325 14.145-9.764 23.999-15.999 12.187-7.712 24.365-15.21 37.999-21.999 14.433-7.187 27.771-16.473 43.999-23.999 13.817-6.408 25.783-12.391 39.999-19.999 11.828-6.33 24.174-9.588 33.999-14 12.239-5.496 26.023-7.837 39.999-10 12.022-1.86 23.893-4.997 37.999-6 15.959-1.134 35.999 0 53.998 0 17.999 0 38.014-0.748 55.998 0 24.062 1.001 47.983 4.199 71.998 6 29.981 2.248 57.948 6.999 87.997 8 23.986 0.799 57.998 2 67.998 2l4 0" id="svg_28" style="fill:none;stroke-width:2;stroke:#000"/><path d="m2192.971 229.018c0 0-2 0-4 0 -4 0-10.381-1.156-18 2 -10.774 4.463-28.189 11.541-47.999 19.999 -22.224 9.49-44.25 19.55-65.998 31.999 -20.242 11.586-37.392 24.543-49.998 37.999 -6.837 7.297-12.818 19.552-17.999 29.999 -4.786 9.648-8.278 21.948-10 31.999 -2.388 13.939-4 29.999-4 45.999 0 17.999 4.298 35.893 12 57.998 8.323 23.889 18.269 46.945 31.999 69.998 12.492 20.974 27.999 37.999 41.999 55.998 14 18 26.238 31.698 43.999 45.999 12.166 9.796 25.999 21.999 39.999 35.999 12 12 24.443 19.371 35.999 27.999 12.516 9.345 22.954 18.954 33.999 29.999 11.045 11.045 21.999 23.999 33.999 39.999 12 15.999 27.928 34.853 37.999 53.998 10.028 19.063 19.717 35.382 23.999 49.998 3.42 11.674 2.996 21.875 4 33.999 1.155 13.952 1.664 24.115 0 35.999 -2.019 14.419-6.502 24.742-16 41.999 -10.43 18.952-21.501 34.357-35.999 53.998 -13.542 18.346-31.999 37.999-49.998 57.998 -18 19.999-36.061 39.943-53.998 59.998 -16.055 17.95-42.966 50.965-57.998 65.998 -15.033 15.033-27.999 23.999-37.999 33.999 -12 12-22.827 21.25-29.999 29.999 -4.572 5.577-10.692 11.411-14 16 -2.615 3.628-6.987 9.757-8 16 -0.961 5.922-2.972 11.647-4 16 -1.379 5.839-0.42 10.156 2 16 6.845 16.526 14.735 27.127 21.999 33.999 10.477 9.911 21.999 12 29.999 19.999 6 6 15.589 10.44 22 15.999 7.554 6.552 13.116 11.038 19.999 16 3.628 2.615 7.188 7.026 12 10 5.38 3.325 10.157 5.579 16 8 4.132 1.711 5.387 4.917 8 6 1.848 0.765 2.152 1.234 4 2 2.613 1.082 4 4 6 6l0 2 2 0 2 0" id="svg_29" style="fill:none;stroke-width:2;stroke:#000"/><path d="m735.017 165.02c-6 0-10 4-14 8 -6 6-9.266 14.396-16 25.999 -7.239 12.474-18.425 24.551-25.999 39.999 -9.192 18.748-13.082 39.766-16 55.998 -3.203 17.825-2 33.999-2 49.998 0 16-0.992 30.034 0 43.999 1.003 14.106 4.355 27.828 10 39.999 6.408 13.817 12 25.999 19.999 39.999 8 14 15.485 32.381 25.999 45.999 9.546 12.364 20.12 23.9 29.999 35.999 8.099 9.919 14.62 17.437 19.999 23.999 4.572 5.576 8.929 10.929 15.999 17.999 7.071 7.071 14.856 16.846 23.999 27.999 10.759 13.124 20.325 25.404 33.999 39.999 12.607 13.456 22.822 24.807 29.999 33.999 5.222 6.688 10 12 12 16 2 4 4 8 4 12 0 6 0 14 0 25.999 0 8-1.697 20.09-6 33.999 -3.738 12.084-10 25.999-16 39.999 -6 14-14.209 30.79-21.999 45.999 -6.575 12.836-16 25.999-23.999 39.999 -8 14-17.522 26.283-25.999 39.999 -7.582 12.268-15.999 19.999-23.999 29.999 -8 10-16 19.999-23.999 31.999 -8 12-15.522 24.283-23.999 37.999 -7.582 12.268-16.391 29.782-23.999 43.999 -8.441 15.771-16.34 33.851-23.999 51.998 -8.375 19.845-16.951 37.185-19.999 53.998 -2.141 11.807-2.321 21.926-4 29.999 -2.477 11.91-3.291 24.024-4 33.999 -1.003 14.106-3.118 24.034-2 41.999 1.002 16.093 5.21 30.364 12 43.999 7.187 14.434 13.492 24.322 19.999 33.999 5.58 8.298 8.804 19.087 17.999 27.999 7.18 6.96 12.62 13.438 17.999 19.999 4.572 5.576 10 14 12 17.999 2 4 2.346 7.705 4 10 2.615 3.628 4 6 4 8l2 2 2 2" id="svg_30" style="fill:none;stroke-width:2;stroke:#000"/><path d="m2202.97 135.021c-4 2-10 2-16 4 -6 2-13.916 6.261-25.999 10 -13.909 4.303-27.913 10.218-47.998 17.999 -15.933 6.173-33.337 13.146-49.999 21.999 -17.394 9.242-33.599 14.822-69.998 31.999 -17.813 8.406-33.877 18.158-51.998 31.999 -15.894 12.139-30.666 23.5-43.999 41.999 -12.649 17.549-26.737 35.528-37.999 53.998 -10.719 17.58-21.156 35.528-27.999 53.998 -7.255 19.579-13.876 40.013-16 57.998 -1.89 16.013-2 35.999-2 51.998 0 17.999 4.75 34.323 10 51.998 4.865 16.38 13.523 32.283 21.999 45.998 7.582 12.268 17.999 23.999 29.999 35.999 10 10 21.141 21.325 35.999 29.999 28.589 16.691 47.999 23.999 63.998 29.999 15.999 6 35.539 11.83 55.998 16 17.745 3.617 40.051 6.092 81.997 4 20.074-1.001 36.395-5.266 47.998-12 12.474-7.239 19.875-14.094 25.999-21.999 7.843-10.123 17.168-21.115 25.999-33.999 11.642-16.983 24.335-31.717 35.999-45.999 14.424-17.661 26.939-35.306 39.999-53.998 10.806-15.466 23.623-34.153 31.999-53.998 7.659-18.147 16.763-37.104 22-57.998 4.403-17.567 4-37.999 4-53.998 0-15.999 1.134-32.039 0-47.998 -1.002-14.106-3.327-30.566-8-45.999 -3.888-12.84-8.714-24.507-14-35.999 -4.873-10.595-11.588-20.174-16-29.999 -3.664-8.159-9.875-16.094-16-23.999 -7.843-10.123-17.9-20.12-29.999-29.999 -9.919-8.099-21.812-16.287-33.999-23.999 -9.854-6.236-20.263-11.51-27.999-15.999 -6.237-3.619-12.082-7.694-19.999-10 -6.072-1.768-11.927-4.232-18-6 -7.917-2.305-14-2-19.999-2 -6 0-12 0-16 0 -4 0-10 0-14 0l-2 0 -4 0 -6 2" id="svg_32" style="fill:none;stroke-width:2;stroke:#000"/><path d="m1179.003 361.014c0 0-5.312 2.778-12 8 -9.192 7.177-15.212 11.098-25.999 17.999 -11.301 7.231-24.755 12.803-37.999 21.999 -12.83 8.909-29.281 22.457-43.999 35.999 -17.722 16.306-33.835 36.832-45.998 57.998 -14.267 24.827-27.942 50.016-35.999 75.998 -9.93 32.021-19.745 63.72-23.999 95.997 -3.408 25.852-4.999 49.93-6 71.998 -1.088 23.975-2.186 42.282 2 65.998 3.963 22.456 8.826 47.734 33.999 89.997 12.492 20.974 26.936 40.755 39.999 57.998 11.134 14.697 25.156 28.896 39.999 41.999 17.095 15.091 33.546 22.862 51.998 31.999 31.301 15.498 47.63 21.984 63.998 23.999 15.88 1.955 32.579 2.153 65.998-8 16.35-4.967 57.608-26.75 83.997-39.999 29.586-14.853 59.998-29.999 85.997-43.999 25.999-14 58.371-29.498 79.997-45.999 20.362-15.536 35.791-34.925 45.999-53.998 12.268-22.923 19.917-80.004 21.999-105.997 1.923-24.005 2.997-48.019 2-71.998 -1.001-24.062-5.045-46.177-10-69.998 -5.037-24.219-14.471-48.76-27.999-73.998 -14.422-26.906-38.12-63.9-63.998-95.997 -24.113-29.908-47.484-60.586-67.998-77.998 -19.526-16.573-37.218-35.117-53.998-45.999 -17.276-11.203-32.674-18.772-47.999-27.999 -14.739-8.874-29.7-16.752-43.999-21.999 -25.537-9.371-37.85-10.995-47.999-12 -11.941-1.182-20.077-0.961-25.999 0 -6.243 1.013-11.927 4.232-17.999 6 -7.917 2.305-12.62 4.675-18 8 -4.812 2.974-10 6-15.999 10l-4 2" id="svg_33" style="fill:none;stroke-width:2;stroke:#000"/><path d="m499.025 337.015c-8 4-17.662 8.441-27.999 15.999 -11.641 8.512-24.465 15.466-35.999 25.999 -14.62 13.351-32.904 26.908-49.998 41.999 -19.083 16.846-34.478 33.532-51.998 51.998 -18.519 19.519-36.876 39.365-53.998 63.998 -18.998 27.332-34.993 61.487-47.998 87.997 -17.351 35.367-30.269 65.915-39.999 97.997 -10.285 33.914-13.923 64.003-15.999 91.997 -1.929 26.005-3.803 52.066-2 75.998 5.014 66.563 14.302 90.587 21.999 109.996 8.243 20.785 22.884 39.266 35.999 55.998 15.06 19.214 28.477 37.477 45.999 53.998 18.52 17.463 33.5 32.665 51.998 45.999 17.549 12.649 35.567 23.308 51.998 27.999 9.806 2.799 21.999 4 31.999 4 12 0 26.043 0.17 41.999-4 22.062-5.766 45.651-13.44 75.998-19.999 47.562-10.281 100.358-16.316 159.995-29.999 54.371-12.475 102.8-26.229 143.995-45.998 30.652-14.709 56.25-36.52 73.998-65.998 20.76-34.481 35.371-83.234 45.999-137.996 8.838-45.539 8-91.997 8-135.996 0-43.999-8.377-81.88-19.999-119.996 -10.336-33.898-24.948-79.397-49.998-129.996 -21.461-43.35-50.204-87.251-79.997-127.996 -22.676-31.011-43.936-54.053-57.998-69.998 -15.929-18.062-28.915-35.152-47.998-51.998 -17.095-15.091-37.073-29.573-59.998-41.999 -21.245-11.515-45.88-20.364-69.998-27.999 -19.906-6.302-41.289-14.84-67.998-19.999 -23.645-4.568-47.998-4-65.998-4 -16 0-27.999 4-39.999 10l-6 4 -12 8" id="svg_34" style="fill:none;stroke-width:2;stroke:#000"/><path d="m2504.961 65.024c0 0-2.585-1.414-4 0 -1.414 1.414-2.918 3.387-4 6 -0.765 1.848-0.152 3.235-2 4 -2.613 1.082-2.918 3.387-4 6 -0.765 1.848-2.972 3.647-4 8 -0.459 1.946-2.918 3.387-4 6 -0.765 1.848 0 4 0 6 0 4-0.987 5.757-2 12 -0.32 1.974 0 4 0 6 0 4 0 8 0 10 0 4 0 8 0 12 0 4 0 8 0 12 0 4 0.972 9.647 2 14 0.919 3.893 0.972 7.647 2 12 0.919 3.893 1.081 10.107 2 14 1.027 4.352 2 8 2 12 0 4 2.289 9.868 4 14 2.42 5.843 2.191 11.954 4 19.999 2.237 9.949 3.763 20.05 6 29.999 1.809 8.045 2.778 16.074 4 25.999 1.008 8.184 2.992 15.815 4 23.999 0.733 5.955 2 15.999 2 23.999 0 8 0 14 0 23.999 0 10 0 21.999 0 31.999 0 12 0.788 22.038 0 29.999 -1.005 10.148-2.987 15.757-4 21.999 -1.281 7.896-2.377 13.887-4 19.999 -2.617 9.856-4.992 17.815-6 25.999 -1.222 9.925-2.14 19.977-4 31.999 -2.163 13.975-4 23.999-6 35.999 -2 12-2.722 22.284-6 33.999 -2.902 10.372-6.753 19.774-10 31.999 -2.617 9.856-4.753 21.774-8 33.999 -2.617 9.856-4.722 22.284-8 33.999 -2.902 10.372-8.463 19.855-12 31.999 -2.305 7.917-5.139 20.265-8 27.999 -6.206 16.777-12 25.999-17.999 37.999 -6 12-14.365 31.821-22 47.998 -8.406 17.813-15.249 34.397-23.999 49.998 -9.229 16.456-20.177 27.883-27.999 39.999 -10.234 15.851-21.635 28.453-33.999 37.999 -13.617 10.514-26.443 19.371-37.999 27.999 -12.516 9.345-23.731 18.417-35.999 25.999 -13.716 8.477-30.105 21.859-45.999 33.999 -18.121 13.841-37.131 31.089-61.998 49.998 -25.171 19.141-49.999 35.999-75.998 49.998 -25.999 14-47.999 27.999-69.998 39.999 -21.999 12-41.913 24.217-61.998 31.999 -15.933 6.173-33.999 14-51.998 17.999l-19.999 2 -17.999 2 -23.999 2" id="svg_35" style="fill:none;stroke-width:5;stroke:#000"/><path d="m139.036 47.024c-2 0-2 2-4 2 -2 0-4.917 1.387-6 4 -0.765 1.848-2.586 2.586-4 4 -1.414 1.414-2.918 1.387-4 4 -0.765 1.848-0.586 2.586-2 4 -1.414 1.414-2.586 0.586-4 2 -1.414 1.414-0.586 2.586-2 4 -1.414 1.414-2 2-4 4 -2 2-2 4-4 6 -2 2-3.235 2.152-4 4 -1.082 2.613-4 4-6 6 -2 2-0.586 4.586-2 6 -1.414 1.414-2.918 1.387-4 4 -0.765 1.848 0 4 0 6 0 2-2 4-2 6 0 2 0 6 0 8 0 2 0 4 0 6 0 2 0 4 0 6 0 2 0 4 0 6 0 2 2 4 2 6 0 2-0.765 4.152 0 6 1.082 2.613 2.586 2.586 4 4 1.414 1.414 0.586 4.586 2 6 1.414 1.414 2.972 5.647 4 10 0.459 1.946 2.972 5.647 4 10 0.459 1.946 2.918 3.387 4 6 1.531 3.695 2.918 3.387 4 6 2.296 5.543 1.54 6.053 2 8 1.027 4.352 4.917 5.387 6 8 1.531 3.695 2.918 7.387 4 10 1.531 3.695 2.918 7.387 4 10 0.765 1.848 1.235 4.152 2 6 1.082 2.613 1.172 5.171 4 8 2.828 2.828 5.385 4.372 8 8 3.308 4.589 6.972 7.647 8 12 0.459 1.946 3.385 6.372 6 10 1.654 2.294 2.469 4.304 4 8 2.165 5.226 4.647 5.04 8 8 5.406 4.772 6.207 7.812 8 10 4.572 5.576 8.692 9.411 12 14 2.615 3.628 6.302 4.869 10 10 2.339 3.245 3.235 4.152 4 6 1.082 2.613 4.586 2.586 6 4 1.414 1.414 2 4 4 6 2 2 4.372 5.385 8 8 4.589 3.308 5.387 6.917 8 8 1.848 0.765 2.918 1.387 4 4 0.765 1.848 2.918 1.387 4 4 0.765 1.848 2.948 4.299 4 6 2.351 3.804 4 4 6 6 2 2 2.918 3.387 4 6 0.765 1.848 2.918 3.387 4 6 0.765 1.848 1.54 4.053 2 6 1.027 4.352 2.918 7.387 4 10 0.765 1.848 2 4 2 8 0 4 0.918 5.387 2 8 0.765 1.848 0 6 0 8 0 2 0.918 5.387 2 8 1.531 3.695 0.918 7.387 2 10 1.531 3.695-0.46 6.053 0 8 1.027 4.352 2.918 5.387 4 8 1.531 3.695 0 8 0 10 0 4 0 8 0 10 0 2 0 4 0 6 0 2 0 4 0 6 0 2 0 4 0 6 0 2 0 8 0 10 0 2 0.765 4.152 0 6 -1.082 2.613-3.54 4.053-4 6 -1.027 4.352-2.918 7.387-4 10 -0.765 1.848-2.918 7.387-4 10 -0.765 1.848-2.586 4.586-4 6 -1.414 1.414-0.469 4.304-2 8 -1.082 2.613-4 6-4 8 0 2-2.918 1.387-4 4 -0.765 1.848-0.586 2.586-2 4 -1.414 1.414-0.586 4.586-2 6 -1.414 1.414-4.917 1.387-6 4 -0.765 1.848-2.918 1.387-4 4 -1.531 3.695-0.586 6.586-2 8 -1.414 1.414-3.235 2.152-4 4 -1.082 2.613-2.299 2.948-4 4 -3.804 2.351-2.346 5.705-4 8 -2.615 3.628-2.346 7.705-4 10 -2.615 3.628-5.835 4.774-8 10 -1.531 3.695-4.972 5.647-6 10 -1.378 5.839-1.385 10.372-4 14 -1.654 2.294-5.54 8.053-6 10 -1.027 4.352-2.469 8.304-4 12 -1.082 2.613-4.972 5.647-6 10 -0.459 1.946-2.972 3.647-4 8 -0.46 1.946-2.987 3.757-4 10 -0.641 3.948-2.289 5.868-4 10 -2.42 5.843-2 10-4 14 -2 4-2 8-4 12 -2 4-3.359 8.051-4 12 -1.013 6.243-4.972 9.647-6 14 -1.378 5.839-2.289 9.868-4 14 -2.42 5.843-2 10-4 14 -2 4-2.621 8.16-4 14 -1.027 4.352-3.081 8.107-4 12 -1.027 4.352-2.346 9.705-4 12 -2.615 3.628-0.621 6.16-2 12 -1.027 4.352-3.081 8.107-4 12 -1.027 4.352-2 10-4 14 -2 4-2 8-2 12 0 4 0 8 0 14 0 2-0.919 4.107 0 8 1.027 4.352 2 6 4 10 2 4 2.692 5.411 6 10 2.615 3.628 4.692 7.411 8 12 2.615 3.628 5.385 8.372 8 12 3.308 4.589 7.856 11.222 12 16 2.93 3.378 4.38 5.763 8 12 2.245 3.868 2.692 5.411 6 10 2.615 3.628 2.346 5.705 4 8 2.615 3.628 4 8 6 12 2 4 1.385 6.372 4 10 3.308 4.589 6.346 5.705 8 8 2.615 3.628 2.196 5.649 6 8 1.701 1.051 2.586 0.586 4 2 2.828 2.828 3.54 6.053 4 8 1.027 4.352 3.385 6.372 6 10 1.654 2.295 2.469 6.304 4 10 1.082 2.613 2.841 4.172 4 8 2.09 6.901 5.081 8.107 6 12 1.027 4.352 3.081 8.107 4 12 1.027 4.352 4.987 7.757 6 14 0.641 3.948 2 8 4 12 2 4 1.58 10.156 4 15.999 1.711 4.132 4 8 4 12 0 4 0.972 9.647 2 14 0.919 3.893 0.972 7.647 2 12 0.919 3.893 0 8 0 14 0 6 0 10 0 14 0 4 0.961 8.077 0 14 -1.013 6.243-3.267 12.044-4 17.999 -1.008 8.184-4.321 13.926-6 21.999 -2.477 11.91-4.996 19.875-6 31.999 -0.66 7.973-2.377 15.887-4 21.999 -2.617 9.856-3.039 16.077-4 21.999 -1.013 6.243-4.987 9.757-6 16 -0.961 5.922-2.232 11.927-4 17.999 -2.305 7.917-4 14-6 18 -2 4-4.288 7.868-6 12 -2.42 5.843-3.081 10.107-4 14 -1.027 4.352-1.704 8.456-4 14 -1.082 2.613-4.972 5.647-6 10 -0.919 3.893-2.918 7.387-4 10 -2.296 5.543-2.346 9.705-4 12 -2.615 3.628-2 10-4 14 -2 4-2.289 7.868-4 12 -2.42 5.843-3.081 10.107-4 14 -1.027 4.352-4.972 7.647-6 12 -1.378 5.839-0.918 9.387-2 12 -1.531 3.695-2 8-2 10 0 2 0 4 0 6 0 2 0 4 0 6 0 2-0.46 4.053 0 6 1.027 4.352 3.385 6.372 6 10 1.654 2.294 2 4 4 6 2 2 3.235 2.152 4 4 1.082 2.613 2 4 4 4 2 0 4 0 6 0l2 0" id="svg_37" style="fill:none;stroke-width:5;stroke:#000"/><path d="m403.028 123.022c0 0 0 2 0 4 0 2 0 4 0 6 0 4 0 6-2 10 -2 4-2 10-2 14 0 4 0 8 0 12 0 4 0 8 0 12 0 2 0 4 0 6 0 2-0.46 4.053 0 6 1.027 4.352 2.346 5.705 4 8 2.615 3.628 3.835 8.773 6 14 1.531 3.695 2 6 4 10 2 4 2 8 4 12 2 4 4.675 10.62 8 15.999 2.974 4.812 9.026 7.188 12 12 3.325 5.38 5.385 10.372 8 14 1.654 2.294 2.838 2.838 6 6 3.162 3.162 4.288 5.868 6 10 2.42 5.843 6.692 9.411 10 14 2.615 3.628 8 10 12 14 4 4 6 10 8 12 4 4 6.837 6.837 10 10 3.162 3.162 4.346 7.705 6 10 2.615 3.628 3.169 8.71 6 14 3.403 6.358 8.675 8.62 12 14 2.974 4.812 5.385 8.372 8 12 3.307 4.589 3.385 8.372 6 12 1.654 2.294 4 6 8 10 2 2 4.38 5.763 8 12 2.245 3.868 7.579 8.157 10 14 1.711 4.132 4.692 7.411 8 12 2.615 3.628 4.346 7.705 6 10 2.615 3.628 5.755 10.132 8 14 3.619 6.237 6.224 9.836 12 17.999 4.165 5.887 6.38 11.763 10 17.999 2.245 3.868 5.679 8.026 6 10 1.013 6.243 4.469 10.304 6 14 2.165 5.226 6 10 10 16 4 6 5.58 12.156 8 17.999 3.423 8.263 4 12 6 16 2 4 2.621 8.16 4 14 1.027 4.352 4.972 7.647 6 12 1.378 5.839 2 12 4 17.999 2 6 2 12 4 16 2 4 2.621 8.16 4 14 1.027 4.352 4 8 4 12 0 4 0.987 9.757 2 16 0.961 5.922 1.039 12.077 2 17.999 1.013 6.243 2.987 11.757 4 17.999 0.961 5.922-0.919 10.107 0 14 1.027 4.352 2 8 2 12 0 6 0 12 0 17.999 0 4 0 10 0 15.999 0 6 0 17.999 0 25.999 0 6-0.621 12.16-2 17.999 -1.027 4.352-4.987 9.757-6 16 -0.961 5.922-1.694 12.082-4 19.999 -1.768 6.072-1.385 10.372-4 14 -1.654 2.294-3.385 8.372-6 12 -3.307 4.589-5.91 7.098-8 14 -1.159 3.828-3.385 8.372-6 12 -3.307 4.589-7.026 9.188-10 14 -3.325 5.38-4.288 9.868-6 14 -2.42 5.843-5.385 10.372-8 14 -3.307 4.589-8 12-12 16 -4 4-4.938 8.609-8 15.999 -2.165 5.226-5.58 8.157-8 14 -1.711 4.132-4 10-6 14 -2 4-2.841 8.171-4 12 -2.09 6.901-5.385 10.372-8 14 -3.307 4.589-6.692 9.411-10 14 -2.615 3.628-4 8-6 12 -2 4-4.972 7.647-6 12 -0.919 3.893-2.972 7.647-4 12 -0.919 3.893-3.428 8.423-8 14 -3.586 4.375-10.44 11.589-15.999 17.999 -6.552 7.554-12.224 13.836-17.999 21.999 -4.165 5.887-10 14-14 18 -4 4-6.38 7.763-10 14 -2.245 3.868-3.755 8.132-6 12 -3.619 6.237-4.692 9.411-8 14 -2.615 3.628-3.58 8.157-6 14 -1.711 4.132-1.58 8.157-4 14 -1.711 4.132-3.039 10.077-4 16 -1.013 6.243-2.987 9.757-4 15.999 -0.961 5.922-0.992 11.815-2 19.999 -0.733 5.955 0 12 0 17.999 0 6 0 12 2 18 2 6 2 12 4 17.999 2 6 3.267 12.045 4 17.999 1.008 8.184 4.987 13.757 6 19.999 0.641 3.948 2 10 4 14 2 4 2 10 4 14 2 4 4 8 6 14 2 6 3.385 12.372 6 16 3.308 4.589 6.288 9.868 8 14 2.42 5.843 5.835 8.774 8 14 0.765 1.848 2 6 4 8 2 2 4.299 4.948 6 6 3.804 2.351 6.972 5.647 8 10 0.46 1.947 3.234 4.152 4 6 1.082 2.613 2.152 3.235 4 4 2.613 1.082 0.586 4.586 2 6 1.414 1.414 2 2 4 2l2 0 2 0" id="svg_38" style="fill:none;stroke-width:5;stroke:#000"/><path d="m1996.977 17.025c0 0-1.235 0.152-2 2 -2.165 5.226-5.623 6.269-10 12 -3.839 5.026-5.385 10.372-8 14 -3.307 4.589-9.835 6.774-12 12 -0.765 1.848-3.385 4.372-6 8 -3.307 4.589-6 8-10 12 -2 2-4.586 2.586-6 4 -1.414 1.414-0.838 2.838-4 6 -3.162 3.162-6.38 3.763-10 10 -2.245 3.868-6.38 7.763-10 14 -2.245 3.868-4.293 7.726-8 12 -6.552 7.554-10.224 11.836-16 19.999 -4.165 5.887-12.42 15.701-17.999 23.999 -6.507 9.677-11.835 20.113-16 25.999 -5.776 8.163-10.692 11.411-14 15.999 -5.23 7.256-9.755 12.132-12 15.999 -3.619 6.237-9.038 13.116-14 19.999 -5.23 7.256-9.544 20.238-16 31.999 -5.612 10.223-11.763 20.145-17.999 29.999 -3.856 6.093-9.329 12.916-14 19.999 -5.929 8.991-8.388 15.777-14 25.999 -4.304 7.84-9.139 18.265-12 25.999 -4.655 12.583-12.355 23.828-17.999 35.999 -6.408 13.817-10.865 25.604-16 37.999 -4.84 11.686-4.238 20.43-8 31.999 -2.766 8.506-3.762 14.05-6 23.999 -1.809 8.045-3.463 14.153-6 21.999 -3.314 10.248-5.097 15.539-8 23.999 -3.309 9.646-3.067 18.193-6 29.999 -1.524 6.138-2.191 11.954-4 19.999 -2.237 9.949-3.807 18.033-6 29.999 -1.839 10.031-4.278 21.948-6 31.999 -2.388 13.939-3.877 30.013-6 47.998 -1.89 16.013-4.109 33.986-6 49.998 -2.123 17.985-3.006 34.03-4 49.998 -1.002 16.093-2 29.999-2 45.998 0 17.999-2 33.999-2 49.998 0 16 0 31.999 0 49.998 0 19.999 0 35.999 0 53.998 0 19.999 0.998 35.905 2 51.998 0.994 15.969 0 31.999 2 47.999 2 16 4 31.999 6 49.998 2 17.999 4.211 33.948 8 49.998 4.236 17.945 8 33.999 10 47.998 2 14 6.161 25.968 8 35.999 2.193 11.966 4 21.999 6 33.999 2 12 7.963 19.423 10 29.999 1.135 5.891 4.832 11.522 8 17.999 2.779 5.681 5.835 10.773 8 16 1.531 3.695 1.704 8.456 4 14 2.165 5.226 5.679 8.026 6 10 1.013 6.243 5.081 10.107 6 14 1.027 4.352 3.54 8.053 4 10 1.027 4.352 3.234 4.152 4 6 1.082 2.613 4 4 6 6 2 2 2 4 4 6 2 2 2.917 3.387 4 6 0.765 1.848 0.586 2.586 2 4 1.414 1.414 2.586 4.586 4 6 1.414 1.414 2 2 4 4 2 2 2.586 2.586 4 4 1.414 1.414 2 4 4 6 2 2 2.586 2.586 4 4 1.414 1.414 1.234 2.152 2 4 1.082 2.613 2.586 2.586 4 4 1.414 1.414 1.385 4.372 4 8 1.654 2.294 2.586 2.586 4 4 1.414 1.414 0.586 4.586 2 6 1.414 1.414 4 2 6 4 2 2 4 4 4 6l2 0" id="svg_39" style="fill:none;stroke-width:5;stroke:#000"/><path d="m1860.981 1512.977c0 0-3.868-0.289-8-2 -5.843-2.42-11.569-6.454-19.999-14 -9.542-8.541-16.423-13.428-21.999-18 -4.375-3.586-7.428-8.423-12-14 -3.586-4.375-7.511-8.03-8-12 -1.008-8.184-5.221-14.318-8-19.999 -3.168-6.478-7.039-14.077-8-19.999 -1.013-6.243-3.039-12.077-4-18 -1.013-6.243-2-12-2-17.999 0-6 0-14 0-21.999 0-12 0-21.999 0-33.999 0-12 0-25.999 0-39.999 0-12 1.203-28.174-2-45.999 -2.917-16.232-4-31.999-4-45.999 0-12 0-25.999 0-39.999 0-10-0.87-26.026 0-39.999 1.002-16.093 3.985-31.63 6-47.998 1.955-15.88 2-33.999 2-51.998 0-17.999 0-37.999 0-55.998 0-17.999-0.885-38.023 0-53.998 1.001-18.083 3.031-36.133 6-53.998 3.022-18.189 8.191-37.957 12-55.998 4.212-19.956 6.814-38.153 10-57.998 2.922-18.205 5.805-40.31 10-61.998 3.965-20.5 12-37.999 17.999-55.998 6-17.999 13.527-36.184 19.999-51.998 7.461-18.229 12.302-36.589 19.999-55.998 8.243-20.785 15.593-38.185 23.999-55.998 9.543-20.221 17.593-36.185 25.999-53.998 7.634-16.177 17.559-34.227 25.999-49.998 7.608-14.216 16-29.999 23.999-41.999 8-12 15.999-25.999 23.999-37.999 8-12 16.761-25.525 23.999-37.999 6.734-11.604 14.227-23.84 23.999-37.999 8.192-11.869 15.999-23.999 23.999-35.999 8-12 13.459-22.457 21.999-31.999 7.545-8.43 11.448-14.445 18-21.999 3.706-4.273 8-6 10-10l0-2" id="svg_40" style="fill:none;stroke-width:5;stroke:#000"/><path id="svg_41" d="m71.039 325.015c231.993-21.999 439.986-185.994 555.982 35.999 115.996 221.993 105.997 253.992 455.985 279.991 349.989 25.999 385.988-311.99 531.983 29.999 145.995 341.989 357.989 225.993 187.994 491.984 -169.995 265.991-21.999 325.99-449.986 339.989 -427.986 14-365.988 175.994-663.979-59.998 -297.99-235.992-295.991-99.997-353.989-479.985" style="fill-opacity:null;fill:none;opacity:0.5;stroke-opacity:null;stroke-width:50;stroke:#000"/></svg>