<svg xmlns="http://www.w3.org/2000/svg" width="2560" height="1600"><style>.a{fill:#ffe500;stroke-opacity:null;stroke-width:2;stroke:#000;}.b{fill:#ff00e5;stroke-opacity:null;stroke-width:2;stroke:#000;}.c{fill:#f00;stroke-opacity:null;stroke-width:2;stroke:#000;}.d{fill-opacity:null;}</style><title>  background</title><rect height="1602" width="2562" y="-1" x="-1" fill="#fff"/><g height="100" width="100"><rect height="100" width="100" fill="url(#gridpattern)"/></g><title>  Layer 1</title><rect height="1756.7" width="2766.7" y="-20" x="-71.7" style="fill:#2faa29;stroke-width:2;stroke:#000"/><rect height="1756.7" width="2766.7" y="-986.7" x="-81.7" style="fill:#1bea10;stroke-width:2;stroke:#000"/><rect height="1756.7" width="2766.7" y="-36.7" x="2318.3" style="fill:#1034e8;stroke-width:2;stroke:#000"/><path d="m939.9 787.5l-357.7-331.7 235.6 0 357.7 331.7 -357.7 331.7 -235.6 0 357.7-331.7z" style="fill:#29ce21;stroke-opacity:null;stroke-width:2;stroke:#000"/><path d="m1186.6 784.2l-357.7-331.7 235.6 0 357.7 331.7 -357.7 331.7 -235.6 0 357.7-331.7z" style="fill:#c2b;stroke-opacity:null;stroke-width:2;stroke:#000"/><path d="m286.6 1520.9l-357.7-331.7 235.6 0 357.7 331.7 -357.7 331.7 -235.6 0 357.7-331.7z" style="fill:#633d5f;stroke-opacity:null;stroke-width:2;stroke:#000"/><path d="m1626.6 910.9l-357.7-331.7 235.6 0 357.7 331.7 -357.7 331.7 -235.6 0 357.7-331.7z" style="fill:#7ae074;stroke-opacity:null;stroke-width:2;stroke:#000"/><path d="m530.1 504c8.2-1.6 67.6 65.1 68.7 78.5 1.6 19.6 39.3 19.6 49.1 19.6 9.8 0 80.2 42.5 127.6 88.3 47.4 45.8 186.5 3.3 196.3 0 9.8-3.3 458-90 579.1-29.4 58.1 29.1 172.7-73.6 187.7-287 -6.1-142.3-134.1-147.6-160.7-104.3 -19.6 19.2-53.2 13.5-45-21.7 7.4-23.5 57.3-96.1 149.3-64.2 78 27 123.1 92.1 139.9 187.7 11 206.1-143.5 358.2-143.5 358.2 0 0 12.3 54 29.4 88.3 17.2 34.3 22.1 152.1 19.6 166.8 -2.5 14.7 73.6 95.7 98.1 98.1 21.3 9.8 81 191.4 83.4 230.6 22.1 11-2.5 66.2-29.4 73.6 -27 7.4-34.4-44.2-34.4-68.7 0-24.5-27-139.8-103.1-152.1 -76.1-12.3-142.3-54-142.3-54 0 0-4.9 24.5-14.7 34.3 0 0 24.5 41.7 24.5 103 -2.5 27-41.7 110.4-68.7 117.8 0 0-44.2 68.7-63.8 68.7 -19.6 0-54 24.5-108-4.9 0 0 9.8-61.3 58.9-44.2 0 0 115.3-88.3 58.9-127.6 0 0-34.4-49.1-54-68.7 -19.6-19.6-39.3-51.5-44.2-88.3 0 0-164.4-9.8-206.1-19.6 -41.7-9.8-117.8 14.7-117.8 29.4 0 14.7 12.3 154.6 34.4 181.5 0 0 7.4 34.3 0 44.2 -7.4 9.8 27 90.8-39.3 83.4 -62.6 11-93.2-38-19.6-54 3.7-52.7-93.2-276-157-245.3 -83.4 12.3-55.2-60.1-137.4 54 -85.9 100.6-233.1 171.7-240.5 215.9 0 0-44.2-9.8-54 24.5 0 0-115.3 14.7-108-4.9 7.4-19.6 13.5-60.1 58.9-44.2 0 0 103.1-40.5 201.2-250.2 0 0-12.3-54 4.9-98.1 17.2-44.2-9.8-225.7-132.5-215.9 0 0-45.8 16.4-73.6-58.9 0 0-11.5-14.7 0-29.4 11.5-14.7 39.3-37.6 44.2-54 4.9-16.4 16.4-40.9 78.5-63.8 29.4-30.7-3.3-91.6 4.9-93.2z" class="b"/><path d="m220.8 314.9c1.3-0.3 10.9 10.5 11.1 12.6 0.3 3.2 6.3 3.2 7.9 3.2 1.6 0 12.9 6.8 20.5 14.2 7.6 7.4 30 0.5 31.6 0 1.6-0.5 73.7-14.5 93.2-4.7 9.4 4.7 27.8-11.8 30.2-46.2 -1-22.9-21.6-23.8-25.9-16.8 -3.2 3.1-8.6 2.2-7.2-3.5 1.2-3.8 9.2-15.5 24-10.3 12.6 4.4 19.8 14.8 22.5 30.2 1.8 33.2-23.1 57.6-23.1 57.6 0 0 2 8.7 4.7 14.2 2.8 5.5 3.6 24.5 3.2 26.8 -0.4 2.4 11.8 15.4 15.8 15.8 3.4 1.6 13 30.8 13.4 37.1 3.6 1.8-0.4 10.7-4.7 11.8 -4.3 1.2-5.5-7.1-5.5-11.1 0-3.9-4.3-22.5-16.6-24.5 -12.2-2-22.9-8.7-22.9-8.7 0 0-0.8 3.9-2.4 5.5 0 0 3.9 6.7 3.9 16.6 -0.4 4.3-6.7 17.8-11.1 18.9 0 0-7.1 11.1-10.3 11.1 -3.2 0-8.7 3.9-17.4-0.8 0 0 1.6-9.9 9.5-7.1 0 0 18.6-14.2 9.5-20.5 0 0-5.5-7.9-8.7-11.1 -3.2-3.2-6.3-8.3-7.1-14.2 0 0-26.5-1.6-33.2-3.2 -6.7-1.6-19 2.4-19 4.7 0 2.4 2 24.9 5.5 29.2 0 0 1.2 5.5 0 7.1 -1.2 1.6 4.3 14.6-6.3 13.4 -10.1 1.8-15-6.1-3.2-8.7 0.6-8.5-15-44.4-25.3-39.5 -13.4 2-8.9-9.7-22.1 8.7 -13.8 16.2-37.5 27.6-38.7 34.7 0 0-7.1-1.6-8.7 3.9 0 0-18.6 2.4-17.4-0.8 1.2-3.2 2.2-9.7 9.5-7.1 0 0 16.6-6.5 32.4-40.3 0 0-2-8.7 0.8-15.8 2.8-7.1-1.6-36.3-21.3-34.7 0 0-7.4 2.6-11.8-9.5 0 0-1.8-2.4 0-4.7 1.8-2.4 6.3-6.1 7.1-8.7 0.8-2.6 2.6-6.6 12.6-10.3 4.7-4.9-0.5-14.7 0.8-15z" class="b"/><path d="m2268 418.4c0.9-0.2 7.6 7.3 7.7 8.8 0.2 2.2 4.4 2.2 5.5 2.2 1.1 0 9 4.8 14.3 9.9 5.3 5.1 20.9 0.4 22 0 1.1-0.4 51.4-10.1 65-3.3 6.5 3.3 19.4-8.3 21.1-32.2 -0.7-16-15-16.6-18-11.7 -2.2 2.2-6 1.5-5-2.4 0.8-2.6 6.4-10.8 16.7-7.2 8.8 3 13.8 10.3 15.7 21.1 1.2 23.1-16.1 40.2-16.1 40.2 0 0 1.4 6.1 3.3 9.9 1.9 3.9 2.5 17.1 2.2 18.7 -0.3 1.7 8.3 10.7 11 11 2.4 1.1 9.1 21.5 9.4 25.9 2.5 1.2-0.3 7.4-3.3 8.3 -3 0.8-3.9-5-3.9-7.7 0-2.8-3-15.7-11.6-17.1 -8.5-1.4-16-6.1-16-6.1 0 0-0.6 2.8-1.7 3.9 0 0 2.8 4.7 2.8 11.6 -0.3 3-4.7 12.4-7.7 13.2 0 0-5 7.7-7.2 7.7 -2.2 0-6.1 2.8-12.1-0.6 0 0 1.1-6.9 6.6-5 0 0 12.9-9.9 6.6-14.3 0 0-3.9-5.5-6.1-7.7 -2.2-2.2-4.4-5.8-5-9.9 0 0-18.4-1.1-23.1-2.2 -4.7-1.1-13.2 1.7-13.2 3.3 0 1.7 1.4 17.3 3.9 20.4 0 0 0.8 3.9 0 5 -0.8 1.1 3 10.2-4.4 9.4 -7 1.2-10.5-4.3-2.2-6.1 0.4-5.9-10.5-31-17.6-27.5 -9.4 1.4-6.2-6.7-15.4 6.1 -9.6 11.3-26.2 19.3-27 24.2 0 0-5-1.1-6.1 2.8 0 0-12.9 1.7-12.1-0.6 0.8-2.2 1.5-6.7 6.6-5 0 0 11.6-4.5 22.6-28.1 0 0-1.4-6.1 0.6-11 1.9-5-1.1-25.3-14.9-24.2 0 0-5.1 1.8-8.3-6.6 0 0-1.3-1.7 0-3.3 1.3-1.7 4.4-4.2 5-6.1 0.6-1.8 1.8-4.6 8.8-7.2 3.3-3.4-0.4-10.3 0.6-10.5z" class="b"/><path d="m569.3 665.7c-6.5-5.9-21.3 1.2-29.5 5.9 -2.3-0.4-4.8-0.6-7.3-0.6 -10.3 0-18.6 3-24.9 8.7 -7.2 6.6-11.2 15.2-11.2 25.2 0 0.1 0 0.2 0 0.3 10.1-15.8 25.7-24 29.8-26.1 0.7-0.3 1 0.5 0.4 0.8 0 0.1 0 0 0 0 -6.9 4.2-19.8 16.2-28.1 33.5l0 0c-5.3 10.9-9.7 26.2-0.8 31.9 6.8 4.3 18.9-0.8 28.6-7.1 2.4 0.3 4.8 0.5 7.4 0.5 18 0 30.6-9.9 35.1-24.4l-24.7 0c-1 5.1-4.5 7.8-9.9 7.8 -6.8 0-11.5-3.7-11.8-12.3l46.8 0c0.1-1.8-0.1-3-0.1-4.4 0-16.2-9.7-28.8-25.4-32.8 6.4-4 18.4-9.9 24.1-5.2 4.3 3.5 1.9 10.9 0.9 13.9 -0.2 0.8 0.7 0.9 0.9 0.2 2.2-5.4 2.8-12.8-0.4-15.6zm-45.3 72c-7.6 4.5-18.1 7.8-23.2 4 -3.8-2.9-2.1-10.7 1.2-18.3 2 3.1 4.6 5.8 7.6 8.1 4.1 3.1 8.8 5.1 14.4 6.2zm-1.7-38.9c0.1-7.5 5.5-10.7 11.1-10.7 5.9 0 10.7 3.4 10.7 10.7l-21.9 0z" class="c"/><path d="m2654.4 745.4c-26.4-23.8-86.4 4.8-119.4 24.1 -9.5-1.5-19.4-2.3-29.8-2.3 -41.8 0-75.5 12.3-101.1 35.5 -29.1 26.7-45.3 61.6-45.3 102 0 0.3 0 0.7 0 1 41-64.2 104.1-97.2 120.8-105.9 2.6-1.2 4.2 1.9 1.8 3.2 -0.2 0.5-0.2 0 0 0 -28.1 16.8-80.3 65.6-114.1 135.8l0-0.1c-21.4 44.2-39.5 106.4-3.3 129.2 27.4 17.2 76.5-3.1 115.9-28.9 9.5 1.3 19.5 2.1 30.1 2.1 72.8 0 124-40.2 142.2-98.8l-100.1-0.2c-4.2 20.7-18.3 31.8-40.2 31.8 -27.6 0-46.5-15.1-47.8-50l190-0.2c0.3-7.2-0.5-12.3-0.5-17.9 0-65.5-39.2-116.7-103-133 26-16.1 74.5-40 97.9-21 17.6 14.2 7.9 44.1 3.7 56.4 -0.7 3.2 3 3.7 3.7 0.7 8.8-22.1 11.4-51.8-1.4-63.3zm-183.7 292c-30.8 18.4-73.3 31.7-94 16.1 -15.5-11.7-8.7-43.3 5-74.1 8.3 12.4 18.6 23.5 30.8 32.8 16.5 12.4 35.9 20.8 58.2 25.2zm-7-157.5c0.5-30.4 22.3-43.5 45.1-43.5 24.1 0 43.5 13.9 43.5 43.5l-88.7 0z" class="c"/><text font-family="Helvetica, Arial, sans-serif" font-size="90" y="116.7" x="28.3" class="d">  According to all known laws of aviation,</text><text font-family="Helvetica, Arial, sans-serif" font-size="90" y="241.1" x="28.3" class="d">  According to all known laws of aviation,</text><text font-family="Helvetica, Arial, sans-serif" font-size="90" y="398.4" x="28.3" class="d">  According to all known laws of aviation,</text><text font-family="Helvetica, Arial, sans-serif" font-size="90" y="519.1" x="28.3" class="d">  According to all known laws of aviation,</text><text font-family="Helvetica, Arial, sans-serif" font-size="90" y="1512.6" x="28.3" class="d">  According to all known laws of aviation,</text><path d="m1902.8 1525.9c-26.5-51.2 56-77.5 34.6-125.2 -34-30.5-85-23.4-127.4-21.1 -45.8-5.6-59.2 41.3-85.6 60.8 -52.1-16.3-33.4-83.8 14-91.2 62.1-26.9 130.6-11.4 195.1-23.3 46.7-27.2-11-85.5-47.7-91.7 -60.7-24.5-135.6-25.2-181.9-76.8 -18.4-40.2-13.7-113.8 36-127.9 22.5-38.1 17.8-87.2 11.9-129.5 5.1-45-94.8-18.6-52.9-64.8 37.8-29 86.5-46.7 134.2-46 38.9 1.3 41.6 46.1-1.3 35.1 -43.7 21.9-27.4 84.7-25.7 124.9 21.1 40.4 78.3 19.1 115.4 25.1 52.8 1.4 77.2 1.6 127.2 18.6 50.6-3.7 30.7-73.2 0.6-78 -46.3-10.2-92-36.4-117.9-76.8 -14.5-47.1 6-96.7 17-142.7 32.6-99.7 121.2-193.7 232-194 68 1 138 51.4 149.6 120.1 8.8 72.2-19.8 145.8-1.1 217 45.3 25-30.9 63.1-32.5 97.6 -19.3 50.2 24.8 108.5-13 153.7 -23.6 33.3-78.7 51.7-79.6 96 -13.6 39.9-76.2 36.9-107.5 62.9 -34.6 10.2-53.5 68.1-0.6 56.6 51.7-1.3 103.1-20.7 154.6-11.8 36.9 25.2-1.6 75.3-38.7 51.6 -19.4 0.3-91 10-66.6 30.9 61 14.3 127.2 32.7 166.7 85.3 37 49.4-45.2 61.2-61.6 17.8 -68.5-55.9-171.5-86.1-252-37.2 -48.7 20.4-37.4 72.9-42.5 112 -19.8 21.6-47.1-9-52.7-28.1l0 0zm356-546.7c-16.4-30.7-98.3-61-109.5-16.8 6.3 45 69.7 55.7 103.5 37.3 6.2-4.7 8.7-13.3 5.9-20.6l0 0z" style="fill:#fff;stroke-opacity:null;stroke-width:2;stroke:#000"/></svg>