<svg xmlns="http://www.w3.org/2000/svg" width="500" height="500" viewBox="0 0 500 500"><style>.a{stop-color:#AED2D4;}.b{stop-color:#ACD1D3;}.c{stop-color:#A4CCCE;}.d{stop-color:#97C4C7;}.e{stop-color:#84B9BC;}.f{stop-color:#6CABAF;}.g{stop-color:#5DA2A6;}.h{stop-color:#AE8DD4;}.i{stop-color:#AC8CD3;}.j{stop-color:#A489CE;}.k{stop-color:#9784C7;}.l{stop-color:#847EBC;}.m{stop-color:#6C75AF;}.n{stop-color:#5D6FA6;}.o{stop-color:#F4C9AB;}.p{stop-color:#F2C7A9;}.q{stop-color:#EAC0A2;}.r{stop-color:#DDB495;}.s{stop-color:#CCA585;}.t{stop-color:#544A36;}.u{stop-color:#3F3625;}.v{stop-color:#322A1A;}.w{stop-color:#2E2617;}.x{stop-color:#312816;}.y{stop-color:#3A2D13;}.z{stop-color:#4A350D;}.A{stop-color:#614105;}.B{stop-color:#704900;}.C{fill:#7C1975;}.D{stop-color:#FFF;}.E{stop-color:#D1D1D1;}.F{stop-color:#C6AF52;}.G{stop-color:#B7A14B;}.H{stop-color:#7A6B30;}</style><radialGradient cx="171.5" cy="226.9" r="198.4" gradientTransform="matrix(-1 0 0 1 449.5352 0)" gradientUnits="userSpaceOnUse"><stop offset="0" class="a"/><stop offset="0.3796" class="b"/><stop offset="0.567" class="c"/><stop offset="0.7123" class="d"/><stop offset="0.836" class="e"/><stop offset="0.9447" class="f"/><stop offset="1" class="g"/></radialGradient><path d="M92.9 233.1c0 0-6.1 41.8-7.8 67.4 -1.7 25.6-35.1 59.6 9.5 136.9 44.5 77.4 82.4-112.3 28.9-196.2" style="fill:url(#SVGID_1_);stroke:#000"/><radialGradient cx="84.7" cy="628.3" r="147.1" gradientTransform="matrix(-0.7657 0 0 0.5853 341.8252 -12.6543)" gradientUnits="userSpaceOnUse"><stop offset="0" class="a"/><stop offset="0.3796" class="b"/><stop offset="0.567" class="c"/><stop offset="0.7123" class="d"/><stop offset="0.836" class="e"/><stop offset="0.9447" class="f"/><stop offset="1" class="g"/></radialGradient><path d="M283.5 241.6c0 0 14.4 54.5 21.1 62.6 6.7 8.1 8.3 13.4 13.4 16.1 0 0-13-5.6-17.4-9.5 -4.4-3.9 8.2 78 24.4 96.6 0 0-0.6 19.5 3.2 30 0 0 2.8 8.1 3.6 16.9 0.9 8.8 1.7 11.1 2.8 14.3 0 0-4-1.8-5.5-4.7 -1.5-2.9-5.3-11.2-6.8-12.5 0 0-1.3 4.2-0.4 6.8 0 0-9-8.1-12.8-13 -3.8-4.9-89.7-162.3-89.7-162.3" style="fill:url(#SVGID_2_);stroke:#000"/><radialGradient cx="96.5" cy="295.3" r="66.3" gradientTransform="matrix(-0.9682 0.25 0.4911 1.9015 301.4445 -290.3821)" gradientUnits="userSpaceOnUse"><stop offset="0" class="a"/><stop offset="0.3796" class="b"/><stop offset="0.567" class="c"/><stop offset="0.7123" class="d"/><stop offset="0.836" class="e"/><stop offset="0.9447" class="f"/><stop offset="1" class="g"/></radialGradient><path d="M302 204.5c0 0 5 23.8 5.9 37.3 1 13.5 5.7 10.8 11.3 25.8 7.1 19.2 8 11.7 21.7 33.2 14.8 23.3 22.2 50 37 65.3 0 0-29.1-23.5-31.2-34.6 -2.1-11.1-8.1-10.4-11.6-14.8 0 0 17.8 41.8 21 62.4 0 0-15.9-30.1-22.2-38.5 -6.3-8.3-7.5-13.9-11.9-15.9 0 0 6.7 24.2 9.9 43.2 3.2 19 19.2 30.3 29.1 39 0 0-26.3-3.3-32.1-15.2 0 0 1.2 13.2 3.2 18.4 2 5.2 0.4 21.8-12.3 29.7 0 0 1.2-22.6 0.4-25.8 -0.8-3.2 0-0.4-2.4-4 -2.4-3.6-5.9-15.7-7.1-22.6 -1.2-6.9-2.9-2.3-4.5-7.3 0 0-3.6 13-8.2 17.4 0 0 5.8-34.4 5-55.4 0 0-0.4 2.8-3.8 7.5 0 0-4.5-58.1-13-78.5C277.7 250.7 302 204.5 302 204.5z" style="fill:url(#SVGID_3_);stroke:#000"/><radialGradient cx="172.7" cy="231.8" r="38.2" gradientTransform="matrix(-0.9956 -0.1063 -0.1269 1.5156 478.1786 -75.3121)" gradientUnits="userSpaceOnUse"><stop offset="0" class="h"/><stop offset="0.3796" class="i"/><stop offset="0.567" class="j"/><stop offset="0.7123" class="k"/><stop offset="0.836" class="l"/><stop offset="0.9447" class="m"/><stop offset="1" class="n"/></radialGradient><path d="M299.2 193.2c0 0-1.1 47.8-0.3 56.4 0.8 8.7-0.8 18.5-1.6 22.4 -0.8 3.9-1.1 40 0 48.7 0 0-1.9-31-11.1-60.6C286.3 260.1 280.7 128.7 299.2 193.2z" style="fill:url(#orange_2_);stroke:#000"/><radialGradient cx="167.1" cy="251.1" r="107.7" gradientTransform="matrix(-1 0 0 1 449.5352 0)" gradientUnits="userSpaceOnUse"><stop offset="0" class="a"/><stop offset="0.3796" class="b"/><stop offset="0.567" class="c"/><stop offset="0.7123" class="d"/><stop offset="0.836" class="e"/><stop offset="0.9447" class="f"/><stop offset="1" class="g"/></radialGradient><path d="M314 313.3c0 0 16.4 39.9 44.4 58.1 0 0-30.1-12.9-50.5-53.7" fill="url(#SVGID_4_)"/><path d="M314 313.3c0.6 1.4 1.3 2.8 2 4.2s1.4 2.8 2.1 4.1c0.7 1.4 1.5 2.7 2.2 4.1 0.7 1.4 1.5 2.7 2.3 4 0.8 1.3 1.6 2.6 2.4 4 0.8 1.3 1.6 2.6 2.5 3.9 0.8 1.3 1.7 2.6 2.6 3.8 0.9 1.3 1.8 2.5 2.7 3.8l2.8 3.7c0.9 1.2 1.9 2.4 2.9 3.6l1.5 1.8c0.5 0.6 1 1.1 1.6 1.7 1.1 1.1 2.1 2.3 3.1 3.4l3.3 3.2c1.1 1.1 2.3 2 3.5 3 1.2 1 2.3 2 3.6 2.9l3.7 2.7 -0.5 0.9c-1.5-0.7-2.8-1.4-4.2-2.2 -1.4-0.8-2.7-1.6-4-2.5 -1.3-0.9-2.6-1.7-3.9-2.7l-1.9-1.4 -1.8-1.5 -1.8-1.5 -1.8-1.5c-1.2-1-2.4-2-3.5-3.1 -1.1-1.1-2.3-2.1-3.4-3.3l-3.2-3.4c-1.1-1.2-2-2.4-3.1-3.6l-1.5-1.8 -1.4-1.9 -2.8-3.7 -2.6-3.9 -1.3-1.9c-0.4-0.7-0.8-1.3-1.2-2l-2.4-4c-0.4-0.7-0.8-1.4-1.1-2l-1.1-2.1 -2.1-4.2 2.3 4.1c0.8 1.4 1.5 2.8 2.3 4.1l2.5 4c0.4 0.7 0.8 1.3 1.3 2l1.4 1.9 2.7 3.8 2.9 3.7 1.4 1.8 1.5 1.8c1 1.2 2 2.4 3.1 3.5l3.2 3.4c1.1 1.1 2.2 2.2 3.4 3.2 1.1 1.1 2.3 2.1 3.5 3.1l1.8 1.5 1.8 1.4 1.8 1.4 1.9 1.4c1.2 0.9 2.6 1.8 3.8 2.6 1.3 0.8 2.6 1.7 4 2.4 1.3 0.8 2.7 1.5 4.1 2.1l-0.5 0.9 -3.8-2.7c-1.3-0.9-2.4-1.9-3.6-2.9 -1.2-1-2.4-2-3.5-3.1l-3.3-3.2c-1.1-1.1-2.1-2.3-3.2-3.4 -0.5-0.6-1.1-1.1-1.6-1.7l-1.5-1.8c-1-1.2-2-2.4-2.9-3.6l-2.8-3.7c-0.9-1.3-1.8-2.6-2.6-3.8 -0.9-1.3-1.7-2.6-2.5-3.9 -0.8-1.3-1.7-2.6-2.4-4 -0.8-1.3-1.6-2.6-2.3-4 -0.7-1.4-1.5-2.7-2.2-4.1 -0.7-1.4-1.4-2.7-2.1-4.1C316.5 319 315.2 316.2 314 313.3z"/><radialGradient cx="219.5" cy="255.3" r="86.3" gradientTransform="matrix(-0.9397 -0.2991 -0.2192 0.7099 488.61 139.7039)" gradientUnits="userSpaceOnUse"><stop offset="0" class="o"/><stop offset="0.459" class="p"/><stop offset="0.6856" class="q"/><stop offset="0.8607" class="r"/><stop offset="1" class="s"/></radialGradient><path d="M292.5 169.8c0 0-2 53.4-0.4 78 1.8 26.5-1.6 31-7.8 39.9 -9.4 13.5-13.6 17.5-19.1 26.3 -5.7 8.9-23.2 17.6-58.6 3.7 -48-18.9-67.9-33.6-77.3-73.3s-28.9-126 69.9-122.6C297.9 125.2 292.5 169.8 292.5 169.8z" style="fill:url(#SVGID_5_);stroke-width:2;stroke:#000"/><g opacity="0.8"><path d="M243.8 258c0 0 0.4 0.8 0.9 2 0.3 0.6 0.6 1.3 0.9 2.1 0.2 0.4 0.4 0.8 0.5 1.1 0.2 0.4 0.4 0.8 0.6 1.2 0.2 0.4 0.4 0.8 0.5 1.3 0.1 0.5 0.2 1 0 1.5 -0.2 0.5-0.7 0.9-1.1 1 -0.4 0.2-0.8 0.2-1.1 0.2 -0.2 0-0.4 0.2-0.4 0.5 -0.1 0.2-0.1 0.5-0.1 0.7 0 0.4 0 0.6 0 0.6s-0.1-0.2-0.2-0.6c0-0.2-0.1-0.4-0.1-0.7 0-0.1 0-0.3 0.1-0.5 0-0.1 0.1-0.2 0.2-0.2 0.1-0.1 0.2-0.1 0.3-0.2 0.4-0.1 0.7-0.2 1-0.4 0.3-0.2 0.5-0.4 0.5-0.6 0.1-0.3 0-0.6-0.1-1 -0.1-0.4-0.3-0.7-0.5-1.1 -0.2-0.4-0.4-0.8-0.6-1.2 -0.2-0.4-0.3-0.8-0.5-1.2 -0.3-0.8-0.5-1.5-0.7-2.2C243.9 258.9 243.8 258 243.8 258z"/></g><path d="M254.7 290.8c-1.1 0.7-2.4 1.3-3.6 1.8 -1.3 0.5-2.7 0.8-4.1 0.8 -0.4 0-0.7 0-1.1-0.1 -0.4 0-0.7-0.1-1.1-0.2 -0.4-0.1-0.7-0.2-1.1-0.4 -0.4-0.2-0.7-0.4-1-0.6 -0.3-0.3-0.6-0.5-0.8-0.8 -0.2-0.3-0.5-0.6-0.6-1 -0.2-0.3-0.3-0.7-0.5-1 -0.1-0.4-0.2-0.7-0.3-1.1l1.8 0.3c-0.5 0.7-1 1.4-1.5 2 -0.5 0.6-1.1 1.3-1.6 1.9 -0.6 0.6-1.2 1.2-1.8 1.7 -0.6 0.5-1.3 1-2.1 1.5 -0.7 0.4-1.5 0.8-2.3 1.1 -0.4 0.1-0.8 0.3-1.3 0.3 -0.4 0.1-0.9 0.1-1.3 0.1 -0.4 0-0.9-0.1-1.3-0.2 -0.4-0.1-0.8-0.3-1.2-0.5 -0.4-0.2-0.7-0.5-1-0.7 -0.3-0.3-0.6-0.6-0.8-0.9 0.4 0.2 0.7 0.5 1 0.6 0.3 0.2 0.7 0.3 1.1 0.4 0.4 0.1 0.7 0.2 1.1 0.2 0.4 0 0.7 0 1.1 0 0.4 0 0.7-0.1 1.1-0.2 0.4-0.1 0.7-0.3 1-0.4 0.3-0.2 0.7-0.3 1-0.5 0.3-0.2 0.6-0.4 0.9-0.6 1.2-0.9 2.3-2 3.4-3.1 0.5-0.6 1-1.2 1.5-1.8 0.5-0.6 1-1.2 1.4-1.9l1.2-1.7 0.6 2.1c0.1 0.3 0.1 0.6 0.2 0.9 0.1 0.3 0.2 0.5 0.3 0.8 0.1 0.3 0.3 0.5 0.4 0.7 0.2 0.2 0.3 0.4 0.5 0.6 0.2 0.2 0.4 0.3 0.7 0.5 0.2 0.1 0.5 0.3 0.8 0.4 0.3 0.1 0.6 0.2 0.8 0.3 0.3 0.1 0.6 0.1 0.9 0.1 0.6 0 1.3 0.1 1.9 0 0.6 0 1.3-0.1 1.9-0.2C252.1 291.6 253.4 291.2 254.7 290.8z"/><g opacity="0.5"><path d="M248.2 306.1c0 0-0.5-0.3-1.4-0.4 -0.4-0.1-0.9-0.1-1.5-0.1 -0.5 0-1.1 0.1-1.7 0.3 -0.3 0.1-0.6 0.2-0.8 0.3 -0.3 0.1-0.5 0.2-0.8 0.4 -0.2 0.1-0.5 0.3-0.7 0.4 -0.2 0.1-0.4 0.3-0.6 0.4 -0.4 0.2-0.6 0.5-0.8 0.6 -0.2 0.2-0.3 0.3-0.3 0.3s0.1-0.1 0.3-0.3c0.2-0.2 0.4-0.5 0.8-0.7 0.2-0.1 0.4-0.3 0.6-0.4 0.2-0.1 0.4-0.3 0.7-0.4 0.2-0.1 0.5-0.3 0.8-0.4 0.3-0.1 0.6-0.2 0.8-0.3 0.6-0.1 1.2-0.3 1.7-0.3 0.6 0 1.1 0.1 1.5 0.2C247.7 305.7 248.2 306.1 248.2 306.1z"/></g><path d="M267.2 223c0 0 0.1 0 0.3 0 0.2 0 0.5 0 0.8-0.1 0.7-0.1 1.6-0.2 2.5-0.4 0.5-0.1 0.9-0.3 1.3-0.4 0.4-0.2 0.8-0.4 1.1-0.6 0.3-0.2 0.5-0.4 0.7-0.5 0.2-0.2 0.2-0.2 0.2-0.2s0 0.1-0.1 0.3c-0.1 0.2-0.2 0.5-0.5 0.8 -0.2 0.3-0.5 0.7-0.9 1 -0.3 0.3-0.7 0.7-1.2 1 -0.8 0.6-1.7 1.2-2.4 1.5 -0.3 0.2-0.6 0.3-0.9 0.4 -0.2 0.1-0.4 0.2-0.4 0.2L267.2 223z"/><path d="M203.7 225.2c0 0-0.1-0.1-0.4-0.2 -0.2-0.1-0.5-0.2-0.9-0.4 -0.7-0.4-1.6-0.9-2.4-1.5 -0.4-0.3-0.8-0.7-1.2-1 -0.3-0.3-0.6-0.7-0.9-1 -0.2-0.3-0.4-0.6-0.5-0.8 -0.1-0.2-0.1-0.3-0.1-0.3s0.1 0.1 0.2 0.2c0.1 0.2 0.4 0.3 0.7 0.5 0.3 0.2 0.7 0.4 1.1 0.6 0.4 0.2 0.8 0.3 1.3 0.4 0.9 0.2 1.8 0.4 2.5 0.4 0.3 0 0.6 0.1 0.8 0.1 0.2 0 0.3 0 0.3 0L203.7 225.2z"/><radialGradient cx="412.1" cy="395.7" r="7.7" fx="413.202" fy="398.3774" gradientTransform="matrix(0.9899 0.0116 -0.3581 2.4451 -55.9987 -746.134)" gradientUnits="userSpaceOnUse"><stop offset="0" class="t"/><stop offset="0.1593" class="u"/><stop offset="0.3154" class="v"/><stop offset="0.4628" class="w"/><stop offset="0.6261" class="x"/><stop offset="0.7455" class="y"/><stop offset="0.8509" class="z"/><stop offset="0.9477" class="A"/><stop offset="1" class="B"/></radialGradient><path d="M208.7 254c-0.7 0.2-2.6-0.8-3.4-2.8 -2.6-6.5-6.1-16.8-0.1-29.9 0.7-1.6 1.7-2 2.9-2.2 1.2-0.1 3 0.6 3.7 2.1 2.8 5 5.2 14.4 0.2 29.9C211.3 253.1 209.4 253.8 208.7 254z" fill="url(#SVGID_6_)"/><path d="M208.7 254.1c-0.5 0.1-1-0.1-1.4-0.3 -0.4-0.2-0.8-0.5-1.2-0.8 -0.4-0.3-0.7-0.7-1-1.1 -0.3-0.4-0.5-0.9-0.7-1.3 -0.8-1.7-1.6-3.4-2.2-5.1 -0.3-0.9-0.6-1.8-0.9-2.7 -0.1-0.5-0.2-0.9-0.3-1.4 -0.1-0.5-0.2-0.9-0.3-1.4 -0.2-0.9-0.3-1.9-0.3-2.8 -0.1-1-0.1-1.9 0-2.9 0.1-1 0.1-1.9 0.2-2.9 0.1-1 0.3-1.9 0.5-2.8 0.2-0.9 0.5-1.8 0.7-2.8 0.3-0.9 0.7-1.8 1-2.7l1.2-2.6 0.2-0.3c0-0.1 0.1-0.2 0.2-0.3 0.2-0.3 0.4-0.5 0.6-0.8 0.4-0.5 1-0.8 1.6-1 0.3-0.1 0.6-0.2 0.9-0.2 0.2 0 0.2 0 0.5-0.1l0.2 0 0.3 0c0.7 0 1.2 0.2 1.7 0.4 1 0.5 2 1.3 2.5 2.4l0-0.1c0.4 0.7 0.7 1.4 1 2.1 0.3 0.7 0.5 1.4 0.8 2.2 0.2 0.7 0.4 1.5 0.6 2.2 0.1 0.7 0.3 1.5 0.4 2.2 0.1 0.8 0.2 1.5 0.2 2.3 0.1 0.8 0 1.5 0.1 2.3 0 0.8 0 1.5-0.1 2.3l-0.2 2.2 -0.3 2.2 -0.4 2.2c-0.2 0.7-0.4 1.4-0.5 2.2 -0.2 0.7-0.4 1.4-0.6 2.1 -0.2 0.7-0.4 1.4-0.7 2.1 -0.2 0.7-0.5 1.4-0.7 2.1 -0.3 0.7-0.7 1.4-1.3 1.8 -0.6 0.5-1.3 0.8-2 1L208.7 254.1zM208.7 253.8c0.7-0.2 1.4-0.5 1.9-0.9 0.5-0.5 1-1.1 1.2-1.7 0.2-0.7 0.4-1.4 0.6-2.1 0.2-0.7 0.4-1.4 0.5-2.1 0.1-0.7 0.3-1.4 0.4-2.2 0.1-0.7 0.3-1.4 0.3-2.2l0.3-2.2 0.2-2.2 0.1-2.2c0-0.7 0-1.4 0-2.2 -0.1-0.7-0.1-1.4-0.2-2.1 -0.1-0.7-0.2-1.4-0.3-2.1 -0.1-0.7-0.3-1.4-0.4-2.1 -0.2-0.7-0.4-1.4-0.6-2 -0.2-0.7-0.5-1.3-0.8-2 -0.3-0.6-0.6-1.3-1-1.9l0-0.1c-0.3-0.5-0.8-1.1-1.5-1.3 -0.3-0.1-0.7-0.3-0.9-0.3h-0.1l-0.2 0.2 -0.2 0.1c-0.2 0-0.3 0.1-0.5 0.2 -0.3 0.1-0.4 0.3-0.6 0.5 -0.1 0.1-0.2 0.2-0.2 0.3 0 0-0.1 0.1-0.1 0.2l-0.1 0.3 -0.9 2.4c-0.3 0.8-0.5 1.7-0.8 2.5 -0.2 0.9-0.5 1.7-0.6 2.6 -0.2 0.9-0.3 1.7-0.4 2.6 -0.1 0.9-0.2 1.7-0.2 2.6 0 0.9-0.1 1.7 0 2.6 0 0.9 0 1.7 0.1 2.6 0.1 0.9 0.2 1.8 0.3 2.6 0.1 0.4 0.1 0.9 0.2 1.3l0.2 1.3c0.3 1.8 0.8 3.5 1.3 5.3 0.1 0.4 0.3 0.9 0.4 1.3 0.1 0.4 0.4 0.8 0.6 1.1 0.3 0.3 0.6 0.6 1 0.9 0.4 0.2 0.8 0.4 1.2 0.4L208.7 253.8z" class="C"/><radialGradient cx="495.6" cy="415.3" r="7.9" fx="496.6993" fy="418.0068" gradientTransform="matrix(0.9213 0.0173 -0.345 2.5699 -46.0852 -849.6717)" gradientUnits="userSpaceOnUse"><stop offset="0" class="t"/><stop offset="0.1593" class="u"/><stop offset="0.3154" class="v"/><stop offset="0.4628" class="w"/><stop offset="0.6261" class="x"/><stop offset="0.7455" class="y"/><stop offset="0.8509" class="z"/><stop offset="0.9477" class="A"/><stop offset="1" class="B"/></radialGradient><path d="M265.9 253.7c-0.7 0.2-2.5-0.8-3.3-2.8 -2.5-6.5-5.9-16.8-0.3-29.7 0.7-1.6 1.6-2 2.7-2.1 1.1-0.1 2.9 0.6 3.6 2.1 2.7 5 5.1 14.3 0.4 29.7C268.4 252.9 266.6 253.6 265.9 253.7z" fill="url(#SVGID_7_)"/><path d="M265.9 253.9c-0.5 0.1-1-0.1-1.4-0.3 -0.4-0.2-0.8-0.5-1.2-0.8 -0.4-0.3-0.7-0.7-0.9-1.1 -0.3-0.4-0.5-0.9-0.6-1.3 -0.8-1.6-1.5-3.3-2.1-5.1 -0.3-0.9-0.6-1.8-0.9-2.7 -0.2-0.9-0.5-1.8-0.6-2.7 -0.2-0.9-0.3-1.9-0.3-2.8 -0.1-0.9-0.1-1.9-0.1-2.8 0-0.9 0.1-1.9 0.2-2.8 0.1-0.5 0.1-0.9 0.2-1.4l0.3-1.4c0.2-0.9 0.4-1.8 0.7-2.7 0.3-0.9 0.6-1.8 0.9-2.7 0.3-0.9 0.7-1.7 1.1-2.6l0.1-0.1 0-0.1 0.1-0.1 0.2-0.3c0.2-0.3 0.3-0.6 0.6-0.8 0.4-0.5 1-0.9 1.6-1.1 0.3-0.1 0.6-0.2 0.9-0.2 0.3 0 0.6-0.1 0.9-0.1 0.7 0 1.2 0.2 1.8 0.4 1 0.5 2 1.3 2.5 2.4l0-0.1c0.3 0.7 0.7 1.4 0.9 2.1 0.3 0.7 0.5 1.4 0.7 2.2 0.2 0.7 0.4 1.5 0.6 2.2 0.1 0.7 0.3 1.5 0.4 2.2 0.1 0.7 0.2 1.5 0.2 2.2 0.1 0.7 0.1 1.5 0.1 2.2 0 0.7 0 1.5 0 2.2l-0.2 2.2 -0.3 2.2c-0.1 0.7-0.3 1.4-0.4 2.2 -0.1 0.7-0.3 1.4-0.5 2.1 -0.2 0.7-0.4 1.4-0.6 2.1 -0.2 0.7-0.4 1.4-0.6 2.1l-0.7 2.1c-0.3 0.7-0.7 1.4-1.2 1.8 -0.6 0.5-1.2 0.9-2 1.1L265.9 253.9zM265.9 253.6c1.4-0.3 2.6-1.4 3-2.7 0.4-1.4 0.7-2.8 1-4.2 0.1-0.7 0.3-1.4 0.4-2.1 0.1-0.7 0.2-1.4 0.3-2.1l0.2-2.1 0.1-2.1 0-2.1c0-0.7 0-1.4 0-2.1 -0.1-0.7-0.1-1.4-0.2-2.1 -0.1-0.7-0.2-1.4-0.3-2.1 -0.1-0.7-0.3-1.4-0.4-2.1 -0.2-0.7-0.4-1.4-0.6-2 -0.2-0.7-0.5-1.3-0.8-2 -0.3-0.6-0.6-1.3-0.9-1.9l0-0.1c-0.3-0.5-0.8-1-1.4-1.2 -0.3-0.1-0.7-0.2-0.8-0.2 -0.1 0-0.3 0-0.5 0.1 -0.1 0-0.3 0.1-0.4 0.1 -0.2 0.1-0.4 0.2-0.6 0.5 -0.1 0.1-0.1 0.2-0.2 0.3l-0.1 0.3 -0.1 0.2 0 0.1 0 0c0 0 0 0.1 0-0.1l0 0 0 0c-0.3 0.8-0.6 1.6-0.9 2.5 -0.2 0.8-0.5 1.7-0.7 2.5 -0.2 0.8-0.4 1.7-0.5 2.5l-0.2 1.3 -0.1 1.3c-0.1 0.9-0.1 1.7-0.2 2.6 0 0.9-0.1 1.7 0 2.6l0 1.3 0.1 1.3c0.1 0.9 0.2 1.7 0.3 2.6 0.1 0.4 0.1 0.9 0.2 1.3l0.2 1.3c0.3 1.7 0.7 3.5 1.2 5.2l0.4 1.3c0.1 0.4 0.3 0.8 0.6 1.1 0.3 0.3 0.6 0.7 0.9 0.9 0.4 0.2 0.8 0.4 1.1 0.4L265.9 253.6z" class="C"/><radialGradient cx="132.3" cy="60.9" r="56.1" gradientTransform="matrix(-0.9847 -0.1744 -0.2365 1.3354 461.9034 2.6657)" gradientUnits="userSpaceOnUse"><stop offset="0" class="a"/><stop offset="0.3796" class="b"/><stop offset="0.567" class="c"/><stop offset="0.7123" class="d"/><stop offset="0.836" class="e"/><stop offset="0.9447" class="f"/><stop offset="1" class="g"/></radialGradient><path d="M231.5 97.4c0 0 13-10 15.6-17.4 2.6-7.4 7.7-10.8 11.9-18 0 0 0.8 5.3-0.3 9 0 0 6.1-9.5 10.6-11.1 4.5-1.6 7.1-5.5 12.4-6.9 5.3-1.3 6.3-1.3 7.7-4.2 1.3-2.9 9.3-21.7 2.4-25.6 0 0 9 2.9 9.3 10.6 0 0 2.8-3.3 5.4-4 2.6-0.7 1.4-3.2 4.1-3.3 2.7-0.1 0.9-5.8 4-9 3.1-3.2 1 4.5 2 7 0 0 9.6-6.8 8.8-13.2 0 0 1.7 0.7 1.7 2.2 0 0 3.3-7.7 0 6.3 -3.3 14-6 18.8-8.6 29.5 -2.6 10.7-3 14.3-2.6 19 0.4 4.8-1.8 3-1.4 12.1 0.4 9.1-10.7 23.2-8.1 49.8C308.8 156.7 231.5 97.4 231.5 97.4z" style="fill:url(#SVGID_8_);stroke:#000"/><radialGradient cx="179.8" cy="91.7" r="41.1" gradientTransform="matrix(-0.9915 -0.1302 -0.2117 1.6116 467.4082 -32.6599)" gradientUnits="userSpaceOnUse"><stop offset="0" class="o"/><stop offset="0.459" class="p"/><stop offset="0.6856" class="q"/><stop offset="0.8607" class="r"/><stop offset="1" class="s"/></radialGradient><path d="M269.9 114.5c0 0 7.1-6.5 7.7-11.9 0.6-5.4 13.3-21.6 20.7-32.7 5.9-8.8 12.2-27.2 17.9-32.7 0 0 4.8-2.6 0.9 9.5 -4 12.1-1.7 11.1-3.7 19.8 -2 8.7-4.6 14.7-4.4 20.2 0.2 5.6-8.7 26.8-6.3 50C305.2 159.9 269.9 114.5 269.9 114.5z" style="fill:url(#SVGID_9_);stroke-width:0.8;stroke:#000"/><radialGradient cx="161.2" cy="109.5" r="18.7" gradientTransform="matrix(-1 0 0 1 449.5352 0)" gradientUnits="userSpaceOnUse"><stop offset="0" class="D"/><stop offset="1" class="E"/></radialGradient><path d="M283.2 91.9c0 0 0.1 4.4 3.2 2.5 0 0-2.7 4.8-1.5 9.1 0 0 7.6-12.4 11.8-11.5 0 0 0.8 3.6-2.9 11.4 0 0 9.4-2.1 14.4-7 0 0-9.4 9.9-13 9.8 0 0 11.1 2 12.9-1.6 0 0-1.7 14.9-13.4 22.5l-26.2-11.2c0 0 5.2-5.1 6.9-7.7 1.8-2.7 2.1-6.1 2.7-7.5C278.8 99.2 283.2 91.9 283.2 91.9z" fill="url(#SVGID_10_)"/><path d="M283.3 91.9c0.1 0.9 0.3 1.8 0.9 2.4 0.3 0.3 0.6 0.4 1 0.4 0.4-0.1 0.8-0.2 1.1-0.5l0.8-0.5 -0.4 0.9c-0.7 1.4-1.2 2.9-1.5 4.4 -0.1 0.8-0.2 1.5-0.2 2.3 0 0.4 0 0.8 0.1 1.1 0 0.4 0.1 0.7 0.2 1.1l-0.7-0.1c1.5-2.4 3.2-4.8 5-7 0.9-1.1 1.9-2.2 3-3.1 0.6-0.5 1.2-0.9 1.9-1.2 0.7-0.3 1.5-0.6 2.3-0.4l0.3 0.1 0.1 0.3c0.1 0.3 0.1 0.5 0.1 0.8 0 0.3 0 0.5 0 0.8 0 0.5-0.1 1-0.2 1.5 -0.2 1-0.4 2-0.7 2.9 -0.3 1-0.6 1.9-1 2.8 -0.4 0.9-0.8 1.8-1.2 2.7l-0.4-0.5c2.6-0.6 5.1-1.5 7.6-2.5 0.6-0.3 1.2-0.6 1.8-0.9 0.6-0.3 1.2-0.6 1.8-1 0.6-0.4 1.1-0.7 1.6-1.1 0.5-0.4 1-0.8 1.5-1.3l0.3 0.3c-1.9 2-3.9 3.9-6 5.7 -1 0.9-2.1 1.8-3.3 2.5 -0.6 0.4-1.2 0.8-1.8 1.1 -0.6 0.3-1.3 0.6-2.1 0.6l0-0.4c2.2 0.3 4.5 0.5 6.7 0.5 1.1 0 2.2-0.1 3.3-0.4 0.5-0.1 1-0.3 1.5-0.6 0.2-0.1 0.4-0.3 0.6-0.5 0.2-0.2 0.3-0.4 0.4-0.6l0.8-1.4 -0.2 1.6c-0.3 2.3-0.9 4.5-1.6 6.6 -0.7 2.1-1.6 4.2-2.7 6.2 -1.1 2-2.4 3.9-3.9 5.6 -0.4 0.4-0.8 0.8-1.2 1.2 -0.4 0.4-0.8 0.8-1.3 1.2 -0.4 0.4-0.9 0.7-1.3 1.1 -0.4 0.4-0.9 0.7-1.4 1l-0.2 0.1 -0.3-0.1c-4.4-1.8-8.7-3.7-13.1-5.6l-6.5-2.8 -6.5-2.9 -0.6-0.3 0.5-0.4c1.7-1.6 3.4-3.3 4.9-5.1 0.8-0.9 1.5-1.8 2.2-2.7 0.3-0.5 0.6-1 0.8-1.5 0.2-0.5 0.4-1.1 0.6-1.6 0.4-1.1 0.6-2.3 0.9-3.4 0.2-0.6 0.5-1.1 0.8-1.6l0.9-1.5c1.2-2 2.5-4 3.8-6l0.1-0.1L283.3 91.9zM283.2 92.1c-1.2 2-2.3 4-3.5 6l-0.8 1.6c-0.3 0.5-0.6 1-0.7 1.6 -0.3 1.1-0.5 2.3-0.9 3.5 -0.2 0.6-0.4 1.1-0.6 1.7 -0.2 0.6-0.5 1.1-0.8 1.6 -0.7 1-1.4 2-2.2 2.9 -1.6 1.8-3.2 3.5-4.9 5.2l-0.1-0.7 6.6 2.7 6.5 2.8c4.4 1.9 8.7 3.7 13.1 5.6l-0.5 0c0.4-0.3 0.9-0.6 1.4-0.9 0.4-0.3 0.9-0.7 1.3-1 0.4-0.3 0.8-0.7 1.2-1.1 0.4-0.4 0.8-0.8 1.1-1.2 1.5-1.6 2.8-3.4 3.9-5.4 1.1-1.9 2-3.9 2.8-6 0.7-2.1 1.3-4.3 1.7-6.4l0.6 0.2c-0.2 0.3-0.3 0.5-0.6 0.8 -0.2 0.2-0.5 0.4-0.7 0.5 -0.5 0.3-1.1 0.5-1.7 0.6 -1.1 0.3-2.3 0.3-3.4 0.4 -2.3 0-4.5-0.2-6.8-0.6l0-0.4c0.6 0 1.3-0.2 1.9-0.5 0.6-0.3 1.2-0.6 1.8-1 1.1-0.8 2.2-1.6 3.3-2.5 2.1-1.8 4.1-3.7 6-5.7l0.3 0.3c-0.5 0.5-1 0.9-1.5 1.3 -0.5 0.4-1.1 0.8-1.7 1.2 -0.6 0.4-1.2 0.7-1.8 1 -0.6 0.3-1.2 0.6-1.8 0.9 -2.5 1.1-5 2.1-7.7 2.8l-0.7 0.2 0.3-0.7c0.4-0.9 0.8-1.8 1.1-2.7 0.3-0.9 0.7-1.8 0.9-2.8 0.3-0.9 0.5-1.9 0.6-2.8 0.1-0.5 0.1-1 0.1-1.4 0-0.2 0-0.5 0-0.7 0-0.2 0-0.5-0.1-0.7l0.3 0.3c-0.6-0.1-1.2 0.1-1.8 0.4 -0.6 0.3-1.1 0.7-1.7 1.1 -1.1 0.9-2 1.9-3 3 -1.8 2.1-3.5 4.5-5 6.8l-0.5 0.8 -0.2-0.9c-0.1-0.4-0.2-0.8-0.2-1.2 -0.1-0.4-0.1-0.8-0.1-1.2 0-0.8 0.1-1.6 0.3-2.4 0.3-1.6 0.9-3.1 1.7-4.5l0.4 0.3c-0.4 0.2-0.8 0.4-1.3 0.4 -0.5 0-1-0.2-1.3-0.6 -0.3-0.4-0.5-0.8-0.6-1.2C283.2 92.9 283.2 92.5 283.2 92.1z"/><radialGradient cx="188.8" cy="126.5" r="113.4" gradientTransform="matrix(-0.9903 -0.139 -0.0861 0.6137 458.599 75.1076)" gradientUnits="userSpaceOnUse"><stop offset="0" class="a"/><stop offset="0.3796" class="b"/><stop offset="0.567" class="c"/><stop offset="0.7123" class="d"/><stop offset="0.836" class="e"/><stop offset="0.9447" class="f"/><stop offset="1" class="g"/></radialGradient><path d="M238.5 270c0 0 2.6-6.3 3.5-8.2 0.9-1.9 1.8-4.2 1-5.9 0 0-0.5 0.8-0.6 1.7 0 0 0.1-4.3 1.2-6.7 0 0-1.5-5.1-3.8-7.9 0 0 0 1.6-1 3.2 0 0-3.2-7.6-6.7-10 0 0 0.2 1-0.4 2.3 0 0-3.9-9-6.7-13 0 0 4.8-14.7 4-30 0 0 0 0.5-0.5 1.5 0 0-0.6-2.4-1.1-3.2 0 0 2.1 8.7-0.8 15.6 -2.9 6.9-2.9 3.5-5.5 8 0 0 1.4-19.2-0.6-23.1 0 0-0.9 16.1-3.1 19.5 0 0-2.1-8.4-2-19.1 0.1-10.7-3.9-17.2-5.7-20.4 0 0-2.3 28.1-20.6 43.2 0 0-1.9-5.5-4-9.8 -2.1-4.2-3.2-11.1-2.8-16.4 0 0-0.7 4.8 1 11.8 0 0-5.7-6.7-6.3-4.2 -0.6 2.5-4.4 9.8-8.2 12 0 0-3.5 2.8-2.6 9.1 0.9 6.3 1.7 8.2 2.7 10.6 1 2.4 0.3 3.4-3.5 0.2 -3.8-3.2-1.4-4.2-5-9.7 -3.6-5.6-2.5-6-4-3.4 0 0-1.4-15.7-13.2-31.8 -11.8-16.2 8 151.5 3.3 175.7 -4.8 24.2-2.8 5.2-11.9-12.3 0 0 0.4 10.9-1.8 16.1 0 0-1.4-4.4-3.2-8.5 -1.8-4.2-2.8-19.6-5.9-27.6 -3.2-7.9 0.4-9.1-1.8-28.1 -2.2-19-20-15.3-26-32.7 -5.9-17.4-1.5-16.3-3.6-36.6 -2.1-20.4-1.5-20.3-1.1-24.3 0.4-4-2-13.7-0.2-23.4 1.8-9.7-0.8-31.9 1.8-40.4 2.6-8.5-1.3-59.1 80.7-48.6 0 0 4.4 0.8 7.3-0.8 2.9-1.6 5.4-2.8 7.5-2.6 2.1 0.1-5.7 5.9 8.2-1.3 13.9-7.3 13.3-2.6 26-4.6 0 0-2 2-3.7 1.3 0 0 9 3.3 14 1.7 0 0-1.7 1.3-4.4 1.1 0 0 0.3 2.4 9.1 4 8.9 1.6 9.8 6.5 14.9 9.3 5.2 2.8 21.3 7.9 25.2 12.1 4 4.2 27.4 9.5 31.7 18 4.4 8.5 6.1 19.4 4.2 26.4 -2 6.9 1.7 16.3 0.6 26.1 -1.1 9.8-8.6 36.9-9.9 53.8 0 0-4.9-17.7-6.1-30.1 -1.2-12.4-6.2-21.1-4.5-27.9 0 0-2.4 25.4-2.2 29 0.3 3.6-5 11.5-3.3 14.9 0 0-6.5-8.5-10.9-9.9 0 0-24.8-18.2-31.9-29.3 0 0-0.6 4.4 0.4 9.7 1 5.4-4.4 7.4-3.6 11 0 0-1 0.3-1.3-1.4 0 0-6.5 11.7-6.6 17.9 0 0 3.5 4.4 5.8 6.7 0 0-1.2 0.6-1.9-0.3 0 0 2.9 6.3 7 9.5 4.5 3.5 4 2.9 6.5 3.8 0 0-1.3 1.5-1.9 0.9 0 0 1.2 10.3-4.5 14C245.4 258.2 243.6 265.3 238.5 270z" style="fill:url(#p_1_);stroke:#000"/><radialGradient cx="194.4" cy="207.5" r="73.7" gradientTransform="matrix(-0.6986 -0.7155 -0.2392 0.2336 440.594 298.0844)" gradientUnits="userSpaceOnUse"><stop offset="0" class="h"/><stop offset="0.3796" class="i"/><stop offset="0.567" class="j"/><stop offset="0.7123" class="k"/><stop offset="0.836" class="l"/><stop offset="0.9447" class="m"/><stop offset="1" class="n"/></radialGradient><path d="M232.7 155.3c0 0 4.7 20.5 7.2 26.7 0 0 1-6.5 1.1-8.5 0 0 6.5 21.5 8.9 25.3 0 0-1.2-3.6-1.5-5.8 0 0 10.8 19.7 31.2 33.1 0 0-9.8-30.1-9.6-42.2" fill="url(#SVGID_11_)"/><path d="M232.7 155.3c1.1 4.5 2.2 9 3.4 13.4 0.6 2.2 1.2 4.4 1.9 6.7 0.7 2.2 1.3 4.4 2.2 6.5l-0.6 0.1c0.2-1.4 0.4-2.8 0.6-4.2l0.3-2.1 0.2-2.1 0.2-1.7 0.5 1.6c1.3 4.3 2.7 8.5 4.2 12.8 0.7 2.1 1.4 4.2 2.2 6.3 0.4 1 0.8 2.1 1.2 3.1 0.4 1 0.9 2.1 1.4 3l-0.8 0.4c-0.3-1-0.6-1.9-0.9-2.9 -0.3-1-0.5-2-0.6-3l-0.4-2.5 1.2 2.2c0.9 1.6 2 3.2 3 4.8 1.1 1.6 2.2 3.1 3.3 4.6 2.3 3 4.7 6 7.3 8.7 2.6 2.8 5.3 5.4 8.2 7.9 1.4 1.2 2.9 2.4 4.4 3.6 0.8 0.6 1.5 1.1 2.3 1.7 0.8 0.6 1.6 1.1 2.4 1.6l-0.6 0.5c-2.2-6.9-4.1-13.9-5.9-20.9 -0.9-3.5-1.6-7.1-2.3-10.6 -0.6-3.6-1.2-7.2-1.1-10.8 0.1 3.6 0.7 7.2 1.4 10.7 0.7 3.5 1.6 7.1 2.5 10.6 1.8 7 3.9 13.9 6.1 20.8l0.4 1.1 -1-0.7c-3.2-2.1-6.3-4.4-9.2-6.9 -2.9-2.5-5.7-5.1-8.3-7.9 -2.6-2.8-5.1-5.7-7.4-8.8 -1.2-1.5-2.3-3.1-3.3-4.7 -1.1-1.6-2.1-3.2-3.1-4.9l0.9-0.3c0.1 1 0.4 1.9 0.6 2.9 0.3 1 0.5 1.9 0.8 2.9l-0.8 0.4c-0.6-1-1-2.1-1.4-3.1 -0.4-1-0.8-2.1-1.2-3.2 -0.8-2.1-1.5-4.2-2.2-6.4 -1.4-4.3-2.7-8.5-4-12.8l0.7-0.1 -0.2 2.2 -0.3 2.1c-0.2 1.4-0.4 2.8-0.6 4.2l-0.2 1.1 -0.4-1.1c-0.8-2.2-1.5-4.4-2.1-6.6 -0.6-2.2-1.2-4.5-1.7-6.7C234.7 164.3 233.6 159.8 232.7 155.3z"/><radialGradient cx="164.1" cy="154.9" r="36.1" gradientTransform="matrix(-1 0 0 1 449.5352 0)" gradientUnits="userSpaceOnUse"><stop offset="0" class="a"/><stop offset="0.3796" class="b"/><stop offset="0.567" class="c"/><stop offset="0.7123" class="d"/><stop offset="0.836" class="e"/><stop offset="0.9447" class="f"/><stop offset="1" class="g"/></radialGradient><path d="M308.4 154.5c0 0 3.2 2 4 3.6 0.8 1.6 25.4-4.4 28.5-11.5 0 0 0.6 5.6-8.9 9.1 0 0-1.2 3.4-4.2 6.1 -3 2.8-5.6 3.2-8.1 5.2 0 0 8.9 0.4 11.7 2 2.8 1.6-7.3 12.1-25.6 8.9" fill="url(#SVGID_12_)"/><path d="M308.4 154.5c1.3 0.8 2.6 1.7 3.6 2.9l0.3 0.5c0.1 0.2 0.2 0.2 0.4 0.3 0.4 0.1 0.7 0 1.1 0 0.8-0.1 1.5-0.2 2.3-0.3 3-0.6 6-1.4 8.9-2.4 2.9-1 5.8-2.1 8.5-3.5 1.4-0.7 2.7-1.5 3.9-2.4 1.2-0.9 2.4-1.9 2.9-3.2l0.7-1.6 0.1 1.7c0 0.4 0 0.6 0 1 0 0.3-0.1 0.6-0.2 0.9 -0.2 0.6-0.4 1.1-0.7 1.7l-0.5 0.8 -0.5 0.7c-0.4 0.4-0.8 0.9-1.2 1.2 -0.2 0.2-0.4 0.4-0.7 0.6l-0.7 0.5c-0.2 0.2-0.5 0.3-0.7 0.5l-0.7 0.4c-0.5 0.3-1 0.5-1.5 0.8l-1.6 0.7 0.3-0.3c-0.3 0.7-0.6 1.4-0.9 2 -0.4 0.6-0.7 1.3-1.2 1.9 -0.2 0.3-0.4 0.6-0.7 0.9 -0.2 0.3-0.5 0.6-0.7 0.8l-0.8 0.8 -0.8 0.7c-0.3 0.2-0.6 0.4-0.9 0.7 -0.3 0.2-0.6 0.4-0.9 0.6 -0.6 0.4-1.3 0.7-1.9 1.1 -0.6 0.3-1.3 0.6-1.9 1 -0.6 0.3-1.2 0.7-1.7 1.1l-0.3-0.8c1.8 0.1 3.5 0.2 5.3 0.5 1.7 0.2 3.5 0.5 5.2 1 0.4 0.1 0.9 0.3 1.3 0.5l0.1 0 0 0 0 0 0.1 0 0 0 0.1 0.1c0.1 0 0.2 0.3 0.3 0.4 0.1 0.3 0.1 0.6 0.1 0.9 -0.2 1.1-0.8 1.7-1.4 2.4 -1.3 1.3-2.8 2.3-4.3 3.1 -3.2 1.6-6.6 2.5-10.1 2.9 -0.9 0.1-1.8 0.1-2.6 0.1 -0.9 0-1.8 0-2.6-0.1 -0.9-0.1-1.8-0.1-2.6-0.2 -0.9-0.1-1.7-0.3-2.6-0.4 0.9 0.1 1.7 0.2 2.6 0.3 0.9 0.1 1.7 0.1 2.6 0.2 0.9 0 1.7 0 2.6 0 0.9-0.1 1.7-0.1 2.6-0.2 1.7-0.2 3.4-0.6 5.1-1.1 0.8-0.3 1.6-0.5 2.4-0.9 0.8-0.3 1.6-0.7 2.3-1.1 1.5-0.8 2.9-1.8 4.1-3.1 0.5-0.6 1.1-1.3 1.2-2 0-0.2 0-0.3 0-0.4 -0.1 0 0 0-0.1-0.1l-0.1-0.1 0 0c0 0 0.1 0 0 0l0 0 0 0 -0.1 0c-0.4-0.2-0.7-0.3-1.1-0.5 -1.6-0.5-3.4-0.7-5.1-1 -1.7-0.2-3.5-0.3-5.2-0.4l-1.3-0.1 1-0.8c0.6-0.4 1.2-0.9 1.8-1.2 0.6-0.4 1.3-0.7 1.9-1 0.6-0.3 1.2-0.7 1.8-1 0.3-0.2 0.6-0.4 0.9-0.6 0.3-0.2 0.6-0.4 0.8-0.6l0.8-0.7 0.7-0.7c0.3-0.2 0.5-0.5 0.7-0.8 0.2-0.3 0.4-0.5 0.6-0.8 0.4-0.6 0.8-1.1 1.1-1.8 0.3-0.6 0.7-1.2 0.9-1.9l0.1-0.2 0.2-0.1 1.5-0.6c0.5-0.2 1-0.5 1.5-0.7l0.7-0.4c0.2-0.1 0.5-0.3 0.7-0.4l0.7-0.5c0.2-0.1 0.4-0.3 0.6-0.5 0.4-0.3 0.8-0.7 1.2-1.1l0.5-0.6 0.4-0.7c0.2-0.5 0.5-0.9 0.6-1.5 0.1-0.2 0.1-0.5 0.2-0.8 0-0.2 0.1-0.5 0-0.7l0.8 0.1c-0.7 1.5-2 2.6-3.3 3.6 -1.3 0.9-2.7 1.7-4.1 2.4 -2.8 1.4-5.7 2.4-8.7 3.4 -3 0.9-6 1.7-9.1 2.2 -0.8 0.1-1.5 0.2-2.3 0.2 -0.4 0-0.8 0-1.2-0.1 -0.1 0-0.2 0-0.3-0.1 -0.1-0.1-0.1-0.2-0.2-0.3l-0.3-0.5c-0.5-0.6-1-1.1-1.6-1.6C309.7 155.4 309 154.9 308.4 154.5z"/><radialGradient cx="163.5" cy="149.3" r="48.6" gradientTransform="matrix(-0.9855 0 0 1 444.7168 0)" gradientUnits="userSpaceOnUse"><stop offset="0" class="a"/><stop offset="0.3796" class="b"/><stop offset="0.567" class="c"/><stop offset="0.7123" class="d"/><stop offset="0.836" class="e"/><stop offset="0.9447" class="f"/><stop offset="1" class="g"/></radialGradient><path d="M310.3 181.7c0 0 15.2 5.8 19.5 4.2 0 0-11.3 10.1-21.1 2.2 0 0 6.6 21.8 10.6 26.6 0 0-21.5-13.1-25.4-31.5" style="fill:url(#SVGID_13_);stroke:#000"/><radialGradient cx="371.7" cy="269.7" r="51.8" gradientTransform="matrix(-1 0 0 1 449.5352 0)" gradientUnits="userSpaceOnUse"><stop offset="0" class="h"/><stop offset="0.3796" class="i"/><stop offset="0.567" class="j"/><stop offset="0.7123" class="k"/><stop offset="0.836" class="l"/><stop offset="0.9447" class="m"/><stop offset="1" class="n"/></radialGradient><path d="M123.2 180.1c0 0-11.1 31.7-11.4 45.2 -0.3 13.5-4.2 9-4.8 21.7 0 0 2.4-0.5 4.2-2.9 0 0-6.6 44.7-16.6 57.9 0 0 13-3.4 22.5-30.7 0 0-1.7 13.5-3.2 18.1 -1.5 4.6-1.1 7.3-0.1 9.5 0 0 7.3-6.7 8.2-19.8 0 0-0.7 19-6.9 23.4 0 0 5-2.5 6.1-5 0 0-7.8 16.3-6.7 21.8 0 0 16.3-18.6 18.9-28.1C136 281.6 123.2 180.1 123.2 180.1z" style="fill:url(#SVGID_14_);stroke:#000"/><radialGradient cx="250" cy="312.5" r="157.4" gradientTransform="matrix(-0.3119 -0.9501 -0.3613 0.1186 390.4221 512.9282)" gradientUnits="userSpaceOnUse"><stop offset="0" class="a"/><stop offset="0.3796" class="b"/><stop offset="0.567" class="c"/><stop offset="0.7123" class="d"/><stop offset="0.836" class="e"/><stop offset="0.9447" class="f"/><stop offset="1" class="g"/></radialGradient><path d="M167.8 162.1c0 0-16.1 21.9-19 48.4 -2.9 26.4 0.2 51.5 24.2 82 0 0-3.9-1.9-5.7-4.2 0 0-0.4 1.9 0.9 3.9 0 0-11.1-15.2-15-22.4 0 0-1.3 1.6-0.3 3.5 0 0-3.7-5.6-3.8-7.6 0 0 3.7 26.3 7.4 34.5 3.7 8.2 0 20.9 12.2 39.6 12.2 18.8 21.1 29.1 25.6 36.5 4.5 7.4 9.5 28.9 14.3 33.2 0 0-9.3-2.4-13.5-5.9 0 0 6.9 13 7.7 18.1 0 0-12.7-8.3-17.8-18.4 0 0-1.4 4.8-0.4 6.7 0 0-5-7.9-5-10.3 0 0 0.6 13.9 2.6 18 0 0-3.6-8.9-7.3-11.9 -3.8-3-5.5-8.3-7.3-12.3 -1.8-4-5.4 6.9-9.5 11.1 0 0-0.4-20.6-3.8-29.1 0 0-0.3 6.6-0.8 10.8 0 0 1.3-14.3-12.4-48.4 -13.7-34.1-10-46.5-10-61.8 0-15.3-4-26.4-8.2-41 -4.2-14.5-8.7-44.1-4.2-57.6 4.5-13.5 1.6-14.3 16.1-35.9" style="fill:url(#SVGID_15_);stroke:#000"/><radialGradient cx="277.8" cy="74" r="54.9" gradientTransform="matrix(-0.9825 -0.1863 -0.4813 2.5381 480.2827 -62.0496)" gradientUnits="userSpaceOnUse"><stop offset="0" class="a"/><stop offset="0.3796" class="b"/><stop offset="0.567" class="c"/><stop offset="0.7123" class="d"/><stop offset="0.836" class="e"/><stop offset="0.9447" class="f"/><stop offset="1" class="g"/></radialGradient><path d="M99.7 138.1c0 0-0.5-9.3 0.8-13.2 1.3-4 0.5-13.5 2.9-23.3 2.4-9.8 4.2-10.8 7.7-22.7 3.4-11.9 11.6-19.6 17.7-24.8 6.1-5.3 10-11.4 12.4-16.4 2.4-5 17.2-17.4 18.8-18.5 1.6-1.1 0.6-2.8 4.2-6.1 3.6-3.4 4.2 3.2 6.1 7.7 0 0 1.1-1.5 1.2-2.8 0.1-1.3 1.4 1.6 1.8 6.5 0.4 5-0.8 26.4-0.4 34.9 0.4 8.5-8.7 27-10.1 45.6 -1.4 18.6-30.7 45.2-53.7 43.6" style="fill:url(#oreille_x5F_g_1_);stroke:#000"/><radialGradient cx="324.9" cy="74.1" r="42.2" gradientTransform="matrix(-1 0 0 1 449.5352 0)" gradientUnits="userSpaceOnUse"><stop offset="0" class="o"/><stop offset="0.459" class="p"/><stop offset="0.6856" class="q"/><stop offset="0.8607" class="r"/><stop offset="1" class="s"/></radialGradient><path d="M119.7 143.8c0 0 6-21.8 11.1-40.8 5.2-19 12.3-27.2 16.1-38.5 3.8-11.3 8.3-12.7 9.7-17 1.4-4.4 10.5-12.2 10.5-12.2s0.7 13.9 1.8 18.2c1.2 4.4-2.2 10.9-2.6 19.2 -0.4 8.3-8.7 33.2-12.7 51.1" style="fill:url(#oreille_x5F_g_4_);stroke-width:0.8;stroke:#000"/><radialGradient cx="313.4" cy="109.4" r="21.7" gradientTransform="matrix(-1 0 0 1 449.5352 0)" gradientUnits="userSpaceOnUse"><stop offset="0" class="D"/><stop offset="1" class="E"/></radialGradient><path d="M149.5 134.7l10.5-36.4c0 0-5.1 8.7-6.9 3.6 -1.8-5.2-4.4-4.8-6.3-5.9 0 0-1 6.5 0 8.3 0 0-8.5-10.5-14.7-12.3 0 0 1.2 10.7 5.4 18.6 0 0-8.1-3.2-14.5-8.3 0 0 2.8 14.9 6.7 19.8 0 0-6.5-0.8-7.7-5.4 0 0-3 16.5 2.4 24.6L149.5 134.7z" fill="url(#SVGID_16_)"/><path d="M149.5 134.6l5.1-18.2 5.2-18.2 0.7 0.3c-0.8 1.4-1.8 2.7-2.9 3.9 -0.6 0.6-1.2 1.2-2.1 1.4 -0.5 0.1-1.1 0.1-1.5-0.2 -0.4-0.3-0.7-0.7-0.9-1.1 -0.2-0.4-0.3-0.8-0.4-1.1 -0.1-0.4-0.3-0.7-0.5-1 -0.4-0.7-0.8-1.3-1.3-1.8 -0.5-0.5-1.2-0.9-1.9-1.2 -0.7-0.3-1.5-0.5-2.2-1l0.7-0.3c-0.2 1.4-0.3 2.7-0.4 4.1 0 0.7 0 1.4 0 2 0 0.7 0.1 1.4 0.4 1.9l1.7 3.4 -2.4-2.9c-2-2.5-4.2-4.9-6.5-7.1 -1.2-1.1-2.4-2.1-3.7-3.1 -1.3-0.9-2.7-1.8-4.2-2.2l0.2-0.2c0.4 3.2 1 6.4 1.9 9.5 0.4 1.6 0.9 3.1 1.5 4.6 0.3 0.8 0.6 1.5 0.9 2.2 0.3 0.7 0.7 1.5 1.1 2.2l0.2 0.5 -0.5-0.2c-2.6-1-5.1-2.2-7.6-3.6 -2.5-1.4-4.8-2.9-7-4.6l0.6-0.4c0.7 3.4 1.6 6.8 2.6 10.2 0.5 1.7 1.1 3.3 1.7 4.9 0.7 1.6 1.4 3.2 2.4 4.5l0.8 1 -1.2-0.2c-0.5-0.1-0.9-0.1-1.3-0.2 -0.4-0.1-0.8-0.2-1.2-0.4 -0.8-0.3-1.6-0.6-2.4-1.1 -0.8-0.4-1.5-1-2-1.7 -0.6-0.7-1-1.5-1.3-2.4l1 0c-0.3 2-0.6 4.1-0.7 6.2 -0.1 2.1-0.2 4.2-0.1 6.2 0.1 2.1 0.3 4.1 0.8 6.2 0.4 2 1.1 4 2.2 5.7l-0.4-0.2 12.6-3.1C141.1 136.6 145.3 135.7 149.5 134.6zM149.5 134.7c-4.2 1.2-8.3 2.4-12.5 3.5l-12.5 3.4 -0.3 0.1 -0.2-0.2c-1.2-1.8-2-3.9-2.4-5.9 -0.5-2.1-0.8-4.2-0.9-6.3 -0.1-2.1-0.1-4.2 0.1-6.3 0.1-2.1 0.3-4.2 0.7-6.3l0.4-2.4 0.6 2.3c0.2 0.7 0.6 1.4 1 2 0.5 0.6 1.1 1.1 1.8 1.5 0.7 0.4 1.4 0.7 2.2 1 0.4 0.1 0.8 0.2 1.1 0.3 0.4 0.1 0.8 0.2 1.2 0.2l-0.5 0.8c-1.1-1.5-1.9-3.1-2.5-4.8 -0.7-1.6-1.2-3.3-1.7-5 -1-3.4-1.8-6.8-2.4-10.3l-0.2-1 0.8 0.6c2.1 1.8 4.5 3.3 6.9 4.7 2.4 1.4 4.9 2.7 7.5 3.7l-0.3 0.3c-0.3-0.7-0.7-1.5-1-2.2 -0.3-0.7-0.6-1.5-0.9-2.3 -0.6-1.5-1.1-3.1-1.5-4.7 -0.8-3.1-1.5-6.3-1.9-9.6l0-0.3 0.3 0.1c1.6 0.5 3 1.3 4.3 2.2 1.3 0.9 2.6 1.9 3.8 3 2.4 2.2 4.7 4.5 6.8 7l-0.7 0.5c-0.2-0.4-0.3-0.8-0.4-1.1 -0.1-0.4-0.1-0.7-0.1-1.1 0-0.7 0-1.4 0-2.1 0.1-1.4 0.2-2.8 0.4-4.2l0.1-0.6 0.6 0.3c0.6 0.4 1.4 0.6 2.1 0.9 0.8 0.3 1.5 0.8 2.1 1.4 0.6 0.6 1.1 1.3 1.5 2.1 0.2 0.4 0.4 0.8 0.5 1.1 0.1 0.4 0.3 0.8 0.4 1.1 0.1 0.3 0.3 0.6 0.6 0.8 0.2 0.2 0.5 0.2 0.8 0.1 0.6-0.2 1.2-0.7 1.8-1.2 1.1-1.1 2-2.4 2.8-3.7l1.4-2.3 -0.8 2.6 -5.4 18.2 -5.5 18.2L149.5 134.7z"/><radialGradient cx="239.1" cy="85.8" r="74.4" gradientTransform="matrix(-0.726 0.6952 0.2884 0.2953 361.7654 -105.7593)" gradientUnits="userSpaceOnUse"><stop offset="0" class="a"/><stop offset="0.3796" class="b"/><stop offset="0.567" class="c"/><stop offset="0.7123" class="d"/><stop offset="0.836" class="e"/><stop offset="0.9447" class="f"/><stop offset="1" class="g"/></radialGradient><path d="M164.4 98.7c0 0-8.8 22.7-20.6 30.9 -11.7 8.2-10.1 5.3-21.4 11.9 -11.2 6.6-35 7.4-38.2 5.3 0 0 43.8 10.8 52.6 0.3 8.8-10.6 11.7-5 26.7-20.6" fill="url(#SVGID_17_)"/><path d="M164.4 98.7c-0.8 2-1.6 3.9-2.5 5.8 -0.9 1.9-1.8 3.8-2.8 5.7 -2 3.7-4.1 7.4-6.6 10.8 -0.6 0.9-1.3 1.7-1.9 2.5 -0.7 0.8-1.4 1.6-2.1 2.4 -0.7 0.8-1.5 1.5-2.3 2.2 -0.8 0.7-1.6 1.4-2.5 2l-5.3 3.5c-0.4 0.3-0.9 0.6-1.3 0.8l-1.4 0.7c-0.9 0.5-1.9 1-2.8 1.5 -1.9 0.9-3.8 1.7-5.7 2.8l-5.5 3c-3.8 2-8 3.1-12.1 4 -4.2 0.9-8.4 1.4-12.6 1.7 -2.1 0.1-4.2 0.2-6.4 0.1 -1.1 0-2.1-0.1-3.2-0.2 -1.1-0.2-2.1-0.2-3.3-0.9l-3.2-1.7 3.5 0.9c3.5 0.9 7.1 1.6 10.7 2.3 3.6 0.7 7.2 1.2 10.8 1.7 1.8 0.2 3.6 0.4 5.5 0.6 1.8 0.2 3.6 0.3 5.5 0.3 1.8 0.1 3.7 0.1 5.5 0 1.8-0.1 3.6-0.2 5.4-0.5 1.8-0.3 3.6-0.7 5.2-1.4 0.8-0.4 1.6-0.8 2.3-1.3 0.4-0.2 0.7-0.6 1-0.9 0.3-0.3 0.6-0.7 0.9-1 1.2-1.4 2.6-2.7 4-3.9 1.5-1.2 3.1-2.1 4.7-2.9 1.6-0.8 3.3-1.6 4.9-2.5 1.6-0.9 3.1-1.9 4.5-3.1 0.7-0.5 1.4-1.1 2.1-1.7 0.7-0.6 1.4-1.2 2.1-1.8 1.4-1.2 2.6-2.5 4-3.8 -1.3 1.3-2.5 2.7-3.9 3.9 -0.7 0.6-1.3 1.3-2 1.9 -0.7 0.6-1.4 1.2-2.1 1.8 -1.4 1.2-3 2.2-4.5 3.2 -1.6 0.9-3.2 1.8-4.8 2.6 -1.6 0.9-3.2 1.8-4.6 2.9 -1.4 1.2-2.7 2.4-3.9 3.8 -0.3 0.4-0.6 0.7-0.9 1 -0.3 0.3-0.7 0.7-1.1 1 -0.7 0.6-1.6 1-2.4 1.4 -1.7 0.8-3.5 1.2-5.4 1.5 -1.8 0.3-3.7 0.5-5.5 0.6 -1.8 0.1-3.7 0.1-5.5 0 -1.8-0.1-3.7-0.2-5.5-0.3 -1.8-0.2-3.7-0.3-5.5-0.6 -3.7-0.4-7.3-1-10.9-1.7 -3.6-0.7-7.2-1.4-10.8-2.2l0.4-0.9c0.7 0.4 1.8 0.6 2.8 0.7 1 0.1 2.1 0.2 3.1 0.2 2.1 0.1 4.2 0 6.3-0.1 4.2-0.2 8.4-0.8 12.5-1.6 2.1-0.4 4.1-0.9 6.1-1.6 2-0.6 4-1.4 5.8-2.3l5.6-3c1.8-1.1 3.8-1.9 5.7-2.8 1-0.4 1.9-0.9 2.8-1.4l1.4-0.7c0.5-0.2 0.9-0.6 1.3-0.8l5.3-3.4c0.9-0.6 1.7-1.3 2.5-1.9 0.8-0.7 1.5-1.4 2.3-2.2 0.7-0.8 1.4-1.5 2.1-2.3 0.6-0.8 1.3-1.6 2-2.5 1.3-1.7 2.5-3.4 3.6-5.2 1.1-1.8 2.2-3.6 3.2-5.4 1-1.8 2-3.7 2.9-5.6C162.7 102.5 163.6 100.6 164.4 98.7z"/><radialGradient cx="217.3" cy="149.8" r="28.1" gradientTransform="matrix(-0.6986 -0.7155 -1.3401 1.3086 584.861 109.2091)" gradientUnits="userSpaceOnUse"><stop offset="0" class="h"/><stop offset="0.3796" class="i"/><stop offset="0.567" class="j"/><stop offset="0.7123" class="k"/><stop offset="0.836" class="l"/><stop offset="0.9447" class="m"/><stop offset="1" class="n"/></radialGradient><path d="M236 147.2c0 0 8.5 9.1 11.1 16.8 2.6 7.7 15.1 16.1 21.4 17 0 0-6.7 7.5-16.1-2.4 0 0-19.6-11.9-23.6-24.6" fill="url(#SVGID_18_)"/><path d="M236 147.2c2.8 2.9 5.3 6.1 7.6 9.5 0.6 0.8 1.1 1.7 1.6 2.6 0.5 0.9 1 1.8 1.4 2.7 0.4 0.9 0.8 1.9 1.1 2.8 0.4 0.9 0.9 1.8 1.5 2.6 1.1 1.6 2.5 3.1 4 4.5 1.5 1.4 3 2.6 4.7 3.8 1.6 1.1 3.4 2.2 5.2 3.1 1.8 0.9 3.7 1.6 5.6 2l0.9 0.2 -0.6 0.7c-0.3 0.3-0.6 0.6-0.9 0.8 -0.3 0.2-0.6 0.5-1 0.7 -0.7 0.4-1.4 0.7-2.2 1 -1.5 0.5-3.2 0.5-4.8 0.2 -1.6-0.3-3-1.1-4.3-2 -0.6-0.4-1.3-0.9-1.9-1.5 -0.6-0.5-1.1-1.1-1.7-1.6l0.1 0.1c-2.5-1.6-4.8-3.2-7.1-5 -2.3-1.8-4.5-3.7-6.6-5.7 -2.1-2-4-4.2-5.7-6.5 -0.8-1.2-1.6-2.4-2.3-3.7 -0.3-0.6-0.7-1.3-0.9-2 -0.3-0.7-0.5-1.4-0.7-2 0.3 0.7 0.5 1.4 0.8 2 0.3 0.7 0.6 1.3 1 1.9 0.7 1.3 1.5 2.4 2.4 3.6 0.9 1.1 1.8 2.2 2.8 3.3 1 1.1 2 2.1 3.1 3 2.1 2 4.3 3.8 6.6 5.5 2.3 1.7 4.7 3.4 7.1 4.9l0.1 0 0 0c0.5 0.5 1.1 1.1 1.6 1.6 0.6 0.5 1.2 1 1.8 1.4 1.2 0.8 2.6 1.5 4 1.8 1.4 0.3 2.9 0.3 4.3-0.2 0.7-0.2 1.4-0.5 2-0.9 0.3-0.2 0.6-0.4 0.9-0.6 0.3-0.2 0.6-0.5 0.8-0.7l0.3 0.8c-2.1-0.4-4-1.2-5.8-2.1 -1.8-0.9-3.6-2-5.3-3.2 -1.7-1.2-3.3-2.5-4.8-3.9 -1.5-1.4-2.8-3-4-4.7 -0.6-0.9-1.1-1.8-1.5-2.7 -0.4-1-0.7-1.9-1.1-2.8 -0.4-0.9-0.8-1.8-1.3-2.7 -0.5-0.9-1-1.7-1.5-2.6 -1.1-1.7-2.2-3.4-3.4-5C238.6 150.3 237.4 148.7 236 147.2z"/><radialGradient cx="203" cy="112.2" r="36.5" gradientTransform="matrix(-0.9563 -0.3561 -0.1111 0.3993 473.4698 148.4226)" gradientUnits="userSpaceOnUse"><stop offset="0" class="a"/><stop offset="0.3796" class="b"/><stop offset="0.567" class="c"/><stop offset="0.7123" class="d"/><stop offset="0.836" class="e"/><stop offset="0.9447" class="f"/><stop offset="1" class="g"/></radialGradient><path d="M271 111.3c0 0 14.8 7.8 22.1 6.5 7.3-1.3 18.2 8.7 19 14.3 0 0-4-3.8-21 4.5 -14 6.8-21-8.5-23.1-8" fill="url(#SVGID_19_)"/><path d="M271.2 110.8c3.6 1.8 7.3 3.5 11.1 4.8 1 0.3 1.9 0.6 2.9 0.9l1.5 0.4 1.5 0.3c1 0.2 2 0.3 3 0.3 0.5 0 1 0 1.5-0.1l1.5-0.1c1 0 2.1 0.1 3.1 0.4 1 0.3 2 0.6 2.9 1.1 0.5 0.2 0.9 0.5 1.4 0.7 0.4 0.3 0.9 0.5 1.3 0.8 0.9 0.6 1.7 1.2 2.5 1.8 0.8 0.7 1.6 1.3 2.3 2.1 0.7 0.7 1.4 1.5 2 2.3 0.3 0.4 0.6 0.8 0.9 1.3l0.4 0.6 0.4 0.7c0.5 0.9 0.9 1.9 1.1 2.9l0.1 0.6 -0.5-0.4c-0.3-0.2-0.8-0.5-1.3-0.5l-0.7-0.2 -0.7 0c-0.5 0-1-0.1-1.5 0l-1.5 0.1c-1 0-2 0.4-3 0.6l-1.5 0.3c-0.5 0.1-1 0.3-1.4 0.5l-2.9 1c-1 0.3-1.9 0.8-2.8 1.2l-2.8 1.2c-0.9 0.4-1.8 0.9-2.8 1.2 -1 0.3-2 0.6-3 0.7 -1 0.1-2 0.2-3.1 0.1 -1-0.1-2-0.3-3-0.6 -1-0.3-1.9-0.8-2.8-1.3 -1.8-1-3.3-2.4-4.8-3.8 -0.7-0.7-1.4-1.5-2.1-2.2 -0.3-0.4-0.7-0.7-1.1-1.1 -0.4-0.3-0.8-0.8-1.3-0.7 0.5 0 0.9 0.4 1.3 0.7 0.4 0.4 0.7 0.7 1.1 1.1 0.7 0.7 1.4 1.5 2.1 2.2 1.4 1.4 3 2.7 4.8 3.8 0.9 0.5 1.8 0.9 2.8 1.3 1 0.3 2 0.5 3 0.6 1 0.1 2 0 3-0.1 1-0.2 2-0.4 2.9-0.7 1-0.3 1.9-0.8 2.8-1.2l2.8-1.3c0.9-0.4 1.8-0.9 2.8-1.2l2.9-1c0.5-0.2 1-0.4 1.4-0.5l1.5-0.4c1-0.2 2-0.5 3-0.6l1.5-0.2c0.5-0.1 1 0 1.6 0l0.8 0 0.8 0.2c0.5 0.1 1 0.3 1.5 0.6l-0.4 0.2c-0.2-0.9-0.5-1.9-1-2.7l-0.4-0.7 -0.4-0.6c-0.3-0.4-0.6-0.8-0.9-1.2 -0.6-0.8-1.3-1.5-2-2.2 -0.7-0.7-1.5-1.4-2.2-2 -0.8-0.6-1.6-1.2-2.5-1.7 -0.4-0.3-0.9-0.5-1.3-0.8 -0.4-0.3-0.9-0.5-1.3-0.7 -0.9-0.4-1.8-0.8-2.8-1 -1-0.2-1.9-0.4-2.9-0.3l-1.5 0.1c-0.5 0.1-1.1 0.1-1.6 0.1 -1 0-2.1-0.1-3.1-0.3l-1.5-0.3 -1.5-0.4c-1-0.3-2-0.5-2.9-0.9 -3.9-1.3-7.6-2.9-11.3-4.8 -0.2-0.1-0.3-0.4-0.2-0.7 0.1-0.2 0.4-0.3 0.7-0.2l0 0L271.2 110.8z"/><radialGradient cx="270.4" cy="86.5" r="8.8" gradientTransform="matrix(-0.2854 0.9584 0.1997 0.0595 239.0341 -177.8122)" gradientUnits="userSpaceOnUse"><stop offset="0" class="a"/><stop offset="0.3796" class="b"/><stop offset="0.567" class="c"/><stop offset="0.7123" class="d"/><stop offset="0.836" class="e"/><stop offset="0.9447" class="f"/><stop offset="1" class="g"/></radialGradient><path d="M175.6 101.4c0 0-1-24.8 7.7-23.4C183.3 78 173.8 90.3 175.6 101.4z" fill="url(#SVGID_20_)"/><path d="M175.6 101.4c-0.2-2.2-0.2-4.5-0.2-6.7 0.1-2.2 0.2-4.5 0.6-6.7 0.2-1.1 0.4-2.2 0.7-3.3 0.2-0.5 0.3-1.1 0.5-1.6 0.2-0.5 0.4-1.1 0.6-1.6 0.2-0.5 0.5-1 0.9-1.5 0.3-0.5 0.7-1 1.2-1.3 0.2-0.2 0.5-0.4 0.8-0.5 0.3-0.2 0.6-0.2 0.9-0.4 0.3-0.1 0.6-0.1 0.9-0.2 0.3 0 0.6 0 0.9 0.1l0.9 0.1 -0.6 0.7c-0.6 0.8-1.2 1.7-1.8 2.6 -0.6 0.9-1.1 1.8-1.6 2.7 -0.5 0.9-1 1.8-1.4 2.8 -0.2 0.5-0.5 0.9-0.7 1.4l-0.6 1.4c-0.4 1-0.7 1.9-1 3 -0.1 0.5-0.3 1-0.4 1.5l-0.3 1.5 -0.2 1.5c-0.1 0.5-0.1 1-0.1 1.6 0 0.5-0.1 1 0 1.6L175.6 101.4zM175.6 101.4l-0.2-1.6c-0.1-0.5-0.1-1.1-0.1-1.6 0-0.5 0-1.1 0-1.6l0.1-1.6 0.3-1.6c0.1-0.5 0.2-1 0.4-1.6 0.2-1 0.6-2 0.9-3.1l0.6-1.5c0.2-0.5 0.4-1 0.6-1.5 0.4-1 0.9-1.9 1.4-2.8 0.5-0.9 1-1.9 1.6-2.8 0.6-0.9 1.1-1.8 1.8-2.7l0.3 0.8c-0.2 0-0.5 0-0.7 0 -0.2 0-0.5 0-0.7 0.1 -0.2 0.1-0.5 0.1-0.7 0.3 -0.2 0.1-0.4 0.2-0.6 0.4 -0.4 0.3-0.7 0.7-1 1.1 -0.3 0.4-0.6 0.9-0.8 1.4 -1 2-1.4 4.1-1.9 6.3 -0.4 2.2-0.7 4.4-0.8 6.6C175.7 96.9 175.6 99.1 175.6 101.4z"/><radialGradient cx="245.3" cy="118" r="15.5" gradientTransform="matrix(-0.989 -0.1479 -0.0363 0.2428 451.1201 125.6102)" gradientUnits="userSpaceOnUse"><stop offset="0" class="a"/><stop offset="0.3796" class="b"/><stop offset="0.567" class="c"/><stop offset="0.7123" class="d"/><stop offset="0.836" class="e"/><stop offset="0.9447" class="f"/><stop offset="1" class="g"/></radialGradient><path d="M190 115.3c0 0 8.3 1.8 14.1 3.6 5.7 1.8 7.9 2.6 10.7 5.6 0 0-9.5-1-13.7-2.8 -4.2-1.8-9.5-3.4-9.5-3.4" fill="url(#SVGID_21_)"/><path d="M190 115.3c1.1 0.2 2.2 0.4 3.3 0.6 1.1 0.2 2.2 0.4 3.3 0.7l6.5 1.6c0.5 0.1 1.1 0.3 1.6 0.4l1.6 0.5c1.1 0.3 2.1 0.7 3.2 1.1 0.5 0.2 1.1 0.4 1.6 0.7 0.5 0.3 1 0.5 1.5 0.9 0.5 0.3 0.9 0.7 1.4 1.1 0.4 0.4 0.8 0.8 1.2 1.2l1 1 -1.4-0.2c-2-0.2-4-0.5-6-0.9 -1-0.2-2-0.4-3-0.6 -1-0.2-2-0.5-2.9-0.8l-1.4-0.5 -1.4-0.5 -2.8-1.1 -1.4-0.6c-0.5-0.2-0.9-0.4-1.4-0.6l-2.8-1 2.9 0.8c0.5 0.1 1 0.3 1.4 0.5l1.4 0.5 2.8 1 1.4 0.5 1.4 0.5c1 0.2 1.9 0.5 2.9 0.7 1 0.2 2 0.4 2.9 0.5 2 0.3 4 0.6 5.9 0.8l-0.4 0.8c-0.4-0.4-0.8-0.8-1.2-1.1 -0.4-0.3-0.8-0.7-1.3-1 -0.4-0.3-0.9-0.6-1.4-0.8 -0.5-0.3-1-0.5-1.5-0.7 -1-0.4-2.1-0.8-3.1-1.1 -1.1-0.3-2.1-0.7-3.2-1l-6.4-1.9 -1.6-0.5 -1.6-0.4C192.2 115.9 191.1 115.6 190 115.3z"/><radialGradient cx="237.8" cy="101.1" r="24.7" gradientTransform="matrix(-0.9183 -0.3959 -0.1595 0.3699 446.2242 157.8036)" gradientUnits="userSpaceOnUse"><stop offset="0" class="a"/><stop offset="0.3796" class="b"/><stop offset="0.567" class="c"/><stop offset="0.7123" class="d"/><stop offset="0.836" class="e"/><stop offset="0.9447" class="f"/><stop offset="1" class="g"/></radialGradient><path d="M178 101.2c0 0 8.5 1.2 12.1 3.4 3.6 2.2 6.1 2.4 6.1 4.2 0 0-0.8 0-3-1.2 0 0 2 2.6 7.1 1.4 5.2-1.2 8.3 2.2 10.7 3.6 2.4 1.4 6.3 2.6 12.9-3.2C223.9 109.3 202.7 92.1 178 101.2z" fill="url(#SVGID_22_)"/><path d="M178 101.2c1.7 0.2 3.4 0.5 5 0.8 0.8 0.2 1.7 0.3 2.5 0.6l1.2 0.3 1.2 0.4c0.4 0.1 0.8 0.3 1.2 0.5l1.2 0.6c0.7 0.4 1.5 0.8 2.2 1.2 0.8 0.4 1.5 0.7 2.3 1.1 0.4 0.2 0.8 0.4 1.1 0.7 0.4 0.3 0.6 0.8 0.6 1.3l0 0.3 -0.3 0c-0.2 0-0.3 0-0.5-0.1 -0.1 0-0.3-0.1-0.4-0.1l-0.8-0.3c-0.5-0.2-1-0.5-1.5-0.7l0.4-0.5c0.4 0.4 1 0.8 1.6 1 0.3 0.1 0.6 0.2 0.9 0.3l1 0.1c0.3 0 0.7 0 1 0l0.5 0 0.5-0.1 1-0.2 1-0.2c0.3-0.1 0.7-0.1 1.1-0.1 0.4 0 0.7 0 1.1 0 0.7 0.1 1.5 0.2 2.2 0.4 1.4 0.5 2.7 1.2 3.8 2 0.6 0.4 1.2 0.8 1.7 1.2 0.3 0.2 0.6 0.3 0.9 0.5 0.3 0.1 0.6 0.3 0.9 0.4 0.6 0.2 1.3 0.3 1.9 0.4 0.7 0.1 1.3-0.1 2-0.2 0.6-0.2 1.3-0.4 1.9-0.6 0.6-0.3 1.2-0.6 1.8-0.9 0.6-0.4 1.1-0.7 1.7-1.2 0.6-0.4 1.1-0.9 1.6-1.3l0 0.7c-0.8-0.6-1.6-1.2-2.4-1.7 -0.8-0.6-1.7-1.1-2.6-1.6 -0.9-0.5-1.8-1-2.6-1.5 -0.9-0.5-1.8-0.9-2.7-1.3 -0.9-0.4-1.9-0.8-2.8-1.2 -0.9-0.4-1.9-0.7-2.8-1 -0.9-0.4-1.9-0.6-2.9-0.9l-1.5-0.4 -1.5-0.3c-1-0.2-2-0.5-3-0.5l-3-0.3c-1-0.1-2-0.1-3-0.1l-1.5 0 -1.5 0.1c-1 0.1-2 0.1-3 0.2l-3 0.5c-0.5 0.1-1 0.1-1.5 0.3l-1.5 0.4L178 101.2zM178 101.2l2.9-1 1.4-0.5c0.5-0.2 1-0.2 1.5-0.3l3-0.6c1-0.2 2-0.2 3-0.3l1.5-0.2 1.5 0c1 0 2 0 3.1 0l3 0.3c1 0.1 2 0.3 3 0.5l1.5 0.3 1.5 0.4c1 0.3 2 0.5 3 0.8 1 0.3 1.9 0.6 2.9 1 0.9 0.4 1.9 0.8 2.8 1.2 0.9 0.4 1.9 0.9 2.8 1.3 0.9 0.5 1.8 0.9 2.7 1.5 0.9 0.5 1.8 1 2.6 1.6 0.9 0.6 1.7 1.1 2.5 1.8l0.5 0.4 -0.5 0.4c-0.6 0.4-1.1 0.9-1.7 1.4 -0.6 0.4-1.2 0.8-1.8 1.2 -0.6 0.4-1.3 0.7-1.9 1 -0.7 0.3-1.4 0.5-2.1 0.7 -0.7 0.1-1.5 0.2-2.2 0.2 -0.7 0-1.5-0.2-2.2-0.4 -0.3-0.1-0.7-0.3-1-0.4 -0.3-0.2-0.6-0.3-0.9-0.5 -0.6-0.4-1.2-0.8-1.7-1.2 -1.1-0.8-2.3-1.5-3.6-1.9 -0.6-0.2-1.3-0.4-1.9-0.4 -0.3 0-0.7 0-1 0 -0.3 0-0.6 0-1 0.1 -0.3 0.1-0.7 0.1-1 0.2l-1.1 0.2 -0.5 0.1 -0.5 0c-0.4 0-0.7 0-1.1 0l-1.1-0.2c-0.4-0.1-0.7-0.2-1.1-0.3 -0.7-0.3-1.3-0.7-1.9-1.3l-1.1-1.3 1.5 0.8c0.5 0.2 0.9 0.5 1.4 0.7l0.7 0.3c0.1 0.1 0.2 0.1 0.4 0.1 0.1 0 0.2 0.1 0.3 0.1l-0.3 0.3c0-0.7-0.6-1.2-1.4-1.6 -0.7-0.4-1.5-0.7-2.3-1.1 -0.8-0.4-1.5-0.8-2.2-1.2l-1.1-0.6c-0.4-0.2-0.7-0.4-1.1-0.5l-1.2-0.4 -1.2-0.4c-0.8-0.3-1.6-0.4-2.4-0.7C181.3 101.8 179.6 101.5 178 101.2z"/><radialGradient cx="250.4" cy="90.3" r="15.3" gradientTransform="matrix(-1 0 0 1 449.5352 0)" gradientUnits="userSpaceOnUse"><stop offset="0" class="a"/><stop offset="0.3796" class="b"/><stop offset="0.567" class="c"/><stop offset="0.7123" class="d"/><stop offset="0.836" class="e"/><stop offset="0.9447" class="f"/><stop offset="1" class="g"/></radialGradient><path d="M179.7 100c0 0 32.9-8.3 35.9-19.4 0 0 1 2 2.8 2.6C220.2 83.7 197.2 99.6 179.7 100z" fill="url(#SVGID_23_)"/><path d="M179.7 100c3.4-1 6.7-2.1 10-3.3 3.3-1.2 6.5-2.4 9.7-3.9 1.6-0.7 3.1-1.5 4.7-2.3 0.8-0.4 1.5-0.8 2.3-1.3 0.8-0.4 1.5-0.9 2.2-1.4 0.7-0.5 1.4-1 2.1-1.5 0.7-0.5 1.3-1.1 1.9-1.7 0.6-0.6 1.1-1.3 1.6-2 0.5-0.7 0.8-1.5 1-2.2l0.4-1.1 0.6 1c0.4 0.8 1.1 1.5 1.8 2 0.2 0.1 0.4 0.2 0.6 0.3l0.1 0.1 0.1 0.1 0 0 0 0c0.2 0.1 0.3 0.4 0.2 0.5 0 0.4-0.2 0.5-0.2 0.6 -0.4 0.5-0.7 0.8-1.1 1.1 -1.5 1.3-3.2 2.4-4.9 3.4 -3.3 2.1-6.8 4-10.4 5.6 -3.6 1.6-7.3 3.1-11 4.2C187.6 99.3 183.7 100 179.7 100zM179.7 100c3.9-0.2 7.8-1.1 11.5-2.3 3.7-1.2 7.3-2.7 10.8-4.4 3.5-1.7 6.9-3.6 10.2-5.7 1.6-1.1 3.3-2.2 4.7-3.4 0.4-0.3 0.7-0.6 1-0.9 0.1 0 0.1-0.2 0.1 0 0 0 0 0.3 0.2 0.3 0 0 0 0 0 0l0 0c0 0-0.1-0.1 0.1 0l0 0 -0.2-0.1c-0.3-0.1-0.5-0.2-0.7-0.4 -0.9-0.6-1.6-1.4-2.1-2.4l0.9-0.1c-0.3 0.9-0.7 1.7-1.2 2.5 -0.5 0.8-1.1 1.5-1.7 2.1 -0.6 0.6-1.3 1.2-2 1.8 -0.7 0.6-1.4 1.1-2.2 1.6 -3 1.9-6.1 3.5-9.3 4.9 -3.2 1.4-6.5 2.6-9.9 3.7C186.5 98.2 183.1 99.2 179.7 100z"/><radialGradient cx="226.1" cy="120" r="24.2" gradientTransform="matrix(-0.6986 -0.7155 -1.9028 1.858 609.6348 58.8655)" gradientUnits="userSpaceOnUse"><stop offset="0" class="a"/><stop offset="0.3796" class="b"/><stop offset="0.567" class="c"/><stop offset="0.7123" class="d"/><stop offset="0.836" class="e"/><stop offset="0.9447" class="f"/><stop offset="1" class="g"/></radialGradient><path d="M224.1 122.2c0 0 6.5 1 9.5 0.4 3-0.6 20.8-4 22.6-11.7 1.8-7.7 13.7-17.8-4.4-28.1 0 0 4.4 0.2 6 1.6 1.6 1.4 5.7 0.2 7.7 2.8 2 2.6 5.2 8.3 4.2 17.6 -1 9.3-4 7.7-7.7 15.1 -3.8 7.3-12.9 14.5-25.4 11.1 -12.5-3.4-9.1 0.4-14.3-4.2" fill="url(#SVGID_24_)"/><path d="M224.1 122.2c1.4 0.2 2.9 0.3 4.3 0.4 1.4 0.1 2.9 0.1 4.3 0 0.7-0.1 1.4-0.2 2.1-0.4l2.1-0.5c1.4-0.3 2.8-0.7 4.2-1.1 2.8-0.8 5.5-1.8 8-3.1 1.3-0.7 2.5-1.4 3.6-2.3 1.1-0.9 2.1-1.9 2.7-3.2 0.1-0.3 0.3-0.6 0.4-1l0.3-1c0.2-0.7 0.5-1.4 0.8-2.1 0.6-1.3 1.2-2.6 1.9-3.9 1.2-2.6 2.4-5.3 2.5-8.1 0.1-1.4-0.2-2.8-0.7-4.1 -0.5-1.3-1.3-2.5-2.2-3.5 -1.9-2.1-4.3-3.7-6.7-5.2l-1.7-1 2 0.1c1 0.1 2 0.2 3 0.4 1 0.2 2 0.5 3 1.1l0.3 0.2c0.1 0.1 0.2 0.2 0.3 0.2 0.1 0.1 0.3 0.1 0.6 0.2 0.4 0.1 0.9 0.2 1.4 0.2 1 0.1 2 0.2 3 0.5 0.5 0.2 1 0.4 1.5 0.7 0.4 0.3 0.9 0.8 1.2 1.2 0.6 0.8 1.1 1.7 1.6 2.6 1 1.8 1.6 3.8 2 5.8 0.2 1 0.3 2 0.5 3l0.1 3 -0.2 3c-0.1 1-0.3 2-0.4 3 0 0.5-0.3 1-0.4 1.5 -0.2 0.5-0.2 1-0.5 1.5l-0.7 1.4c-0.3 0.4-0.6 0.9-0.9 1.3 -0.6 0.8-1.3 1.6-1.9 2.3 -0.3 0.4-0.6 0.8-0.9 1.2 -0.3 0.4-0.6 0.8-0.9 1.2l-1.5 2.6c-0.5 0.9-1 1.7-1.6 2.6 -1.2 1.6-2.6 3.1-4.2 4.4 -1.6 1.3-3.3 2.3-5.2 3.1 -1.9 0.8-3.9 1.3-5.9 1.5 -2 0.2-4 0.1-6-0.2 -1-0.2-2-0.4-2.9-0.7 -1-0.3-1.9-0.5-2.9-0.7 -1.9-0.4-3.9-0.8-5.9-0.9 -0.5 0-1 0-1.5-0.1 -0.5-0.1-1-0.3-1.4-0.6 -0.8-0.6-1.6-1.3-2.3-1.9 0.8 0.6 1.5 1.3 2.3 1.9 0.4 0.3 0.9 0.5 1.4 0.6 0.5 0.1 1 0.1 1.5 0.1 2 0 4 0.4 5.9 0.8 1 0.2 2 0.4 2.9 0.7 1 0.2 1.9 0.4 2.9 0.6 2 0.3 3.9 0.3 5.9 0.1 2-0.3 3.9-0.8 5.7-1.5 1.8-0.8 3.5-1.8 5-3.1 1.5-1.2 2.9-2.7 4-4.3 0.6-0.8 1.1-1.6 1.5-2.5l1.5-2.6c0.3-0.4 0.6-0.8 0.9-1.2 0.3-0.4 0.6-0.8 0.9-1.2 0.6-0.8 1.3-1.5 1.9-2.3l0.8-1.2 0.6-1.3c0.2-0.4 0.3-0.9 0.4-1.4 0.1-0.5 0.3-0.9 0.4-1.4 0.1-1 0.3-2 0.4-2.9l0.2-2.9 -0.1-2.9c-0.1-1-0.3-1.9-0.5-2.9 -0.5-1.9-1-3.8-2-5.5 -0.5-0.9-0.9-1.7-1.5-2.5 -0.5-0.8-1.2-1.2-2.1-1.5 -0.9-0.3-1.9-0.4-2.9-0.5 -0.5-0.1-1-0.1-1.5-0.3 -0.3-0.1-0.5-0.2-0.8-0.3 -0.2-0.1-0.2-0.1-0.3-0.2l-0.1-0.1 -0.1-0.1 0 0 -0.1-0.1c-0.7-0.5-1.7-0.8-2.6-1 -0.9-0.2-1.9-0.3-2.9-0.4l0.3-0.9c2.5 1.5 5 3.2 6.9 5.4 1 1.1 1.8 2.4 2.4 3.8 0.6 1.4 0.8 2.9 0.7 4.4 -0.2 3-1.4 5.8-2.7 8.4 -0.6 1.3-1.3 2.6-1.9 3.9 -0.3 0.7-0.6 1.3-0.8 2l-0.3 1c-0.1 0.4-0.2 0.7-0.4 1.1 -0.7 1.4-1.7 2.5-2.9 3.4 -1.2 0.9-2.4 1.6-3.7 2.3 -2.6 1.3-5.4 2.2-8.2 3 -1.4 0.4-2.8 0.7-4.2 1l-2.1 0.4c-0.7 0.1-1.4 0.3-2.2 0.3 -1.5 0.1-2.9 0-4.3-0.1C227 122.6 225.6 122.4 224.1 122.2z"/><radialGradient cx="296.3" cy="217.3" r="41.5" gradientTransform="matrix(-1 0 0 1 449.5352 0)" gradientUnits="userSpaceOnUse"><stop offset="0" class="F"/><stop offset="0.1916" class="G"/><stop offset="1" class="H"/></radialGradient><path d="M128.9 244.8c0 0 14.5-18.4 19.5-20.8 0 0 0.9-2.9-0.2-5.6 0 0-24.5 19.2-23 26C125.1 244.5 124.8 246 128.9 244.8z" style="fill:url(#SVGID_25_);stroke-width:0.5;stroke:#000"/><radialGradient cx="297.3" cy="217.7" r="40.3" gradientTransform="matrix(-1 0 0 1 449.5352 0)" gradientUnits="userSpaceOnUse"><stop offset="0" class="F"/><stop offset="0.1916" class="G"/><stop offset="1" class="H"/></radialGradient><path d="M148.7 236.3c0 0-16.9-14.8-30.5-19.4 0 0-0.5-3.8 0.1-5.9l4.6 0.5c0 0 24.5 15 25.8 18.6C148.6 230 148.3 231.5 148.7 236.3z" style="fill:url(#SVGID_26_);stroke-width:0.5;stroke:#000"/><radialGradient cx="296.6" cy="217.5" r="41.5" gradientTransform="matrix(-1 0 0 1 449.5352 0)" gradientUnits="userSpaceOnUse"><stop offset="0" class="F"/><stop offset="0.1916" class="G"/><stop offset="1" class="H"/></radialGradient><path d="M121.7 232.4c0 0 6.5-9.6 22.6-20.7l4.2 2.8c0 0-18.6 16.1-25.6 23C123 237.4 121.5 234 121.7 232.4z" style="fill:url(#SVGID_27_);stroke-width:0.5;stroke:#000"/><radialGradient cx="296.5" cy="217.4" r="42" gradientTransform="matrix(-1 0 0 1 449.5352 0)" gradientUnits="userSpaceOnUse"><stop offset="0" class="F"/><stop offset="0.1916" class="G"/><stop offset="1" class="H"/></radialGradient><path d="M142.5 243.9c0 0-10.6-13.6-22.5-18.5 0 0-1.3-2.3-1.1-5.4 0 0 25.4 10.9 29.6 23.7" style="fill:url(#SVGID_28_);stroke-width:0.5;stroke:#000"/><radialGradient cx="297.1" cy="217.9" r="40.3" gradientTransform="matrix(-1 0 0 1 449.5352 0)" gradientUnits="userSpaceOnUse"><stop offset="0" class="F"/><stop offset="0.1916" class="G"/><stop offset="1" class="H"/></radialGradient><path d="M136.6 228.5c-6.2 5.7-12.2 12.4-11.4 16 0 0 0.3 1 3.7 0.4 0 0 5.8-7.6 11.3-13.5" style="fill:url(#SVGID_29_);stroke-width:0.5;stroke:#000"/><radialGradient cx="296.6" cy="267.1" r="41.5" gradientTransform="matrix(-1 0 0 0.8392 449.5352 -2.7568)" gradientUnits="userSpaceOnUse"><stop offset="0" class="F"/><stop offset="0.1916" class="G"/><stop offset="1" class="H"/></radialGradient><path d="M149.5 242.1c0 0-16.3-1.9-24.8 1.6 0 0 0.5 4.3 1.6 6.2 0 0 17-3 24.6-1C150.8 248.9 149.9 244.8 149.5 242.1z" style="fill:url(#SVGID_30_);stroke-width:0.5;stroke:#000"/><radialGradient cx="296.6" cy="217.5" r="41.5" gradientTransform="matrix(-1 0 0 1 449.5352 0)" gradientUnits="userSpaceOnUse"><stop offset="0" class="F"/><stop offset="0.1916" class="G"/><stop offset="1" class="H"/></radialGradient><path d="M148.5 214.4c0 0-9-3.4-14.8-3 -5.8 0.4-14.1 1.8-16.2 2.8 0 0-0.9-4.3-0.7-6.1 0 0 3.2-1.2 5.3-1.5 0 0 2.5 1.3 7.5-0.7 0 0 15.9-0.4 20.1 2.2C149.7 208.2 149.1 212.2 148.5 214.4z" style="fill:url(#SVGID_31_);stroke-width:0.5;stroke:#000"/><path d="M250.4 197.9c0 0 14.7-6.7 27.6-3.3C278 194.6 257.3 194.6 250.4 197.9z"/><path d="M250.4 197.9c2.1-1 4.3-1.9 6.6-2.6 0.6-0.2 1.1-0.3 1.7-0.5 0.6-0.2 1.1-0.3 1.7-0.4 0.6-0.1 1.2-0.3 1.7-0.4 0.6-0.1 1.2-0.2 1.8-0.3l1.8-0.3c0.6-0.1 1.2-0.1 1.8-0.2 0.6-0.1 1.2-0.1 1.8-0.1 0.6 0 1.2-0.1 1.8 0l1.8 0.1c0.6 0 1.2 0.1 1.8 0.2 0.6 0.1 1.2 0.1 1.8 0.3l1.8 0.4 4.7 1 -4.9 0c-2.3 0-4.6 0-7 0.1 -1.2 0-2.3 0.1-3.5 0.2l-3.5 0.2c-1.2 0.1-2.3 0.2-3.5 0.3 -0.6 0-1.2 0.1-1.7 0.2 -0.6 0.1-1.2 0.1-1.7 0.2l-1.7 0.3 -1.7 0.3c-0.6 0.1-1.1 0.3-1.7 0.4C251.4 197.5 250.9 197.7 250.4 197.9zM250.4 197.9c0.5-0.2 1.1-0.5 1.6-0.7 0.6-0.2 1.1-0.4 1.7-0.5l1.7-0.4 1.7-0.4c0.6-0.1 1.2-0.2 1.7-0.3 0.6-0.1 1.2-0.2 1.7-0.3 1.2-0.2 2.3-0.3 3.5-0.4 2.3-0.3 4.7-0.4 7-0.5 2.3-0.1 4.7-0.2 7-0.2l-0.1 1 -1.7-0.4c-0.6-0.1-1.1-0.2-1.7-0.3 -0.6-0.1-1.1-0.2-1.7-0.2l-1.7-0.1c-0.6 0-1.2 0-1.7 0 -0.6 0-1.2 0-1.7 0.1 -1.2 0.1-2.3 0.2-3.5 0.3 -0.6 0.1-1.2 0.2-1.7 0.3 -0.6 0.1-1.2 0.2-1.7 0.3 -0.6 0.1-1.2 0.2-1.7 0.4 -0.6 0.1-1.1 0.3-1.7 0.4C254.8 196.4 252.6 197.1 250.4 197.9z"/><path d="M220.7 209c0 0-15.8-10.5-31.4-8.8C189.3 200.2 213.3 203.9 220.7 209z"/><path d="M220.7 209c-1.2-0.7-2.4-1.4-3.7-2 -1.2-0.6-2.5-1.2-3.8-1.7 -0.6-0.3-1.3-0.5-1.9-0.8 -0.6-0.3-1.3-0.5-1.9-0.7 -0.6-0.2-1.3-0.5-2-0.7 -0.7-0.2-1.3-0.4-2-0.6l-2-0.5 -2-0.5c-0.7-0.2-1.3-0.3-2-0.4 -0.7-0.1-1.3-0.3-2-0.3l-2-0.2c-0.7-0.1-1.4 0-2-0.1 -0.7 0-1.4 0-2 0l-2 0.1 0-1c2.7 0.4 5.4 1 8.1 1.5 2.7 0.6 5.4 1.1 8 1.9 1.3 0.4 2.6 0.7 4 1.1 0.7 0.2 1.3 0.4 2 0.6 0.7 0.2 1.3 0.4 2 0.7l1.9 0.7 1.9 0.8c0.6 0.3 1.2 0.6 1.8 0.9C219.6 208.3 220.2 208.7 220.7 209zM220.7 209c-0.6-0.3-1.2-0.7-1.8-1 -0.6-0.3-1.2-0.6-1.9-0.8l-1.9-0.7 -1.9-0.6c-0.6-0.2-1.3-0.4-2-0.6 -0.7-0.2-1.3-0.4-2-0.5 -1.3-0.4-2.6-0.7-4-1 -0.7-0.2-1.3-0.3-2-0.4l-2-0.4c-1.3-0.3-2.7-0.6-4-0.8 -2.7-0.5-5.4-1-8.1-1.4l-4.8-0.7 4.8-0.3 2.1-0.1c0.7-0.1 1.4 0 2.1 0 0.7 0 1.4 0 2.1 0.1l2.1 0.2c0.7 0.1 1.4 0.2 2.1 0.3 0.7 0.1 1.4 0.2 2.1 0.4 0.7 0.2 1.4 0.3 2 0.5l2 0.6c0.7 0.2 1.3 0.5 2 0.7 0.7 0.2 1.3 0.5 1.9 0.7 0.6 0.3 1.3 0.5 1.9 0.8 0.6 0.3 1.3 0.6 1.9 0.9C216 206.1 218.5 207.5 220.7 209z"/></svg>