<svg xmlns="http://www.w3.org/2000/svg" width="500" height="500" viewBox="0 0 500 500"><style>  .a{stop-color:#2B1F16;}.b{stop-color:#140E09;}.c{stop-color:#291D14;}.d{stop-color:#0F0A06;}.e{stop-color:#1F130B;}.f{stop-color:#F2D4C4;}.g{stop-color:#F0D1C1;}.h{stop-color:#E9C9B8;}.i{stop-color:#DEBBA9;}.j{stop-color:#CEA794;}.k{stop-color:#CCA491;}.l{opacity:0.5;}.m{opacity:0.8;}.n{stop-color:#545436;}.o{stop-color:#3F3F25;}.p{stop-color:#32321A;}.q{stop-color:#2E2E17;}.r{stop-color:#313016;}.s{stop-color:#3A3513;}.t{stop-color:#4A3F0D;}.u{stop-color:#614D05;}.v{stop-color:#705600;}.w{fill:#FFD400;}.x{stop-color:#463223;}.y{stop-color:#332317;}.z{stop-color:#26190F;}.A{stop-color:#382314;}.B{stop-color:#26221B;}.C{stop-color:#1E1A14;}.D{stop-color:#14110C;}.E{stop-color:#FFE9DE;}.F{stop-color:#FBE5DA;}.G{stop-color:#F0D9CD;}.H{stop-color:#DEC4B7;}.I{stop-color:#CFB3A5;}.J{stop-color:#9EFF69;}.K{stop-color:#69BA2F;}.L{stop-color:#262523;}.M{stop-color:#1E1D1B;}.N{stop-color:#141311;}.O{stop-color:#0D0D0D;}.P{stop-color:#040404;}.Q{stop-color:#000;}.R{fill:#7F8C00;}</style><radialGradient cx="260.4" cy="540.9" r="225.3" gradientTransform="matrix(1.4012 0.302 -0.2506 1.1626 -121.9492 -95.7979)" gradientUnits="userSpaceOnUse"><stop offset="0.5372" class="a"/><stop offset="0.5851" class="b"/><stop offset="0.6383" class="c"/><stop offset="0.6862" class="b"/><stop offset="0.734" class="c"/><stop offset="0.7819" class="b"/><stop offset="0.8245" class="c"/><stop offset="0.883" class="d"/><stop offset="0.9362" class="e"/></radialGradient><path d="M171 466.3c0 0-10.6-1.4-16.6 3.3-6 4.7-5.7-13.7-10-8.2-4.4 5.5 4.2-25.8-6.9-16.5-11.1 9.2-0.4-34.1-13-5 0 0-2.2-2.2-2.9-16.1-0.6-13.9 5.6-30.2-4.6-27.2-10.2 3-20.8-5.4-17.2-24.4 3.6-19 3.3-45.3 6.9-49.2 3.6-4 28.3 30.1 33.4 29.5C145.3 351.9 198.1 420.5 171 466.3z" style="fill:url(#SVGID_1_);stroke:#000"/><radialGradient cx="513.4" cy="386.5" r="263.7" gradientUnits="userSpaceOnUse"><stop offset="0.5372" class="a"/><stop offset="0.5851" class="b"/><stop offset="0.6383" class="c"/><stop offset="0.6862" class="b"/><stop offset="0.734" class="c"/><stop offset="0.7819" class="b"/><stop offset="0.8245" class="c"/><stop offset="0.883" class="d"/><stop offset="0.9362" class="e"/></radialGradient><path d="M322.3 443.2c0 0 37.4 31.3 58.4 36 0 0-11.7-18.2-17.3-32.2 0 0 5.1 9.8 21 14.5 0 0-2.8-16.8 1.9-25.7 0 0-5.1 2.8 18.2 2.8s-27.1-89.7-54.7-43.9C322.3 440.4 322.3 443.2 322.3 443.2z" style="fill:url(#SVGID_2_);stroke:#000"/><radialGradient cx="246.9" cy="371.2" r="142.1" fx="179.1794" fy="326.0718" gradientTransform="matrix(0.9583 -0.2737 0.2275 0.7312 -74.1555 149.3848)" gradientUnits="userSpaceOnUse"><stop offset="0" class="f"/><stop offset="0.3536" class="g"/><stop offset="0.5916" class="h"/><stop offset="0.7956" class="i"/><stop offset="0.9795" class="j"/><stop offset="1" class="k"/></radialGradient><path d="M94.6 235.3c0 0 7.8 78.8 7.8 89.6 0 10.7 7.8 19.8 25.5 78.2 16.4 53.7 73.9 79.8 88.5 82.2 12.3 2 44.3-8.8 57.3-13.7 31.1-11.8 40.2-16.8 62-39.3 9-9.3 53.3-51.8 77.9-97.2C457.7 253.8 331.4 11.2 94.6 235.3z" style="fill:url(#SVGID_3_);stroke-width:3;stroke:#000"/><g class="l"><path d="M205.8 446.4c0 0 0.3 0 0.9 0 0.5 0 1.3 0 2.2 0.1 0.5 0 1 0 1.5 0 0.5 0 1.1 0 1.6 0 0.6 0 1.2-0.2 1.8-0.2 0.6 0 1.2-0.3 1.8-0.3 0.6 0 1.2 0 1.8 0 0.6 0 1.2 0.2 1.8 0.2 0.6 0 1.1 0.1 1.7 0.1 0.5 0 1 0 1.5 0 1.8-0.1 3.1 0.1 3.1 0.1s-1.1 0.5-3 1.1c-0.5 0.1-0.9 0.3-1.5 0.4-0.5 0.1-1.1 0.2-1.7 0.3-0.6 0.1-1.2 0.2-1.8 0.2-0.6 0-1.3 0-1.9 0.1-0.6 0-1.3 0-1.9 0-0.6 0-1.2-0.1-1.8-0.2-0.6 0-1.2-0.2-1.7-0.3-0.5-0.1-1-0.2-1.5-0.4-0.9-0.3-1.7-0.6-2.2-0.8C206.1 446.5 205.8 446.4 205.8 446.4z"/></g><path d="M239.1 298.2c0 0 0.6-0.5 1.7-1.1 0.5-0.3 1.2-0.7 2-1.2 0.8-0.4 1.7-0.9 2.6-1.4 1-0.5 2.1-1 3.2-1.4 1.1-0.5 2.4-1 3.7-1.4 2.6-0.8 5.4-1.5 8.2-2.2 1.4-0.3 2.8-0.7 4.2-0.9 1.4-0.3 2.8-0.6 4.1-0.8 1.3-0.2 2.6-0.5 3.9-0.6 1.2-0.1 2.4-0.3 3.5-0.4 1.1-0.1 2.1-0.2 3-0.2 0.9-0.1 1.7 0 2.3-0.1 1.3 0 2 0 2 0l0 0.3c0 0-0.7 0.1-2 0.3-0.6 0.1-1.4 0.2-2.2 0.3-0.9 0.1-1.8 0.3-2.9 0.5-1.1 0.2-2.2 0.5-3.4 0.7-1.2 0.2-2.5 0.6-3.8 0.9-1.3 0.3-2.6 0.7-4 1.1-1.4 0.4-2.7 0.8-4.1 1.2-1.4 0.5-2.7 0.9-4 1.4-1.3 0.5-2.6 1-3.9 1.4-1.3 0.4-2.5 0.8-3.7 1.2-1.2 0.3-2.3 0.7-3.3 1-2.1 0.6-3.8 1-5.1 1.3-1.2 0.3-2 0.4-2 0.4L239.1 298.2z"/><path d="M186.4 297.7c0 0-2.4-0.3-5.8-1.2-0.8-0.2-1.8-0.5-2.7-0.7-1-0.3-2-0.6-3-0.9-1-0.4-2.1-0.8-3.1-1.2-1.1-0.4-2.1-0.8-3.2-1.2-2.2-0.8-4.4-1.5-6.5-2.1-1-0.3-2.1-0.6-3-0.8-1-0.2-1.9-0.5-2.7-0.7-0.8-0.2-1.6-0.3-2.3-0.5-0.7-0.2-1.3-0.2-1.8-0.3-1-0.2-1.6-0.2-1.6-0.2l0-0.3c0 0 0.6 0 1.6 0 0.5 0 1.1 0 1.9 0.1 0.7 0.1 1.5 0.1 2.4 0.2 0.9 0.1 1.8 0.2 2.8 0.4 1 0.1 2 0.3 3.1 0.5 2.2 0.4 4.5 0.9 6.7 1.5 2.3 0.6 4.6 1.1 6.7 1.8 2.1 0.7 4 1.6 5.5 2.4 1.6 0.8 2.8 1.6 3.7 2.2 0.9 0.6 1.3 1 1.3 1L186.4 297.7z"/><g class="l"><radialGradient cx="212.7" cy="614.5" r="65.3" gradientTransform="matrix(0.7008 -0.7538 0.7188 -0.0801 -266.9789 624.2292)" gradientUnits="userSpaceOnUse"><stop offset="0" stop-color="#FFBAB5"/><stop offset="0.4174" stop-color="#FDB9B3"/><stop offset="0.5678" stop-color="#F6B3AD"/><stop offset="0.6749" stop-color="#EBAAA3"/><stop offset="0.7616" stop-color="#DA9E95"/><stop offset="0.8359" stop-color="#C48D81"/><stop offset="0.9015" stop-color="#A8786A"/><stop offset="0.9595" stop-color="#89604E"/><stop offset="1" stop-color="#6E4C37"/></radialGradient><path d="M268.7 442.2c0 0 4.2-1.7 10.7-5.9 1.2-0.8 2.3-1.9 3.8-2.6 2-0.9 2.6-2.6 4.5-3.4 2.2-0.9 3-3.6 5.4-4.6 2.6-1.1 3.5-3.9 5.7-5.5 2.8-2 3-4 5.1-5.5 2-1.5 2.8-3.3 4.2-5 0.8-1 1.6-1.3 2.4-3.1 0.8-1.7 1.6-3 2.9-4 1.6-1.2 1.4-2.9 2.6-3.8 1.6-1.4 1.9-3.7 3.2-5.1 1.1-1.2 1.1-2.5 2-3.5 1.5-1.7 2.2-4.1 3.3-6.2 3.7-7.3 6.6-14.7 8.4-21.5 0 0 0.5 4.8-1.7 14-0.6 2.7-2.1 5.8-2.7 9.1-0.3 1.7-1.7 3.2-2 5.2-0.3 1.5-1.8 3-2.1 4.6-0.3 1.9-2.4 3.2-2.9 5.6-0.4 1.5-2 2.4-2.5 4.2-0.5 1.7-2.4 2.7-3 4.5-0.6 1.5-2.2 2.1-3 4-0.7 1.6-2.7 2.3-3.5 4.2-1.2 2.9-4.9 4.2-6.9 6.9-1.5 2-4.6 2.9-5.9 4.8-1.4 1.9-4.3 2-6.1 4.1-1.3 1.5-3.8 1.3-5.4 3-1.1 1.1-2.8 1.3-4.3 1.9C277.1 440.1 273 441.4 268.7 442.2z" fill="url(#SVGID_4_)"/><path d="M268.6 442.1c3.2-1.6 6.3-3.4 9.5-5.4 1.7-0.9 2.9-2.4 4.8-3.2 1.8-0.7 2.7-2.7 4.7-3.5 1.8-0.8 2.6-2.9 4.4-4.1 1-0.6 1.9-0.9 2.6-1.7 0.7-0.7 1.3-1.6 2-2.4 0.6-0.8 1.6-1.6 2.4-2.3 0.9-0.6 1.5-1.4 2.1-2.3 0.6-0.8 1.3-1.8 2.2-2.5 0.9-0.7 1.7-1.4 2.3-2.2 0.7-0.9 1.3-1.8 2-2.7 0.7-0.9 1.6-1.6 2.2-2.5 0.6-0.9 1-2 1.7-3 0.7-1 1.7-1.7 2.4-2.5 0.7-0.8 0.8-2 1.8-3 0.9-0.8 1.4-1.7 1.9-2.8 0.4-1.1 1.2-2.2 1.9-3.1 0.6-0.9 0.9-2.2 1.8-3.1 1.5-1.8 2.2-4.2 3.4-6.4 1-2.2 2.2-4.4 3.1-6.7 1-2.3 1.9-4.6 2.7-7 0.9-2.4 1.5-4.7 2.3-7.1 0.1-0.4 0.3-0.8 0.4-1.2 0 0.4 0 0.8 0.1 1.1 0.2 4.7-0.5 9.7-1.7 14.7-0.6 2.5-1.7 4.9-2.2 7.3-0.1 0.6-0.3 1.2-0.4 1.8-0.2 0.7-0.5 1.3-0.8 1.9-0.6 1.2-0.9 2.1-1.2 3.4-0.5 1.4-1.4 2.4-1.8 3.4-0.2 0.5-0.2 1.1-0.6 1.8-0.3 0.7-0.7 1.2-1.1 1.7-0.8 1-1.2 1.9-1.6 3.1-0.6 1.4-1.6 2.1-2.1 3.1-0.2 0.5-0.4 1.1-0.7 1.7-0.4 0.7-0.8 1.1-1.2 1.5-0.4 0.5-0.8 0.9-1 1.4-0.3 0.4-0.4 1-0.9 1.6-0.9 1.1-1.8 1.7-2.3 2.7-0.2 0.4-0.5 1.1-1 1.6-0.4 0.5-0.9 0.9-1.3 1.2-0.9 0.7-1.3 1.6-1.9 2.7-0.7 1.1-1.6 1.9-2.5 2.6-0.9 0.7-1.8 1.4-2.6 2.1-0.8 0.7-1.4 1.6-2.3 2.4-1.8 1.5-3.9 2.3-5.2 4-1.6 1.8-4.1 2-5.5 3.4-0.7 0.7-1.7 1.4-2.7 1.7-1 0.4-2 0.7-2.8 1.3-1.4 1.5-3.8 1.8-5.6 2.6-3.9 1.3-7.7 2.4-11.5 3.2C268.7 442.2 268.7 442.2 268.6 442.1zM268.6 442.1c3.7-0.9 7.5-2.1 11.3-3.5 1.9-0.8 4.1-1.1 5.4-2.6 1.8-1.3 4.1-1.3 5.4-3 1.6-1.5 4.1-1.9 5.4-3.4 1.3-1.8 3.6-2.8 5.2-4.1 0.8-0.6 1.4-1.7 2.3-2.4 0.9-0.8 1.8-1.5 2.7-2.2s1.7-1.5 2.3-2.3c0.3-0.4 0.5-1 0.8-1.5 0.4-0.5 0.8-1 1.3-1.4 1-0.9 1.6-1.4 2.1-2.5 0.6-1.2 1.7-2 2.3-2.8 0.3-0.4 0.5-1 0.8-1.6 0.4-0.6 0.8-1.1 1.2-1.5 0.9-0.9 1.3-1.6 1.8-3 0.6-1.2 1.7-2.1 2-3 0.3-1.1 1-2.5 1.7-3.4 0.8-1.1 1.2-1.8 1.5-3.2 0.5-1.3 1.4-2.4 1.7-3.3 0.2-1.1 0.7-2.6 1.3-3.6 0.7-1.1 0.9-2.1 1.2-3.4 0.6-2.5 1.6-4.8 2.3-7.3 1.2-4.8 2.1-9.8 1.9-14.4 0.1 0 0.3-0.1 0.4-0.1-0.8 2.4-1.4 4.8-2.3 7.2-0.8 2.4-1.8 4.7-2.8 7-0.9 2.3-2.1 4.5-3.1 6.8-1.1 2.2-1.8 4.6-3.3 6.5-0.9 0.9-1 2-1.7 3.1-0.8 1-1.4 1.9-1.8 3-0.4 1-1.1 2.3-2 3-0.8 0.7-0.9 2-1.7 3-0.8 0.9-1.7 1.5-2.3 2.5-0.6 0.9-1 1.9-1.6 3-0.6 1.1-1.6 1.8-2.2 2.6-0.6 0.9-1.3 1.8-1.9 2.7-0.7 0.9-1.6 1.7-2.4 2.4-0.8 0.7-1.4 1.6-2 2.4-0.6 0.9-1.4 1.8-2.2 2.5-0.9 0.7-1.6 1.3-2.3 2.1-0.7 0.8-1.3 1.7-2.1 2.4-0.8 0.8-1.9 1.3-2.7 1.7-1.7 1-2.5 3.1-4.5 4.1-1.9 0.7-2.8 2.7-4.8 3.5-1.8 0.8-3.1 2.3-4.8 3.1-3.3 1.9-6.6 3.6-9.8 5.1C268.7 442.2 268.7 442.2 268.6 442.1z" fill="#3A0000"/></g><path d="M185.5 438.7c0.6-0.3 1.3-0.6 1.9-0.9 0.6-0.3 1.2-0.6 1.8-1 1.2-0.7 2.3-1.4 3.4-2.3 0.6-0.4 1.1-0.8 1.6-1.2 0.6-0.4 1.1-0.8 1.6-1.3 0.5-0.4 1.1-0.9 1.5-1.3l1.5-1.4 1.4-1.4c0.5-0.5 0.9-1 1.4-1.5 0.4-0.5 0.9-1 1.4-1.5l1.3-1.6c0.9-1 1.7-2.2 2.5-3.2 0.4-0.5 0.8-1.1 1.2-1.7l1.2-1.7c0.5-0.7 1.4-0.8 2.1-0.4 0.2 0.1 0.3 0.3 0.4 0.5 0.3 0.6 0.7 1.2 1.1 1.8l1.2 1.8c0.8 1.2 1.6 2.3 2.5 3.5 0.9 1.1 1.8 2.2 2.7 3.3 0.9 1.1 1.9 2.1 2.9 3.1 1 1 2.1 1.9 3.2 2.7 1.1 0.8 2.3 1.5 3.6 1.9 1.3 0.4 2.7 0.6 4 0.3 1.4-0.2 2.7-0.9 3.8-1.8-0.9 1.1-2.1 2.1-3.6 2.7-1.4 0.6-3.1 0.7-4.6 0.4-1.5-0.3-3-0.9-4.4-1.6-1.3-0.7-2.6-1.6-3.8-2.6-1.2-1-2.3-2-3.3-3.1-1-1.1-2-2.2-2.9-3.4-0.9-1.2-1.8-2.4-2.7-3.6-0.4-0.6-0.8-1.2-1.2-1.9-0.4-0.6-0.8-1.3-1.2-1.9l2.5 0.1-1.2 1.7c-0.4 0.6-0.8 1.2-1.3 1.7-0.9 1.1-1.8 2.2-2.7 3.2-1 1-1.9 2.1-3 3.1-0.5 0.5-1 1-1.6 1.4l-1.6 1.4-1.7 1.3c-0.6 0.4-1.2 0.8-1.7 1.2-0.6 0.4-1.2 0.8-1.8 1.1-0.6 0.4-1.2 0.7-1.8 1-1.2 0.7-2.5 1.3-3.8 1.8C188.2 437.9 186.9 438.4 185.5 438.7z"/><g class="m"><path d="M206 366.1c0 0-0.1 1.6-0.7 3.9-0.3 1.2-0.6 2.5-1.1 3.9-0.2 0.7-0.6 1.4-0.9 2.1-0.1 0.4-0.4 0.7-0.5 1.1l-0.5 1c-0.2 0.3-0.4 0.7-0.5 1-0.1 0.3-0.2 0.5-0.3 0.8-0.2 0.6-0.1 1.2 0 1.7 0.2 0.5 0.5 1.1 0.9 1.5 0.4 0.5 0.8 0.9 1.2 1.2 0.9 0.7 1.7 1.3 2.2 1.6 0.6 0.4 0.9 0.6 0.9 0.6s-0.4-0.1-1-0.3c-0.7-0.2-1.6-0.5-2.7-1-0.5-0.3-1.1-0.6-1.7-1.1-0.6-0.5-1.1-1.1-1.4-2-0.1-0.4-0.3-0.9-0.3-1.3 0-0.2-0.1-0.5 0-0.7l0.1-0.7c0-0.5 0.2-0.9 0.4-1.4 0.2-0.4 0.4-0.7 0.5-1.1l0.6-1c0.2-0.3 0.4-0.6 0.5-1 0.3-0.7 0.7-1.3 1-2 0.6-1.3 1.2-2.5 1.7-3.6C205.3 367.5 206 366.1 206 366.1z"/></g><radialGradient cx="383.8" cy="517.9" r="13.6" fx="385.6881" fy="522.5721" gradientTransform="matrix(-0.9899 0.0116 0.3883 2.6515 439.1939 -1061.6935)" gradientUnits="userSpaceOnUse"><stop offset="0" class="n"/><stop offset="0.1593" class="o"/><stop offset="0.3154" class="p"/><stop offset="0.4628" class="q"/><stop offset="0.6261" class="r"/><stop offset="0.7455" class="s"/><stop offset="0.8509" class="t"/><stop offset="0.9477" class="u"/><stop offset="1" class="v"/></radialGradient><path d="M263.1 364.9c1.3 0.3 4.6-1.3 6.1-5 4.5-11.5 10.7-29.6 0.1-52.7-1.3-2.8-3-3.6-5.1-3.8-2.1-0.2-5.3 1-6.5 3.7-4.9 8.8-9.2 25.3-0.3 52.7C258.6 363.3 261.9 364.6 263.1 364.9z" fill="url(#SVGID_5_)"/><path d="M263.2 364.7c0.7 0.1 1.5-0.3 2.2-0.6 0.7-0.4 1.3-0.9 1.8-1.5s0.9-1.2 1.2-1.9c0.3-0.7 0.5-1.5 0.8-2.2 1-3.1 1.9-6.1 2.6-9.2 0.7-3.1 1.2-6.2 1.5-9.4 0.2-1.6 0.3-3.1 0.3-4.7 0.1-1.6 0-3.1 0-4.7-0.1-1.6-0.2-3.1-0.4-4.7-0.2-1.6-0.4-3.1-0.8-4.6-0.3-1.5-0.7-3.1-1.1-4.6-0.4-1.5-0.9-3-1.4-4.5l-0.8-2.2-0.9-2.2c-0.6-1.3-1.4-2.3-2.6-2.7-0.3-0.1-0.6-0.2-1-0.3-0.1 0-0.4 0.1-0.5 0.1L263.8 305h-0.2c-0.6 0-1.3 0.1-1.9 0.4-1.3 0.5-2.4 0.6-3 2.6h0 0l-0.9 1.5-0.8 1.6c-0.5 1.2-1 2.3-1.4 3.5-0.4 1.2-0.7 2.4-1.1 3.6-0.3 1.2-0.6 2.5-0.7 3.7-0.2 1.3-0.4 2.5-0.5 3.8-0.2 1.3-0.2 2.5-0.2 3.8 0 1.3 0 2.6 0 3.8l0.2 3.8 0.4 3.8 0.5 3.8c0.2 1.3 0.5 2.5 0.7 3.8 0.2 1.3 0.5 2.5 0.8 3.8 0.3 1.3 0.6 2.5 1 3.8 0.4 1.2 0.7 2.5 1.1 3.7 0.4 1.2 1.2 2.3 2.1 3.1 1 0.8 2.2 1.4 3.4 1.7L263.2 364.7zM263.1 365h0c-1.3 0-2.5-0.9-3.5-1.8-1-0.8-1.8-1.9-2.3-3.2-0.4-1.2-0.8-2.5-1.2-3.7-0.4-1.2-0.8-2.5-1.1-3.7-0.4-1.3-0.7-2.5-1-3.8-0.3-1.3-0.6-2.5-0.9-3.8l-0.7-3.8-0.5-3.9-0.3-3.9c0-1.3-0.1-2.6-0.1-3.9 0.1-1.3 0-2.6 0.2-3.9 0.1-1.3 0.2-2.6 0.4-3.9 0.1-1.3 0.4-2.6 0.7-3.9 0.3-1.3 0.6-2.6 1-3.8 0.4-1.3 0.9-2.5 1.3-3.7l0.8-1.8 0.9-1.8 0 0.1c0.8-1.8 2.4-3.1 4-3.8 0.9-0.4 1.7-0.6 2.8-0.6l0.4 0 0.3 0c0.3 0 0.5 0 0.7 0.1 0.5 0.1 0.9 0.2 1.4 0.3 0.9 0.3 1.8 0.9 2.5 1.6 0.3 0.4 0.6 0.7 0.9 1.1 0.3 0.4 0.5 0.9 0.7 1.2l1 2.3 1 2.3c0.6 1.5 1.2 3.1 1.7 4.7 0.5 1.6 0.9 3.2 1.3 4.8 0.4 1.6 0.6 3.2 0.9 4.9 0.2 1.6 0.4 3.3 0.4 4.9 0.1 3.3-0.1 6.6-0.6 9.9-0.2 1.6-0.6 3.2-1 4.8-0.4 1.6-0.9 3.2-1.4 4.7-1 3.1-2.2 6.1-3.5 9.1-0.3 0.7-0.6 1.5-1.1 2.2-0.5 0.7-1 1.4-1.6 2-0.6 0.6-1.3 1.1-2 1.4-0.7 0.4-1.6 0.7-2.4 0.5L263.1 365z" class="w"/><radialGradient cx="508.6" cy="547.9" r="13.6" fx="510.5124" fy="552.5372" gradientTransform="matrix(-0.9213 0.0173 0.345 2.5699 442.1535 -1100.4609)" gradientUnits="userSpaceOnUse"><stop offset="0" class="n"/><stop offset="0.1593" class="o"/><stop offset="0.3154" class="p"/><stop offset="0.4628" class="q"/><stop offset="0.6261" class="r"/><stop offset="0.7455" class="s"/><stop offset="0.8509" class="t"/><stop offset="0.9477" class="u"/><stop offset="1" class="v"/></radialGradient><path d="M164.8 363.7c1.2 0.3 4.3-1.3 5.7-4.9 4.3-11.2 10.2-28.8 0.4-51.1-1.2-2.7-2.7-3.4-4.7-3.7-2-0.2-5 1-6.1 3.6-4.7 8.6-8.8 24.6-0.6 51.1C160.6 362.2 163.7 363.4 164.8 363.7z" fill="url(#SVGID_6_)"/><path d="M164.8 363.5c0.7 0.1 1.4-0.3 2.1-0.7 0.6-0.4 1.2-0.9 1.7-1.5 0.5-0.6 0.9-1.2 1.1-1.9 0.3-0.7 0.5-1.4 0.7-2.2 0.9-2.9 1.8-5.9 2.4-8.9 0.3-1.5 0.6-3 0.9-4.5 0.3-1.5 0.4-3 0.6-4.5 0.2-1.5 0.3-3 0.3-4.5 0.1-1.5 0.1-3 0-4.5 0-1.5-0.2-3-0.3-4.5-0.2-1.5-0.4-3-0.7-4.5-0.3-1.5-0.6-3-1-4.4-0.4-1.5-0.8-2.9-1.3-4.4-0.5-1.4-1-2.9-1.6-4.3-0.5-1.3-1.2-2.3-2.3-2.7-0.3-0.1-0.6-0.2-0.9-0.3-0.3-0.1-0.7-0.1-0.9-0.1-0.5 0-1.2 0.1-1.8 0.4-1.2 0.5-2.3 1.4-2.8 2.5l0 0.1 0 0-0.8 1.6-0.8 1.7c-0.5 1.1-0.9 2.3-1.3 3.4-0.4 1.1-0.7 2.3-1 3.5-0.3 1.2-0.6 2.4-0.7 3.6-0.2 1.2-0.4 2.4-0.5 3.7-0.2 1.2-0.2 2.5-0.3 3.7 0 1.2 0 2.5 0 3.7l0.1 3.7 0.3 3.7 0.5 3.7c0.1 1.2 0.4 2.5 0.6 3.7 0.2 1.2 0.5 2.4 0.7 3.7 0.3 1.2 0.5 2.4 0.9 3.6l1 3.6c0.3 1.2 1 2.2 1.9 3.1 0.9 0.8 2 1.4 3.2 1.7L164.8 363.5zM164.8 364h0c-1.2 0-2.4-1-3.3-1.9-1-0.8-1.7-2-2.1-3.2l-1.1-3.6c-0.4-1.2-0.7-2.4-1-3.6-0.3-1.2-0.7-2.4-0.9-3.7-0.3-1.2-0.6-2.4-0.8-3.7-0.2-1.2-0.4-2.5-0.6-3.7l-0.5-3.8-0.3-3.8c0-1.3-0.1-2.5 0-3.8 0.1-1.3 0-2.5 0.2-3.8 0.1-1.3 0.2-2.5 0.4-3.8 0.1-1.3 0.4-2.5 0.7-3.8 0.3-1.2 0.6-2.5 1-3.7 0.4-1.2 0.8-2.4 1.3-3.6l0.8-1.8 0.9-1.7 0 0.1c0.8-1.7 2.2-3 3.8-3.7 0.8-0.4 1.7-0.6 2.7-0.6 0.5 0 0.9 0 1.4 0.1 0.4 0.1 0.9 0.2 1.4 0.4 0.9 0.3 1.8 1 2.4 1.7 0.3 0.4 0.6 0.7 0.8 1.1l0.3 0.6c0.1 0.2 0.2 0.3 0.3 0.6 0.6 1.4 1.3 2.9 1.8 4.4 0.5 1.5 1.1 3 1.5 4.5 0.4 1.5 0.8 3.1 1.1 4.6 0.3 1.6 0.6 3.1 0.8 4.7 0.2 1.6 0.3 3.2 0.3 4.8 0.1 3.2-0.1 6.4-0.6 9.5-0.2 1.6-0.6 3.1-0.9 4.7-0.4 1.5-0.8 3-1.3 4.5-1 3-2.1 5.9-3.4 8.8-0.3 0.7-0.6 1.4-1 2.2-0.4 0.7-0.9 1.4-1.5 1.9s-1.2 1.1-1.9 1.4c-0.7 0.4-1.5 0.8-2.3 0.7L164.8 364z" class="w"/><radialGradient cx="483.4" cy="99.3" r="119.6" gradientTransform="matrix(-0.9701 0.2427 0.2427 0.9701 533.4033 -63.2578)" gradientUnits="userSpaceOnUse"><stop offset="0.5372" class="x"/><stop offset="0.5851" class="y"/><stop offset="0.6383" class="x"/><stop offset="0.6862" class="y"/><stop offset="0.734" class="x"/><stop offset="0.7819" class="y"/><stop offset="0.8245" class="x"/><stop offset="0.883" class="z"/><stop offset="0.9362" class="A"/></radialGradient><path d="M181.7 112.3c0 0-32.4-19.6-50.3-23.3C105.2 83.5 84.5 71.7 75.5 66.5c-2.5-1.5-6.8-5.3-7.2-14.7-2.3 5.5-3.1 8.2-4.6 7.1-2.1-1.6-3.8-3.1-5.4-4.7 0 0-1.1 14.6 1.7 16.8 0 0-4.6-4.6-6-5.7 0 0 3.3 10.2 4.5 11.3 1.3 1.1 23.2 56.8 36.8 68.8 0 0-2.8 1.7-5.1 0.3 0 0 4.4 3.8 5.6 3.9 0 0-2.9 3.6-5.8 2.4 0 0 3.9 3.5 7.4 3.9" fill="url(#SVGID_7_)"/><path d="M181.7 112.3c-2.5-1.3-4.9-2.6-7.4-3.8-2.5-1.3-5-2.5-7.4-3.7-5-2.4-10-4.7-15.1-6.8-2.6-1-5-2.2-7.6-3.3-2.5-1-5.1-2-7.7-2.8-1.3-0.4-2.6-0.8-3.9-1.1l-4-0.9c-1.4-0.3-2.7-0.6-4.1-1-1.4-0.4-2.7-0.7-4.1-1.1-1.3-0.4-2.7-0.8-4-1.2l-4-1.3-4-1.4-3.9-1.5c-2.6-1-5.2-2.1-7.7-3.2-2.6-1.1-5.1-2.3-7.6-3.6-2.5-1.2-5-2.5-7.4-3.9-2.5-1.3-4.8-2.7-7.3-4.1-2.7-1.7-4.6-4.3-5.8-7-1.2-2.8-1.7-5.7-1.9-8.6l2.9 0.5-1.6 3.8c-0.3 0.6-0.5 1.3-0.9 2-0.2 0.3-0.4 0.7-0.6 1.1-0.3 0.4-0.5 0.8-1.3 1.2-0.4 0.2-1 0.3-1.5 0.2-0.5-0.1-0.8-0.3-1-0.5l-0.8-0.7c-0.5-0.4-1.1-0.9-1.6-1.3-0.6-0.5-1.1-0.9-1.6-1.4-0.5-0.5-1-1-1.5-1.5l2.6-0.9c-0.1 1.4-0.2 2.8-0.2 4.2 0 1.4 0 2.8 0 4.2 0.1 1.4 0.1 2.8 0.4 4.1 0.1 0.7 0.2 1.3 0.4 1.9 0.1 0.3 0.2 0.5 0.3 0.7 0.1 0.2 0.2 0.3 0.3 0.4l-2 2.3-3-2.9-1.5-1.4-1.5-1.4 2.4-1.6c0.6 1.8 1.2 3.6 1.8 5.3 0.6 1.7 1.3 3.5 2.1 5 0.1 0.2 0.2 0.3 0.2 0.4 0 0 0 0 0 0l0 0c-0.1-0.1 0.2 0.2 0.1 0.1l0 0 0.1 0.1c0.1 0.1 0.2 0.2 0.3 0.4l0.1 0.2c0.3 0.5 0.5 0.9 0.7 1.4l1.2 2.6 2.3 5.2c3 6.9 6.1 13.8 9.3 20.6 3.2 6.8 6.5 13.6 10.2 20.1 1.8 3.3 3.7 6.5 5.8 9.6 1.1 1.5 2.1 3.1 3.1 4.6 1.1 1.5 2.2 2.9 3.5 4.2l1.2 1.1-1.3 0.8c-0.2 0.1-0.3 0.1-0.4 0.2l-0.4 0.2c-0.2 0.1-0.5 0.2-0.7 0.3-0.5 0.1-1 0.2-1.6 0.3s-1.1 0-1.6-0.1c-0.3-0.1-0.5-0.2-0.8-0.3-0.3-0.1-0.5-0.3-0.7-0.4l1.2-1.5c0.8 0.8 1.7 1.5 2.5 2.2 0.4 0.4 0.9 0.7 1.3 1 0.2 0.2 0.4 0.3 0.7 0.4 0.1 0.1 0.2 0.1 0.3 0.2l0.2 0.1 1.1 0.5-0.6 0.7c-0.2 0.2-0.4 0.4-0.6 0.6-0.2 0.2-0.4 0.4-0.7 0.6-0.5 0.4-1 0.7-1.5 1-0.5 0.3-1.1 0.5-1.8 0.5-0.6 0.1-1.3-0.1-1.9-0.3l0.4-0.7c1 1 2.1 1.8 3.3 2.6 1.2 0.7 2.5 1.4 3.9 1.6-1.4-0.1-2.8-0.6-4.1-1.3-1.3-0.7-2.5-1.4-3.6-2.3l-2-1.5 2.4 0.8c0.5 0.2 0.9 0.2 1.4 0.1 0.5-0.1 0.9-0.3 1.4-0.5 0.4-0.3 0.9-0.6 1.2-0.9 0.2-0.2 0.4-0.4 0.6-0.6 0.2-0.2 0.4-0.4 0.5-0.6l0.5 1.1c-0.3 0-0.4-0.1-0.6-0.2-0.2-0.1-0.3-0.1-0.5-0.2-0.3-0.1-0.5-0.3-0.8-0.4-0.5-0.3-1-0.6-1.5-1-1-0.7-1.9-1.4-2.8-2.1l-5.2-4.1 6.4 2.5c0.2 0.1 0.3 0.2 0.4 0.2 0.1 0.1 0.3 0.1 0.5 0.1 0.3 0 0.7 0.1 1 0 0.3-0.1 0.7-0.2 1-0.3 0.2-0.1 0.3-0.1 0.5-0.2l0.2-0.1c0.1 0 0.2-0.1 0.2-0.1l-0.2 1.9c-1.5-1.3-2.9-2.7-4.1-4.2-1.3-1.5-2.4-3-3.4-4.6-2.1-3.2-4-6.5-5.9-9.8-3.7-6.7-7-13.5-10.2-20.3-3.2-6.8-6.3-13.8-9.3-20.7l-2.3-5.2-1.2-2.6c-0.2-0.4-0.4-0.8-0.6-1.2l-0.1-0.1c0 0 0 0.1 0.1 0.1l-0.1-0.1 0 0c0 0 0.3 0.3 0.1 0.1l-0.1-0.1c-0.1-0.1-0.2-0.2-0.3-0.3-0.3-0.3-0.4-0.6-0.5-0.8-1-1.9-1.6-3.6-2.3-5.4-0.6-1.8-1.3-3.6-1.8-5.4l-1.7-5.4 4.1 3.8 1.6 1.5 1.5 1.4 3 2.9-2 2.3c-0.5-0.4-0.8-0.9-1.1-1.3-0.2-0.4-0.4-0.8-0.5-1.2-0.3-0.8-0.4-1.6-0.5-2.3-0.2-1.5-0.3-3-0.4-4.5-0.1-1.5-0.1-2.9 0-4.4 0-1.5 0.1-2.9 0.2-4.4L57 50.9l2.3 2.2c0.5 0.5 0.9 0.9 1.4 1.4 0.5 0.4 1 0.9 1.5 1.3 0.5 0.4 1 0.8 1.5 1.3l0.8 0.6c0 0 0 0-0.1 0-0.1 0-0.4 0-0.5 0-0.2 0.1 0 0 0.1-0.2 0.1-0.2 0.3-0.4 0.4-0.7 0.3-0.5 0.5-1.2 0.8-1.8l1.6-3.8 2.5-6 0.4 6.5c0.2 2.6 0.6 5.2 1.6 7.6 1 2.3 2.6 4.4 4.6 5.7 2.3 1.4 4.8 2.8 7.2 4.1 2.4 1.3 4.9 2.6 7.3 3.8 2.5 1.2 5 2.4 7.5 3.5 2.5 1.1 5.1 2.2 7.6 3.2l3.9 1.5 3.9 1.4 3.9 1.3c1.3 0.4 2.6 0.8 4 1.2 1.3 0.4 2.6 0.7 4 1.1 1.3 0.4 2.7 0.7 4 1l4.1 0.9c1.4 0.3 2.8 0.7 4.1 1.2 2.7 0.9 5.3 1.9 7.9 2.9 2.6 1 5.2 2.1 7.7 3.4 5 2.6 9.8 5.3 14.6 8.1C172.3 106.2 177 109.2 181.7 112.3z"/><radialGradient cx="436.3" cy="62.6" r="40.1" gradientTransform="matrix(-0.7875 0.6164 1.3987 1.787 381.3796 -277.4018)" gradientUnits="userSpaceOnUse"><stop offset="0" class="f"/><stop offset="0.3536" class="g"/><stop offset="0.5916" class="h"/><stop offset="0.7956" class="i"/><stop offset="0.9795" class="j"/><stop offset="1" class="k"/></radialGradient><path d="M157.4 133.2c0 0-40.2-22.2-48.7-29.6-8.5-7.3-37.5-25.3-43.6-27.7 0 0 1.2 22.6 35.8 66.3C100.8 142.2 107.1 162.8 157.4 133.2z" style="fill:url(#SVGID_8_);stroke-width:0.8;stroke:#000"/><path d="M168.7 149.6c-2.7-0.5-5.5-1-8.3-1.3-1.4-0.1-2.8-0.2-4.2-0.3-1.4 0-2.8 0-4.1 0.5l-0.4 0.1 0.3-0.3c1.6-1.6 3.3-3.1 5-4.6 0.9-0.7 1.7-1.4 2.6-2.1 0.5-0.3 0.9-0.7 1.4-1 0.5-0.3 1-0.6 1.5-0.8l0 0.3c-2.9-1.4-5.9-2.8-8.7-4.4-1.4-0.8-2.9-1.6-4.3-2.4-0.7-0.4-1.4-0.9-2.1-1.3-0.7-0.5-1.3-0.9-2-1.5l-0.6-0.5 0.7 0.1c2 0.2 4 0.5 6 0.9 2 0.4 4 0.9 5.9 1.7l-0.2 0.4c-7.9-4.4-15.8-8.9-23.7-13.4-3.9-2.3-7.8-4.6-11.7-7-3.9-2.4-7.7-4.8-11.4-7.5-1.9-1.3-3.5-2.9-5.4-4.2-1.8-1.4-3.6-2.7-5.5-4-3.7-2.6-7.5-5.1-11.3-7.5s-7.7-4.8-11.5-7.2c-1.9-1.2-3.9-2.3-5.9-3.4-2-1.1-3.9-2.2-6-3.1l0.4-0.3c0.1 1.5 0.5 3.1 0.8 4.6 0.4 1.5 0.8 3 1.3 4.6 0.5 1.5 1 3 1.6 4.5 0.6 1.5 1.1 3 1.8 4.4 0.6 1.4 1.2 2.9 2 4.3 0.7 1.4 1.4 2.9 2.1 4.3l2.2 4.2c0.7 1.4 1.6 2.7 2.4 4.1 0.8 1.4 1.6 2.7 2.4 4.1l2.5 4c0.8 1.4 1.7 2.6 2.6 4l2.6 4 2.8 3.9c0.9 1.3 1.8 2.6 2.8 3.9l5.7 7.6-5.8-7.5c-1-1.3-1.9-2.6-2.8-3.8l-2.8-3.8-2.7-3.9c-0.9-1.3-1.8-2.6-2.7-3.9l-2.5-4c-0.9-1.3-1.7-2.7-2.4-4.1-0.8-1.4-1.6-2.7-2.4-4.1l-2.2-4.2c-0.7-1.4-1.4-2.8-2.1-4.3-0.7-1.4-1.3-2.9-2-4.3-0.7-1.4-1.2-2.9-1.8-4.4-0.6-1.5-1.1-3-1.6-4.5-0.5-1.5-0.9-3-1.3-4.6-0.4-1.6-0.7-3.1-0.9-4.7l0-0.4 0.4 0.2c2.1 0.9 4.1 2 6.1 3.1 2 1.1 3.9 2.3 5.9 3.4 3.9 2.3 7.8 4.7 11.6 7.1 3.8 2.4 7.6 4.9 11.4 7.5 1.9 1.3 3.7 2.6 5.5 4 1.9 1.3 3.5 2.9 5.3 4.2 3.6 2.7 7.5 5.1 11.3 7.5 3.9 2.4 7.7 4.7 11.6 7 7.8 4.6 15.7 9.1 23.6 13.5l-0.2 0.4c-1.8-0.8-3.8-1.3-5.7-1.7-2-0.4-4-0.7-6-0.9l0.2-0.4c0.6 0.5 1.3 1 1.9 1.4 0.7 0.4 1.4 0.9 2.1 1.3 1.4 0.8 2.8 1.6 4.2 2.4 2.9 1.5 5.8 3 8.7 4.4l0.4 0.2-0.4 0.2c-0.5 0.2-1 0.5-1.5 0.8-0.5 0.3-0.9 0.6-1.4 0.9-0.9 0.7-1.8 1.3-2.6 2.1-1.7 1.4-3.4 2.9-5 4.5l-0.1-0.2c1.4-0.4 2.8-0.5 4.2-0.4 1.4 0 2.8 0.2 4.2 0.3C163.2 148.6 165.9 149.1 168.7 149.6z"/><radialGradient cx="1257.4" cy="248.5" r="1263.5" gradientTransform="matrix(0.9963 -0.0858 0.0858 0.9963 2.3203 30.9395)" gradientUnits="userSpaceOnUse"><stop offset="0.5372" class="x"/><stop offset="0.5851" class="y"/><stop offset="0.6383" class="x"/><stop offset="0.6862" class="y"/><stop offset="0.734" class="x"/><stop offset="0.7819" class="y"/><stop offset="0.8245" class="x"/><stop offset="0.883" class="z"/><stop offset="0.9362" class="A"/></radialGradient><path d="M181.2 242.9c-22.9 20.8-27.1 17.8-36.1 25.5-9 7.8-23.2 36.7-23.2 36.7s-3.3-10-1.4-17.8c1.9-7.7-13.1-28.6-10.9 22.5 0.3 7.4-4.1-14.7-5-4.2-2.6 31.4-1.5 70.6 0.3 74.5 2.5 5.1 6.6 31.4 6.6 31.4-0.5-5.8-9.6-18.2-9.6-18.2-7.6-7.2-11.9-28.3-11.9-28.3-0.5-28.7-7.7-49.2-7.7-49.2 5.2 11.5 6.8 48.8 6.8 48.8-17.4-8.8-21.6-41.3-21.6-41.3 4.1 24.2 14 35.8 14 35.8-20.4-7.3-18.3-36.9-20.4-47.4-2.1-10.5 0.2-32.9 0.2-32.9 1.9 4.4 2.3-6.7 2.3-6.7-2.1-4.5 1.3-7.2 1.3-7.2 4 11.1 8.2 8.6 8.2 8.6 1.2 4.4 1.5 10.5 1.5 10.5 1.3-10.4-12.8-38.6-11.1-40.4 1.7-1.9 5.6-0.3 5.6-0.3-2.4-6.3-1.6-12.1-1.6-12.1 2.5 24.1 11.2 18.7 11.2 18.7-3.3-13.6-5.3-24.6-1.2-29.8 4.1-5.1-0.4-20.3-0.4-20.3 6.2 17.3 10.9 13.4 11.4 4.6 0.4-8.8-7.7-13.7-7.7-13.7 6.7 1.6-8.4-28.2-8.4-28.2-6.4-9.3-5.5-20.6-5.5-20.6 4.4 8.1 21.9 10.9 21.9 10.9-3.9-2.3-0.7-7.9-0.7-7.9 2.9 3.7 8.5 9.4 12.2 6.7 3.7-2.7 11.1-5 11.1-5-7-12.2-17.5-12-17.5-12 8.9-4.7 29.6-10 29.6-10 14.6 3.7 18.6-8.9 18.6-8.9-1.9-11.8 7.6-12.4 7.6-12.4 14.5-15.9 27.5-10.9 27.5-10.9 2.9-4.8 24-16.4 33.1-13.5 9.1 2.9 15.9 3 15.9 3-4.2-5.5 3-12.5 3-12.5 1.9 5.8 8.7 4.5 8.7 4.5-8-8-9.6-15.4-9.6-15.4 3 8.5 10.2 15.2 10.2 15.2-3.5-3.7-1.3-6.8-1.3-6.8 6.4 9.2 14.4 14.2 14.4 14.2-2.7-0.3-2.4-2.2-2.4-2.2 0.9-4.1 0.8-9.5-1.5-12.8-2.3-3.3-2.4-8.4-2.4-8.4 11.6 15.9 11.5 7 15.6 11.4 4.1 4.4 2.4 9.9 15.7 9.7 13.3-0.3 14.1-14.7 14.1-14.7l18.8 12.8 4.9-18.5 29.9 16.6 7.1-9.1c0 0 47.6 43.6 43.2 31.2 0 0 23.8-0.9 23.8-10.7 0-9.8 9.8 9.9 1.2 19.2-6.7 7.2-3.3 16.4-3.3 16.4 4.6-7.7 16-9.2 16-9.2-17.9 28.4-9.9 33.6-9.9 33.6 16.7-10.4 12.7-21.7 12.7-21.7 0.4 2.4 2.6 9.1 2.6 9.1 1.4-2.8 8.4-4 8.4-4-0.2 16.8-13.7 33.5-13.7 33.5 4.7-7.1 14.6-14.6 14.6-14.6-1.2 2.2-1.6 16.4-2.2 26.3-0.5 9.9-8.4 24.2-6.3 26.4 2.1 2.2 4.4 2.8 7 2.3 2.5-0.5 4.5 3.9 4.5 3.9 3-2.7 6.8-12.8 6.8-12.8 0.5 41.2-11.5 40.1-11.5 40.1 12.8-5.1 27.2-19.1 27.2-19.1-1.4 16.6-27.7 51.1-27.7 51.1 12-3.7 19.7-16.9 19.7-16.9-7.1 31.2-31.8 31.2-17.2 40.6 14.6 9.4 19.8-5.2 17 8.8-2.7 14.1-4.6 21.8-4.6 21.8 7.6 4.4 12.6 16.5 12.6 16.5-0.8-1.5-1.1-1.5-4-0.5-2.9 1.1-8.6-2.2-8.6-2.2-3.2 3.5-7.5 2-7.5 2-0.7 8.1 9.5 18.9 9.5 18.9-5.2-3.5-6.7-10.1-8.8-2.4-2.1 7.6-3.5 13.1-3.5 13.1 1.3-4.1 1.7-7.1 1.7-7.1 7.8 4.1 0.8 15.9 2.3 22.2 1.5 6.3 12.1 6.9 12.1 6.9-15.3 14.6-2.2 29.6-20.6 21.8 2 12.2 9.3 20.5 9.3 20.5-7.2-3.9 6.5 14.6 6.5 14.6-10.4-10.4-19.5-27.4-19.5-27.4 2.4 5.1 6.1 14.2 6.1 14.2-1-3.1-4.9-4.6-4.9-4.6 7.9 14.4 17.2 30.5 17.2 30.5-1.7-3.4-5.5-2.7-5.5-2.7 1.3 4 5.7 10.8 5.7 10.8-6.7-3.3-13.8-14-13.8-14 0.1 5.1 3 10.9 3 10.9-12.7-12-15.4-21.6-15.4-21.6 8.4 37.6 0.3 25 0.3 25-4.2-3.1 9.9 21.6 9.9 21.6-15.9-4-20.3-41.5-20.3-41.5-3.1 9.3-2.2 18.3-2.2 18.3-3.9-9.3-2.6-1.7-3 7-0.3 8.7 7.9 21.3 7.9 21.3-7.9 1.9-10.1 12.9-18.9-18.8-8.8-31.7-7.7-50.3-7.7-50.3-1.9 15.8 5.1 37.6 5.1 37.6 0.1 8.2-5.3 13.3-5.3 13.3 0.4-10.2-7-52.5-7-52.5-0.1 5.6-3.5 15.1-3.5 15.1 0.8-9.7-4.6-37-4.6-37-2.1 12-14.7 36.5-14.7 36.5 2.6-28.3-5.4-37.9 2.2-51.4 7.2-12.8 5.8-39.3 5.4-55.6-0.2-8.3 10.2 24.6 10.2 24.6 2.4 4 4.2 7.5 4.2 7.5-1.4-28.6-7.7-47.9-7.7-47.9 5.2 13.9 7.4 47.6 7.4 47.6 0.2-1.9-3.7-7.5-3.7-7.5-7-8.4-9.7-24.3-9.7-24.3 0.6 11.9-9.9-30.4-9.9-30.4-4.7 7.3-5.4 74.2-5.4 74.2-5-8.1-8.7-28.4-9.6-35.8-0.9-7.4-4.7-29.8-4.7-29.8-7.4 15.2-0.7-18.1-4.2-11.4-3.5 6.7-9.6 36.5-9.6 36.5-1.5 10.3 9.1-45.9 3-84.2-2-12.6-4.4 53.2-6.7 49.5-2.3-3.7-3.2-8.4-3.7-12.8-0.5-4.4-6-15.5-6-15.5 0.3 4.8-2.5 8.5-2.5 8.5-0.7-8.3-7.8-10.3-7.8-14-0.1-3.7-7-14.5-7-14.5-3.3 0.4-11.3 16.2-11.3 16.2-2.1-3.3-1.1 2.9-7 0.5-5.8-2.4-8 4-8 4-2.6-5.6-3-20.4-3-20.4 0.4 14.9 4.9 27.9 4.9 27.9-8-1.2-14.9-19.9-14.9-19.9-2.4 7.9-27.5-20.8-30.9-8.6-4.4 15.9-17.1 37.2-13.1 49.8 0 0-10-6.5-10-15.4 0 0-16.8 5.4-9.6 17.1C201.3 301.7 176.3 267.7 181.2 242.9z" style="fill:url(#SVGID_9_);stroke-width:3;stroke:#000"/><radialGradient cx="241.4" cy="162.6" r="148.4" gradientTransform="matrix(-0.9989 0.0473 0.0473 0.9989 528.272 -21.5801)" gradientUnits="userSpaceOnUse"><stop offset="0.2447" style="stop-color:#463223;stop-opacity:0"/><stop offset="0.5372" class="x"/><stop offset="0.5851" class="y"/><stop offset="0.6383" class="x"/><stop offset="0.6862" class="y"/><stop offset="0.734" class="x"/><stop offset="0.7819" class="y"/><stop offset="0.8245" class="x"/><stop offset="0.883" class="z"/><stop offset="0.9362" class="A"/></radialGradient><path d="M380.2 130.3c0 0-15-35-28.8-48.5C331.4 62 317 41.3 312.7 31.8c-4.3-9.5-7.2-8.9-7.7-14.2 0 0-8.4 2.4-7.5 5.8 0 0-7.1-1.5-7.5-3.3 0 0 3 7.3 3.3 9 0.3 1.7-22.2 60.3-18.8 78.1 0 0-3.9-0.2-4.9-2.7 0 0 1.2 5.7 2.2 6.5 0 0-5.5 1.3-7.2-1.4 0 0 0.9 5.2 3.9 7.6" fill="url(#SVGID_10_)"/><path d="M380.2 130.3c-1.3-2.5-2.6-5.1-3.9-7.6-1.3-2.5-2.7-5-4.1-7.5l-2.1-3.7-2.2-3.7c-1.5-2.4-3-4.8-4.5-7.2-1.5-2.4-2.9-4.8-4.5-7.1-0.8-1.2-1.6-2.3-2.4-3.4-0.4-0.6-0.8-1.1-1.2-1.7l-1.3-1.6c-0.9-1.1-1.8-2.1-2.7-3.1l-0.7-0.8-0.8-0.8-1.5-1.5c-2-2.1-4-4-5.9-6.1l-5.8-6.4-5.5-6.6c-1.8-2.2-3.5-4.5-5.3-6.7-1.7-2.3-3.4-4.6-5.1-6.9-0.8-1.2-1.6-2.4-2.4-3.6-0.8-1.2-1.6-2.4-2.3-3.6l-2.2-3.7c-0.7-1.3-1.3-2.6-2-3.9l-1.9-3.8c-0.7-1.1-1.3-2.3-2.1-3.4-0.8-1.1-1.7-2.1-2.6-3.5-0.2-0.4-0.4-0.7-0.6-1.1l-0.4-1.2c-0.2-0.4-0.2-0.8-0.3-1.2l-0.2-1.2 1.9 1.3c-0.3 0.1-0.8 0.2-1.1 0.4-0.4 0.1-0.8 0.3-1.1 0.4-0.7 0.3-1.5 0.6-2.1 1-0.7 0.4-1.3 0.8-1.7 1.3-0.1 0.1-0.2 0.2-0.2 0.3-0.1 0.1-0.1 0.2-0.1 0.3 0 0.1 0 0.1 0 0.2 0 0.1 0 0.1 0 0.2l0.4 2.3-2.1-0.5c-0.7-0.2-1.4-0.3-2.1-0.5-0.7-0.2-1.4-0.4-2.1-0.6-0.7-0.2-1.4-0.5-2.1-0.9-0.2-0.1-0.4-0.2-0.6-0.3-0.2-0.1-0.4-0.2-0.6-0.4l-0.3-0.2c-0.1-0.1-0.2-0.2-0.3-0.4-0.2-0.2-0.4-0.7-0.5-1.1l2.9-0.9c0.7 1.8 1.4 3.5 2.1 5.3 0.3 0.9 0.7 1.8 1 2.8l0.2 0.7 0.1 0.4 0 0c0 0.1 0-0.3 0 0.3l0 0 0 0.1 0 0.2c0 0.3-0.1 0.8-0.2 1.1l-0.2 0.7c-0.6 1.9-1.2 3.6-1.8 5.4l-1.8 5.4c-2.4 7.1-4.7 14.3-6.9 21.5-2.2 7.2-4.2 14.4-5.8 21.7-0.4 1.8-0.8 3.7-1.1 5.5-0.3 1.8-0.6 3.7-0.9 5.5-0.1 0.9-0.2 1.8-0.3 2.8l-0.2 2.7c-0.1 1.8-0.1 3.6 0.1 5.3l0.2 1.7-1.5-0.1c-0.2 0-0.3 0-0.5-0.1l-0.4-0.1c-0.3-0.1-0.5-0.1-0.8-0.2-0.5-0.2-1.1-0.3-1.6-0.6-0.5-0.3-1-0.6-1.5-1.1-0.2-0.2-0.4-0.5-0.6-0.8-0.2-0.3-0.3-0.6-0.4-0.9l2-0.6c0.2 1.1 0.4 2.2 0.7 3.3 0.1 0.5 0.3 1.1 0.4 1.6 0.1 0.3 0.2 0.5 0.3 0.7 0 0.1 0.1 0.2 0.2 0.3 0.1 0.1 0.1 0.1 0.1 0.2l0.4 1.2-0.7 0.1c-0.4 0.1-0.7 0.1-1 0.1-0.3 0-0.7 0.1-1 0.1-0.7 0-1.4 0-2-0.1-0.3 0-0.7-0.1-1-0.2-0.3-0.1-0.7-0.2-1-0.4-0.2-0.1-0.3-0.2-0.5-0.3-0.2-0.1-0.3-0.2-0.4-0.3-0.1-0.1-0.3-0.2-0.4-0.4l-0.3-0.5 0.8-0.3c0.1 0.7 0.3 1.4 0.4 2.1 0.1 0.3 0.2 0.7 0.3 1l0.4 1 0.5 1c0.1 0.3 0.3 0.6 0.5 0.9 0.2 0.3 0.4 0.6 0.6 0.9l0.7 0.8-0.8-0.7c-0.3-0.2-0.5-0.5-0.7-0.8-0.2-0.3-0.5-0.6-0.6-0.9l-0.6-0.9-0.5-1c-0.2-0.3-0.3-0.7-0.4-1-0.3-0.7-0.5-1.4-0.7-2.1l-0.4-1.7 1.2 1.4 0.3 0.3c0.1 0.1 0.2 0.2 0.3 0.3 0.1 0.1 0.2 0.2 0.4 0.2 0.1 0.1 0.2 0.1 0.4 0.2 0.3 0.1 0.6 0.2 0.8 0.2 0.3 0 0.6 0.1 0.9 0.1 0.6 0 1.2 0 1.8-0.1 0.3 0 0.6-0.1 0.9-0.1 0.3-0.1 0.6-0.1 0.9-0.2l-0.3 1.3c-0.2-0.2-0.4-0.4-0.5-0.5-0.1-0.2-0.2-0.3-0.3-0.4-0.2-0.3-0.3-0.6-0.4-0.9-0.2-0.6-0.4-1.1-0.6-1.7-0.4-1.1-0.7-2.2-1-3.4l-1.5-6 3.5 5.4c0.1 0.1 0.1 0.3 0.3 0.4 0.1 0.1 0.2 0.2 0.3 0.4 0.3 0.2 0.6 0.4 1 0.6 0.4 0.2 0.8 0.3 1.2 0.3 0.2 0 0.4 0.1 0.6 0.1l0.3 0 0.3 0-1.3 1.5c-0.4-2-0.6-4-0.6-5.9 0-1 0.1-1.9 0.2-2.9l0.3-2.9c0.3-1.9 0.6-3.8 0.9-5.7 0.3-1.9 0.7-3.7 1.1-5.6 1.7-7.4 3.7-14.7 5.8-21.9s4.5-14.4 6.9-21.6l1.8-5.4c0.6-1.8 1.2-3.6 1.7-5.3l0.2-0.6c0-0.1 0.1-0.2 0.1-0.3l0-0.2 0-0.1 0 0c0.1 0.6 0 0.2 0 0.3l0 0-0.1-0.3-0.2-0.6c-0.2-0.8-0.6-1.7-0.9-2.5-0.6-1.7-1.3-3.5-2-5.2l2.9-0.9c0-0.1-0.1-0.2 0-0.2 0 0 0 0 0 0l0.1 0.1c0.1 0.1 0.2 0.1 0.3 0.2 0.1 0.1 0.2 0.1 0.4 0.2 0.5 0.3 1.1 0.5 1.7 0.7 0.6 0.2 1.3 0.4 1.9 0.6 0.6 0.2 1.3 0.3 1.9 0.5l-1.8 1.9c-0.1-0.4-0.1-0.7-0.1-1.1 0-0.4 0.1-0.7 0.2-1.1 0.1-0.3 0.3-0.6 0.4-0.9 0.2-0.3 0.4-0.5 0.5-0.7 0.8-0.8 1.6-1.4 2.4-1.8 0.8-0.5 1.7-0.9 2.5-1.2 0.4-0.2 0.8-0.3 1.3-0.5 0.4-0.1 0.8-0.3 1.3-0.4l1.6-0.5 0.3 1.8 0.2 0.9c0.1 0.3 0.1 0.6 0.2 0.9l0.3 0.8c0.1 0.3 0.3 0.5 0.4 0.8 0.7 1 1.6 2.1 2.5 3.4 0.9 1.2 1.6 2.5 2.4 3.8l1.9 3.9c0.6 1.2 1.2 2.5 1.9 3.7l2.2 3.6c0.7 1.2 1.5 2.4 2.3 3.5 0.8 1.2 1.5 2.4 2.4 3.5 1.7 2.3 3.3 4.6 5 6.8 1.8 2.2 3.4 4.5 5.2 6.7l5.5 6.5 5.7 6.3c1.9 2.1 3.9 4.1 5.9 6.1l1.5 1.5 0.7 0.7 0.8 0.8c1 1.1 2 2.1 2.9 3.3l1.4 1.7c0.5 0.6 0.9 1.2 1.3 1.7 0.9 1.2 1.7 2.3 2.5 3.5 1.6 2.4 3.2 4.8 4.6 7.3 1.4 2.5 2.7 5.1 3.9 7.6l1.9 3.9 1.8 3.9c1.2 2.6 2.3 5.2 3.4 7.8C378.1 125 379.2 127.6 380.2 130.3z"/><radialGradient cx="206.1" cy="99.2" r="43.4" gradientTransform="matrix(-0.9317 0.3633 0.805 2.0644 439.2295 -192.4356)" gradientUnits="userSpaceOnUse"><stop offset="0" class="f"/><stop offset="0.3536" class="g"/><stop offset="0.5916" class="h"/><stop offset="0.7956" class="i"/><stop offset="0.9795" class="j"/><stop offset="1" class="k"/></radialGradient><path d="M345.6 124.5c0 0 7.2 6.4 6.1 4-1.4-3-9.9-11.4-12.3-16.6 6.9 3.9 4.8 0.6 4.1-1.1-5.4-12-11.3-25.6-12.4-31.3-2.3-11-27.3-41.7-31.1-47.2 0 0-16.2 19.3-17.7 75.5 0 0 1.8 18.5 65.8 24C349.8 132.1 345.6 124.5 345.6 124.5z" style="fill:url(#SVGID_11_);stroke-width:0.5;stroke:#000"/><path d="M351.4 152.5c-2.2-2.1-4.4-4.1-6.8-6-1.2-0.9-2.4-1.8-3.7-2.6-1.3-0.8-2.6-1.6-4.1-1.9l-0.3-0.1 0.4 0c2.7-0.4 5.4-0.6 8.1-0.8 1.3-0.1 2.7-0.2 4.1-0.2 0.7 0 1.4 0 2 0 0.7 0 1.4 0.1 2 0.2l-0.1 0.2c-1.6-2.8-3.2-5.7-4.7-8.7-0.7-1.5-1.4-3-2.1-4.5-0.3-0.8-0.6-1.5-0.9-2.3-0.3-0.8-0.5-1.6-0.7-2.4l-0.1-0.3 0.3 0.1c1.4 0.5 2.7 1.3 3.9 2.2 0.6 0.4 1.2 1 1.7 1.5 0.5 0.5 1 1.2 1.4 1.8l-0.1-0.1c-0.2 0-0.2 0.1-0.2 0.1 0 0 0 0 0 0 0 0 0 0 0 0l0-0.1-0.1-0.2-0.2-0.4-0.4-0.9c-0.2-0.6-0.5-1.2-0.8-1.7-0.3-0.6-0.5-1.2-0.8-1.7-0.3-0.5-0.8-1-1.2-1.4-1.7-1.8-3.6-3.6-5.4-5.4-0.9-0.9-1.8-1.8-2.6-2.7-0.4-0.5-0.8-1-1.2-1.5-0.1-0.1-0.2-0.3-0.3-0.4 0-0.1-0.1-0.1-0.1-0.3 0-0.1 0-0.2 0.1-0.3 0.1 0 0.2-0.1 0.2-0.1 0.4 0 0.7 0.1 1 0.2 1.2 0.5 2.3 1 3.5 1.5 0.3 0.1 0.6 0.2 0.9 0.3 0.1 0 0.3 0.1 0.4 0.1 0.1 0 0 0 0 0 0 0 0-0.1 0-0.1l-0.8-1.7c-2.1-4.6-4.2-9.3-6.2-13.9-2-4.7-3.9-9.4-5.6-14.2-0.4-1.2-0.8-2.4-1.1-3.7-0.3-1.2-0.7-2.4-1.2-3.6-1-2.3-2.2-4.5-3.5-6.7-2.6-4.4-5.4-8.6-8.3-12.7-2.9-4.1-5.9-8.2-9-12.3l-4.6-6.1c-1.5-2-3.1-4-4.6-6.1l0.3 0c-1 1.3-1.9 2.7-2.7 4.1-0.8 1.4-1.6 2.9-2.2 4.3-1.4 2.9-2.6 6-3.7 9.1-1.1 3.1-2 6.2-2.9 9.4-0.4 1.6-0.8 3.2-1.2 4.8-0.4 1.6-0.7 3.2-1 4.8-0.3 1.6-0.6 3.2-0.9 4.8-0.3 1.6-0.5 3.2-0.8 4.8-0.5 3.2-0.9 6.5-1.2 9.7l-0.5 4.9-0.4 4.9-0.3 4.9-0.2 4.9 0.2-4.9 0.2-4.9 0.3-4.9 0.4-4.9c0.3-3.3 0.7-6.5 1.2-9.7 0.2-1.6 0.5-3.2 0.8-4.9 0.3-1.6 0.6-3.2 0.9-4.8 0.3-1.6 0.6-3.2 1-4.8 0.4-1.6 0.8-3.2 1.2-4.8 0.8-3.2 1.8-6.3 2.9-9.4 1.1-3.1 2.3-6.1 3.7-9.1 0.7-1.5 1.4-2.9 2.3-4.4 0.8-1.4 1.7-2.8 2.7-4.1l0.1-0.2 0.1 0.2c1.5 2.1 3 4.1 4.6 6.1l4.6 6.1c3.1 4.1 6.1 8.1 9 12.3 2.9 4.1 5.8 8.4 8.4 12.7 1.3 2.2 2.5 4.4 3.5 6.8 0.5 1.2 0.9 2.4 1.2 3.7 0.3 1.2 0.7 2.4 1 3.6 1.6 4.8 3.5 9.5 5.5 14.2 2 4.7 4 9.3 6.1 13.9l0.8 1.7c0 0.1 0.1 0.2 0.1 0.3 0 0.1-0.1 0.2-0.1 0.2-0.1 0-0.1 0.1-0.2 0.1-0.2 0-0.4 0-0.5-0.1-0.3-0.1-0.6-0.2-0.9-0.3-1.2-0.5-2.3-1-3.5-1.5-0.3-0.1-0.6-0.2-0.8-0.2 0 0 0 0 0 0 0 0 0-0.1 0-0.1 0 0 0 0.1 0.1 0.1 0.1 0.1 0.2 0.3 0.2 0.4 0.4 0.5 0.8 1 1.2 1.5 0.8 0.9 1.7 1.8 2.6 2.7 1.8 1.8 3.6 3.5 5.4 5.4 0.4 0.5 0.9 0.9 1.2 1.5 0.3 0.6 0.5 1.2 0.8 1.7 0.3 0.6 0.5 1.2 0.8 1.7l0.4 0.9 0.2 0.5 0.1 0.2c0 0 0 0.1 0 0.1 0 0 0 0 0 0.1 0 0 0 0.1 0 0.1 0 0 0 0.2-0.2 0.2h0l0-0.1c-0.4-0.6-0.8-1.2-1.3-1.7-0.5-0.5-1-1-1.6-1.5-1.2-0.9-2.5-1.6-3.8-2.1l0.2-0.2c0.2 0.8 0.4 1.6 0.7 2.3 0.3 0.8 0.6 1.5 0.9 2.3 0.7 1.5 1.4 3 2.1 4.5 1.5 2.9 3 5.8 4.7 8.7l0.1 0.2-0.3 0c-0.7-0.1-1.3-0.2-2-0.2-0.7 0-1.3 0-2 0-1.3 0-2.7 0.1-4 0.2-2.7 0.2-5.4 0.5-8.1 0.8l0-0.1c1.5 0.4 2.8 1.2 4.1 2 1.3 0.8 2.5 1.7 3.7 2.7C346.9 148.4 349.2 150.4 351.4 152.5z"/><radialGradient cx="43.2" cy="244" r="21.6" gradientTransform="matrix(0.4735 -0.8808 0.9333 0.5017 -51.9434 67.7026)" gradientUnits="userSpaceOnUse"><stop offset="0" class="B"/><stop offset="0.5614" class="C"/><stop offset="1" class="D"/></radialGradient><path d="M192.2 125.3c0 0 0.5 6.4 1.2 12.9 0.6 6.7 6.7 20.6 3.3 28.4-3.3 8-3 11.5-5.8 12.1 0 0 8.5 0.9 11.1-2.4 2.6-3.3-0.4-5.1 3.4-6.2 3.7-1 0.7-33.7-0.7-38-2.3-4-6.3-3.3-8.6-8.8C193.1 118.2 192.1 125.3 192.2 125.3z" style="fill:url(#SVGID_12_);stroke:#000"/><radialGradient cx="224.7" cy="109.2" r="51.9" fx="238.1569" fy="130.5224" gradientTransform="matrix(1.0382 0.0348 -0.0473 0.8647 17.9712 33.4346)" gradientUnits="userSpaceOnUse"><stop offset="0" class="E"/><stop offset="0.255" class="F"/><stop offset="0.531" class="G"/><stop offset="0.8158" class="H"/><stop offset="1" class="I"/></radialGradient><path d="M192.3 115.4c0 0 9.5 12.8 9.2 22.1-0.3 9.3-4.3 30.5 21.7 51.8 10.9 9.3 13.2 8.7 21.1 6.6 8-2.1 26.7-6.7 46.9-23.5 25.3-21-25.1-79.4-24.6-95.1C266.9 61.5 236.4 89.9 192.3 115.4z" style="fill:url(#SVGID_13_);stroke:#000"/><g class="m"><path d="M235.1 156.4c0 0 0 0.2 0 0.5 0 0.3 0 0.7-0.1 1.2-0.1 0.5-0.2 1.1-0.3 1.7-0.1 0.3-0.2 0.6-0.3 0.9-0.1 0.3-0.2 0.6-0.3 0.9-0.1 0.3-0.2 0.5-0.2 0.8 0 0.2 0.1 0.4 0.3 0.6 0.2 0.2 0.4 0.3 0.7 0.4 0.3 0.1 0.5 0.2 0.7 0.4 0.2 0.1 0.2 0.2 0.3 0.3 0.1 0.1 0.1 0.2 0.2 0.3 0.1 0.2 0.1 0.4 0.1 0.5 0 0.3 0 0.5 0 0.5s0-0.2-0.2-0.4c-0.1-0.1-0.1-0.3-0.3-0.4-0.1-0.1-0.1-0.1-0.2-0.2-0.1-0.1-0.2-0.2-0.3-0.2-0.4-0.2-1-0.3-1.6-0.7-0.3-0.2-0.5-0.6-0.6-1.1 0-0.4 0.1-0.8 0.2-1.1 0.1-0.3 0.2-0.6 0.3-0.9 0.1-0.3 0.2-0.6 0.3-0.9 0.2-0.6 0.4-1.1 0.5-1.6C234.8 157 235.1 156.4 235.1 156.4z"/></g><radialGradient cx="666" cy="-131.7" r="12" gradientTransform="matrix(0.9906 -0.1942 0.1803 1.8512 -565.3916 722.4265)" gradientUnits="userSpaceOnUse"><stop offset="0" class="J"/><stop offset="1" class="K"/></radialGradient><path d="M61.9 298.5c0 0 4.2 14.4 4.8 23.3 0.6 8.9 3.3 26.5 6.8 30.9 0 0 7-1.4 8.7-4.6 0 0-13.3-31.8-13.8-50.1" fill="url(#SVGID_14_)"/><radialGradient cx="72.2" cy="325.3" r="21.1" gradientUnits="userSpaceOnUse"><stop offset="0" class="B"/><stop offset="0.5614" class="C"/><stop offset="1" class="D"/></radialGradient><path d="M62 298.5c0.7 2.2 1.4 4.4 2 6.7 0.3 1.1 0.6 2.2 0.9 3.4 0.3 1.1 0.6 2.3 0.8 3.4 0.2 1.1 0.5 2.3 0.7 3.4 0.2 1.2 0.4 2.3 0.6 3.5 0.1 1.2 0.3 2.3 0.4 3.5 0.1 1.2 0.2 2.3 0.3 3.5 0.2 2.3 0.5 4.6 0.8 6.9 0.2 1.1 0.3 2.3 0.5 3.4 0.2 1.1 0.4 2.3 0.6 3.4 0.2 1.1 0.5 2.3 0.7 3.4 0.3 1.1 0.5 2.3 0.9 3.4 0.2 0.6 0.3 1.1 0.5 1.7 0.2 0.5 0.4 1.1 0.6 1.6 0.4 1.1 1 2.1 1.6 3l-0.2-0.1c1.6-0.4 3.2-0.9 4.7-1.6 0.8-0.4 1.5-0.8 2.1-1.2 0.2-0.1 0.3-0.2 0.5-0.4 0.1-0.1 0.3-0.3 0.4-0.4 0.1-0.1 0.3-0.3 0.4-0.4l0.3-0.5 0 0.3c-1.7-4-3.3-8.1-4.8-12.2-0.8-2-1.5-4.1-2.1-6.2-0.7-2.1-1.3-4.2-1.9-6.2-0.3-1-0.6-2.1-0.9-3.1-0.3-1.1-0.6-2.1-0.8-3.2l-0.8-3.2c-0.3-1.1-0.5-2.1-0.7-3.2-0.2-1.1-0.4-2.1-0.6-3.2-0.2-1.1-0.4-2.1-0.5-3.2-0.1-1.1-0.2-2.2-0.3-3.3l-0.1-3.3c0 0 0-0.1 0-0.1 0 0 0 0 0.1 0.1l0.3 3.2c0.1 1.1 0.3 2.1 0.5 3.2 0.1 1.1 0.4 2.1 0.6 3.2 0.2 1.1 0.4 2.1 0.7 3.2 0.3 1.1 0.5 2.1 0.8 3.2l0.8 3.1c0.3 1 0.6 2.1 0.9 3.1 0.3 1 0.6 2.1 0.9 3.1 0.6 2.1 1.3 4.1 2 6.2l2.1 6.2c0.7 2.1 1.5 4.1 2.2 6.1 0.8 2 1.5 4.1 2.3 6.1l0.1 0.2-0.1 0.1-0.4 0.6c-0.1 0.2-0.3 0.3-0.5 0.5-0.1 0.2-0.3 0.3-0.5 0.4-0.2 0.1-0.3 0.3-0.5 0.4-0.7 0.5-1.5 0.9-2.3 1.2-1.6 0.7-3.2 1.1-4.9 1.5l-0.1 0-0.1-0.1c-0.3-0.5-0.7-1-0.9-1.5l-0.4-0.8-0.3-0.8c-0.2-0.5-0.4-1.1-0.6-1.6-0.2-0.5-0.4-1.1-0.5-1.7-0.3-1.1-0.6-2.2-0.9-3.4-0.3-1.1-0.5-2.3-0.8-3.4-0.5-2.3-1-4.6-1.3-6.8-0.2-1.1-0.4-2.3-0.6-3.4-0.2-1.1-0.3-2.3-0.5-3.5-0.3-2.3-0.4-4.6-0.7-6.9-0.1-1.1-0.3-2.3-0.5-3.4-0.2-1.1-0.4-2.3-0.6-3.4-0.2-1.1-0.4-2.3-0.7-3.4-0.2-1.1-0.5-2.3-0.7-3.4l-0.8-3.4-0.8-3.4c0 0 0-0.1 0-0.1C62 298.5 62 298.5 62 298.5z" fill="url(#SVGID_15_)"/><radialGradient cx="-100.9" cy="70.8" r="244.9" gradientTransform="matrix(0.8111 -0.5849 0.1663 0.2306 142.8596 34.2616)" gradientUnits="userSpaceOnUse"><stop offset="0" class="B"/><stop offset="0.5614" class="C"/><stop offset="1" class="D"/></radialGradient><radialGradient cx="111.4" cy="200.1" r="128.7" gradientUnits="userSpaceOnUse"><stop offset="0" class="B"/><stop offset="0.5614" class="C"/><stop offset="1" class="D"/></radialGradient><path d="M218.6 77.5c0-0.3-22.7-13.2-25.7-15.6-3.8-3.6-37.5-7.4-41.6-4.1-5.9 1.4-30.2 5.3-36.8-1.2 0.1 0.2 4.1 8.4 18.2 7.8-0.1 0-6.3 6.6-10.5 11-4.6 4.2-9.8 14-13.4 12.9-3.8-1.3-7.7 4.8-11.6 3.5-3.9-1.3-5.9 1.3-11.5 5.9-5.7 4.4-11.3 17.9-13 20.8-1.9 2.8-2.4 12-4 16.5-1.7 4.3-3.6 14.4-4.1 16.5-0.4-0.9 12.6-28.3 14.5-33.6 0 0-0.1 3.2 0.1 4.1-0.1-0.2 5.8-11 7.7-15.1-0.2 0.1-6.6 19.1-16.4 38.3-0.1-0.3 9.2-14.4 11.5-20.4-0.4-0.5-8.3 22.8-9.9 28.3-1.9 5 3 6.8-0.3 14.6-3.2 8 0.4 14.8 0.3 29.3-0.2 14.6-6.6 14.5-5.4 20 1.2 5.5-0.4 18.3-2 26.7 0.2 0-5.3 18.1-4.9 23.9 0 0 0.5-1 2.6-3.8-0.1-0.1-3.3 4.6-7.9 17.8-5.1 13-4.9 11.7-8 15.2 0 0 3.2-2.2 4.2-3.3 1-1.1-1 1.1-1 1.1 0.1 0-5.7 7.5-7 9.8-1.2 2.3-7.2 8.4-7.9 8.6 0 0 4.9-3.2 7.8-6.9 0.1 0-6.7 7.9-10.5 11.7 0.1 0-6.1 6.2-8.7 8.4-2.5 2.3-12.7 8.3-18.9 11.3 0 0 16.4-5.1 26.6-12.3 0.6 0.2-19.6 15.6-25.3 18.6 1.2 0.4 29.4-19.1 32.3-22.2 0.3 0.1-12.1 10.6-15 13 0.1 0 10.1-6.1 13.1-7.6 0.4 0.1-15.7 11.8-20.1 14.6 0.1 0 8.6-5.2 13.9-8.6 0.6 0.2-18.9 12.8-16.5 13-0.1 0 8.2-3.5 16.9-9.6 8.5-6.2 8.8-7.1 10.5-8.2 0 0 0.5 0.5-0.3 2.1 0.3 0.1 10.9-9.6 14.4-13 3.7-3.3 1.8-3.5 4-6.8 2.1-3.4 7.7-10.2 14.3-20.8 6.8-10.4 9.3-25.7 9.8-32.8 0.1 0.2 1.5-13.2 11.2-22.8 9.8-9.2 8.7-10.3 10.3-18.1 1.5-7.6 2.6 2.3 14 6.2 11.4 3.9 18.5-2.9 21.8-5.3 2.8-3.7-19.5 13-27.7-25.4-8.9-40.1-1.4-36.7-1.4-36.6 0.1 0.3-1.7-11.2 11.2-16.3 13.5-3.8 3.2-9.1 8.3-20.3 5.7-10.4 9.5-13.7 14.9-16.3 5.6-2.2 10.1-12.8 31.5-10.5-0.1 0-7.8 6.2-13.4 9.4-5.7 3.2-9.6 3.2-10.9 7.5-1.4 4.2-6.2 8.5-8.5 11.4-2.7 2.3-14.6 7.8-15.9 9.5-1.4 1.5-2 9.7 7.4 2.2 9.2-7.5 23.8-15.6 27.7-18.7 2.4-4 19-14.5 26.4-12.9 6.5 1 13.3 2.8 26.9 2.8" style="fill:url(#SVGID_16_);stroke:url(#SVGID_17_)"/><radialGradient cx="12.8" cy="110.4" r="18.7" gradientTransform="matrix(0.8111 -0.5849 0.5942 0.8241 113.0459 -6.2817)" gradientUnits="userSpaceOnUse"><stop offset="0" class="J"/><stop offset="1" class="K"/></radialGradient><radialGradient cx="186.5" cy="78.9" r="19.1" gradientUnits="userSpaceOnUse"><stop offset="0" class="B"/><stop offset="0.5614" class="C"/><stop offset="1" class="D"/></radialGradient><path d="M180 58.1c-0.3 0.1 12.3 34.9 18.5 43.1 0 0-1.7 2.6-7.3-0.2 0 0.1-17.9-32.3-17-43.5C174.3 57.4 174.4 56 180 58.1z" style="fill:url(#SVGID_18_);stroke:url(#SVGID_19_)"/><radialGradient cx="-63.9" cy="98.8" r="20.9" gradientTransform="matrix(0.8111 -0.5849 0.5849 0.8111 113.2051 -6.8613)" gradientUnits="userSpaceOnUse"><stop offset="0" class="J"/><stop offset="1" class="K"/></radialGradient><radialGradient cx="116.4" cy="113" r="21.4" gradientUnits="userSpaceOnUse"><stop offset="0" class="B"/><stop offset="0.5614" class="C"/><stop offset="1" class="D"/></radialGradient><path d="M103.8 89.5c0 0-4-0.6-5.3 1.8-0.2 0.4 21.5 36.7 30.2 43.8 0 0 2.9 2 4.3 1.3 1.4-0.7 4-0.2-5.4-10.9C118.2 114.7 110 105.4 103.8 89.5z" style="fill:url(#SVGID_20_);stroke:url(#SVGID_21_)"/><radialGradient cx="-112.1" cy="132.2" r="19.1" gradientTransform="matrix(0.8111 -0.5849 0.5849 0.8111 113.2051 -6.8613)" gradientUnits="userSpaceOnUse"><stop offset="0" class="J"/><stop offset="1" class="K"/></radialGradient><radialGradient cx="91" cy="168.5" r="17.9" gradientUnits="userSpaceOnUse"><stop offset="0" class="B"/><stop offset="0.5614" class="C"/><stop offset="1" class="D"/></radialGradient><path d="M72.1 162.9c0 0-1.5-5.4-0.1-8.4 0 0.2 26.9 17 36.6 16.1 0 0 2.3 3.6 1.8 10.3C110.4 180.6 82.9 170.9 72.1 162.9z" style="fill:url(#SVGID_22_);stroke:url(#SVGID_23_)"/><radialGradient cx="-164.2" cy="171.8" r="11.9" gradientTransform="matrix(0.8111 -0.5849 0.5849 0.8111 113.2051 -6.8613)" gradientUnits="userSpaceOnUse"><stop offset="0" class="J"/><stop offset="1" class="K"/></radialGradient><radialGradient cx="77.9" cy="232.5" r="13.1" gradientUnits="userSpaceOnUse"><stop offset="0" class="B"/><stop offset="0.5614" class="C"/><stop offset="1" class="D"/></radialGradient><path d="M66.9 221c0.1 0.3 18.6 18.4 23.9 18.7 0 0-1.4 4.9-4 5 0 0-14.1-7.8-20.2-14.5C66.6 230.3 65.6 224.9 66.9 221z" style="fill:url(#SVGID_24_);stroke:url(#SVGID_25_)"/><radialGradient cx="-205.8" cy="210.9" r="8.7" gradientTransform="matrix(0.8111 -0.5849 0.5849 0.8111 113.2051 -6.8613)" gradientUnits="userSpaceOnUse"><stop offset="0" class="J"/><stop offset="1" class="K"/></radialGradient><radialGradient cx="60.7" cy="288.6" r="10.6" gradientUnits="userSpaceOnUse"><stop offset="0" class="B"/><stop offset="0.5614" class="C"/><stop offset="1" class="D"/></radialGradient><path d="M52.9 286.7c0 0 0.2-5.6 2.1-7.3 0.1-0.1 0.3-0.2 0.4-0.3 2.3-1.1 3.9 4.9 7.4 5.8 3.6 1 8.7 7.2 8.7 7.1 0 0-0.9 3.2-3.4 6 0 0-5.8-3.9-8.9-4.8C56.1 292.4 54.7 289 52.9 286.7z" style="fill:url(#SVGID_26_);stroke:url(#SVGID_27_)"/><radialGradient cx="-122.5" cy="63.2" r="17" gradientTransform="matrix(0.743 -0.6693 0.1903 0.2112 165.8359 57.7693)" gradientUnits="userSpaceOnUse"><stop offset="0" class="B"/><stop offset="0.5614" class="C"/><stop offset="1" class="D"/></radialGradient><radialGradient cx="89.1" cy="159.5" r="8.8" gradientUnits="userSpaceOnUse"><stop offset="0" class="B"/><stop offset="0.5614" class="C"/><stop offset="1" class="D"/></radialGradient><path d="M87.6 155.1c0 0 1.8 11.1 1.6 13.7 0-0.1 2.1-12 1.3-21" style="fill:url(#SVGID_28_);stroke:url(#SVGID_29_)"/><radialGradient cx="937.3" cy="-80.9" r="352.4" gradientTransform="matrix(-0.8932 0.4497 0.4497 0.8932 1186.6587 -279.751)" gradientUnits="userSpaceOnUse"><stop offset="0" class="B"/><stop offset="0.5614" class="C"/><stop offset="1" class="D"/></radialGradient><path d="M237.9 64.7c0 0-8.6-7.9-14.1-10-8-3-14.7-7-17-9.1-2.4-2.1-6.3-2.6-7.2-4 0 0 1.9 3.1 2.5 3.9 0 0-1.7-0.1-2-0.6 0 0 0.6 1.9 0.9 2.4 0.3 0.4 1.3 19.6 4.5 24.2 0 0-1.1 0.4-1.7-0.2 0 0 1 1.4 1.4 1.5 0 0-1.4 1-2.2 0.5 0 0 0.9 1.3 2 1.6" style="fill:url(#SVGID_30_);stroke:#000"/><radialGradient cx="1016.7" cy="-135.7" r="13.3" gradientTransform="matrix(-0.7032 0.711 1.5754 1.5581 1146.2437 -455.2053)" gradientUnits="userSpaceOnUse"><stop offset="0" class="E"/><stop offset="0.255" class="F"/><stop offset="0.531" class="G"/><stop offset="0.8158" class="H"/><stop offset="1" class="I"/></radialGradient><path d="M227.5 67.4c0 0 2.8 0.9 2.2 0.4-2.7-2.3-10.2-8.8-11.9-11.1-2-2.8-12.8-8.3-14.6-9.3 0 0-2.1 7.4 4.4 23.3 0 0 2.8 4.9 21.4-1.5C229.6 69 227.5 67.4 227.5 67.4z" style="fill:url(#SVGID_31_);stroke:#000"/><radialGradient cx="250.9" cy="142" r="117.8" gradientTransform="matrix(0.9265 0.0385 -0.0729 1.6237 76.609 -112.7591)" gradientUnits="userSpaceOnUse"><stop offset="0" class="B"/><stop offset="0.5614" class="C"/><stop offset="1" class="D"/></radialGradient><path d="M208.7 120.1c0 0 1-2.2 1 0.9 0 0 0.2-0.6 0.5-1.8 0 0 1.2 3.3 1.9 6 0 0 1.4-2.6 1.8-4.8 0.4-2.3 1-2.2 1.6-3.5 0 0-0.4-3.3 3.2 5.6 3.6 8.9 2.9-0.5 2.5-3.9-0.4-3.5 10.9-9.1 12.9-17.2 0 0 0.1 1.4 0 2.3 0 0 4.6-15.6 6.1-12.3 0 0 1.3 2.8 3.8 4.9 0 0 1.1 1.8 3 1.3 0 0 0.8 2.7 1.7 3.7 0 0-2.9 5.6-4 9.5 0 0 0.5-0.1 1.9-1.4 1.4-1.3 2.8-3.3 3.4-3.8 0 0-2.4 10.2 2.1 13.1 0 0 3.6 0.3 5.4 0.2 1.9-0.1 4.2 0.8 5 1.1 0 0-2.3-4.8-3.9-6.5 0 0 1.8 2 2.5 3.5 0 0 1.5-0.6 2.7-0.6 0 0-2.5-4.2-2.7-5.7 0 0 1.6 6.5 9.2 10.2 0 0-1.5-3.8-2.4-5.4-0.9-1.6-1.1-2.8-1.2-3.9 0 0 0.3 2.4 1.3 4 0 0 2.1 3.4 2.4 5.5 0 0 1.6 0.7 2.3-0.5 0 0 0.1 1.6 1 1.2 0.9-0.4 1.5 0.1 1.5 0.1s1.1-2.2 0.8-5c-0.4-2.7-0.3-8.1 0.3-9.7 0.6-1.7 1.5-0.8 1.3-3.3 0 0-2.6 1.9-1.6 5.4 1 3.5 0.5 9.5 1.5 12.6 1 3.1 3 1.4 3.5 2.3 0 0-1.1 1.7-1.3-0.7-0.2-2.4-0.6-12.2-1.2-13.5 0 0 0.9 6.4 1.3 13.5 0 0 0.5-3.4 1.8-1.8 1.2 1.7 0.4 6.5-0.2 9.4-0.7 2.9-0.3 3.5-0.4 4.2-0.1 0.7-0.3 2.8-0.5 3.1 0 0 1.1-3 1.1-4 0.1-1 1-4.7 1.2-5.2 0 0-1.2 4.6-1.2 5.9 0 1.3-0.7 5.5-0.4 6.7 0 0 2.6-10.7 5.2-13.2 0 0 2.3-4.9 2.4-8.5 0 0 0 3.1-1.9 8 0 0-1 6.6-1.1 13.7-0.1 7-1.1 26.6-0.3 36.2 0.8 9.6 1.2 21 1 25.4-0.2 4.4-1.4 7-3.2 11.3 0 0 2.8-2 3.4-4 0 0 0.7 5.4-0.2 9.3 0 0 1.6-1.2 1.8-2.5 0 0-1.1 10.7-1.7 12.5 0 0-4 13.6-4.5 18.3-0.6 6.1-4.8 14-6.3 19.2-1.9 6.4-1.1 9-4.3 16.4-3.9 9-5.3 16.2-5.3 20.1 0 3.9 0.7 7.3 1.6 10.8 0.9 3.6 0.7 9.2 0.5 12.3-0.1 3.1-0.1 3.1 2 7.8 0 0 2.7-3.3 3-6.9 0 0 1 12.6 3.2 17.3 0 0-0.3-5.7 0-11.4 0.3-5.7 0-9.2 0.1-11.1 0 0 0 4.1 0.1 6.5 0.1 2.5-0.6 10.7 2.3 17.1 0 0 0.9-6 0.2-10.9-0.6-4.9-0.1-4.8 0.4-6.1 0 0 2.9 6.7 3.4 7.8 0 0 0.6-7.3-0.2-9.3 0 0 2.9 5 5.7 3.6 0 0-4-7.4-4.6-11.3-0.6-3.9-4-16.9-2.9-22.7 0 0 2.4 3.2 3.3 6.3 0 0-1.1-8.2-1.9-9.3-0.7-1.1 2.7-6 2.2-8.1-0.4-2.1 9-10.1 11.9-22.3 1.9-8.1 8.4-33 8.3-38.3 0 0 3.4 2.2 3.8 4.1 0 0-1.6-4.7-3.8-7.2 0 0 2.1 0.6 2.5 1.5 0 0 0.5-1.5-0.2-2.7-0.7-1.2-1.5-4.2-1.5-5.9-0.1-1.7-3.9-6.2-2.9-16.5 1-10.3 0.7-8 0.6-10.2-0.1-2.3 0.7-2.4 0.6-5.7-0.2-3.5 1-5.5 1.4-13.9 0 0 3.3-12.5 12-19 0 0 18.9-15.2 5.7-58.7-3.2-10.7-22.9-29.9-23.2-32.1 0 0 0.4 2.6 0.9 3 0 0-8.7-5.1-18.3-7.7-9.6-2.5-22.9-3.1-31 1.2 0 0 1.1 0.7 2 1.7 0 0-1.1-1.3-2.2-1.9-1.1-0.7-6.3-2.3-8-6.5 0 0 0.3 2.6 1.2 3.6 0 0-4.3-2-5.5-2.5-1.2-0.4-2-1.4-2.4-2.3-0.4-0.9-1.3 0.2-0.7 1.4 0.7 1.2 2.6 5.2 4.1 6.2 0 0-7.9-1.7-9.6-1.5-1.7 0.2-10.1 5-12.7 5.6-4.8 1.1-8.8 7-9.7 7.7-0.9 0.7-13.4 18-15.5 33.5-2.1 15.5-4.8 18.9-4.6 45.6 0.3 26.7 1.2 21.2 1.3 26.3 0.2 5.1-0.7 6.1-1 9.8 0 0-5.5 15.5-7.7 18.8 0 0 2.8-4.6 3-5.1 0 0-0.8 3.3-1.1 3.8 0 0 6.8-16.4 7.8-18.8 0 0 0.1 9.5-0.1 11.7-0.2 2.1-0.3 3.8-0.8 6.8-0.5 2.9-1 4.4-5.3 12.8-4.3 8.4-8.2 13.3-8.2 26.8 0.1 13.5-3 25.2-4.4 35.4-1.4 10.2-3.1 15.5-4 17.1 0 0 4-8.5 5.1-10.3 1.1-1.9 2-6.5 3.7-6.1 1.7 0.4-3.5 10.7-4.1 17.5-0.6 6.9-2 14-1.4 16.3 0.6 2.4 0.1 2.2 0.2 2.5 0 0-0.7 2.8-1.3 3.5 0 0 1.7-3 2.1-3.8 0.3-0.8 9.7-19.5 11.5-31.9 0 0-2.8 12.9-3.6 17.4-0.8 4.5-2.6 17-2.7 20.3-0.2 3.4 0.7 2.1 1.2 2.9 0 0 3.5-15.6 4.7-18.2 1.2-2.6 2.3-6.8 2.1-8 0 0 1 7-0.8 14-1.8 7.1-2.7 11.9-2.3 14.2 0 0 3.8-5.2 4.5-5.7 0 0 2-1.3 3-6.6 0 0 1.8-4.5 3-7.7 0 0 0.6 4.1 0.2 5.7 0 0 1-7.9 1-9.5 0 0 1.2-3.6 1.2-4.6 0 0 1.8 2.2 2.8 1.6 0 0-1-3.1-1-6.4 0-3.3 0.7-2.7 0.9-1.2 0 0-0.7-5.9-2.1-8.9-1.5-3-2.8-4.7-2.4-11.1 0 0 1.7 7.4 3.3 9.5 0 0 1.9-7.4 0.3-20.5-1.7-13.1-1.5-15.7 1-27.1 2.5-11.3 3.7-9.4 5.4-19.3 1.7-9.9 0.7-4.9 1.2-9.3 0.6-4.5 10.3-16.9 10.7-20.1 0 0-7.3-6.2-11.9-17.7 0 0-7.7-14.5-7-19.2 0 0 0.9-3.9 1.7-2.2 0.1 0.2 0.1 0.3 0.2 0.4 0.7 1.1 0.4-4.3 0.1-5 0 0 0.3-0.5 0.6-0.2 0 0 0.4 1.5 0.3-5.5-0.1-7 0.9-18.9 5.5-28 0 0-5.9 12.6-3.4 20.7 0 0 0-3.7 0.5-4.7 0.4-0.9 0.2-3 2.9-7.2 1-1.6 2.5 5.9 2.1 8.7 0 0-0.3 2.8-0.1 3.7 0.2 0.8-0.4 2.1-0.4 3C205.5 127.7 208.5 122.7 208.7 120.1z" style="fill:url(#SVGID_32_);stroke:#000"/><radialGradient cx="228.7" cy="108" r="14.1" gradientTransform="matrix(0.9991 0.0432 -0.0432 0.9991 27.6362 -24.4951)" gradientUnits="userSpaceOnUse"><stop offset="0" class="B"/><stop offset="0.5614" class="C"/><stop offset="1" class="D"/></radialGradient><path d="M247.6 92.6c0 0-0.6 6.1-0.4 7.3 0.2 1.2-1.2 4.4-1.4 4.9 0 0 1.3-2.5 1.5-3.5 0 0-1 3.2-1 4.4 0 0 1.9-3 2.8-5.1 1-2.1 3.2-6 3.6-7.6" style="fill:url(#SVGID_33_);stroke:#000"/><radialGradient cx="208.6" cy="275.4" r="13.4" gradientTransform="matrix(0.9991 0.0423 -0.021 0.4953 27.458 -35.8301)" gradientUnits="userSpaceOnUse"><stop offset="0" class="B"/><stop offset="0.5614" class="C"/><stop offset="1" class="D"/></radialGradient><path d="M228.8 100.1c0 0 1.1 5.5 1.9 6.9 0.8 1.4 3.1 9.8 2.6 11.7 0 0-0.3-1.4-1.8-3.2-1.5-1.8-3.3-4.3-4.2-6.6-0.9-2.4-0.4-7.7-0.4-7.7" style="fill:url(#SVGID_34_);stroke:#000"/><path d="M219 137.6c0 0-0.1 0-0.2-0.1-0.1-0.1-0.3-0.2-0.5-0.3-0.4-0.3-0.9-0.7-1.4-1.1-0.2-0.2-0.5-0.5-0.7-0.7-0.2-0.2-0.3-0.5-0.5-0.7-0.2-0.5-0.3-0.7-0.3-0.7s0.3 0.2 0.6 0.4c0.2 0.1 0.4 0.2 0.7 0.2 0.3 0 0.5 0.1 0.8 0.1 0.6 0.1 1.1 0.1 1.5 0 0.2 0 0.4 0 0.5 0 0.1 0 0.2 0 0.2 0L219 137.6z"/><path d="M255.3 134.2c0 0 0.1 0 0.2 0 0.1 0 0.3 0 0.5 0 0.2 0 0.4 0 0.7 0 0.3 0 0.5 0 0.8-0.1 0.3 0 0.5-0.1 0.8-0.1 0.2-0.1 0.5-0.2 0.7-0.2 0.4-0.2 0.6-0.4 0.6-0.4s-0.1 0.3-0.3 0.7c-0.1 0.2-0.3 0.4-0.5 0.7-0.2 0.2-0.4 0.5-0.7 0.7-0.2 0.2-0.5 0.4-0.7 0.6-0.2 0.2-0.5 0.4-0.7 0.5-0.2 0.1-0.4 0.3-0.5 0.3-0.1 0.1-0.2 0.1-0.2 0.1L255.3 134.2z"/><radialGradient cx="312.3" cy="-43.1" r="8.2" gradientTransform="matrix(0.9514 -0.308 0.1616 0.4992 -37.4697 243.3284)" gradientUnits="userSpaceOnUse"><stop offset="0" class="L"/><stop offset="0.5614" class="M"/><stop offset="1" class="N"/></radialGradient><path d="M242.4 130.5c0 0 6.1-2.8 7.2-3.8 0 0 10.2-3.3 14.1-4 0 0-7.3 1-13.8 2.4C249.9 125.1 244 127.9 242.4 130.5z" style="fill:url(#SVGID_35_);stroke-width:0.5;stroke:#000"/><radialGradient cx="310.7" cy="-134" r="5.7" gradientTransform="matrix(0.9344 0.1738 0.192 0.4899 -46.7998 138.9956)" gradientUnits="userSpaceOnUse"><stop offset="0" class="L"/><stop offset="0.5614" class="M"/><stop offset="1" class="N"/></radialGradient><path d="M225.2 130.2c0 0-4.3-2-5.1-2.6 0 0-7.1-2.5-9.8-3.1 0 0 5 1.1 9.5 2.2C219.9 126.7 224 128.7 225.2 130.2z" style="fill:url(#SVGID_36_);stroke-width:0.5;stroke:#000"/><radialGradient cx="406.7" cy="269.5" r="4.6" fx="407.3549" fy="271.0915" gradientTransform="matrix(-0.9899 0.0116 0.3665 2.5024 555.759 -542.0074)" gradientUnits="userSpaceOnUse"><stop offset="0" class="O"/><stop offset="0.2016" class="P"/><stop offset="0.4628" class="Q"/><stop offset="1" class="Q"/></radialGradient><path d="M252.9 153.7c0.4 0.1 1.6-0.4 2-1.7 1.5-3.9 3.6-10 0-17.8-0.4-1-1-1.2-1.7-1.3-0.7-0.1-1.8 0.4-2.2 1.2-1.7 3-3.1 8.6-0.1 17.8C251.3 153.2 252.4 153.6 252.9 153.7z" fill="url(#SVGID_37_)"/><path d="M252.9 153.6c0.5 0 1-0.4 1.3-0.7 0.4-0.4 0.5-0.9 0.7-1.4 0.3-1 0.7-2.1 0.9-3.1 0.1-0.5 0.2-1.1 0.3-1.6 0.1-0.5 0.2-1.1 0.2-1.6 0.1-0.5 0.1-1.1 0.1-1.6 0-0.5 0-1.1 0-1.6-0.1-1.1-0.2-2.1-0.4-3.2-0.1-0.5-0.3-1-0.4-1.5-0.1-0.5-0.3-1-0.5-1.5l-0.6-1.5c-0.1-0.3-0.2-0.4-0.4-0.6-0.1-0.2-0.3-0.3-0.5-0.3-0.4-0.2-0.9-0.2-1.3 0-0.4 0.2-0.8 0.5-1 0.9l0 0 0 0c-0.8 1.5-1.4 3.1-1.7 4.8-0.1 0.4-0.1 0.9-0.2 1.3-0.1 0.4-0.1 0.9-0.1 1.3 0 0.9 0 1.7 0.1 2.6 0.1 0.9 0.2 1.7 0.3 2.6 0.2 0.9 0.3 1.7 0.5 2.6 0.2 0.9 0.5 1.7 0.7 2.5C251.3 152.8 252 153.4 252.9 153.6zM252.8 153.7c-0.9-0.2-1.6-0.8-2-1.7-0.3-0.8-0.6-1.7-0.8-2.5-0.3-0.8-0.4-1.7-0.6-2.6-0.2-0.9-0.3-1.7-0.4-2.6l-0.1-1.3 0-1.3c0-0.4 0-0.9 0.1-1.3 0-0.4 0.1-0.9 0.1-1.3 0.2-1.8 0.8-3.5 1.6-5.1l0 0c0.3-0.6 0.8-1 1.4-1.3 0.6-0.3 1.3-0.3 1.9-0.1 0.6 0.2 1.2 0.8 1.4 1.3l0.7 1.5c0.2 0.5 0.4 1 0.6 1.6 0.1 0.5 0.3 1.1 0.4 1.6 0.3 1.1 0.4 2.2 0.4 3.3 0.1 2.2-0.3 4.5-1 6.6-0.3 1.1-0.8 2.1-1.2 3.1-0.2 0.5-0.5 1-0.9 1.4C253.9 153.4 253.4 153.8 252.8 153.7z" class="R"/><radialGradient cx="463.7" cy="281.7" r="4.7" fx="464.4026" fy="283.3035" gradientTransform="matrix(-0.9213 0.0173 0.345 2.5699 549.5533 -594.8224)" gradientUnits="userSpaceOnUse"><stop offset="0" class="O"/><stop offset="0.2016" class="P"/><stop offset="0.4628" class="Q"/><stop offset="1" class="Q"/></radialGradient><path d="M220.3 153.5c0.4 0.1 1.5-0.5 2-1.7 1.5-3.9 3.5-10 0.2-17.7-0.4-0.9-1-1.2-1.6-1.3-0.7-0.1-1.7 0.4-2.1 1.2-1.6 3-3 8.5-0.2 17.7C218.8 153 219.9 153.4 220.3 153.5z" fill="url(#SVGID_38_)"/><path d="M220.3 153c0.5 1 1-0.1 1.3-0.5 0.4-0.4 0.5-0.8 0.7-1.3 0.3-1 0.6-2 0.9-3 0.1-0.5 0.2-1 0.3-1.5 0.1-0.5 0.2-1 0.2-1.5 0.1-0.5 0.1-1 0.1-1.6 0-0.5 0-1 0-1.6 0-0.5 0-1-0.1-1.6 0-0.5-0.1-1-0.2-1.6-0.1-0.5-0.2-1-0.3-1.5-0.1-0.5-0.3-1-0.4-1.5l-0.6-1.5-0.2-0.3c-0.1-0.1-0.1-0.2-0.2-0.2-0.1-0.2-0.3-0.3-0.5-0.4-0.2-0.1-0.4-0.1-0.6-0.1-0.2 0-0.4 0-0.6 0.1-0.4 0.2-0.8 0.5-1 0.9l0 0 0 0c-0.8 1.5-1.3 3.1-1.6 4.8-0.1 0.4-0.1 0.8-0.2 1.3-0.1 0.4-0.1 0.9-0.1 1.3 0 0.9 0 1.7 0 2.6 0.1 0.9 0.1 1.7 0.3 2.6 0.1 0.4 0.1 0.9 0.2 1.3 0.1 0.4 0.2 0.8 0.3 1.3 0.2 0.8 0.4 1.4 0.6 2.3 0.2 0.8 1 1.4 1.8 1.4H220.3zM220.3 154h0c-0.4-1-0.8-0.5-1.2-0.8-0.3-0.3-0.6-0.8-0.7-1.2-0.3-0.8-0.5-1.7-0.7-2.6-0.1-0.4-0.2-0.9-0.3-1.3-0.1-0.4-0.2-0.9-0.3-1.3-0.2-0.9-0.3-1.7-0.4-2.6-0.1-0.9-0.1-1.7-0.1-2.6 0-0.4 0-0.9 0.1-1.3 0-0.4 0.1-0.9 0.1-1.3 0.2-1.7 0.7-3.5 1.6-5.1l0 0c0.3-0.6 0.8-1 1.3-1.3 0.3-0.1 0.6-0.2 0.9-0.2 0.3 0 0.6 0.1 0.9 0.2 0.3 0.1 0.6 0.3 0.8 0.6 0.1 0.1 0.2 0.3 0.3 0.4 0.1 0.1 0.1 0.2 0.2 0.4l0.6 1.5c0.2 0.5 0.4 1 0.5 1.6 0.1 0.5 0.3 1.1 0.4 1.6 0.1 0.5 0.2 1.1 0.3 1.6 0.1 0.5 0.1 1.1 0.1 1.6 0.1 2.2-0.3 4.4-1 6.5-0.3 1-0.7 2-1.2 3-0.2 0.5-0.5 1.2-0.9 1.6-0.4 0.4-0.9 0.9-1.5 0.9H220.3z" class="R"/><g class="l"><path d="M232.1 181.8c0 0 0.4 0.1 1 0.2 0.3 0.1 0.6 0.1 1 0.2 0.4 0.1 0.7 0.2 1.1 0.2 0.4 0.1 0.8 0.2 1.1 0.2 0.4 0 0.7 0.1 1 0.1 0.6 0 1 0.1 1 0.1s-0.4 0.1-1 0.2c-0.2 0-0.3 0-0.5 0-0.2 0-0.4 0-0.5 0-0.4 0-0.8-0.1-1.2-0.1-0.8-0.2-1.6-0.4-2.1-0.7C232.4 182.1 232.1 181.8 232.1 181.8z"/></g><path d="M224.3 178.6c0.3 0.1 0.5 0.1 0.8 0.2l0.8 0.1c0.3 0 0.5 0 0.8 0 0.3 0 0.5 0 0.8-0.1 0.5-0.1 1.1-0.2 1.6-0.3l1.5-0.5c0.3-0.1 0.5-0.2 0.7-0.3l0.7-0.4c0.5-0.2 1-0.5 1.5-0.7 0.9-0.6 1.8-1.2 2.7-1.7l0.5-0.3 0.2 0.6c0.2 0.5 0.5 1.1 0.7 1.6 0.3 0.5 0.6 1 1 1.5 0.2 0.2 0.4 0.4 0.6 0.6 0.2 0.2 0.4 0.4 0.6 0.6 0.2 0.2 0.5 0.3 0.7 0.5 0.2 0.2 0.5 0.2 0.8 0.3 0.1 0 0.3 0.1 0.4 0.1l0.4 0c0.3 0 0.6 0.1 0.9 0 0.3 0 0.6 0 0.9-0.1l0.8-0.3c0.3-0.1 0.5-0.2 0.8-0.4l0.8-0.4c0.5-0.4 1-0.7 1.5-1-0.4 0.4-0.9 0.9-1.4 1.3l-0.8 0.5c-0.3 0.2-0.5 0.4-0.8 0.5l-0.9 0.4c-0.3 0.1-0.6 0.1-0.9 0.2-0.3 0.1-0.6 0.1-1 0.1l-0.5 0c-0.2 0-0.3-0.1-0.5-0.1-0.3-0.1-0.7-0.2-0.9-0.3-0.3-0.1-0.6-0.3-0.9-0.5-0.3-0.2-0.5-0.4-0.8-0.6-0.2-0.2-0.5-0.4-0.7-0.7-0.4-0.5-0.8-1-1.1-1.6-0.3-0.6-0.6-1.1-0.8-1.8l0.8 0.2c-1 0.6-1.9 1.2-2.9 1.7-0.5 0.2-1 0.5-1.5 0.7l-0.8 0.3c-0.3 0.1-0.5 0.2-0.8 0.3l-1.6 0.4c-0.6 0.1-1.1 0.1-1.7 0.2-0.3 0-0.6 0-0.8 0-0.3 0-0.6 0-0.8-0.1l-0.8-0.2C224.8 178.8 224.5 178.8 224.3 178.6z"/><radialGradient cx="841.6" cy="113.9" r="352.5" gradientTransform="matrix(-0.9992 -0.0406 -0.0406 0.9992 1214.3477 31.9575)" gradientUnits="userSpaceOnUse"><stop offset="0" class="B"/><stop offset="0.5614" class="C"/><stop offset="1" class="D"/></radialGradient><path d="M305.3 70.9c0 0-3.6-11.1-7.5-15.6-5.6-6.5-9.4-13.3-10.5-16.3-1-3-4.3-5.3-4.3-7 0 0 0.1 3.6 0.3 4.7 0 0-1.4-0.9-1.5-1.5 0 0-0.4 2-0.4 2.5 0.1 0.5-8.4 17.8-7.8 23.3 0 0-1.2-0.2-1.4-1 0 0 0.2 1.8 0.5 2 0 0-1.7 0.2-2.2-0.6 0 0 0.1 1.6 1 2.4" style="fill:url(#SVGID_39_);stroke:#000"/><radialGradient cx="921" cy="59.1" r="13.3" gradientTransform="matrix(-0.96 0.2801 0.6206 2.1271 1139.1307 -330.1331)" gradientUnits="userSpaceOnUse"><stop offset="0" class="E"/><stop offset="0.255" class="F"/><stop offset="0.531" class="G"/><stop offset="0.8158" class="H"/><stop offset="1" class="I"/></radialGradient><path d="M294.9 68.2c0 0 2 2.2 1.7 1.4-1.3-3.4-4.7-12.7-5-15.5-0.4-3.4-7.2-13.4-8.2-15.2 0 0-5.5 5.5-7.4 22.5 0 0 0.1 5.7 19.4 9.1C296 70.7 294.9 68.2 294.9 68.2z" style="fill:url(#SVGID_40_);stroke:#000"/><path d="M264 160.6c0.9-0.5 1.3-1.5 0.9-2.2-0.4-0.7-1.4-0.9-2.3-0.4-0.9 0.5-1.3 1.5-0.9 2.2C262.1 161 263.1 161.1 264 160.6z" opacity="0.6"/><path d="M272.4 157.9c0.8-0.5 1.2-1.4 0.8-2-0.4-0.6-1.3-0.8-2.1-0.3-0.8 0.5-1.2 1.4-0.9 2C270.6 158.3 271.5 158.4 272.4 157.9z" class="l"/><radialGradient cx="328.7" cy="116.5" r="5.9" gradientTransform="matrix(0.9995 0.0336 -0.0336 0.9995 -3.0889 -39.3936)" gradientUnits="userSpaceOnUse"><stop offset="0" class="J"/><stop offset="1" class="K"/></radialGradient><radialGradient cx="321.3" cy="88.2" r="6.5" gradientUnits="userSpaceOnUse"><stop offset="0" class="B"/><stop offset="0.5614" class="C"/><stop offset="1" class="D"/></radialGradient><path d="M314.6 91.8c0.1-0.1 8.4 4.5 13.4-5.6C331.4 79.4 316.1 87.3 314.6 91.8z" style="fill:url(#SVGID_41_);stroke:url(#SVGID_42_)"/><radialGradient cx="624.1" cy="-6" r="24.9" gradientTransform="matrix(-0.9993 -0.4289 -0.2842 1.5841 1108.7229 656.9434)" gradientUnits="userSpaceOnUse"><stop offset="0" class="J"/><stop offset="1" class="K"/></radialGradient><radialGradient cx="482.4" cy="355" r="24.3" gradientUnits="userSpaceOnUse"><stop offset="0" class="B"/><stop offset="0.5614" class="C"/><stop offset="1" class="D"/></radialGradient><path d="M477.7 329.3c0 0 2.8 5.8 3 8.8 0.3 3.1 0.5 3.5 1.9 9.3 1.4 5.8 2.2 11.8 2.8 17.6 0.6 5.8 5.3 15.7 8.5 21 0 0-11.3-3.6-13.4-5.7 0 0-2.3-8.2-1.9-18.2 0.4-10-2.4-32.1-8.6-38.7" style="fill:url(#SVGID_43_);stroke:url(#SVGID_44_)"/><radialGradient cx="404.6" cy="111.9" r="15.4" gradientTransform="matrix(0.9769 -0.2137 0.2137 0.9769 -21.459 133.4238)" gradientUnits="userSpaceOnUse"><stop offset="0" class="B"/><stop offset="0.5614" class="C"/><stop offset="1" class="D"/></radialGradient><radialGradient cx="397.7" cy="156.5" r="15.8" gradientUnits="userSpaceOnUse"><stop offset="0" class="B"/><stop offset="0.5614" class="C"/><stop offset="1" class="D"/></radialGradient><path d="M384.7 143c0.1 0.3 6.1 23.4 27 26.8 0.5 0.7 0.9 1.4 1.4 2-0.3-0.3-21.7 3.2-30.7-30.9" style="fill:url(#SVGID_45_);stroke:url(#SVGID_46_)"/><radialGradient cx="409.6" cy="146.8" r="55.1" gradientTransform="matrix(0.8618 -0.5073 1.783 3.0291 -204.6452 -47.5302)" gradientUnits="userSpaceOnUse"><stop offset="0" class="B"/><stop offset="0.5614" class="C"/><stop offset="1" class="D"/></radialGradient><radialGradient cx="398.7" cy="208.8" r="128.8" gradientUnits="userSpaceOnUse"><stop offset="0" class="B"/><stop offset="0.5614" class="C"/><stop offset="1" class="D"/></radialGradient><path d="M307 77.1c0 0.1 3.4-15.9 20.1-21.7 16.6-5.5 14.9-2 21.8-1.9 7 0.2 18.9 1 27.8 9.3 8.8 8.3 11.1 5.7 13.9 9.3 2.7 3.7 5.8 20.1 6.9 24.3 1.5 4.2 12.6 25.4 15.8 29.1 0 0-3.9-3.5-4.3-4.5-0.3-0.9 4.6 15.2 11.6 19.9 7.3 4.7 20.2 11.8 23 14.3 2.9 2.5 6.9 6.8 6.8 8.7 0 1.9 1.1 8.9 0.8 11.7-0.3 2.8-0.2 12.9 1.9 19.5 2 6.7-0.2 15.7 12.7 21.1 0 0-7.4-1.5-10.1-4.4 0 0 1.9 6.6 4 10.4 2.1 3.8 3.7 2.7 7.5 6.1 3.7 3.4 3.2 10.5 4 13.2 0.8 2.7 7.2 4.9 8.2 7.2 1.1 2.3 2.4 8 3.7 9.2 1.4 1.2 4 6.4 4.3 7.3 0.4 1.2-3.1 27.7-0.8 32.4 0 0-3.2-4.9-3.2-8.4 0 0 1 8.4 2.2 10.5 0 0-2.5-1.5-2.5-2.8 0 0-1.2 3.3-0.2 5.6 1 2.2 2.3 5.3 3.1 4.8 0 0-1.7 0.9-2.1-0.3 0 0 1 5.3 1.6 5.7 0.7 0.4 0.4 4.4 1.4 5.6 1 1.2 2.5 2 3.4 2.1 0.9 0.1-6.3 1.1-6.8 0.6 0 0-0.1 0.9 0.2 1.2 0.1 0-5.1-3-5.7-4.9 0 0 0.5 1.2 1.3 1.9 0 0-0.7 5.9-1.2 9.2-0.1 0.1-2.2 14.9 2.8 18.9 4.9 4.2 5.3-0.3 5.4-0.3 0 0 0.6 5.3-6.2 1.9 0 0-4.1-1.7-4.3-6.6 0 0-2.6 4.1-2 4.9 0 0-1.4-2.6 0-7.4 0.2 0.1-5.9 19.1-16.5 25.8 0 0 2.6-4.2 3.3-7.2 0.6-2.9 5.3-16.7 1.8-10.3 0 0 1.7-6.8 2.7-12.4 0.9-5.5 1.2-15.6 0.7-19.8-0.6-3.9 2.9-28-5.3-36.5-8.4-8.1-9.2-9.8-10.5-14.4-1.2-4.7-14.5-18-22.2-36.3 0 0-1.9 0.9-1.6 1.5 0.1-0.1-7.7-13-9.4-31.3-1.4-18.2-7.1-41.4-27.3-52.1-20.1-10.3-28.6-23.8-30.6-30.2-7.3-22.4-18.5-31.3-32.3-28.3C312.7 91.1 316.7 84.3 307 77.1z" style="fill:url(#SVGID_47_);stroke:url(#SVGID_48_)"/><radialGradient cx="416.7" cy="104.1" r="11.5" gradientTransform="matrix(0.9769 -0.2137 0.2137 0.9769 -21.459 133.4238)" gradientUnits="userSpaceOnUse"><stop offset="0" class="J"/><stop offset="1" class="K"/></radialGradient><radialGradient cx="408.1" cy="146.1" r="12.6" gradientUnits="userSpaceOnUse"><stop offset="0" class="B"/><stop offset="0.5614" class="C"/><stop offset="1" class="D"/></radialGradient><path d="M395.4 150.5c-0.1 0 14.7-10.5 19.4-15.7 0 0 3.8 4.5 5.2 5.4-0.1 0-13.7 12.4-17.8 16.9C402.3 157 397.8 153.1 395.4 150.5z" style="fill:url(#SVGID_49_);stroke:url(#SVGID_50_)"/><radialGradient cx="442.8" cy="147.5" r="12.1" gradientTransform="matrix(0.9769 -0.2137 0.2137 0.9769 -21.46 133.4248)" gradientUnits="userSpaceOnUse"><stop offset="0" class="J"/><stop offset="1" class="K"/></radialGradient><radialGradient cx="434.3" cy="188.1" r="15.9" gradientUnits="userSpaceOnUse"><stop offset="0" class="B"/><stop offset="0.5614" class="C"/><stop offset="1" class="D"/></radialGradient><path d="M451.1 176.2c-0.1 0-16.9 7.9-19.4 11.1-2.7 3.1-13.7 8.1-15.5 7.9 0 0 0 4.2 0.4 5.3 0 0 14.4-3.2 17.7-7.3 3.3-4.2 14.1-9.4 17.2-11C451.5 182.2 453.3 177.1 451.1 176.2z" style="fill:url(#SVGID_51_);stroke:url(#SVGID_52_)"/><radialGradient cx="440.1" cy="188.2" r="11.7" gradientTransform="matrix(0.9769 -0.2137 0.2137 0.9769 -21.46 133.4248)" gradientUnits="userSpaceOnUse"><stop offset="0" class="J"/><stop offset="1" class="K"/></radialGradient><radialGradient cx="443.2" cy="226.7" r="14.5" gradientUnits="userSpaceOnUse"><stop offset="0" class="B"/><stop offset="0.5614" class="C"/><stop offset="1" class="D"/></radialGradient><path d="M455.5 213c0 0-5.4 3.4-7.4 5.2-2 1.8-6.6 5.5-8 7.1-1.5 1.6-9.3 9.1-10 9.3 0 0 2.2 5.7 3.7 6-0.1 0 9.6-9.7 11.2-11.3 1.3-1.5 11.3-10.1 12.4-11.5C457.3 217.7 456.6 213.8 455.5 213z" style="fill:url(#SVGID_53_);stroke:url(#SVGID_54_)"/><radialGradient cx="455.7" cy="247.2" r="12.7" gradientTransform="matrix(0.9769 -0.2137 0.2137 0.9769 -21.459 133.4238)" gradientUnits="userSpaceOnUse"><stop offset="0" class="J"/><stop offset="1" class="K"/></radialGradient><radialGradient cx="476.1" cy="277.7" r="13.7" gradientUnits="userSpaceOnUse"><stop offset="0" class="B"/><stop offset="0.5614" class="C"/><stop offset="1" class="D"/></radialGradient><path d="M487.3 264.1c-0.3 0.1-15.8 15.8-23.7 20.8 0 0 0.7 4.1 1.9 6-0.1 0 12.9-7.8 21.7-18.8C487.1 272.1 490.8 265.9 487.3 264.1z" style="fill:url(#SVGID_55_);stroke:url(#SVGID_56_)"/><radialGradient cx="403.2" cy="54.9" r="15.5" gradientTransform="matrix(0.9769 -0.2137 0.2137 0.9769 -21.46 133.4248)" gradientUnits="userSpaceOnUse"><stop offset="0" class="J"/><stop offset="1" class="K"/></radialGradient><radialGradient cx="377.2" cy="104.9" r="18.2" gradientUnits="userSpaceOnUse"><stop offset="0" class="B"/><stop offset="0.5614" class="C"/><stop offset="1" class="D"/></radialGradient><path d="M395.9 91.1c-0.4-0.2-32.6 17.8-39.4 20.3 0 0 1.3 5.7 3.8 7.6-0.3-0.2 32.6-16.2 37.7-21.1C398.1 97.9 397.5 93.3 395.9 91.1z" style="fill:url(#SVGID_57_);stroke:url(#SVGID_58_)"/><radialGradient cx="441" cy="294.3" r="6.1" gradientTransform="matrix(0.9769 -0.2137 0.2137 0.9769 -21.459 133.4238)" gradientUnits="userSpaceOnUse"><stop offset="0" class="J"/><stop offset="1" class="K"/></radialGradient><radialGradient cx="472.3" cy="327.1" r="6.8" gradientUnits="userSpaceOnUse"><stop offset="0" class="B"/><stop offset="0.5614" class="C"/><stop offset="1" class="D"/></radialGradient><path d="M479 321.4c-0.1 0-11.6 5.2-12.9 6.1 0 0-0.6 2.6-0.6 4.3 0 0 11-1.9 12.6-3.6C478.1 328.2 478.9 323.3 479 321.4z" style="fill:url(#SVGID_59_);stroke:url(#SVGID_60_)"/><radialGradient cx="359.4" cy="96.7" r="10.8" gradientTransform="matrix(1.1345 -0.0471 0.0376 0.9033 -99.8076 10.792)" gradientUnits="userSpaceOnUse"><stop offset="0" class="J"/><stop offset="1" class="K"/></radialGradient><radialGradient cx="311.7" cy="80.4" r="11.6" gradientUnits="userSpaceOnUse"><stop offset="0" class="B"/><stop offset="0.5614" class="C"/><stop offset="1" class="D"/></radialGradient><path d="M309.1 70.1c-0.1 0.1-2.1 12.6 12.9 17.2 0 0-2 2.9-7 4.8 0.1-0.1-11.9-10-13.7-16.1C301.3 76.1 303.5 73.1 309.1 70.1z" style="fill:url(#SVGID_61_);stroke:url(#SVGID_62_)"/><radialGradient cx="381.8" cy="78" r="1.7" gradientTransform="matrix(0.8974 -0.4412 1.5508 3.1544 -93.8472 25.6114)" gradientUnits="userSpaceOnUse"><stop offset="0" class="B"/><stop offset="0.5614" class="C"/><stop offset="1" class="D"/></radialGradient><radialGradient cx="369.5" cy="103.5" r="4.6" gradientUnits="userSpaceOnUse"><stop offset="0" class="B"/><stop offset="0.5614" class="C"/><stop offset="1" class="D"/></radialGradient><path d="M364.9 100.4c0 0 3.9 4.4 7 6.3 0.3 0.2 0.6 0.4 0.9 0.5 3.2 1.4-2.8-4.4-3.1-8" style="fill:url(#SVGID_63_);stroke:url(#SVGID_64_)"/><radialGradient cx="412.6" cy="126.9" r="3.4" gradientTransform="matrix(0.8974 -0.4412 1.5508 3.1544 -159.9559 -70.8845)" gradientUnits="userSpaceOnUse"><stop offset="0" class="B"/><stop offset="0.5614" class="C"/><stop offset="1" class="D"/></radialGradient><radialGradient cx="407.2" cy="148.2" r="8.1" gradientUnits="userSpaceOnUse"><stop offset="0" class="B"/><stop offset="0.5614" class="C"/><stop offset="1" class="D"/></radialGradient><path d="M403.7 139.5c0 0.1 0.6 14.9 6.8 19.1 0.1 0.1-4.9-17.6-3.6-21" style="fill:url(#SVGID_65_);stroke:url(#SVGID_66_)"/><radialGradient cx="476.9" cy="263.1" r="4.4" gradientTransform="matrix(0.8974 -0.4412 1.5508 3.1544 -346.2427 -346.3973)" gradientUnits="userSpaceOnUse"><stop offset="0" class="B"/><stop offset="0.5614" class="C"/><stop offset="1" class="D"/></radialGradient><radialGradient cx="488.9" cy="274.9" r="10.7" gradientUnits="userSpaceOnUse"><stop offset="0" class="B"/><stop offset="0.5614" class="C"/><stop offset="1" class="D"/></radialGradient><path d="M480.8 263.5c0.2 0.6 4.3 13.8 10.7 16.8 2.8 1.3 2.2 6.6 2.2 6.6 0 0 5-2.9 2.6-4.8-2-1.9-12.7-13.8-13.4-19.7" style="fill:url(#SVGID_67_);stroke:url(#SVGID_68_)"/></svg>