<svg xmlns="http://www.w3.org/2000/svg" width="580" height="400" viewBox="0 0 580 400"><title>  background</title><title>  Layer 1</title><path d="M289.5 97.2c118.5-234.5 583 0 0 301.5C-293.5 97.2 171-137.3 289.5 97.2z" style="fill:#FF96C8;stroke:#000"/><path d="M372.3 132.4c-14.2-12.8-46.4 2.6-64.2 12.9 -5.1-0.8-10.4-1.2-16-1.2 -22.5 0-40.6 6.6-54.3 19.1 -15.7 14.3-24.3 33.1-24.3 54.8 0 0.2 0 0.4 0 0.6 22-34.5 55.9-52.2 64.9-56.9 1.4-0.7 2.3 1 0.9 1.7 -0.1 0.3-0.1 0 0 0 -15.1 9.1-43.1 35.3-61.3 73l0 0c-11.5 23.8-21.2 57.2-1.8 69.4 14.7 9.3 41.1-1.7 62.3-15.5 5.1 0.7 10.5 1.1 16.2 1.1 39.2 0 66.6-21.6 76.4-53.1l-53.8-0.1c-2.3 11.1-9.8 17.1-21.6 17.1 -14.8 0-25-8.1-25.7-26.9l102.1-0.1c0.2-3.9-0.3-6.6-0.3-9.6 0-35.2-21.1-62.7-55.3-71.5 14-8.7 40.1-21.5 52.6-11.3 9.4 7.6 4.2 23.7 2 30.3 -0.4 1.7 1.6 2 2 0.4 4.7-11.9 6.1-27.8-0.8-34V132.4zM273.6 289.4c-16.6 9.9-39.4 17-50.5 8.6 -8.3-6.3-4.7-23.3 2.7-39.8 4.5 6.7 10 12.6 16.6 17.6 8.9 6.7 19.3 11.2 31.3 13.5L273.6 289.4zM269.9 204.7c0.3-16.3 12-23.4 24.3-23.4 12.9 0 23.4 7.5 23.4 23.4H269.9L269.9 204.7z" style="fill:#96FFF6;stroke:#000"/></svg>