<?xml version="1.0" encoding="utf-8"?>
<!-- Generator: Adobe Illustrator 16.0.0, SVG Export Plug-In . SVG Version: 6.00 Build 0)  -->
<!DOCTYPE svg PUBLIC "-//W3C//DTD SVG 1.1//EN" "http://www.w3.org/Graphics/SVG/1.1/DTD/svg11.dtd">
<svg version="1.1" id="Calque_1" xmlns="http://www.w3.org/2000/svg" xmlns:xlink="http://www.w3.org/1999/xlink" x="0px" y="0px"
	 width="580px" height="400px" viewBox="0 0 580 400" enable-background="new 0 0 580 400" xml:space="preserve">
<title>background</title>
<g>
	<rect fill="none" width="100" height="100"/>
</g>
<title>Layer 1</title>
<text transform="matrix(0.6602 0 0 1 66.2031 281.2422)" font-family="'ArialMT'" font-size="235.5555">LOGO</text>
<path fill="#470FFF" stroke="#000000" stroke-width="2" d="M253.3,117.4c-7-11.9-22.9,2.4-31.7,12.1c-2.5-0.8-5.2-1.2-7.9-1.2
	c-11.1,0-20.1,6.2-26.9,17.8c-7.7,13.4-12,30.9-12,51.2c0,0.2,0,0.4,0,0.5c10.9-32.2,27.6-48.7,32.1-53.1c0.7-0.6,1.1,1,0.5,1.6
	c0,0.3,0,0,0,0c-7.5,8.4-21.3,32.9-30.3,68.101l0,0c-5.7,22.199-10.5,53.399-0.9,64.8c7.3,8.6,20.3-1.601,30.8-14.5
	c2.5,0.7,5.2,1,8,1c19.4,0,32.9-20.2,37.8-49.601l-26.6-0.1c-1.1,10.4-4.9,15.9-10.7,15.9c-7.3,0-12.4-7.601-12.7-25.101l50.5-0.1
	c0.1-3.601-0.1-6.2-0.1-9c0-32.8-10.4-58.5-27.4-66.7c6.9-8.1,19.8-20.1,26-10.5c4.7,7.1,2.1,22.1,1,28.3c-0.2,1.6,0.8,1.9,1,0.4
	c2.3-11.1,3-26-0.4-31.8H253.3z M204.5,263.8c-8.2,9.2-19.5,15.9-25,8.101c-4.1-5.801-2.3-21.7,1.3-37.101c2.2,6.2,5,11.8,8.2,16.5
	c4.4,6.2,9.5,10.4,15.5,12.601V263.8z M202.7,184.8c0.1-15.2,5.9-21.8,12-21.8c6.4,0,11.6,7,11.6,21.8h-23.5H202.7z"/>
<path fill="#0FFF1F" stroke="#000000" stroke-width="2" d="M495.7,117.4c-7-11.9-22.9,2.4-31.7,12.1c-2.5-0.8-5.2-1.2-7.9-1.2
	c-11.1,0-20.1,6.2-26.899,17.8c-7.7,13.4-12,30.9-12,51.2c0,0.2,0,0.4,0,0.5c10.899-32.2,27.6-48.7,32.1-53.1
	c0.7-0.6,1.101,1,0.5,1.6c0,0.3,0,0,0,0c-7.5,8.4-21.3,32.9-30.3,68.101l0,0c-5.7,22.199-10.5,53.399-0.9,64.8
	c7.301,8.6,20.301-1.601,30.801-14.5c2.5,0.7,5.199,1,8,1c19.399,0,32.899-20.2,37.8-49.601L468.6,216
	c-1.1,10.4-4.899,15.9-10.699,15.9c-7.301,0-12.4-7.601-12.7-25.101l50.5-0.1c0.1-3.601-0.101-6.2-0.101-9
	c0-32.8-10.399-58.5-27.399-66.7c6.899-8.1,19.8-20.1,26-10.5c4.7,7.1,2.1,22.1,1,28.3c-0.2,1.6,0.8,1.9,1,0.4
	c2.3-11.1,3-26-0.4-31.8H495.7z M446.9,263.8c-8.2,9.2-19.5,15.9-25,8.101c-4.101-5.801-2.301-21.7,1.3-37.101
	c2.2,6.2,5,11.8,8.2,16.5c4.399,6.2,9.5,10.4,15.5,12.601V263.8z M445.1,184.8c0.101-15.2,5.9-21.8,12-21.8
	c6.4,0,11.601,7,11.601,21.8h-23.5H445.1z"/>
<rect x="63.5" y="293" width="446" height="5"/>
<rect x="63.5" y="304" width="446" height="5"/>
</svg>
