<svg xmlns="http://www.w3.org/2000/svg" width="580" height="400" viewBox="0 0 580 400"><title>  background</title><rect width="100" height="100" fill="none"/><title>  Layer 1</title><text transform="matrix(0.6602 0 0 1 66.2031 281.2422)" font-family="'ArialMT'" font-size="235.5555">  LOGO</text><path d="M253.3 117.4c-7-11.9-22.9 2.4-31.7 12.1 -2.5-0.8-5.2-1.2-7.9-1.2 -11.1 0-20.1 6.2-26.9 17.8 -7.7 13.4-12 30.9-12 51.2 0 0.2 0 0.4 0 0.5 10.9-32.2 27.6-48.7 32.1-53.1 0.7-0.6 1.1 1 0.5 1.6 0 0.3 0 0 0 0 -7.5 8.4-21.3 32.9-30.3 68.1l0 0c-5.7 22.2-10.5 53.4-0.9 64.8 7.3 8.6 20.3-1.6 30.8-14.5 2.5 0.7 5.2 1 8 1 19.4 0 32.9-20.2 37.8-49.6l-26.6-0.1c-1.1 10.4-4.9 15.9-10.7 15.9 -7.3 0-12.4-7.6-12.7-25.1l50.5-0.1c0.1-3.6-0.1-6.2-0.1-9 0-32.8-10.4-58.5-27.4-66.7 6.9-8.1 19.8-20.1 26-10.5 4.7 7.1 2.1 22.1 1 28.3 -0.2 1.6 0.8 1.9 1 0.4 2.3-11.1 3-26-0.4-31.8H253.3zM204.5 263.8c-8.2 9.2-19.5 15.9-25 8.1 -4.1-5.8-2.3-21.7 1.3-37.1 2.2 6.2 5 11.8 8.2 16.5 4.4 6.2 9.5 10.4 15.5 12.6V263.8zM202.7 184.8c0.1-15.2 5.9-21.8 12-21.8 6.4 0 11.6 7 11.6 21.8h-23.5H202.7z" style="fill:#470FFF;stroke-width:2;stroke:#000"/><path d="M495.7 117.4c-7-11.9-22.9 2.4-31.7 12.1 -2.5-0.8-5.2-1.2-7.9-1.2 -11.1 0-20.1 6.2-26.9 17.8 -7.7 13.4-12 30.9-12 51.2 0 0.2 0 0.4 0 0.5 10.9-32.2 27.6-48.7 32.1-53.1 0.7-0.6 1.1 1 0.5 1.6 0 0.3 0 0 0 0 -7.5 8.4-21.3 32.9-30.3 68.1l0 0c-5.7 22.2-10.5 53.4-0.9 64.8 7.3 8.6 20.3-1.6 30.8-14.5 2.5 0.7 5.2 1 8 1 19.4 0 32.9-20.2 37.8-49.6L468.6 216c-1.1 10.4-4.9 15.9-10.7 15.9 -7.3 0-12.4-7.6-12.7-25.1l50.5-0.1c0.1-3.6-0.1-6.2-0.1-9 0-32.8-10.4-58.5-27.4-66.7 6.9-8.1 19.8-20.1 26-10.5 4.7 7.1 2.1 22.1 1 28.3 -0.2 1.6 0.8 1.9 1 0.4 2.3-11.1 3-26-0.4-31.8H495.7zM446.9 263.8c-8.2 9.2-19.5 15.9-25 8.1 -4.1-5.8-2.3-21.7 1.3-37.1 2.2 6.2 5 11.8 8.2 16.5 4.4 6.2 9.5 10.4 15.5 12.6V263.8zM445.1 184.8c0.1-15.2 5.9-21.8 12-21.8 6.4 0 11.6 7 11.6 21.8h-23.5H445.1z" style="fill:#0FFF1F;stroke-width:2;stroke:#000"/><rect x="63.5" y="293" width="446" height="5"/><rect x="63.5" y="304" width="446" height="5"/></svg>