<svg xmlns="http://www.w3.org/2000/svg" width="2560" height="798" viewBox="0 -149 2560 798"><title>  background</title><title>  Layer 1</title><path d="M-26.2 361.6l83.7-73.8c1.3 1.4 26.3 52.4 28.8 55.1 2.5 2.7 125-61.7 123.7-63.1 1.3 1.4 18.8 41.6 17.5 40.2 1.3 1.4 256.3-17.4 255-18.8 1.3 1.4 26.3 49.7 33.8 52.4 7.5 2.7 170-93.9 172.5-93.9s40 48.3 38.7 46.9c1.3 1.4 53.8-84.5 73.8-57.6 20 26.8 35 99.3 55 93.9s62.5-56.3 77.5-51 30 75.1 47.5 59 40-99.3 62.5-77.8 37.5 104.6 50 88.5c12.5-16.1 32.5-56.3 47.5-51 15 5.4 35 83.2 62.5 72.4 27.5-10.7 70-53.7 77.5-48.3 7.5 5.4-10 32.2 17.5 13.4 27.5-18.8 52.5-37.6 52.5-64.4 0-26.8 5-61.7-7.5-88.5 -12.5-26.8-27.5-69.8-47.5-72.4s-42.5-26.8-87.5 2.7 -45 0-67.5 59 -15 61.7-22.5 64.4c-7.5 2.7-50 5.4-62.5-29.5 -12.5-34.9-20-29.5-15-67.1s-2.5-40.2 17.5-61.7c20-21.5 10-16.1 45-32.2 35-16.1 20-21.5 72.5-24.1s60-8 117.5 0 57.5-34.9 92.5 18.8c35 53.7 72.5 69.8 75 144.9s-7.5 32.2 2.5 115.4c10 83.2-35 83.2 12.5 88.5s17.5 42.9 75 5.4c57.5-37.6 52.5 8.1 67.5-48.3s15-61.7 5-104.6 -35-77.8-12.5-104.6c22.5-26.8 45-69.8 95-37.6s95 0 102.5 96.6c7.5 96.6-20 139.5 20 147.6s47.5 96.6 72.5 10.7 15-77.8 27.5-115.4c12.5-37.6 2.5-51 17.5-64.4 15-13.4 27.5-53.7 57.5-21.5 30 32.2 45 61.7 60 112.7s20 69.8 25 72.4 -20 32.2 22.5 2.7 42.5-34.9 47.5-48.3 7.5-26.8 5-34.9 -15-26.8-17.5-40.2c-2.5-13.4-15-32.2-15-42.9 0-10.7-2.5-16.1-2.5-26.8s-7.5-8 0-24.1c7.5-16.1-2.5-13.4 15-21.5s27.5-8 32.5-8 -7.5-13.4 20 5.4 42.5 24.1 55 42.9 20 13.4 20 32.2c0 18.8-5 37.6-12.5 34.9s-10-5.4-22.5-13.4c-12.5-8 0-64.4-15-8s-50 59-15 75.1 95 72.4 110 40.2c15-32.2 32.5-13.4 22.5-72.4 -10-59 7.5-56.3-17.5-96.6s-70-51-17.5-59c52.5-8 107.5-10.7 117.5 13.4 10 24.1 22.5 21.5 22.5 72.4s17.5 80.5 0 99.3c-17.5 18.8 0-2.7-32.5 40.2s45 26.8-35 56.3 -37.5 21.5-85 32.2c-47.5 10.7-25 8.1-70 13.4 -45 5.4-15-5.4-62.5 5.4 -47.5 10.7-35 8.1-105 16.1 -70 8.1-30 13.4-107.5 13.4s-30-8-105 0 -102.5-24.1-77.5 8.1c25 32.2 37.5 37.6 62.5 37.6s37.5 0 92.5 0 55 8 100 0c45-8 20-2.7 75-10.7s70-5.4 90-8 0-2.7 80-2.7 52.5 16.1 100-2.7c47.5-18.8 55-8 77.5-37.6s30-18.8 35-51c5-32.2 20-37.6 20-69.8 0-32.2 0-26.8 2.5-59 2.5-32.2 0-56.3 5-69.8 5-13.4 5-18.8 20-18.8s47.5-40.2 52.5 13.4c5 53.7 12.5 77.8 17.5 147.6 5 69.8 20 59 20 131.5 0 72.4 37.5 40.2 0 120.7s52.5 91.2-77.5 107.3 15 24.1-267.5 37.6c-282.5 13.4-125 10.7-415 13.4 -290 2.7-132.5-5.4-435 10.7 -302.5 16.1-290 16.1-500 16.1s-65 18.8-357.5 0c-292.5-18.8-165-5.4-377.5-21.5s-245 8.1-247.5-16.1c-2.5-24.1 37.5-364.9 36.2-350.1 -1.2 1.4 3.8-36.2 5-37.6" style="fill:#F00;stroke-width:40;stroke:#6B0000"/><path d="M266.1 36c-14.3-12.9-46.7 2.6-64.5 13 -5.1-0.8-10.5-1.2-16.1-1.2 -22.6 0-40.8 6.6-54.6 19.2 -15.7 14.4-24.5 33.3-24.5 55.1 0 0.2 0 0.4 0 0.6 22.1-34.7 56.2-52.5 65.2-57.2 1.4-0.7 2.3 1 0.9 1.7 -0.1 0.3-0.1 0 0 0 -15.2 9.1-43.3 35.4-61.6 73.3l0 0c-11.6 23.9-21.3 57.5-1.8 69.8 14.8 9.3 41.3-1.7 62.6-15.6 5.1 0.7 10.6 1.1 16.3 1.1 39.3 0 66.9-21.7 76.8-53.4l-54-0.1c-2.3 11.2-9.9 17.2-21.7 17.2 -14.9 0-25.1-8.2-25.8-27l102.6-0.1c0.2-3.9-0.3-6.6-0.3-9.7 0-35.4-21.2-63-55.6-71.8 14-8.7 40.2-21.6 52.9-11.3 9.5 7.7 4.3 23.8 2 30.4 -0.4 1.7 1.6 2 2 0.4 4.7-11.9 6.2-28-0.8-34.2V36zM166.9 193.7c-16.6 9.9-39.6 17.1-50.8 8.7 -8.4-6.3-4.7-23.4 2.7-40 4.5 6.7 10.1 12.7 16.7 17.7C144.4 186.8 154.9 191.3 166.9 193.7L166.9 193.7zM163.1 108.6c0.3-16.4 12-23.5 24.4-23.5 13 0 23.5 7.5 23.5 23.5H163.1z" style="fill:#F00;stroke-width:0.5;stroke:#6B0000"/></svg>