<svg xmlns="http://www.w3.org/2000/svg" width="2560" height="500"><style>.a{fill:#f00;stroke-width:20;stroke:#ff0;}</style><title>  background</title><rect height="502" width="2562" y="-1" x="-1" fill="#fff"/><title>  Layer 1</title><path d="m-26.2 338.7l83.7-68.8c1.3 1.3 26.3 48.8 28.8 51.3 2.5 2.5 125-57.5 123.7-58.8 1.3 1.3 18.8 38.8 17.5 37.5 1.3 1.3 256.3-16.2 255-17.5 1.3 1.3 26.3 46.3 33.8 48.8 7.5 2.5 170-87.5 172.5-87.5 2.5 0 40 45 38.7 43.7 1.3 1.3 53.8-78.7 73.8-53.7 20 25 35 92.5 55 87.5 20-5 62.5-52.5 77.5-47.5 15 5 30 70 47.5 55 17.5-15 40-92.5 62.5-72.5 22.5 20 37.5 97.5 50 82.5 12.5-15 32.5-52.5 47.5-47.5 15 5 35 77.5 62.5 67.5 27.5-10 70-50 77.5-45 7.5 5-10 30 17.5 12.5 27.5-17.5 52.5-35 52.5-60 0-25 5-57.5-7.5-82.5 -12.5-25-27.5-65-47.5-67.5 -20-2.5-42.5-25-87.5 2.5 -45 27.5-45 0-67.5 55 -22.5 55-15 57.5-22.5 60 -7.5 2.5-50 5-62.5-27.5 -12.5-32.5-20-27.5-15-62.5 5-35-2.5-37.5 17.5-57.5 20-20 10-15 45-30 35-15 20-20 72.5-22.5 52.5-2.5 60-7.5 117.5 0 57.5 7.5 57.5-32.5 92.5 17.5 35 50 72.5 65 75 135 2.5 70-7.5 30 2.5 107.5 10 77.5-35 77.5 12.5 82.5 47.5 5 17.5 40 75 5 57.5-35 52.5 7.5 67.5-45 15-52.5 15-57.5 5-97.5 -10-40-35-72.5-12.5-97.5 22.5-25 45-65 95-35 50 30 95 0 102.5 90 7.5 90-20 130 20 137.5 40 7.5 47.5 90 72.5 10 25-80 15-72.5 27.5-107.5 12.5-35 2.5-47.5 17.5-60 15-12.5 27.5-50 57.5-20 30 30 45 57.5 60 105 15 47.5 20 65 25 67.5 5 2.5-20 30 22.5 2.5 42.5-27.5 42.5-32.5 47.5-45 5-12.5 7.5-25 5-32.5 -2.5-7.5-15-25-17.5-37.5 -2.5-12.5-15-30-15-40 0-10-2.5-15-2.5-25 0-10-7.5-7.5 0-22.5 7.5-15-2.5-12.5 15-20 17.5-7.5 27.5-7.5 32.5-7.5 5 0-7.5-12.5 20 5 27.5 17.5 42.5 22.5 55 40 12.5 17.5 20 12.5 20 30 0 17.5-5 35-12.5 32.5 -7.5-2.5-10-5-22.5-12.5 -12.5-7.5 0-60-15-7.5 -15 52.5-50 55-15 70 35 15 95 67.5 110 37.5 15-30 32.5-12.5 22.5-67.5 -10-55 7.5-52.5-17.5-90 -25-37.5-70-47.5-17.5-55 52.5-7.5 107.5-10 117.5 12.5 10 22.5 22.5 20 22.5 67.5 0 47.5 17.5 75 0 92.5 -17.5 17.5 0-2.5-32.5 37.5 -32.5 40 45 25-35 52.5 -80 27.5-37.5 20-85 30 -47.5 10-25 7.5-70 12.5 -45 5-15-5-62.5 5 -47.5 10-35 7.5-105 15 -70 7.5-30 12.5-107.5 12.5 -77.5 0-30-7.5-105 0 -75 7.5-102.5-22.5-77.5 7.5 25 30 37.5 35 62.5 35 25 0 37.5 0 92.5 0 55 0 55 7.5 100 0 45-7.5 20-2.5 75-10 55-7.5 70-5 90-7.5 20-2.5 0-2.5 80-2.5 80 0 52.5 15 100-2.5 47.5-17.5 55-7.5 77.5-35 22.5-27.5 30-17.5 35-47.5 5-30 20-35 20-65 0-30 0-25 2.5-55 2.5-30 0-52.5 5-65 5-12.5 5-17.5 20-17.5 15 0 47.5-37.5 52.5 12.5 5 50 12.5 72.5 17.5 137.5 5 65 20 55 20 122.5 0 67.5 37.5 37.5 0 112.5 -37.5 75 52.5 85-77.5 100 -130 15 15 22.5-267.5 35 -282.5 12.5-125 10-415 12.5 -290 2.5-132.5-5-435 10 -302.5 15-290 15-500 15 -210 0-65 17.5-357.5 0 -292.5-17.5-165-5-377.5-20 -212.5-15-245 7.5-247.5-15 -2.5-22.5 37.5-340 36.2-326.2 -1.2 1.3 3.8-33.7 5-35" class="a"/><path d="m266.1 36c-14.3-12.9-46.7 2.6-64.5 13 -5.1-0.8-10.5-1.2-16.1-1.2 -22.6 0-40.8 6.6-54.6 19.2 -15.7 14.4-24.5 33.3-24.5 55.1 0 0.2 0 0.4 0 0.6 22.1-34.7 56.2-52.5 65.2-57.2 1.4-0.7 2.3 1 0.9 1.7 -0.1 0.3-0.1 0 0 0 -15.2 9.1-43.3 35.4-61.6 73.3l0 0c-11.6 23.9-21.3 57.5-1.8 69.8 14.8 9.3 41.3-1.7 62.6-15.6 5.1 0.7 10.6 1.1 16.3 1.1 39.3 0 66.9-21.7 76.8-53.4l-54-0.1c-2.3 11.2-9.9 17.2-21.7 17.2 -14.9 0-25.1-8.2-25.8-27l102.6-0.1c0.2-3.9-0.3-6.6-0.3-9.7 0-35.4-21.2-63-55.6-71.8 14-8.7 40.2-21.6 52.9-11.3 9.5 7.7 4.3 23.8 2 30.4 -0.4 1.7 1.6 2 2 0.4 4.7-11.9 6.2-28-0.8-34.2zm-99.2 157.7c-16.6 9.9-39.6 17.1-50.8 8.7 -8.4-6.3-4.7-23.4 2.7-40 4.5 6.7 10.1 12.7 16.7 17.7 8.9 6.7 19.4 11.2 31.4 13.6zm-3.8-85.1c0.3-16.4 12-23.5 24.4-23.5 13 0 23.5 7.5 23.5 23.5l-47.9 0z" class="a"/></svg>