<svg xmlns="http://www.w3.org/2000/svg" width="2560" height="500" viewBox="0 0 2560 500"><style>.a{fill:#1F00FF;}.b{fill:#F00;}</style><title>  background</title><title>  Layer 1</title><circle cx="-22.5" cy="1065" r="1008.7" class="a"/><path d="M-22.5 53.8c0 0 6.2 0.1 18.2 0.2 3 0.1 6.4 0 10.1 0.2 3.7 0.1 7.8 0.3 12.3 0.5 2.2 0.1 4.5 0.2 6.9 0.3 2.4 0.1 4.9 0.2 7.4 0.3 5.1 0.3 10.6 0.6 16.4 1 5.8 0.3 11.9 0.9 18.4 1.4 6.5 0.6 13.3 1 20.4 1.9 3.6 0.4 7.2 0.8 10.9 1.2 3.7 0.4 7.5 0.8 11.4 1.3 7.7 1.1 15.8 2 24.1 3.3 33.4 4.9 71.6 12.2 113.7 23.2 2.6 0.7 5.3 1.3 8 2.1 2.7 0.7 5.3 1.5 8 2.3 5.4 1.5 10.8 3.1 16.3 4.6 10.9 3.4 22.2 6.7 33.6 10.6 2.9 0.9 5.7 1.9 8.6 2.9 1.4 0.5 2.9 1 4.3 1.5 1.4 0.5 2.9 1 4.3 1.6 5.8 2.1 11.7 4.2 17.6 6.3 11.8 4.5 23.8 9 35.9 14.2 48.6 20 99.8 45.5 151.7 77.6 51.9 32.1 104.4 71.1 154.9 117.8 50.4 46.7 99.1 101.1 142.2 163.4 21.6 31.2 41.8 64.2 60.3 99.1l1.8 3.3 1.7 3.3c1.1 2.2 2.2 4.4 3.4 6.6 2.2 4.4 4.5 8.8 6.7 13.3 2.1 4.5 4.3 9 6.4 13.5 2.2 4.5 4.3 9 6.3 13.7 2.1 4.6 4.1 9.2 6.2 13.8l1.5 3.5 1.5 3.5c1 2.3 1.9 4.7 2.9 7 1.9 4.7 3.9 9.4 5.8 14.1 1.8 4.8 3.7 9.5 5.5 14.3 0.9 2.4 1.8 4.8 2.8 7.2 0.9 2.4 1.7 4.8 2.6 7.2 1.7 4.8 3.5 9.7 5.2 14.6 0.9 2.4 1.7 4.9 2.5 7.3 0.8 2.5 1.6 4.9 2.4 7.4 0.8 2.5 1.6 4.9 2.4 7.4 0.8 2.5 1.6 4.9 2.4 7.4 1.5 5 3 10 4.5 15 0.7 2.5 1.5 5 2.2 7.5 0.7 2.5 1.4 5.1 2.1 7.6 1.4 5.1 2.7 10.1 4.1 15.2 1.3 5.1 2.5 10.2 3.8 15.4 2.6 10.2 4.7 20.7 7 31.1 1.2 5.2 2.1 10.5 3.1 15.7 1 5.3 2 10.5 2.9 15.8 0.9 5.3 1.7 10.6 2.6 15.9 0.4 2.7 0.9 5.3 1.3 8 0.4 2.7 0.7 5.3 1.1 8 0.7 5.4 1.4 10.7 2.2 16.1 0.7 5.4 1.2 10.8 1.8 16.2 1.3 10.8 2.1 21.7 2.9 32.6 0.5 5.5 0.7 10.9 1 16.4 0.3 5.5 0.6 11 0.8 16.5 0.2 5.5 0.3 11 0.5 16.5 0.1 2.8 0.1 5.5 0.2 8.3 0 2.8 0 5.5 0 8.3 0 5.5 0 11.1 0 16.6 0 0.4 0 1.7 0 2.3l-0.1 2 -0.1 4.1c-0.1 2.7-0.1 5.5-0.2 8.2 -0.1 10.8-0.9 22.2-1.4 33.5l-0.2 4.2 -0.3 4.2c-0.2 2.8-0.4 5.6-0.7 8.4 -0.2 2.8-0.4 5.6-0.7 8.4 -0.2 2.8-0.4 5.6-0.7 8.4 -1.2 11.2-2.2 22.5-3.8 33.7 -0.8 5.6-1.4 11.2-2.3 16.9 -0.9 5.6-1.8 11.2-2.7 16.8 -0.5 2.8-0.8 5.6-1.4 8.4 -0.5 2.8-1 5.6-1.5 8.4 -1 5.6-2 11.2-3.1 16.8 -1.2 5.6-2.4 11.2-3.6 16.8 -0.6 2.8-1.1 5.6-1.8 8.4 -0.7 2.8-1.3 5.6-2 8.4 -5.1 22.4-11.4 44.6-18.1 66.8 -1.8 5.5-3.5 11-5.3 16.6l-1.3 4.1 -1.4 4.1 -2.9 8.2c-3.7 11-7.9 21.9-12 32.9 -2.1 5.5-4.3 10.9-6.5 16.3l-3.3 8.1c-1.1 2.7-2.3 5.4-3.5 8.1 -2.3 5.4-4.7 10.8-7 16.2 -2.5 5.3-4.9 10.7-7.4 16 -39.9 85.2-92.1 166.2-154.8 239.4 -62.8 73.2-136.1 138.7-217.8 193.2 -81.7 54.5-171.8 97.9-266.8 127.8 -23.7 7.6-47.8 14.1-72.1 19.9l-18.2 4.2 -18.4 3.8c-6.1 1.3-12.3 2.4-18.4 3.5 -6.2 1.1-12.3 2.3-18.5 3.2l-18.5 2.9c-6.2 0.9-12.4 1.6-18.6 2.5 -3.1 0.4-6.2 0.8-9.3 1.2l-9.3 1 -9.3 1c-3.1 0.3-6.2 0.7-9.4 0.9l-18.7 1.5c-3.1 0.3-6.3 0.4-9.4 0.6l-9.4 0.5 -9.4 0.5c-3.1 0.2-6.3 0.2-9.4 0.3l-19 0.6 -18.6 0.1c-3.1 0-6.2 0.1-9.3 0l-9.5-0.2 -9.5-0.2c-3.2-0.1-6.3-0.1-9.5-0.3l-18.8-0.9c-3.1-0.1-6.3-0.4-9.4-0.6l-9.4-0.7 -9.4-0.7c-3.1-0.2-6.3-0.6-9.4-0.9 -6.3-0.6-12.5-1.2-18.8-1.8l-18.7-2.3c-49.9-6.5-99.3-16.6-147.6-30.5 -48.3-13.8-95.6-31.3-141.1-52.2 -22.8-10.5-45.2-21.6-67-33.8 -21.9-12.1-43.4-24.8-64.2-38.6 -83.4-54.6-158.2-120.9-221.6-195.5 -63.5-74.5-115.5-157.3-154.7-244.2 -2.4-5.4-4.8-10.9-7.2-16.3 -2.3-5.5-4.6-11-6.8-16.5 -1.1-2.7-2.3-5.5-3.4-8.2l-3.2-8.3c-2.1-5.5-4.3-11-6.3-16.6 -4-11.1-8-22.2-11.6-33.4l-2.7-8.4 -1.4-4.2 -1.3-4.2c-1.7-5.6-3.4-11.2-5.1-16.8 -6.4-22.5-12.4-45.1-17.1-67.8 -0.6-2.8-1.2-5.7-1.9-8.5 -0.6-2.8-1.1-5.7-1.7-8.5 -1.1-5.7-2.2-11.4-3.3-17 -1-5.7-1.9-11.4-2.9-17 -0.5-2.8-0.9-5.7-1.4-8.5 -0.5-2.8-0.8-5.7-1.2-8.5 -0.8-5.7-1.6-11.4-2.4-17 -0.7-5.7-1.3-11.4-2-17 -1.4-11.3-2.2-22.7-3.3-34 -0.3-2.8-0.4-5.7-0.6-8.5 -0.2-2.8-0.4-5.7-0.5-8.5 -0.2-2.8-0.3-5.6-0.5-8.5l-0.3-4.2 -0.2-4.2c-0.4-11.3-0.9-22.5-0.9-33.7 0-2.8-0.1-5.6-0.1-8.4l0-4.2 0-2.1c0-0.6 0-2 0-2.4 0.1-5.4 0.2-10.9 0.3-16.3 0-2.7 0.1-5.4 0.1-8.1 0.1-2.8 0.2-5.6 0.3-8.4 0.2-5.6 0.5-11.2 0.7-16.8 0.3-5.6 0.7-11 1.1-16.6 0.4-5.5 0.7-11 1.2-16.5 1-10.9 1.9-21.9 3.3-32.7 0.7-5.4 1.2-10.8 2-16.2 0.8-5.4 1.6-10.8 2.3-16.1 0.4-2.7 0.8-5.4 1.2-8 0.5-2.7 0.9-5.3 1.4-8 0.9-5.3 1.8-10.6 2.7-15.9 1-5.3 2.1-10.6 3.1-15.8 1.1-5.3 2-10.5 3.2-15.7 2.4-10.4 4.6-20.8 7.3-31.1 1.3-5.1 2.6-10.3 3.9-15.4 1.4-5.1 2.8-10.2 4.2-15.2 0.7-2.5 1.4-5.1 2.1-7.6 0.7-2.5 1.5-5 2.3-7.5 1.5-5 3.1-10 4.6-15 0.7-2.5 1.6-5 2.4-7.4 0.8-2.5 1.6-4.9 2.5-7.4 0.8-2.5 1.6-4.9 2.5-7.4 0.8-2.5 1.6-4.9 2.5-7.3 1.8-4.9 3.5-9.7 5.3-14.6 0.9-2.4 1.7-4.9 2.7-7.3 0.9-2.4 1.9-4.8 2.8-7.2 1.9-4.8 3.7-9.5 5.6-14.3 1.9-4.7 3.9-9.4 5.9-14.1 1-2.3 2-4.7 3-7l1.5-3.5 1.6-3.5c2.1-4.6 4.2-9.2 6.2-13.8 2-4.6 4.2-9.1 6.4-13.6 2.2-4.5 4.4-9 6.5-13.5 2.2-4.5 4.6-8.9 6.8-13.3 1.1-2.2 2.3-4.4 3.4-6.6l1.7-3.3 1.8-3.3c18.7-34.8 39.1-67.9 60.8-99 21.6-31.2 44.8-60.3 68.7-87.5 23.9-27.2 48.7-52.4 74-75.8 50.6-46.6 103.2-85.6 155.1-117.7 51.9-32.1 103.1-57.6 151.8-77.6 12.1-5.1 24.2-9.6 36-14.1 5.9-2.1 11.8-4.2 17.6-6.3 1.5-0.5 2.9-1 4.3-1.6 1.5-0.5 2.9-1 4.3-1.4 2.9-1 5.8-1.9 8.6-2.9 11.4-3.9 22.7-7.2 33.6-10.6 5.5-1.6 11-3.1 16.3-4.6 2.7-0.8 5.4-1.5 8-2.3 2.7-0.7 5.3-1.4 8-2 42.1-10.9 80.3-18.2 113.8-23.1 8.4-1.2 16.4-2.2 24.2-3.2 3.9-0.6 7.7-0.9 11.4-1.3 3.7-0.4 7.4-0.8 10.9-1.2 7.1-0.8 13.9-1.3 20.4-1.9 6.5-0.5 12.6-1.1 18.4-1.4 5.8-0.3 11.3-0.7 16.4-1 2.6-0.2 5-0.2 7.4-0.3 2.4-0.1 4.7-0.2 6.9-0.2 4.4-0.2 8.5-0.3 12.2-0.4 3.7-0.2 7.1-0.1 10.1-0.2C-28.7 53.8-22.5 53.8-22.5 53.8H-22.5zM-22.5 58.9c0 0-6.2 0.1-18.1 0.3 -3 0.1-6.3 0-10 0.2 -3.7 0.1-7.8 0.3-12.2 0.5 -4.4 0.2-9.2 0.3-14.3 0.7 -5.1 0.3-10.5 0.7-16.3 1.1 -5.8 0.3-11.9 0.9-18.3 1.5 -6.4 0.6-13.2 1.2-20.2 2.1 -3.5 0.4-7.1 0.9-10.8 1.3 -3.7 0.5-7.5 0.9-11.3 1.5 -3.8 0.6-7.8 1.1-11.7 1.7 -2 0.3-4 0.6-6 0.9 -2 0.3-4.1 0.6-6.2 1 -33.1 5.4-70.9 13.5-112.3 25.5 -2.6 0.8-5.2 1.5-7.8 2.3 -2.6 0.8-5.2 1.6-7.9 2.5 -5.3 1.7-10.6 3.3-16 5.1 -10.7 3.7-21.8 7.3-32.9 11.6 -2.8 1-5.6 2.1-8.4 3.1 -1.4 0.5-2.8 1.1-4.2 1.6 -1.4 0.6-2.8 1.1-4.2 1.7 -5.6 2.3-11.4 4.6-17.1 6.9 -11.4 4.9-23.1 9.8-34.9 15.4 -23.5 10.9-47.6 23.1-71.8 37 -24.2 13.9-48.8 29.2-73.3 46.3 -49 34.1-98 74.7-144.5 122.5 -46.5 47.7-90.7 102.2-129.9 163.5 -19.6 30.6-37.9 62.9-54.8 96.7l-1.6 3.2 -1.5 3.2c-1 2.1-2 4.3-3.1 6.4 -2 4.3-4.1 8.6-6.1 12.9 -2 4.3-3.9 8.7-5.9 13 -2 4.4-4 8.7-5.8 13.2 -3.7 8.9-7.6 17.7-11 26.7 -1.8 4.5-3.6 9-5.3 13.5 -1.7 4.6-3.4 9.1-5 13.7 -0.8 2.3-1.7 4.6-2.5 6.9 -0.8 2.3-1.6 4.6-2.4 6.9 -1.6 4.6-3.2 9.3-4.8 13.9 -0.8 2.3-1.6 4.7-2.3 7 -0.7 2.4-1.5 4.7-2.2 7.1 -0.7 2.4-1.5 4.7-2.2 7.1 -0.7 2.4-1.5 4.7-2.2 7.1 -1.4 4.8-2.8 9.5-4.1 14.3 -0.7 2.4-1.4 4.8-2.1 7.2 -0.6 2.4-1.3 4.8-1.9 7.2 -1.3 4.8-2.5 9.7-3.8 14.5 -1.2 4.9-2.3 9.8-3.5 14.7 -2.4 9.8-4.4 19.7-6.5 29.6 -1.1 4.9-1.9 10-2.9 15 -0.9 5-1.9 10-2.7 15 -0.8 5-1.6 10.1-2.4 15.2 -0.4 2.5-0.8 5.1-1.2 7.6 -0.3 2.5-0.7 5.1-1 7.6 -0.7 5.1-1.4 10.2-2.1 15.3 -0.6 5.1-1.1 10.3-1.7 15.4 -1.2 10.3-2 20.7-2.9 31 -0.5 5.2-0.7 10.4-1 15.6 -0.3 5.2-0.7 10.5-0.9 15.7 -0.2 5.2-0.4 10.4-0.5 15.5 -0.1 2.6-0.2 5.2-0.3 7.8 0 2.7-0.1 5.4-0.1 8.1 -0.1 5.4-0.1 10.9-0.2 16.3 0 1 0 1 0 1.7l0 2 0.1 4c0 2.7 0.1 5.3 0.1 8 0.1 10.6 0.6 21.3 1 32l0.2 4 0.3 4c0.2 2.7 0.3 5.3 0.5 8 0.2 2.7 0.3 5.4 0.5 8 0.2 2.7 0.3 5.4 0.6 8 1 10.7 1.8 21.5 3.1 32.2 0.6 5.4 1.2 10.8 1.9 16.1 0.8 5.4 1.5 10.7 2.3 16.1 0.4 2.7 0.7 5.4 1.2 8.1 0.4 2.7 0.9 5.4 1.3 8.1 0.9 5.4 1.7 10.8 2.7 16.1 1 5.4 2 10.7 3.1 16.1 0.5 2.7 1 5.4 1.6 8.1 0.6 2.7 1.2 5.4 1.7 8 1.2 5.4 2.3 10.8 3.5 16.1 1.3 5.4 2.6 10.7 3.9 16.1 1.2 5.4 2.7 10.7 4.1 16l2.1 8c0.7 2.7 1.4 5.4 2.2 8 1.6 5.3 3.1 10.6 4.7 16l1.2 4 1.3 4 2.6 8c3.3 10.7 7.1 21.2 10.7 31.8 1.9 5.3 3.9 10.5 5.9 15.8l3 7.9c1 2.6 2.1 5.2 3.1 7.8 2.1 5.2 4.2 10.4 6.3 15.7 2.2 5.2 4.5 10.4 6.7 15.5 9.1 20.7 18.8 41.2 29.4 61.4l3.9 7.6c1.3 2.5 2.7 5 4.1 7.5 2.8 5 5.5 10 8.3 15 5.8 9.9 11.4 19.9 17.5 29.6l4.5 7.3 2.3 3.7 2.3 3.6c3.1 4.8 6.3 9.7 9.4 14.5 3.2 4.8 6.5 9.5 9.7 14.3l4.9 7.2 5.1 7 5.1 7.1c1.7 2.4 3.4 4.7 5.1 7 3.5 4.6 7 9.3 10.5 13.9 1.7 2.3 3.5 4.6 5.4 6.9l5.4 6.8 5.4 6.8 5.6 6.7c59.4 71.9 129.8 136.2 208.8 189.6 78.9 53.5 166.2 96.2 258.3 125.7 23 7.5 46.4 13.9 70 19.6l17.7 4.2 17.8 3.7c5.9 1.3 11.9 2.3 17.9 3.4 6 1.1 11.9 2.3 18 3.2l18 2.9c6 0.9 12.1 1.6 18.1 2.4 3 0.4 6 0.8 9.1 1.2l9.1 1 9.1 1c3 0.3 6.1 0.7 9.1 0.9l18.2 1.5c3 0.3 6.1 0.4 9.1 0.6l9.1 0.5 9.1 0.5c3 0.2 6.2 0.2 9.2 0.3l18.6 0.6 18.1 0.1c3.1 0 6.1 0.1 9.2 0l9.2-0.2 9.2-0.2c3.1-0.1 6.1-0.1 9.2-0.3l18.3-0.8c3.1-0.1 6.1-0.4 9.1-0.6l9.1-0.7 9.1-0.7c3-0.2 6.1-0.6 9.1-0.9 6.1-0.6 12.2-1.2 18.3-1.8l18.2-2.3c48.5-6.4 96.5-16.4 143.4-30 93.9-27.2 183.2-68.9 263.8-122.4 80.7-53.4 152.5-118.7 212.6-191.9 15-18.3 29.4-37 42.8-56.3l5.1-7.2 4.9-7.3c3.3-4.9 6.6-9.7 9.8-14.6 3.1-4.9 6.3-9.9 9.4-14.8l2.4-3.7 2.3-3.7 4.5-7.5c6.1-9.9 11.7-20.1 17.5-30.2 2.7-5.1 5.5-10.2 8.2-15.3 1.4-2.6 2.8-5.1 4.1-7.7l3.9-7.7 3.9-7.7c1.3-2.6 2.6-5.1 3.8-7.8 2.5-5.2 4.9-10.4 7.4-15.6 1.3-2.6 2.4-5.2 3.6-7.9l3.5-7.9 3.5-7.9c1.2-2.6 2.2-5.3 3.3-7.9 2.2-5.3 4.4-10.6 6.6-15.9 2.1-5.3 4.1-10.7 6.2-16 1-2.7 2.1-5.3 3-8l2.9-8c1.9-5.4 3.9-10.7 5.7-16.1 3.5-10.8 7.2-21.5 10.3-32.3l2.4-8.1 1.2-4 1.1-4.1c1.5-5.4 3-10.8 4.5-16.2 0.8-2.7 1.4-5.4 2.1-8.1l2-8.1c1.3-5.4 2.7-10.8 3.9-16.3 1.2-5.4 2.4-10.9 3.6-16.3 1.2-5.4 2.2-10.9 3.3-16.3 0.5-2.7 1.1-5.4 1.6-8.2 0.5-2.7 1-5.5 1.4-8.2 0.9-5.4 1.9-10.9 2.8-16.3 0.9-5.4 1.6-10.9 2.4-16.3 0.4-2.7 0.8-5.4 1.2-8.1 0.4-2.7 0.7-5.4 1-8.2 0.7-5.4 1.3-10.9 2-16.3 0.6-5.4 1.1-10.9 1.6-16.3 1.2-10.8 1.8-21.7 2.6-32.5 0.2-2.7 0.3-5.4 0.5-8.1 0.1-2.7 0.3-5.4 0.4-8.1 0.1-2.7 0.3-5.4 0.4-8.1l0.2-4 0.1-4c0.2-10.7 0.6-21.1 0.5-32.2 0-2.7 0-5.5 0-8.2l0-4.1v-2c0-0.7 0-0.8 0-1.7 -0.1-5.3-0.3-10.6-0.4-16 -0.1-2.7-0.1-5.3-0.2-8 -0.1-2.6-0.3-5.3-0.4-7.9 -0.3-5.3-0.5-10.6-0.8-15.8 -0.3-5.3-0.7-10.5-1.1-15.8 -0.4-5.2-0.7-10.5-1.3-15.7 -1.1-10.4-1.9-20.8-3.3-31.1 -0.6-5.2-1.2-10.3-1.9-15.5 -0.7-5.1-1.5-10.2-2.2-15.4 -0.4-2.6-0.7-5.1-1.1-7.7 -0.4-2.5-0.9-5.1-1.3-7.6 -0.9-5.1-1.7-10.1-2.6-15.2 -0.9-5-1.9-10.1-2.9-15.1 -1-5-1.9-10-3-15 -2.2-9.9-4.3-19.9-6.8-29.6 -1.2-4.9-2.4-9.8-3.6-14.7 -1.3-4.9-2.6-9.7-3.9-14.5 -0.7-2.4-1.3-4.8-2-7.3 -0.7-2.4-1.4-4.8-2.1-7.2 -1.4-4.8-2.8-9.6-4.2-14.3 -0.7-2.4-1.5-4.7-2.2-7.1 -0.8-2.4-1.5-4.7-2.3-7.1 -0.8-2.4-1.5-4.7-2.3-7.1 -0.7-2.4-1.5-4.7-2.3-7 -1.6-4.7-3.2-9.3-4.9-13.9 -0.8-2.3-1.6-4.6-2.4-6.9 -0.9-2.3-1.7-4.6-2.6-6.9 -1.7-4.6-3.4-9.2-5.1-13.7 -1.8-4.5-3.6-9-5.4-13.5 -3.5-9-7.4-17.9-11.2-26.7 -1.8-4.4-3.9-8.8-5.9-13.1 -2-4.4-4-8.7-6-13 -2.1-4.3-4.1-8.6-6.2-12.9 -1-2.1-2.1-4.3-3.1-6.4l-1.5-3.2 -1.6-3.2c-17-33.7-35.6-66-55.3-96.6 -19.7-30.6-40.7-59.5-62.5-86.7 -21.9-27.2-44.5-52.8-67.9-76.6 -46.6-47.7-95.6-88.3-144.7-122.4 -24.5-17.1-49.1-32.4-73.3-46.3 -24.2-13.9-48.4-26.1-71.9-37 -11.7-5.6-23.4-10.5-34.9-15.4 -5.8-2.3-11.5-4.6-17.1-6.9 -1.4-0.6-2.8-1.1-4.2-1.7 -1.4-0.5-2.8-1.1-4.2-1.6 -2.8-1.1-5.6-2.1-8.4-3.1 -11.1-4.3-22.2-7.9-32.9-11.6 -5.4-1.8-10.8-3.4-16-5.1 -2.6-0.8-5.3-1.6-7.9-2.5 -2.6-0.8-5.2-1.5-7.8-2.3 -41.4-12-79.2-20.1-112.3-25.4 -2.1-0.4-4.1-0.7-6.2-1 -2-0.3-4.1-0.6-6-0.9 -4-0.6-7.9-1.2-11.7-1.7 -3.8-0.6-7.6-1-11.3-1.4 -3.7-0.4-7.3-0.9-10.8-1.3 -7.1-0.9-13.8-1.4-20.3-2.1 -6.4-0.6-12.5-1.2-18.3-1.5 -5.8-0.4-11.2-0.7-16.3-1.1 -5.1-0.4-9.8-0.4-14.3-0.6 -4.4-0.2-8.5-0.3-12.2-0.5 -3.7-0.2-7.1-0.1-10.1-0.2 -12-0.2-18.2-0.2-18.2-0.2H-22.5z" class="b"/><circle cx="2538.7" cy="731.2" r="505" class="a"/><path d="M2538.7 223.7c0 0 3.1 0 9.1 0.1 3 0 6.7 0.1 11.2 0.3 2.2 0.1 4.6 0.1 7.2 0.3 2.6 0.1 5.3 0.3 8.2 0.5 2.9 0.1 6 0.4 9.2 0.7 3.2 0.3 6.7 0.5 10.2 0.9 3.6 0.4 7.3 0.7 11.2 1.2 3.9 0.5 7.9 1 12.1 1.6 16.8 2.4 36 5.8 57.3 11.1 1.3 0.3 2.7 0.6 4 1 1.3 0.4 2.7 0.7 4 1.1 2.7 0.7 5.5 1.5 8.3 2.2 5.5 1.6 11.2 3.2 17 5.1 11.6 3.6 23.6 7.8 35.9 12.6 24.7 9.6 50.9 21.8 77.6 37.4 26.7 15.6 53.8 34.7 80.1 57.8 26.2 23.2 51.6 50.3 74.1 81.9 11.3 15.7 21.8 32.5 31.5 50.3 1.2 2.2 2.4 4.5 3.6 6.7 1.2 2.3 2.3 4.5 3.5 6.8 1.1 2.3 2.2 4.6 3.3 6.9 1.1 2.3 2.3 4.6 3.3 7 2.1 4.7 4.3 9.4 6.3 14.2 1 2.4 2 4.8 3 7.2 1 2.4 1.9 4.9 2.9 7.3 7.6 19.6 13.9 40 18.9 61 2.6 10.5 4.6 21.2 6.6 32 0.4 2.7 0.8 5.4 1.3 8.2l0.6 4.1 0.5 4.1c0.4 2.7 0.7 5.5 1.1 8.2 0.3 2.8 0.6 5.5 0.9 8.3 1.2 11.1 1.8 22.3 2.2 33.5 0.2 11.2 0.3 22.6-0.2 33.9 -0.1 5.3-0.6 11.3-1 17.1l-0.1 2.2 -0.2 2.1 -0.4 4.3c-0.3 2.9-0.5 5.7-0.8 8.6 -0.7 5.7-1.3 11.4-2.2 17.2 -0.4 2.9-0.8 5.7-1.3 8.6 -0.5 2.9-1 5.7-1.5 8.6 -8.3 45.7-23.2 91.1-44.3 133.9 -42.2 85.7-108.3 161.8-190.6 217 -41.2 27.6-86.5 49.7-134.3 65.3 -11.9 4-24.1 7.4-36.3 10.5 -12.2 3.2-24.6 5.7-37.1 7.9l-9.4 1.6 -9.4 1.4c-1.6 0.2-3.1 0.5-4.7 0.7l-4.7 0.6c-3.2 0.4-6.3 0.8-9.5 1.1l-9.5 0.9c-3.2 0.3-6.3 0.5-9.5 0.7 -3.2 0.2-6.3 0.5-9.5 0.6l-9.7 0.4 -9.3 0.2c-1.6 0-3.1 0.1-4.7 0.1l-4.8 0c-3.2 0-6.5 0-9.7-0.1l-9.6-0.3c-3.2-0.1-6.4-0.3-9.6-0.5l-4.8-0.3c-1.6-0.1-3.2-0.2-4.8-0.4l-9.6-0.8 -9.5-1c-25.4-2.9-50.7-7.6-75.5-14.3 -49.5-13.3-96.9-34.5-139.8-62.1 -42.9-27.6-81.4-61.3-114.2-99.3 -32.8-38-59.8-80.3-80.1-124.8 -5.2-11.1-9.7-22.4-14-33.8 -4.2-11.4-8-22.9-11.4-34.4 -3.3-11.6-6.4-23.1-8.9-34.8 -1.3-5.8-2.4-11.7-3.5-17.5 -0.5-2.9-1-5.8-1.5-8.8 -0.5-2.9-1-5.8-1.4-8.8 -0.4-2.9-0.8-5.8-1.2-8.7 -0.4-2.9-0.7-5.8-1-8.7 -0.7-5.8-1.2-11.7-1.7-17.5 -0.3-2.9-0.4-5.8-0.6-8.7 -0.2-2.9-0.4-5.8-0.5-8.7 -0.2-5.8-0.5-11.6-0.4-17.3l0-4.3 0-2.2 0-1.1 0-1.4c0.1-2.7 0.1-5.4 0.2-8.2l0.1-4.1 0.2-4.4c0.1-2.9 0.3-5.8 0.4-8.7 0.7-11.4 1.6-22.6 3-33.8 2.7-22.3 6.8-44.1 12.3-65.1 0.7-2.6 1.4-5.3 2.1-7.9 0.7-2.6 1.5-5.2 2.2-7.8l1.1-3.9 1.2-3.9c0.8-2.6 1.6-5.1 2.4-7.7 1.7-5.1 3.4-10.1 5.2-15.1 1.9-5 3.6-10 5.6-14.8 7.8-19.5 16.6-38.3 26.5-56 9.8-17.7 20.6-34.5 31.9-50.2 11.4-15.7 23.5-30.3 36-43.9 12.5-13.6 25.5-26.1 38.6-37.7 26.4-23.1 53.6-42.1 80.3-57.7 26.7-15.6 52.9-27.9 77.6-37.4 12.4-4.8 24.4-9 36-12.6 5.8-1.9 11.5-3.4 17-5 2.8-0.7 5.5-1.5 8.3-2.2 1.4-0.4 2.7-0.7 4.1-1.1 1.3-0.3 2.7-0.6 4-1 21.3-5.2 40.5-8.6 57.3-11 4.2-0.6 8.3-1 12.1-1.5 3.9-0.5 7.6-0.8 11.2-1.2 3.6-0.4 7-0.6 10.2-0.9 3.2-0.3 6.3-0.5 9.2-0.7 2.9-0.2 5.7-0.3 8.2-0.4 2.6-0.1 5-0.2 7.2-0.3 4.5-0.2 8.2-0.3 11.2-0.3 6-0.1 9.1-0.1 9.1-0.1H2538.7zM2538.7 228.8c0 0-3.1 0.1-9.1 0.2 -3 0-6.7 0.2-11.1 0.4 -2.2 0.1-4.6 0.2-7.1 0.4 -2.5 0.2-5.3 0.4-8.1 0.6 -2.9 0.2-5.9 0.5-9.1 0.8 -3.2 0.3-6.6 0.6-10.1 1.1 -3.5 0.5-7.2 0.9-11 1.5 -3.8 0.6-7.8 1.2-11.9 1.9 -16.5 2.8-35.3 7.1-55.9 13.4 -1.3 0.4-2.6 0.8-3.9 1.2 -1.3 0.4-2.6 0.9-3.9 1.3 -2.6 0.9-5.3 1.7-7.9 2.7 -5.3 2-10.8 3.8-16.3 6.1 -5.5 2.1-11.1 4.5-16.8 7 -5.6 2.6-11.4 5.1-17.2 8 -23.2 11.3-47.2 25.6-71 43.2 -23.8 17.5-47.4 38.3-69.7 62.5 -22.3 24.1-43.3 51.5-61.8 81.9 -9.3 15.2-17.9 31.2-25.9 47.8 -8 16.6-15.1 34-21.5 52 -6.4 17.9-11.8 36.6-16.1 55.7 -1.1 4.8-2.1 9.6-3.1 14.5 -0.5 2.4-0.9 4.9-1.4 7.3 -0.4 2.4-0.9 4.9-1.3 7.3 -0.4 2.5-0.8 4.9-1.1 7.4l-0.6 3.7 -0.5 3.7c-0.3 2.5-0.6 5-1 7.5 -0.3 2.5-0.5 5-0.8 7.5 -0.6 5-0.9 10.1-1.3 15.1 -0.2 2.5-0.3 5.1-0.5 7.6 -0.1 2.5-0.3 5.1-0.4 7.6 -0.1 2.5-0.2 5-0.2 7.5l-0.1 3.7 0 4.1c0 2.7 0 5.4-0.1 8.2 0 2.5 0.1 5 0.1 7.4 0 5.2 0.3 10.4 0.5 15.6 0.1 2.6 0.3 5.2 0.5 7.8 0.2 2.6 0.3 5.2 0.6 7.8 0.5 5.2 0.9 10.4 1.5 15.7 0.3 2.6 0.6 5.2 0.9 7.8 0.4 2.6 0.7 5.2 1.1 7.8 6.1 41.9 17.6 83.9 35.1 124.3 4.4 10.1 9 20.1 14.1 30 2.5 5 5.2 9.8 7.8 14.7 2.8 4.8 5.5 9.7 8.4 14.5 2.9 4.8 5.9 9.5 8.9 14.3 1.5 2.4 3.1 4.7 4.7 7l2.4 3.5 2.4 3.5c6.4 9.3 13.3 18.3 20.5 27.1 28.7 35.3 62.9 67 101.3 93.5 38.4 26.5 80.8 47.9 125.8 63.2 11.2 3.9 22.7 7.2 34.2 10.2 11.5 3.1 23.2 5.6 35 7.8l8.9 1.6 8.9 1.4c1.5 0.2 3 0.5 4.5 0.7l4.5 0.6c3 0.4 6 0.8 9 1.1l9 0.9c3 0.3 5.9 0.5 8.9 0.7l4.4 0.3c1.5 0.1 3.1 0.2 4.6 0.2l9.3 0.5 8.9 0.2c3 0.1 6 0.1 9.1 0.1 3 0 6 0 9.1-0.1l9.1-0.3c3-0.1 6-0.3 9.1-0.5l4.5-0.2c1.5-0.1 3-0.2 4.5-0.4l9-0.7 9-1c3-0.3 6-0.8 9-1.1 3-0.4 6-0.8 9-1.3l9-1.4 8.9-1.7c11.9-2.4 23.7-5.1 35.4-8.3 46.7-13 91.2-33.4 131.3-59.9 40.1-26.5 75.7-59.1 105.1-95.8 7.3-9.2 14.4-18.5 20.9-28.2l2.5-3.6 2.4-3.7c1.6-2.4 3.2-4.9 4.7-7.3 3-5 6.1-9.9 8.9-14.9 2.9-5 5.6-10.1 8.4-15.1 2.6-5.1 5.3-10.2 7.7-15.4 1.2-2.6 2.5-5.1 3.7-7.7 1.2-2.6 2.3-5.2 3.5-7.8 1.2-2.6 2.2-5.2 3.3-7.9 1.1-2.6 2.2-5.2 3.2-7.9 1-2.6 2-5.3 3.1-7.9 1-2.7 1.9-5.3 2.9-7.9 0.5-1.3 1-2.6 1.4-4l1.3-4c0.9-2.7 1.8-5.3 2.6-8 1.6-5.4 3.3-10.7 4.8-16 1.5-5.3 2.9-10.7 4.2-16.1 5.1-21.5 8.9-43 11.2-64.5 0.3-2.7 0.6-5.4 0.8-8 0.3-2.7 0.4-5.3 0.6-8 0.5-5.3 0.7-10.7 1-16 0.2-2.7 0.2-5.3 0.3-8 0.1-2.6 0.2-5.3 0.2-7.9 0-5.2 0.1-10.2 0-15.8l-0.1-4.1 0-2 0-1c0-0.4 0-0.1 0-0.7 -0.1-2.6-0.2-5.2-0.3-7.8l-0.1-3.9 -0.2-3.9c-0.2-2.6-0.3-5.2-0.5-7.8 -0.2-2.6-0.4-5.1-0.6-7.7 -0.2-2.6-0.4-5.1-0.7-7.7 -0.6-5.1-1-10.2-1.7-15.2 -0.3-2.5-0.6-5-1-7.6 -0.4-2.5-0.8-5-1.1-7.5l-0.6-3.7 -0.7-3.7c-0.4-2.5-0.9-5-1.3-7.4 -0.5-2.5-1-4.9-1.4-7.4 -0.5-2.4-0.9-4.9-1.5-7.3 -1.1-4.9-2.1-9.7-3.4-14.5 -0.6-2.4-1.2-4.8-1.8-7.2 -0.6-2.4-1.3-4.7-1.9-7.1l-0.9-3.5 -1-3.5c-0.7-2.3-1.4-4.7-2.1-7 -0.7-2.3-1.5-4.6-2.2-6.9 -0.7-2.3-1.4-4.6-2.2-6.9 -1.6-4.5-3.1-9.1-4.8-13.6 -6.6-18-14-35.3-22.1-51.9 -8.2-16.6-17-32.5-26.4-47.7 -37.7-60.7-84.5-109.2-132.3-144.1 -23.9-17.5-47.9-31.9-71.1-43.1 -5.8-2.9-11.6-5.4-17.2-8 -5.7-2.4-11.3-4.8-16.8-6.9 -5.5-2.2-11-4.1-16.3-6.1 -2.7-0.9-5.3-1.8-8-2.6 -1.3-0.4-2.6-0.9-3.9-1.3 -1.3-0.4-2.6-0.8-3.9-1.2 -20.6-6.3-39.4-10.5-55.9-13.3 -4.1-0.7-8.1-1.3-11.9-1.9 -3.8-0.6-7.5-1-11-1.4 -3.5-0.5-6.9-0.8-10.1-1.1 -3.2-0.3-6.3-0.6-9.1-0.8 -2.9-0.2-5.6-0.4-8.1-0.6 -2.5-0.2-4.9-0.2-7.1-0.3 -4.4-0.2-8.1-0.3-11.1-0.3 -6-0.1-9.1-0.1-9.1-0.1H2538.7z" class="b"/><ellipse cx="1027.5" cy="466.2" rx="96.2" ry="270" class="a"/><path d="M1027.6 193.7c0 0 0.3 0 0.9 0 0.6 0 1.4 0 2.7 0.2 1.3 0.1 2.8 0.3 4.6 0.7 1.8 0.4 3.8 0.9 6 1.8 4.4 1.6 9.6 4.4 15 8.5 5.4 4.1 10.9 9.6 16.5 16.2 5.6 6.6 11.1 14.4 16.7 23.2 5.6 8.8 11.1 18.6 16.6 29.4 10.8 21.5 21.2 47 28.4 75.7 3.6 14.3 6.4 29.5 8.3 45.3 1.8 15.8 2.8 32.2 2.6 49 -0.1 8.4-0.4 16.9-1 25.6 -0.3 4.1-0.7 8.6-1.1 13 -0.4 4.3-1 8.7-1.5 13.1 -2.2 17.5-5.5 35.3-9.4 53.1 -3.9 17.9-8.3 35.8-13 53.9 -4.8 18.1-9.8 36.2-16 54.4 -3.1 9.1-6.4 18.1-10.2 27.1 -3.8 9-8.1 17.9-13.3 26.6 -2.6 4.4-5.4 8.7-8.6 12.8 -3.2 4.2-6.8 8.3-11 12 -4.2 3.7-8.9 7.3-14.6 10 -2.8 1.4-5.8 2.5-8.9 3.4 -1.6 0.4-3.2 0.8-4.8 1 -0.8 0.1-1.6 0.3-2.5 0.4l-1.2 0.1 -0.6 0.1c-0.4 0 0.1 0-1.1 0l-1.8 0.1 -0.4 0c-0.1 0-0.3 0-0.6 0l-1.4 0 -1.4-0.1c-0.5 0-1-0.1-1.4-0.1l-2.5-0.3c-3.3-0.5-6.6-1.2-9.6-2.2 -6.2-2-11.7-5-16.8-8.4 -9.9-6.8-17.7-15-24.4-23.5 -3.3-4.3-6.4-8.6-9.2-13.1 -2.8-4.4-5.4-8.9-7.8-13.5 -4.8-9.1-9-18.3-12.6-27.6 -7.2-18.6-12.7-37.4-17.3-56.1 -4.5-18.7-8-37.3-10.6-55.6 -5.1-36.7-6.2-72.5-4.4-106.3 0.9-16.9 2.5-33.3 4.7-49.1 2.3-15.8 5.5-30.9 9.4-45.3 7.8-28.7 18.3-54.1 29.2-75.7 5.5-10.8 11-20.6 16.6-29.4 5.6-8.8 11.2-16.6 16.8-23.2 5.6-6.6 11.2-12 16.6-16.1 5.4-4.1 10.6-6.9 15.1-8.5 4.5-1.6 8.1-2.2 10.6-2.4 1.2-0.1 2.2-0.1 2.8-0.1 0.6 0 0.9 0 0.9 0L1027.6 193.7zM1027.5 198.8c0 0-0.3 0-0.8 0 -0.5 0-1.4 0-2.4 0.2 -2.1 0.2-5.3 0.8-9.1 2.4 -1.9 0.8-4 1.9-6.2 3.3 -2.2 1.4-4.4 3.1-6.7 5.2 -4.6 4.1-9.1 9.7-13.3 16.5 -8.4 13.7-15.2 32.5-19.5 54.6 -2.2 11.1-3.9 23-5.1 35.6 -0.7 6.3-1.2 12.8-1.7 19.4 -0.5 6.6-0.9 13.4-1.3 20.3 -0.8 13.8-1.5 28.1-2 42.9 -0.6 14.8-1.1 30.1-1.1 45.9 0 31.5 0.9 64.8 3.7 98.9 1.4 17.1 3.4 34.3 6.1 51.6 2.8 17.2 6.6 34.5 11.5 51.2 2.5 8.4 5.1 16.7 8.2 24.7 1.5 4 3.1 8 4.9 11.8 1.7 3.9 3.5 7.6 5.5 11.2 1.9 3.6 4 7 6.3 10.2 2.2 3.2 4.6 6.1 7 8.6 2.5 2.5 5 4.6 7.7 6.1 1.3 0.8 2.6 1.4 4 1.9l1 0.4c0.2 0.1 0.3 0.1 0.4 0.1l0.3 0.1 0.3 0.1c0 0 0.2 0 0.3 0.1l0.4 0.1 1.8 0.2c-0.9 0-0.1 0-0.2 0l0.3 0 0.5 0.1c0.4 0.1 0.7 0.1 1.1 0.1 0.7 0.1 1.5 0 2.2 0 1.5-0.1 3.1-0.3 4.7-0.8 3.2-0.8 6.6-2.4 9.9-4.5 3.3-2.1 6.5-4.8 9.5-7.7 3-3 5.9-6.3 8.6-9.7 5.4-7 10.1-14.8 14.1-22.9 4.1-8.1 7.6-16.6 10.6-25.2 6.1-17.2 10.3-35.1 12.9-53 2.6-17.9 3.6-35.8 3.7-53.3 0.1-17.6-0.7-34.8-1.7-51.5 -0.5-8.4-1.1-16.6-1.6-24.8 -0.5-8.1-1.1-16.2-1.6-24.1 -1.1-15.8-2.2-31.1-3.2-46 -1.1-14.8-2.1-29.2-3.1-42.9 -1.1-13.8-2.1-27-3.5-39.6 -1.3-12.6-3-24.5-5.3-35.6 -2.2-11.1-4.9-21.4-8.2-30.5 -3.3-9.2-7.1-17.3-11.4-24.1 -4.2-6.8-8.8-12.4-13.4-16.5 -2.3-2.1-4.5-3.8-6.7-5.2 -2.2-1.4-4.3-2.5-6.2-3.2 -3.8-1.6-7.1-2.1-9.1-2.3 -1-0.1-1.9-0.1-2.5-0.2 -0.6 0-0.9 0-0.9 0L1027.5 198.8z" class="b"/><ellipse cx="1536.2" cy="486.2" rx="42.5" ry="245" class="a"/><path d="M1536.4 238.7c0 0 0.2 0 0.7 0.1 0.1 0 0.2 0 0.4 0 0.2 0 0.5 0.1 0.7 0.1 0.3 0.1 0.6 0.1 0.9 0.2 0.3 0.1 0.5 0.2 0.8 0.3 0.6 0.2 1.2 0.5 1.8 0.9 0.6 0.4 1.3 0.8 1.9 1.3 1.3 1 2.6 2.3 3.9 3.9 5.1 6.4 9.7 16.7 14.8 30 2.5 6.7 5.2 14.1 8 22.2 2.8 8.1 5.8 17 8.8 26.5 6 19.1 12.4 40.8 16.6 64.9 2.1 12 3.7 24.7 4.6 37.7 0.9 13.1 1.2 26.6 0.7 40.5 -0.2 7-0.6 14-1.2 21.1 -0.3 3.5-0.6 7.1-1 10.7 -0.4 3.6-0.8 7.2-1.3 10.9 -1.8 14.5-4.3 29.3-6.9 44.3 -2.6 15-5.3 30.2-7.7 45.5 -2.5 15.3-4.6 30.9-6.8 46.6 -2.2 15.7-4.5 31.6-7.6 47.7 -0.8 4.1-1.6 8.1-2.7 12.2 -1 4.1-2.1 8.3-3.6 12.5 -1.5 4.3-3.2 8.6-6.2 13.3 -1.5 2.4-3.4 4.9-6.3 7.4 -0.8 0.6-1.6 1.2-2.5 1.8 -0.5 0.3-1 0.6-1.5 0.9l-0.8 0.4 -0.9 0.4c-0.6 0.2-1.2 0.5-1.8 0.7 -0.6 0.2-1.3 0.4-1.9 0.5 -0.7 0.2-1.3 0.3-2 0.4l-1.1 0.1c-0.8 0 0.3 0.1-2.1 0l-0.8 0c-0.1 0-0.2 0-0.4 0 -0.5 0-0.9-0.1-1.4-0.1 -0.9-0.1-1.8-0.3-2.7-0.5 -0.6-0.2-1.2-0.4-1.9-0.6l-0.9-0.3 -0.8-0.3c-0.5-0.2-1.1-0.5-1.6-0.7 -1-0.5-1.9-1.1-2.8-1.6 -3.4-2.3-5.7-4.6-7.6-6.9 -3.8-4.5-6.4-8.7-8.8-12.8 -4.6-8.3-7.9-16.3-10.9-24.4 -5.9-16.1-9.9-32.1-13.1-48 -3.1-15.9-5.6-31.7-7.7-47.4 -2.1-15.6-3.8-31.1-5.1-46.3 -2.5-30.4-3-59.9-1.8-87.7 0.6-13.9 1.5-27.5 2.8-40.6 1.4-13.1 3.3-25.7 5.7-37.7 1.2-6 2.5-11.9 3.9-17.6 1.3-5.7 2.8-11.3 4.3-16.7 3-10.8 6.1-21 9.1-30.6 6.1-19.1 11.8-35.5 16.9-48.8 5.1-13.3 9.9-23.6 15-30 1.3-1.6 2.6-2.9 3.9-3.9 0.6-0.5 1.3-0.9 1.9-1.3 0.7-0.3 1.2-0.7 1.9-0.9 0.3-0.1 0.6-0.2 0.8-0.3 0.3-0.1 0.5-0.1 0.8-0.2 0.5-0.1 0.9-0.2 1.2-0.2 0.7 0 1-0.1 1-0.1L1536.4 238.7zM1536.2 243.8c0 0-0.7-0.1-1.9 0.4 -1.3 0.5-3.2 1.9-5.2 4.6 -4 5.5-7.9 15.7-10.4 29.2 -2.6 13.5-3.7 30.3-3.3 49.6 0.2 9.7 0.6 19.9 1.3 30.8 0.3 5.4 0.6 10.9 1 16.6 0.3 5.7 0.7 11.4 1 17.3 0.7 11.8 1.1 24 1.4 36.7 0.2 12.6 0.4 25.7 0.7 39.1 0.6 26.9 0.9 55.2 1.3 84.4 0.4 29.2 1.4 59.5 4.4 89.6 1.4 15.1 3 30.2 5.3 44.8 0.6 3.6 1.2 7.2 1.9 10.7 0.7 3.5 1.5 6.9 2.4 10 0.9 3.1 2 6 2.9 8 0.4 0.9 0.8 1.6 0.6 1.7 -0.1 0-0.2 0-0.3 0 -0.1 0-0.2-0.1-0.3-0.1l-0.2 0c-0.1 0-0.1 0-0.2-0.1 -0.1 0-0.3 0-0.5 0 -0.4-0.1-0.8-0.2-1.2-0.2 -0.2 0-0.4 0-0.6 0 0 0 0.2 0 0.3 0.1l0.7 0.1c-2.1-0.1-0.8 0-1.3 0 -0.1 0-0.2 0-0.3 0.1 -0.2 0.1-0.4 0.1-0.6 0.2 -0.2 0.1-0.3 0.1-0.5 0.2 -0.1 0-0.2 0.1-0.4 0.2l-0.3 0.2c-0.1 0.1-0.1 0.1-0.2 0.2 0 0.1 0 0.1 0 0.2 0.2 0.1 1.1-0.4 1.9-1.2 1.8-1.7 3.7-4.5 5.5-7.5 1.7-3 3.4-6.3 4.8-9.8 1.5-3.4 2.8-7 4.1-10.6 5-14.5 8.4-29.8 10.8-45.1 2.4-15.3 3.8-30.7 4.1-46 0.4-15.3-0.3-30.4-1.4-45.2 -1.1-14.8-2.7-29.4-4-43.6 -0.3-3.5-0.7-7.1-1-10.6 -0.3-3.5-0.6-6.9-0.9-10.5 -0.6-6.9-1-13.7-1.4-20.5 -0.8-13.5-1.2-26.5-1.5-39.2 -0.2-12.7-0.1-24.9 0.3-36.7 0.7-23.6 2.3-45.3 2.5-64.7 0.3-19.3-0.8-36.2-3.5-49.6 -2.6-13.4-6.5-23.7-10.6-29.1 -2-2.8-4-4.2-5.3-4.6 -0.2-0.1-0.3-0.1-0.5-0.2 -0.1 0-0.2 0-0.3-0.1 -0.1 0-0.2 0-0.2-0.1 -0.1 0-0.3 0-0.4 0 -0.5 0-0.7-0.1-0.7-0.1L1536.2 243.8z" class="b"/><ellipse cx="1827.5" cy="446.2" rx="73.7" ry="190" class="a"/><path d="M1827.6 253.7c0 0 0.2 0 0.6 0 0.2 0 0.5 0 0.8 0 0.2 0 0.3 0 0.5 0 0.2 0 0.4 0 0.7 0.1 0.5 0 1 0.1 1.6 0.2 0.5 0.1 1.1 0.2 1.8 0.3 0.6 0.1 1.3 0.3 2.1 0.4 0.7 0.2 1.5 0.4 2.3 0.7 0.8 0.3 1.7 0.5 2.6 0.9 0.9 0.3 1.8 0.7 2.8 1.2 1.9 0.9 3.9 2 6 3.3 4.1 2.7 8.5 6.2 12.9 10.7 8.9 8.9 18.2 21.1 27.5 36.2 9.2 15.1 18.3 33.1 24.6 53.8 3.2 10.3 5.5 21.3 7.1 32.8 1.5 11.5 2.3 23.4 2 35.6 -0.1 6.1-0.5 12.3-1.1 18.6 -0.3 2.9-0.6 6.3-1.1 9.4 -0.4 3.1-0.9 6.3-1.4 9.5 -2.1 12.7-5.1 25.5-8.6 38.3 -0.9 3.2-1.8 6.4-2.7 9.6 -0.9 3.2-1.9 6.4-2.8 9.6 -1.9 6.4-3.8 12.9-5.8 19.3 -4 12.9-8.1 25.9-13 38.8 -4.9 13-10.4 25.9-18.5 38.5 -2 3.2-4.3 6.3-6.8 9.3 -2.5 3-5.4 6-8.7 8.7 -3.3 2.7-7 5.2-11.3 7.2 -4.3 2-9.1 3.3-14.2 3.7 -2 0-1.5 0.2-3.5 0.2 -0.7 0-1.5 0-2.2-0.1l-1.9-0.1c-1.3-0.1-2.5-0.3-3.8-0.5 -1.2-0.2-2.5-0.5-3.7-0.8 -4.8-1.2-9.3-3.1-13.4-5.4 -8.1-4.5-14.6-10.3-20.2-16.4 -2.8-3-5.3-6.2-7.7-9.3 -2.3-3.2-4.5-6.4-6.6-9.7 -4-6.5-7.5-13.2-10.5-20 -6-13.5-10.6-27.1-14.4-40.7 -1.9-6.8-3.6-13.5-5-20.3 -1.5-6.7-2.8-13.5-3.8-20.1 -4.3-26.7-5.2-52.8-3.6-77.4 0.8-12.3 2.2-24.2 4.1-35.7 2-11.5 4.8-22.4 8.2-32.7 1.7-5.2 3.6-10.2 5.5-15 1.9-4.8 4.1-9.5 6.2-14 4.4-9 8.9-17.2 13.6-24.8 9.4-15.1 18.7-27.3 27.7-36.2 4.5-4.5 8.9-8 13.1-10.7 2.1-1.3 4.1-2.4 6-3.3 1.9-0.9 3.7-1.5 5.4-2.1 3.3-1 6-1.3 7.8-1.4 0.9-0.1 1.6-0.1 2-0.1 0.5 0 0.7 0 0.7 0L1827.6 253.7zM1827.5 258.8c0 0-0.2 0-0.6 0 -0.4 0-1 0-1.7 0.1 -1.5 0.1-3.7 0.5-6.4 1.5 -2.7 1-6 2.7-9.3 5.5 -3.3 2.7-6.7 6.5-9.7 11.2 -3.1 4.7-5.9 10.4-8.2 16.9 -2.3 6.5-4.1 13.8-5.5 21.6 -1.3 7.9-2.3 16.4-2.8 25.3 -0.6 8.9-0.9 18.3-1.2 28 -0.3 9.7-0.5 19.7-0.8 30.2 -0.3 10.4-0.5 21.1-0.4 32.2 0.2 22.1 0.9 45.3 2.8 69.2 1 11.9 2.3 24 4.3 36 2 12 4.7 23.9 8.3 35.4 3.5 11.4 7.7 22.6 13 32.1 2.6 4.7 5.5 8.9 8.6 12.1 1.5 1.6 3.1 2.9 4.7 3.9 0.4 0.3 0.8 0.5 1.2 0.7 0.4 0.2 0.8 0.4 1.2 0.6l0.6 0.3c0.1 0.1 0.2 0.1 0.3 0.2 -0.3 0.2 1.9 0.3 1.6 0.4 1.8 0.4 3.7 0.6 5.8 0.3 2.1-0.3 4.4-1 6.7-2.1 2.3-1.1 4.6-2.6 6.9-4.4 2.2-1.8 4.4-3.9 6.5-6.1 4.1-4.5 7.7-9.7 11-15.2 3.2-5.5 5.9-11.4 8.3-17.3 4.8-12 8-24.6 9.7-37.3 1.8-12.7 2.3-25.4 1.9-37.9 -0.3-12.5-1.4-24.7-2.5-36.5 -0.6-5.9-1.1-11.7-1.7-17.5 -0.6-5.7-1.1-11.4-1.5-16.9 -1-11.1-1.8-21.9-2.6-32.3 -0.7-10.4-1.3-20.5-1.9-30.2 -1.1-19.4-2-37.5-4.8-53.3 -1.4-7.9-3.2-15.2-5.6-21.7 -2.3-6.5-5.1-12.2-8.3-16.9 -3.1-4.7-6.5-8.5-9.9-11.2 -3.4-2.7-6.6-4.4-9.4-5.4 -2.7-1-5-1.3-6.4-1.4 -0.2 0-0.3 0-0.5-0.1 -0.2 0-0.3 0-0.5 0 -0.3 0-0.6 0-0.8 0 -0.4 0-0.6 0-0.6 0L1827.5 258.8z" class="b"/><ellipse cx="2000" cy="502.5" rx="6.2" ry="171.2" class="a"/><path d="M2000.4 328.8c0 0 0 0 0 0 0 0 0 0 0 0 0.1 0 0.1 0 0.2 0 0.1 0 0.2 0.1 0.4 0.1 0.7 0.3 0.8 0.5 1 0.7 0.2 0.2 0.3 0.4 0.4 0.6 0.4 0.7 0.6 1.3 0.8 2.1 0.4 1.5 0.7 3.4 1.1 6 0.7 5.1 1.6 12.4 3.4 21.8 1.7 9.4 4.4 20.7 7.9 33.7 3.5 13 7.8 27.8 10.4 43.9 1.4 8.1 2.3 16.5 2.7 25.2 0.4 8.7 0.4 17.7-0.2 27 -0.6 9.3-1.8 18.8-3.4 28.5 -1.7 9.7-3.7 19.6-5.7 29.7 -0.5 2.5-1 5-1.4 7.6 -0.5 2.5-0.9 5.1-1.4 7.6 -0.8 5.1-1.6 10.3-2.2 15.4 -1.3 10.4-1.9 20.9-2 31.4 -0.2 10.6 0 21.3 0.6 32.1 0.2 2.7 0.3 5.4 0.5 8.2 0.2 2.7 0.4 5.5 0.5 8.3 0.2 2.8 0.3 5.6 0.4 8.6 0 1.5 0.1 3 0 4.8 0 0.9-0.1 1.8-0.3 3.1 -0.1 0.7-0.2 1.4-0.6 2.6 -0.2 0.6-0.5 1.4-1.3 2.7 -0.4 0.7-1 1.6-2.4 3 -1.3 1.2-4.4 3.9-9.8 4 -1.9 0.9-9.5-2.8-9.9-3.9 -1.4-1.4-2-2.3-2.5-3 -0.9-1.4-1.2-2.1-1.4-2.7 -0.5-1.2-0.7-1.9-1-2.5 -0.4-1.2-0.7-2.1-1-3 -0.5-1.7-0.9-3.2-1.3-4.7 -0.8-2.9-1.5-5.7-2.1-8.5 -1.3-5.5-2.4-10.9-3.5-16.4 -2.1-10.8-3.6-21.5-4.8-32.2 -1.1-10.6-2-21.2-2.9-31.6 -0.9-10.4-1.7-20.7-2.3-30.8 -1.2-20.2-1.3-39.8-0.4-58.3 0.5-9.3 1.1-18.3 1.9-27 0.9-8.7 2.2-17.1 3.8-25.2 3.2-16.1 7.6-30.9 11.2-43.9 3.6-13 6.3-24.4 8.1-33.8 1.8-9.4 2.8-16.7 3.6-21.8 0.4-2.5 0.8-4.5 1.2-6 0.2-0.8 0.4-1.3 0.8-2.1 0.1-0.2 0.3-0.4 0.4-0.6 0.3-0.2 0.4-0.4 0.8-0.6 0.3-0.2 0.7-0.3 0.9-0.3 0.2 0 0.4 0 0.4 0L2000.4 328.8zM2000 333.9c0 0 0.1 0 0.3 0 0.2 0 0.5-0.1 0.7-0.2 0.3-0.2 0.4-0.3 0.6-0.4 0.1-0.1 0.2-0.2 0.2-0.2 0.1-0.2-0.1 0.2-0.2 0.7 -0.2 1-0.5 2.9-0.7 5.3 -0.4 4.9-0.5 12.3 0.3 21.7 0.7 9.4 2.5 20.8 5.4 33.9 2.8 13.1 6.6 27.9 9.3 43.9 1.4 8 2.4 16.4 3.2 25 0.7 8.6 1.2 17.6 1.6 26.7 0.8 18.3 0.8 37.7 0 57.7 -0.9 20-2 40.7-2.8 61.6 -0.5 10.5-1.3 21-2.3 31.6 -0.5 5.2-1 10.5-1.5 15.7 -0.2 2.6-0.5 5.1-0.6 7.5l-0.2 3.3c0 0.4-0.1 0.9-0.2 0.9 -0.1 0-0.1 0-0.4-0.6 -0.2-0.3-0.3-0.7-1-1.8 -0.4-0.5-0.8-1.3-2.2-2.6 -0.2-1-7.7-4.6-9.4-3.7 -5.3 0.1-8.2 2.7-9.4 3.8 -1.3 1.3-1.7 2.1-2.1 2.6 -0.6 1.1-0.7 1.6-0.8 1.8 -0.2 0.6-0.1 0.6-0.1 0.7 0.1 0 0.3-0.4 0.5-0.9 0.4-0.9 0.7-2 1.1-3.2 0.7-2.4 1.3-4.9 1.9-7.4 1.1-5.1 2.2-10.4 3-15.6 1.6-10.5 2.6-21.1 3-31.6 0.4-10.5 0.3-21-0.6-31.3 -0.4-5.2-1-10.3-1.7-15.4 -0.3-2.6-0.8-5.1-1.2-7.6 -0.4-2.5-0.8-5.1-1.3-7.6 -1.8-10-3.7-19.9-5.3-29.6 -1.6-9.6-2.8-19.1-3.4-28.3 -0.7-9.2-0.8-18.1-0.5-26.7 0.3-8.6 1-17 2.1-25 2.2-16 5.8-30.8 8.6-43.9 2.8-13.1 4.6-24.5 5.2-33.9 0.7-9.4 0.5-16.7 0-21.6 -0.2-2.4-0.5-4.3-0.8-5.3 -0.1-0.5-0.3-0.8-0.2-0.7 0 0 0.1 0.1 0.2 0.2 0.2 0.2 0.2 0.2 0.8 0.5 0.1 0 0.2 0.1 0.3 0.1 0.1 0 0.1 0 0.1 0 0 0 0 0 0 0 0 0 0 0 0 0 0 0 0 0 0 0L2000 333.9z" class="b"/><ellipse cx="1332.5" cy="482.5" rx="43.7" ry="216.2" class="a"/><path d="M1332.7 263.8c0 0 0.2 0 0.7 0 0.3 0 1.4 0.1 2.5 0.4 1 0.3 2.3 0.8 3.6 1.6 1.3 0.8 2.6 1.8 3.9 3.1 5.3 5.2 10.2 14.2 15.5 25.8 5.2 11.7 11 26.1 17.3 43 6.2 16.9 12.7 36.3 17 57.8 2.2 10.8 3.8 22.1 4.7 33.8 0.9 11.7 1.2 23.9 0.8 36.4 -0.2 6.2-0.6 12.5-1.2 19 -0.3 3.1-0.6 6.4-1 9.6 -0.4 3.2-0.8 6.5-1.3 9.7 -1.9 13-4.3 26.3-7 39.6 -2.7 13.4-5.4 26.9-7.9 40.6 -2.5 13.7-4.8 27.5-7.1 41.5 -1.2 7-2.4 14.1-3.7 21.2 -1.3 7.1-2.8 14.2-4.5 21.5 -0.9 3.6-1.8 7.3-2.9 11 -1.1 3.7-2.4 7.4-4 11.3 -0.8 1.9-1.7 3.9-2.9 5.9 -1.1 2-2.4 4-4.1 6.1 -1.7 2.1-3.7 4.2-6.7 6.2l-1.1 0.7c-0.4 0.2-0.8 0.5-1.3 0.7 -0.4 0.2-0.9 0.4-1.3 0.6 -0.5 0.2-1 0.4-1.5 0.6 -0.9 0.4-2.1 0.6-3.1 0.9 -0.5 0.1-1.1 0.2-1.7 0.3l-0.8 0.1c-0.7 0 0.3 0.1-1.7 0l-0.7 0 -0.3 0c0 0-0.4 0-0.8 0 -0.7-0.1-1.4-0.1-2.2-0.3 -0.3-0.1-0.8-0.1-1-0.2l-0.8-0.2c-0.5-0.1-1-0.3-1.6-0.4 -0.5-0.1-1-0.3-1.4-0.5 -0.5-0.2-0.9-0.4-1.4-0.6l-1.3-0.6c-3.4-1.7-5.9-3.6-8-5.5 -1.1-1-2-1.9-2.9-2.9 -0.8-0.9-1.7-1.9-2.5-2.8 -1.6-1.9-2.9-3.7-4.2-5.6 -4.9-7.4-8.5-14.6-11.6-21.8 -1.5-3.6-3-7.2-4.3-10.8 -1.3-3.6-2.5-7.2-3.6-10.8 -2.3-7.2-4.2-14.3-5.8-21.5 -3.3-14.3-5.8-28.5-8-42.5 -2.2-14-3.9-27.9-5.3-41.5 -2.6-27.3-3.1-53.7-1.8-78.7 0.6-12.5 1.6-24.7 2.9-36.4 1.4-11.7 3.3-23 5.8-33.8 1.2-5.4 2.5-10.6 3.9-15.7 1.4-5.1 2.9-10.1 4.4-14.9 3.1-9.6 6.2-18.7 9.4-27.2 6.3-16.9 12.1-31.3 17.4-43 5.3-11.7 10.4-20.6 15.7-25.8 1.3-1.3 2.7-2.3 4-3.1 1.3-0.8 2.5-1.3 3.6-1.6 1-0.3 1.9-0.4 2.4-0.4 0.6 0 0.8 0 0.8 0L1332.7 263.8zM1332.5 268.9c0 0-0.2 0-0.5 0 -0.3 0-0.8 0.1-1.4 0.3 -0.6 0.2-1.4 0.5-2.2 1.1 -0.9 0.6-1.8 1.4-2.8 2.5 -4 4.4-8.2 13.1-10.8 25 -1.4 5.9-2.4 12.6-3.1 20 -0.7 7.4-0.9 15.4-0.8 24 0.1 8.6 0.5 17.8 1.1 27.4 0.5 9.6 1.3 19.7 1.8 30.2 0.6 10.5 1 21.3 1.3 32.6 0.2 11.2 0.4 22.8 0.6 34.7 0.5 23.8 0.9 48.9 1.4 74.8 0.5 25.9 1.5 52.7 4.7 79.2 1.5 13.2 3.2 26.6 5.6 39.2 0.6 3.1 1.3 6.2 2 9.2 0.7 3 1.5 5.8 2.4 8.4 0.4 1.3 0.9 2.5 1.3 3.5 0.2 0.6 0.4 1 0.7 1.5l0.6 1.2c0.3 0.7 0.5 1.1 0.2 1.1 0 0-0.1 0-0.1 0.1 -0.1 0-0.1 0-0.2 0 -0.1 0-0.1 0-0.2 0 -0.1 0-0.2 0-0.3 0 0 0-0.1 0-0.1 0 0 0-0.3 0-0.4 0 -0.3 0-0.6 0-0.9 0 -0.2 0-0.3 0-0.1 0.1l0.3 0.1 0.7 0.1c-1.8 0-0.6 0-1 0 -0.1 0-0.1 0-0.2 0 -0.1 0-0.2 0.1-0.3 0.1 -0.2 0.1-0.4 0.2-0.5 0.3 -0.1 0-0.1 0.1-0.2 0.2 -0.1 0.1-0.1 0.1-0.1 0.1 0 0 0 0.1-0.1 0.1 0 0 0 0 0 0.1 0.1 0.2 0.8 0 1.5-0.5 0.8-0.5 1.6-1.3 2.5-2.2 0.9-0.9 1.8-2.1 2.7-3.2 1.7-2.4 3.4-5.2 4.9-8 1.5-2.9 2.9-5.9 4.2-9 5.1-12.5 8.6-26 11.2-39.5 2.5-13.5 4-27.2 4.3-40.8 0.4-13.6-0.2-27.1-1.3-40.3 -1.1-13.2-2.6-26.2-3.9-38.8 -0.3-3.2-0.7-6.3-1-9.4 -0.3-3.1-0.6-6.1-0.9-9.3 -0.6-6.1-1-12.2-1.4-18.2 -0.8-11.9-1.2-23.5-1.5-34.8 -0.2-11.2-0.1-22.1 0.2-32.5 0.6-20.9 2.1-40.3 2.2-57.5 0.1-8.6-0.2-16.7-0.9-24 -0.7-7.4-1.7-14.1-3.1-20 -2.7-11.8-7-20.6-11.1-24.9 -1-1.1-2-1.9-2.9-2.4 -0.9-0.5-1.6-0.9-2.3-1 -0.9-0.3-2.1-0.3-2-0.3L1332.5 268.9z" class="b"/></svg>