<svg xmlns="http://www.w3.org/2000/svg" width="2560" height="500" viewBox="0 0 2560 500"><style>.a{fill:#AD1490;stroke-width:2;stroke:#000;}.b{fill:#9E1F97;stroke-width:2;stroke:#000;}</style><title>  background</title><title>  Layer 1</title><path d="M679.9 21.2C622.4-30.6 492 31.6 420.1 73.6c-20.6-3.3-42.2-5-64.8-5 -90.9 0-164.2 26.7-219.9 77.1 -63.4 58-98.5 134-98.5 221.9 0 0.8 0 1.5 0 2.3 89.2-139.7 226.3-211.4 262.7-230.3 5.8-2.7 9.2 4.2 3.8 6.9 -0.4 1.1-0.4 0 0 0 -61.2 36.6-174.6 142.7-248.1 295.4l-0.1-0.2C8.6 537.9-30.7 673.1 48 722.7c59.6 37.5 166.3-6.7 252.2-62.9 20.7 2.9 42.5 4.5 65.5 4.5 158.5 0 269.6-87.4 309.3-215L457.3 448.9c-9.1 45.1-39.7 69.1-87.4 69.1 -60 0-101.2-32.9-103.9-108.9l413.2-0.4c0.8-15.7-1.1-26.7-1.1-39 0-142.5-85.3-253.8-224-289.3C510.6 45.3 616.2-6.7 667 34.8c38.2 30.9 17.2 95.9 8 122.6 -1.5 6.9 6.5 8 8 1.5 19-48.1 24.8-112.6-3.1-137.8V21.2zM280.4 656.4c-67 40-159.3 68.9-204.5 35C42.2 666 57 597.3 86.7 530.3c18 26.9 40.6 51.2 67.1 71.4 35.9 27 78 45.2 126.7 54.8L280.4 656.4zM265.3 313.7c1.1-66.1 48.5-94.7 98.1-94.7 52.3 0 94.7 30.2 94.7 94.7H265.3L265.3 313.7z" class="a"/><path d="M1364.5 331.4c-27.1-24.4-88.4 4.9-122.2 24.6 -9.7-1.5-19.9-2.4-30.5-2.4 -42.8 0-77.3 12.6-103.5 36.3C1078.5 417.2 1061.9 453 1061.9 494.3c0 0.4 0 0.7 0 1.1 42-65.7 106.5-99.5 123.6-108.3 2.7-1.3 4.3 2 1.8 3.2 -0.2 0.5-0.2 0 0 0 -28.8 17.2-82.1 67.1-116.8 139v-0.1c-21.9 45.3-40.4 108.9-3.4 132.2 28 17.6 78.3-3.2 118.7-29.6 9.8 1.4 20 2.1 30.8 2.1 74.6 0 126.9-41.1 145.5-101.2l-102.4-0.2c-4.3 21.2-18.7 32.5-41.1 32.5 -28.2 0-47.6-15.5-48.9-51.2l194.4-0.2c0.4-7.4-0.5-12.6-0.5-18.3 0-67-40.1-119.4-105.4-136.1 26.6-16.5 76.3-41 100.2-21.5 18 14.6 8.1 45.1 3.8 57.7 -0.7 3.2 3.1 3.8 3.8 0.7 9-22.6 11.7-53-1.5-64.8V331.4zM1176.5 630.3c-31.5 18.8-75 32.4-96.2 16.5 -15.9-11.9-8.9-44.3 5.1-75.8 8.5 12.7 19.1 24.1 31.6 33.6 16.9 12.7 36.7 21.3 59.6 25.8L1176.5 630.3zM1169.4 469.1c0.5-31.1 22.8-44.6 46.2-44.6 24.6 0 44.6 14.2 44.6 44.6h-90.7H1169.4z" class="a"/><path d="M2533.8 283.4c-33.7-30.3-110 6.1-152.1 30.7 -12.1-1.9-24.7-2.9-37.9-2.9 -53.2 0-96.1 15.6-128.8 45.2 -37.1 34-57.7 78.5-57.7 129.9 0 0.4 0 0.9 0 1.3 52.2-81.8 132.5-123.7 153.8-134.8 3.4-1.6 5.4 2.5 2.2 4 -0.2 0.7-0.2 0 0 0 -35.8 21.4-102.2 83.5-145.3 172.9V529.6c-27.3 56.3-50.3 135.5-4.2 164.5 34.9 22 97.4-3.9 147.7-36.8 12.1 1.7 24.9 2.6 38.4 2.6 92.8 0 157.8-51.2 181.1-125.9l-127.4-0.2c-5.4 26.4-23.3 40.5-51.2 40.5 -35.1 0-59.2-19.2-60.8-63.7l241.9-0.2c0.4-9.2-0.7-15.6-0.7-22.8 0-83.4-49.9-148.6-131.1-169.4 33.1-20.6 94.9-51 124.7-26.7 22.4 18.1 10.1 56.1 4.7 71.8 -0.9 4 3.8 4.7 4.7 0.9 11.2-28.1 14.5-65.9-1.8-80.7L2533.8 283.4zM2299.9 655.3c-39.2 23.4-93.3 40.3-119.8 20.5 -19.7-14.9-11.1-55.1 6.3-94.3 10.5 15.8 23.7 30 39.3 41.8 21 15.8 45.7 26.5 74.2 32.1V655.3zM2291 454.7c0.7-38.7 28.4-55.4 57.5-55.4 30.6 0 55.4 17.7 55.4 55.4H2291z" class="a"/><path d="M2153.1 541L2153.1 541 2153.1 541 2153.1 541 2153.1 541 2153.1 541 2153.1 541 2153.1 541 2153.1 541c0 0 0 0 0 0.1l0 0c0 0 0 0 0 0.1l0 0 0 0c0 0 0 0 0.1 0l0 0 0 0 0 0h0.1l0 0c0 0 0 0 0-0.1l0 0 0 0 0 0 0 0L2153.1 541zM2153 541.1L2153 541.1 2153 541.1 2153 541.1 2153 541.1zM2153 541L2153 541 2153 541 2153 541z" class="b"/><path d="M1589 178.1c23.6-17.3 76.9 3.5 106.4 17.5 8.4-1.1 17.3-1.7 26.5-1.7 37.2 0 67.2 8.9 90.1 25.7 26 19.3 40.3 44.7 40.3 74 0 0.3 0 0.5 0 0.8 -36.5-46.6-92.7-70.5-107.6-76.8 -2.4-0.9-3.8 1.4-1.6 2.3 0.2 0.4 0.2 0 0 0 25 12.2 71.5 47.6 101.6 98.5V318.3c19.1 32.1 35.2 77.1 3 93.7 -24.4 12.5-68.1-2.2-103.3-21 -8.5 1-17.4 1.5-26.8 1.5 -64.9 0-110.4-29.1-126.6-71.7l89.1-0.1c3.7 15 16.3 23 35.8 23 24.6 0 41.4-11 42.5-36.3l-169.2-0.1c-0.3-5.2 0.5-8.9 0.5-13 0-47.5 34.9-84.6 91.7-96.4 -23.1-11.7-66.4-29-87.2-15.2 -15.6 10.3-7 32-3.3 40.9 0.6 2.3-2.7 2.7-3.3 0.5 -7.8-16-10.2-37.5 1.3-45.9L1589 178.1zM1752.6 389.8c27.4 13.3 65.2 23 83.8 11.7 13.8-8.5 7.7-31.4-4.4-53.7 -7.4 9-16.6 17.1-27.5 23.8 -14.7 9-31.9 15.1-51.9 18.3V389.8zM1758.8 275.6c-0.5-22-19.9-31.6-40.2-31.6 -21.4 0-38.8 10.1-38.8 31.6H1758.8z" class="b"/></svg>