<svg xmlns="http://www.w3.org/2000/svg" width="2560" height="500" viewBox="0 0 2560 500"><style>.a{fill:#7A5400;}</style><title>  background</title><title>  Layer 1</title><path d="M1890.3 274.3c3.4-0.3 28.1 11.7 28.6 14.1 0.7 3.5 16.3 3.5 20.4 3.5 4.1 0 33.4 7.6 53.1 15.9 19.8 8.2 77.7 0.6 81.7 0 4.1-0.6 190.7-16.2 241.1-5.3 24.2 5.2 71.9-13.2 78.2-51.6 -2.6-25.6-55.8-26.5-66.9-18.7 -8.2 3.5-22.1 2.4-18.7-3.9 3.1-4.2 23.8-17.3 62.2-11.5 32.5 4.9 51.3 16.6 58.2 33.7 4.6 37.1-59.8 64.4-59.8 64.4s5.1 9.7 12.3 15.9 9.2 27.3 8.2 30c-1 2.6 30.7 17.2 40.9 17.6 8.9 1.8 33.7 34.4 34.7 41.5 9.2 2-1 11.9-12.3 13.2 -11.2 1.3-14.3-7.9-14.3-12.4 0-4.4-11.2-25.1-42.9-27.3 -31.7-2.2-59.3-9.7-59.3-9.7s-2 4.4-6.1 6.2c0 0 10.2 7.5 10.2 18.5 -1 4.9-17.4 19.9-28.6 21.2 0 0-18.4 12.4-26.6 12.4s-22.5 4.4-45-0.9c0 0 4.1-11 24.5-7.9 0 0 48-15.9 24.5-22.9 0 0-14.3-8.8-22.5-12.4 -8.2-3.5-16.3-9.3-18.4-15.9 0 0-68.5-1.8-85.8-3.5 -17.4-1.8-49 2.6-49 5.3 0 2.6 5.1 27.8 14.3 32.6 0 0 3.1 6.2 0 7.9 -3.1 1.8 11.2 16.3-16.3 15 -26.1 2-38.8-6.8-8.2-9.7 1.5-9.5-38.8-49.6-65.4-44.1 -34.7 2.2-23-10.8-57.2 9.7C1944.3 413.3 1883 426.1 1880 434c0 0-18.4-1.8-22.5 4.4 0 0-48 2.6-45-0.9 3.1-3.5 5.6-10.8 24.5-7.9 0 0 42.9-7.3 83.8-45 0 0-5.1-9.7 2-17.6 7.2-7.9-4.1-40.6-55.2-38.8 0 0-19.1 2.9-30.7-10.6 0 0-4.8-2.6 0-5.3 4.8-2.6 16.3-6.8 18.4-9.7 2-2.9 6.8-7.4 32.7-11.5 12.3-5.5-1.4-16.5 2-16.8H1890.3z" class="a"/><path d="M1212.1 216.3c3.2-0.4 26.1 15.6 26.5 18.9 0.6 4.7 15.1 4.7 18.9 4.7s30.9 10.2 49.2 21.2c18.3 11 72 0.8 75.7 0 3.8-0.8 176.7-21.6 223.4-7.1 22.4 7 66.7-17.7 72.4-68.9 -2.4-34.2-51.8-35.5-62-25 -7.6 4.6-20.5 3.2-17.4-5.2 2.9-5.7 22.1-23.1 57.6-15.4 30.1 6.5 47.5 22.1 54 45.1 4.3 49.5-55.4 86-55.4 86s4.7 13 11.4 21.2c6.6 8.2 8.5 36.5 7.6 40.1 -0.9 3.5 28.4 23 37.9 23.6 8.2 2.4 31.2 46 32.2 55.4 8.5 2.7-0.9 15.9-11.4 17.7 -10.4 1.8-13.3-10.6-13.3-16.5 0-5.9-10.4-33.6-39.8-36.5 -29.4-2.9-54.9-13-54.9-13s-1.9 5.9-5.7 8.2c0 0 9.5 10 9.5 24.7 -0.9 6.5-16.1 26.5-26.5 28.3 0 0-17 16.5-24.6 16.5 -7.6 0-20.8 5.9-41.7-1.2 0 0 3.8-14.7 22.7-10.6 0 0 44.5-21.2 22.7-30.6 0 0-13.3-11.8-20.8-16.5 -7.6-4.7-15.1-12.4-17-21.2 0 0-63.4-2.4-79.5-4.7 -16.1-2.4-45.4 3.5-45.4 7.1 0 3.5 4.7 37.1 13.3 43.6 0 0 2.8 8.2 0 10.6 -2.8 2.4 10.4 21.8-15.1 20 -24.1 2.7-36-9.1-7.6-13 1.4-12.7-36-66.3-60.6-58.9 -32.2 2.9-21.3-14.4-53 13 -33.1 24.2-89.9 41.2-92.8 51.8 0 0-17-2.4-20.8 5.9 0 0-44.5 3.5-41.7-1.2 2.8-4.7 5.2-14.4 22.7-10.6 0 0 39.8-9.7 77.6-60.1 0 0-4.7-13 1.9-23.6 6.6-10.6-3.8-54.2-51.1-51.8 0 0-17.7 3.9-28.4-14.1 0 0-4.4-3.5 0-7.1 4.4-3.5 15.1-9 17-13 1.9-3.9 6.3-9.8 30.3-15.3 11.4-7.4-1.3-22 1.9-22.4L1212.1 216.3z" class="a"/><path d="M345.1 160.6c4.1-0.5 33.5 19 34 22.9 0.8 5.7 19.5 5.7 24.3 5.7 4.9 0 39.7 12.4 63.2 25.7 23.5 13.3 92.4 1 97.3 0 4.9-1 226.9-26.2 286.9-8.6 28.8 8.5 85.6-21.4 93-83.6 -3-41.5-66.4-43-79.6-30.4 -9.7 5.6-26.3 3.9-22.3-6.3 3.7-6.9 28.4-28 74-18.7 38.6 7.9 61 26.8 69.3 54.7 5.5 60-71.1 104.4-71.1 104.4s6.1 15.7 14.6 25.7c8.5 10 10.9 44.3 9.7 48.6 -1.2 4.3 36.5 27.9 48.6 28.6 10.5 2.9 40.1 55.8 41.3 67.2 10.9 3.2-1.2 19.3-14.6 21.4 -13.4 2.1-17-12.9-17-20 0-7.1-13.4-40.7-51.1-44.3C907.9 350 875.1 337.9 875.1 337.9s-2.4 7.1-7.3 10c0 0 12.2 12.2 12.2 30 -1.2 7.9-20.7 32.2-34 34.3 0 0-21.9 20-31.6 20 -9.7 0-26.7 7.1-53.5-1.4 0 0 4.9-17.9 29.2-12.9 0 0 57.1-25.7 29.2-37.2 0 0-17-14.3-26.7-20 -9.7-5.7-19.5-15-21.9-25.7 0 0-81.4-2.9-102.1-5.7 -20.7-2.9-58.4 4.3-58.4 8.6 0 4.3 6.1 45 17 52.9 0 0 3.6 10 0 12.9 -3.6 2.9 13.4 26.4-19.5 24.3 -31 3.2-46.2-11.1-9.7-15.7 1.8-15.4-46.2-80.4-77.8-71.5 -41.3 3.6-27.4-17.5-68.1 15.7 -42.5 29.3-115.5 50-119.1 62.9 0 0-21.9-2.9-26.7 7.1 0 0-57.1 4.3-53.5-1.4 3.6-5.7 6.7-17.5 29.2-12.9 0 0 51.1-11.8 99.7-72.9 0 0-6.1-15.7 2.4-28.6 8.5-12.9-4.9-65.8-65.6-62.9 0 0-22.7 4.8-36.5-17.2 0 0-5.7-4.3 0-8.6 5.7-4.3 19.5-11 21.9-15.7 2.4-4.8 8.1-11.9 38.9-18.6 14.6-8.9-1.6-26.7 2.4-27.2L345.1 160.6z" class="a"/><path d="M65.4 372.9c0.5-0.1 3.8 2.6 3.8 3.1 0.1 0.8 2.2 0.8 2.7 0.8s4.5 1.7 7.1 3.5 10.4 0.1 10.9 0c0.5-0.1 25.5-3.5 32.2-1.2 3.2 1.1 9.6-2.9 10.4-11.3 -0.3-5.6-7.5-5.8-8.9-4.1 -1.1 0.8-3 0.5-2.5-0.9 0.4-0.9 3.2-3.8 8.3-2.5 4.3 1.1 6.8 3.6 7.8 7.4 0.6 8.1-8 14.1-8 14.1s0.7 2.1 1.6 3.5c1 1.4 1.2 6 1.1 6.6 -0.1 0.6 4.1 3.8 5.5 3.9 1.2 0.4 4.5 7.5 4.6 9.1 1.2 0.4-0.1 2.6-1.6 2.9s-1.9-1.7-1.9-2.7 -1.5-5.5-5.7-6c-4.2-0.5-7.9-2.1-7.9-2.1s-0.3 1-0.8 1.4c0 0 1.4 1.6 1.4 4.1 -0.1 1.1-2.3 4.3-3.8 4.6 0 0-2.5 2.7-3.5 2.7 -1.1 0-3 1-6-0.2 0 0 0.5-2.4 3.3-1.7 0 0 6.4-3.5 3.3-5 0 0-1.9-1.9-3-2.7 -1.1-0.8-2.2-2-2.5-3.5 0 0-9.1-0.4-11.5-0.8 -2.3-0.4-6.5 0.6-6.5 1.2 0 0.6 0.7 6.1 1.9 7.1 0 0 0.4 1.4 0 1.7 -0.4 0.4 1.5 3.6-2.2 3.3 -3.5 0.4-5.2-1.5-1.1-2.1 0.2-2.1-5.2-10.9-8.7-9.7 -4.6 0.5-3.1-2.4-7.6 2.1 -4.8 4-13 6.8-13.4 8.5 0 0-2.5-0.4-3 1 0 0-6.4 0.6-6-0.2 0.4-0.8 0.8-2.4 3.3-1.7 0 0 5.7-1.6 11.2-9.9 0 0-0.7-2.1 0.3-3.9 1-1.7-0.5-8.9-7.4-8.5 0 0-2.5 0.6-4.1-2.3 0 0-0.6-0.6 0-1.2 0.6-0.6 2.2-1.5 2.5-2.1 0.3-0.6 0.9-1.6 4.4-2.5 1.6-1.2-0.2-3.6 0.3-3.7L65.4 372.9z" class="a"/></svg>