<svg xmlns="http://www.w3.org/2000/svg" width="2560" height="800"><style>  .a{fill:#ffe500;stroke-opacity:null;stroke-width:2;stroke:#000;}.b{fill:#ff00e5;stroke-opacity:null;stroke-width:2;stroke:#000;}.c{fill:#f00;stroke-opacity:null;stroke-width:2;stroke:#000;}.d{fill-opacity:null;}</style><title>  background</title><title>  Layer 1</title><title>  background</title><rect height="802" width="2562" y="-1" x="-1" fill="none"/><title>  Layer 1</title><g stroke="null"><path d="m2490 800c0 0 6-1 10-3 4-2 11-4 14-6 5-3 10-5 14-8 6-4 9-6 12-10 3-4 5-7 6-10 1-4 0-7 0-10 0-3 0-6 0-9 0-3-3-6-6-10 -3-3-7-5-12-10 -3-3-9-7-14-12 -7-6-10-9-16-14 -6-5-16-9-22-12 -7-4-12-8-18-11 0 0-15-7-22-11 -7-4-15-6-22-10 -7-4-15-7-20-11 -2-2-7-3-10-6 -3-3-4-5-6-7 -2-3-2-5-4-8 -2-3-4-5-4-8 0-2-2-5-2-8 0-2 0-5 0-8 0-3 0-6 0-9 0-3 0-6 0-9 0-2-1-4 0-7 1-2 3-4 4-6 1-2 3-4 6-6 3-2 7-4 12-7 4-2 10-6 12-8 3-2 6-4 10-7 4-3 10-4 14-7 4-2 8-4 12-6 4-2 7-4 12-7 5-3 14-11 20-15 5-3 10-5 14-9 2-2 6-4 8-7 2-3 6-6 8-8 2-3 5-5 8-9 4-4 5-10 8-15 3-6 4-11 6-16 2-5 3-9 4-11 1-3 2-6 2-9 0-3-1-6-2-9 -1-3-3-6-4-9 -1-3-2-6-4-9 -3-4-7-5-10-9 -3-4-5-7-8-9 -5-3-11-6-16-10 -7-4-12-8-18-12 -6-5-13-9-18-12 -5-3-9-6-12-9 -5-3-7-5-10-8 -3-2-4-4-8-8 -4-4-11-7-16-10 -5-4-12-7-14-9 -5-4-9-6-12-10 -3-3-2-6-4-10 -2-3-4-5-4-8 0-3 0-6 0-9 0-3 0-6 0-9 0-4 3-6 4-10 1-3 2-6 4-8 2-3 2-5 4-8 2-3 5-6 6-9 1-3 5-5 6-8 1-2 3-5 6-9 3-5 6-7 10-11 2-3 6-4 8-7 2-2 2-4 6-7 6-4 7-5 12-8 3-2 5-3 6-6 0-1 3-3 4-5 1-2 3-3 4-5 0-1 3-2 4-4 0-1 3-2 4-3 3-1 1-2 4-4 2-1 3-3 6-5 3-2 5-4 8-6 3-2 6-4 10-7 2-2 6-4 10-7 3-2 5-3 6-4 1-1 3-2 4-3 2-2 2-2 2-3 0-1 2-2 2-3 0-1 0-3 0-4 0-2 0-3 0-4 0-1-1-2-2-6 0-2-1-3-2-5 -1-2-2-4-4-5 -2-1-3-2-4-3 -1-1-3-2-4-3 -1-1-2-2-2-3l-2-1 -2-1 -2-1" style="fill:none;stroke-width:2;stroke:#ce4444"/><path d="m2161 98c0 0 0 3 2 6 2 3 5 8 12 12 7 5 14 11 20 15 8 6 13 11 16 13 3 3 8 8 10 10 3 4 5 8 8 12 3 5 9 9 12 15 3 6 3 10 4 16 1 4 3 8 4 12 1 5 0 9 0 14 0 5 1 11 0 17 -1 5-3 10-4 14 -1 6-4 8-8 12 -4 5-6 8-12 12 -6 5-12 9-18 13 -4 3-9 7-16 11 -7 4-11 8-20 12 -7 3-14 7-22 10 -10 4-16 8-26 11 -8 3-14 7-24 10 -8 3-14 7-22 10 -8 3-14 7-22 10 -6 3-15 6-22 10 -10 5-15 10-22 14 -7 4-11 7-16 10 -7 4-13 8-16 11 -7 6-11 9-14 14 -5 7-6 11-8 15 -2 5-3 10-4 15 -1 5-3 10-2 15 1 6 4 10 6 16 2 6 4 10 8 16 4 6 8 11 12 16 11 13 19 20 26 27 6 6 14 11 22 18 8 7 14 12 20 18 6 5 12 8 18 12 8 6 15 11 22 16 7 6 24 16 32 22 10 7 21 12 34 19 13 6 25 12 34 19 8 6 17 11 30 20 4 3 12 6 16 10 4 4 7 6 10 10 3 3 4 7 6 9 2 2 2 4 2 6 0 2 0 5 0 7 0 2-1 4-2 8 -1 3-1 5-2 7 -1 2-5 4-6 6 -1 3-3 4-4 6 -1 1 0 2-2 3l0 1" style="fill:none;stroke-width:2;stroke:#ce4444"/><path d="m1560 754c0 0 4-1 8-2 7-2 11-3 18-6 11-3 16-8 24-10 8-2 16-6 24-10 6-3 14-7 20-10 8-4 14-8 18-10 5-3 10-7 12-12 2-5 3-10 4-15 1-6 2-13 2-21 0-9-1-16-4-25 -3-8-7-15-14-24 -11-14-18-20-26-26 -16-11-24-17-34-24 -10-6-22-14-37-22 -25-13-43-20-57-26 -16-7-29-11-43-16 -11-4-23-8-30-11 -7-3-22-12-28-15 -8-4-14-7-18-11 -11-12-17-16-20-23 -3-6-5-12-6-28 -1-8-2-22 0-29 2-8 9-13 16-20 7-7 14-12 20-18 8-7 16-12 24-18 10-7 29-13 41-18 11-5 22-10 41-15 14-4 28-8 47-12 14-4 27-9 41-14 15-5 27-10 51-19 10-4 22-8 30-11 10-4 22-6 30-10 8-3 15-7 24-11 6-3 12-5 18-9 6-4 12-8 14-10 2-4 4-7 4-10 0-2 1-4 0-7 -1-2-8-5-12-7 -4-2-9-4-14-7 -5-2-14-5-20-8 -6-2-14-4-22-9 -3-2-6-4-8-5l-2 0" style="fill:none;stroke-width:2;stroke:#ce4444"/><path d="m1140 170c0 0 3 5 8 10 7 8 14 16 24 25 16 13 36 28 57 41 17 10 37 22 55 31 16 9 28 15 34 21 6 5 9 8 14 12 4 4 10 7 12 10 2 4 5 8 6 12 1 5 2 10 2 15 0 6-5 10-10 14 -7 5-12 11-18 15 -6 4-16 9-24 13 -11 6-23 12-41 18 -19 6-38 11-59 14 -24 4-51 7-75 10 -24 3-47 7-71 10 -22 3-43 7-63 11 -17 3-34 10-51 14 -19 5-39 8-53 12 -15 4-28 8-39 12 -10 4-17 7-24 12 -5 4-8 7-10 10 -2 3-5 12-4 20 1 8 8 17 20 27 12 10 30 19 49 28 12 6 30 14 45 19 17 6 39 12 67 17 31 6 73 12 118 18 44 6 93 11 136 14 30 2 55 3 79 5 21 2 37 5 51 6 14 1 27 2 37 4 13 2 24 6 37 9 12 3 25 5 32 8 9 2 14 5 20 8 2 1 4 2 4 3 0 1 1 2 0 3 -2 2-7 4-12 6 -5 2-14 5-24 8 -12 4-25 7-39 10 -15 3-28 8-45 11 -14 3-26 6-41 10 -12 3-25 5-34 7 -12 3-26 4-41 5 -12 1-24 2-39 3 -16 1-37 0-55 0 -18 0-39 0-57 0 -24 0-49-2-73-3 -30-1-59-3-89-4 -24 0-59-1-69-1l-4 0" style="fill:none;stroke-width:2;stroke:#ce4444"/><path d="m389 714c0 0 2 0 4 0 4 0 11 1 18-1 11-2 29-5 49-10 23-5 45-9 67-15 21-6 38-12 51-18 7-3 13-9 18-14 5-5 8-10 10-15 2-7 4-14 4-22 0-9-4-17-12-28 -8-11-19-22-32-33 -13-10-28-18-43-27 -14-9-27-15-45-22 -12-5-26-10-41-17 -12-6-25-9-37-13 -13-4-23-9-34-14 -11-5-22-11-34-19 -12-8-28-17-39-26 -10-9-20-17-24-24 -3-6-3-10-4-16 -1-7-2-11 0-17 2-7 7-12 16-20 11-9 22-16 37-26 14-9 32-18 51-28 18-10 37-19 55-29 16-9 44-24 59-31 15-7 28-11 39-16 12-6 23-10 30-14 5-3 11-5 14-8 3-2 7-5 8-8 1-3 3-6 4-8 1-3 0-5-2-8 -7-8-15-13-22-16 -11-5-22-6-30-10 -6-3-16-5-22-8 -8-3-13-5-20-8 -4-1-7-3-12-5 -5-2-10-3-16-4 -4-1-5-2-8-3 -2 0-2-1-4-1 -3-1-4-2-6-3l0-1 -2 0 -2 0" style="fill:none;stroke-width:2;stroke:#ce4444"/><path d="m1869 745c6 0 10-2 14-4 6-3 9-7 16-12 7-6 19-12 26-19 9-9 13-19 16-27 3-8 2-16 2-24 0-8 1-14 0-21 -1-7-4-13-10-19 -7-7-12-12-20-19 -8-7-16-15-26-22 -10-6-20-11-30-17 -8-5-15-8-20-11 -5-3-9-5-16-9 -7-3-15-8-24-13 -11-6-21-12-34-19 -13-6-23-12-30-16 -5-3-10-6-12-8 -2-2-4-4-4-6 0-3 0-7 0-12 0-4 2-10 6-16 4-6 10-12 16-19 6-7 14-15 22-22 7-6 16-12 24-19 8-7 18-12 26-19 8-6 16-10 24-14 8-5 16-10 24-15 8-6 16-12 24-18 8-6 17-14 24-21 9-7 17-16 24-25 8-9 17-18 20-26 2-6 2-10 4-14 3-6 3-11 4-16 1-7 3-11 2-20 -1-8-5-14-12-21 -7-7-14-12-20-16 -6-4-9-9-18-13 -7-3-13-6-18-10 -5-3-10-7-12-9 -2-2-2-4-4-5 -3-2-4-3-4-4l-2-1 -2-1" style="fill:none;stroke-width:2;stroke:#ce4444"/><path d="m379 759c4-1 10-1 16-2 6-1 14-3 26-5 14-2 28-5 49-9 16-3 34-6 51-10 18-4 34-7 71-15 18-4 34-9 53-15 16-6 31-11 45-20 13-8 27-17 39-26 11-8 21-17 28-26 7-9 14-19 16-28 2-8 2-17 2-25 0-9-5-16-10-25 -5-8-14-15-22-22 -8-6-18-11-30-17 -10-5-21-10-37-14 -29-8-49-11-65-14 -16-3-36-6-57-8 -18-2-41-3-83-2 -20 0-37 3-49 6 -13 3-20 7-26 10 -8 5-17 10-26 16 -12 8-25 15-37 22 -15 8-27 17-41 26 -11 7-24 16-32 26 -8 9-17 18-22 28 -4 8-4 18-4 26 0 8-1 15 0 23 1 7 3 15 8 22 4 6 9 12 14 17 5 5 12 10 16 14 4 4 10 8 16 11 8 5 18 10 30 14 10 4 22 8 34 11 10 3 21 5 28 8 6 2 12 4 20 5 6 1 12 2 18 3 8 1 14 1 20 1 6 0 12 0 16 0 4 0 10 0 14 0l2 0 4 0 6-1" style="fill:none;stroke-width:2;stroke:#ce4444"/><path d="m1418 651c0 0 5-1 12-4 9-3 15-5 26-9 11-3 25-6 39-10 13-4 30-11 45-17 18-8 34-18 47-28 14-12 28-24 37-36 10-15 20-30 24-46 3-12 5-24 6-34 1-11 2-20-2-31 -4-11-9-23-34-43 -13-10-27-19-41-28 -11-7-26-14-41-20 -17-7-34-11-53-15 -32-7-48-10-65-11 -16-1-33-1-67 4 -17 2-58 13-85 19 -30 7-61 14-87 21 -26 7-59 14-81 22 -21 7-36 17-47 26 -12 11-20 38-22 50 -2 11-3 23-2 34 1 11 5 22 10 33 5 12 15 23 28 35 15 13 39 30 65 46 24 14 48 29 69 37 20 8 38 17 55 22 18 5 33 9 49 13 15 4 30 8 45 10 26 4 38 5 49 6 12 1 20 0 26 0 6 0 12-2 18-3 8-1 13-2 18-4 5-1 10-3 16-5l4-1" style="fill:none;stroke-width:2;stroke:#ce4444"/><path d="m2108 663c8-2 18-4 28-8 12-4 25-7 37-12 15-6 33-13 51-20 19-8 35-16 53-25 19-9 37-19 55-30 19-13 36-29 49-42 18-17 31-31 41-47 10-16 14-30 16-44 2-12 4-25 2-36 -5-32-15-43-22-52 -8-10-23-19-37-27 -15-9-29-18-47-26 -19-8-34-16-53-22 -18-6-36-11-53-13 -10-1-22-2-32-2 -12 0-26 0-43 2 -22 3-46 6-77 10 -48 5-102 8-162 14 -55 6-104 12-146 22 -31 7-57 17-75 31 -21 16-36 40-47 66 -9 22-8 44-8 65 0 21 8 39 20 57 10 16 25 38 51 62 22 21 51 41 81 61 23 15 45 26 59 33 16 9 29 17 49 25 17 7 38 14 61 20 22 5 47 10 71 13 20 3 42 7 69 10 24 2 49 2 67 2 16 0 28-2 41-5l6-2 12-4" style="fill:none;stroke-width:2;stroke:#ce4444"/><path d="m73 792c0 0 3 1 4 0 1-1 3-2 4-3 1-1 0-2 2-2 3-1 3-2 4-3 1-1 3-2 4-4 0-1 3-2 4-3 1-1 0-2 0-3 0-2 1-3 2-6 0-1 0-2 0-3 0-2 0-4 0-5 0-2 0-4 0-6 0-2 0-4 0-6 0-2-1-5-2-7 -1-2-1-4-2-6 -1-2-1-5-2-7 -1-2-2-4-2-6 0-2-2-5-4-7 -2-3-2-6-4-10 -2-5-4-10-6-14 -2-4-3-8-4-12 -1-4-3-8-4-11 -1-3-2-8-2-11 0-4 0-7 0-11 0-5 0-10 0-15 0-6-1-10 0-14 1-5 3-7 4-10 1-4 2-7 4-10 3-5 5-8 6-12 1-5 2-9 4-15 2-7 4-11 6-17 2-6 3-11 6-16 3-5 7-9 10-15 3-5 5-10 8-16 3-5 5-11 8-16 3-5 9-9 12-15 2-4 5-10 8-13 6-8 12-12 18-18 6-6 15-15 22-23 9-8 15-16 24-24 9-8 20-13 28-19 10-8 22-14 34-18 14-5 27-9 39-13 13-4 24-9 37-12 14-4 31-10 47-16 18-7 38-15 63-24 26-9 51-17 77-24 26-7 49-13 71-19 22-6 43-12 63-15 16-3 34-7 53-9l20-1 18-1 24-1" style="fill:none;stroke-width:5;stroke:#ce4444"/><path d="m2473 801c2 0 2-1 4-1 2 0 5-1 6-2 1-1 3-1 4-2 1-1 3-1 4-2 1-1 1-1 2-2 1-1 3 0 4-1 1-1 1-1 2-2 1-1 2-1 4-2 2-1 2-2 4-3 2-1 3-1 4-2 1-1 4-2 6-3 2-1 1-2 2-3 1-1 3-1 4-2 1-1 0-2 0-3 0-1 2-2 2-3 0-1 0-3 0-4 0-1 0-2 0-3 0-1 0-2 0-3 0-1 0-2 0-3 0-1-2-2-2-3 0-1 1-2 0-3 -1-1-3-1-4-2 -1-1-1-2-2-3 -1-1-3-3-4-5 0-1-3-3-4-5 0-1-3-2-4-3 -2-2-3-2-4-3 -2-3-2-3-2-4 -1-2-5-3-6-4 -2-2-3-4-4-5 -2-2-3-4-4-5 -1-1-1-2-2-3 -1-1-1-2-4-4 -3-1-5-2-8-4 -3-2-7-4-8-6 0-1-3-3-6-5 -2-1-3-2-4-4 -2-2-5-2-8-4 -5-2-6-4-8-5 -5-3-9-4-12-7 -3-2-6-2-10-5 -2-2-3-2-4-3 -1-1-5-1-6-2 -1-1-2-2-4-3 -2-1-4-3-8-4 -5-2-5-3-8-4 -2 0-3-1-4-2 -1-1-3-1-4-2 -1-1-3-2-4-3 -2-2-4-2-6-3 -2-1-3-2-4-3 -1-1-3-2-4-3 -1-1-2-2-2-3 -1-2-3-4-4-5 -1-1-2-2-2-4 0-2-1-3-2-4 -1-1 0-3 0-4 0-1-1-3-2-4 -2-2-1-4-2-5 -2-2 0-3 0-4 -1-2-3-3-4-4 -2-2 0-4 0-5 0-2 0-4 0-5 0-1 0-2 0-3 0-1 0-2 0-3 0-1 0-2 0-3 0-1 0-4 0-5 0-1-1-2 0-3 1-1 4-2 4-3 1-2 3-4 4-5 1-1 3-4 4-5 1-1 3-2 4-3 1-1 0-2 2-4 1-1 4-3 4-4 0-1 3-1 4-2 1-1 1-1 2-2 1-1 1-2 2-3 1-1 5-1 6-2 1-1 3-1 4-2 2-2 1-3 2-4 1-1 3-1 4-2 1-1 2-1 4-2 4-1 2-3 4-4 3-2 2-4 4-5 3-2 6-2 8-5 2-2 5-3 6-5 1-3 1-5 4-7 2-1 6-4 6-5 1-2 3-4 4-6 1-1 5-3 6-5 0-1 3-2 4-4 0-1 3-2 4-5 1-2 2-3 4-5 2-3 2-5 4-7 2-2 2-4 4-6 2-2 3-4 4-6 1-3 5-5 6-7 1-3 2-5 4-7 2-3 2-5 4-7 2-2 3-4 4-7 1-2 3-4 4-6 1-2 2-5 4-6 3-2 1-3 2-6 1-2 3-4 4-6 1-2 2-5 4-7 2-2 2-4 2-6 0-2 0-4 0-7 0-1 1-2 0-4 -1-2-2-3-4-5 -2-2-3-3-6-5 -3-2-5-4-8-6 -3-2-5-4-8-6 -3-2-8-5-12-8 -3-2-4-3-8-6 -2-2-3-3-6-5 -3-2-2-3-4-4 -3-2-4-4-6-6 -2-2-1-3-4-5 -3-2-6-3-8-4 -3-2-2-3-6-4 -2 0-3 0-4-1 -3-1-4-3-4-4 -1-2-3-3-6-5 -2-1-3-3-4-5 -1-1-3-2-4-4 -2-3-5-4-6-6 -1-2-3-4-4-6 -1-2-5-4-6-7 -1-2-2-4-4-6 -2-2-2-5-4-8 -2-2-4-4-4-6 0-2-1-5-2-7 -1-2-1-4-2-6 -1-2 0-4 0-7 0-3 0-5 0-7 0-2-1-4 0-7 1-3 3-6 4-9 1-4 4-7 6-10 3-6 5-9 6-15 1-4 2-8 4-10 3-5 3-8 4-10 1-3 5-5 6-8 1-3 2-6 4-9 2-4 4-7 6-9 2-2 4-4 6-6 2-3 3-5 4-7 1-2 2-4 4-7 1-1 5-3 6-5 1-2 3-4 4-5 2-3 2-5 4-6 3-2 2-5 4-7 2-2 2-4 4-6 2-3 3-5 4-7 1-2 5-4 6-6 1-3 1-4 2-6 2-2 2-4 2-5 0-1 0-2 0-3 0-1 0-2 0-3 0-1 0-2 0-3 -1-2-3-3-6-5 -2-1-2-2-4-3 -2-1-3-1-4-2 -1-1-2-2-4-2 -2 0-4 0-6 0l-2 0" style="fill:none;stroke-width:5;stroke:#ce4444"/><path d="m2205 765c0 0 0-1 0-2 0-1 0-2 0-3 0-2 0-3 2-5 2-2 2-5 2-7 0-2 0-4 0-6 0-2 0-4 0-6 0-1 0-2 0-3 0-1 0-2 0-3 -1-2-2-3-4-4 -3-2-4-4-6-7 -2-2-2-3-4-5 -2-2-2-4-4-6 -2-2-5-5-8-8 -3-2-9-3-12-6 -3-3-5-5-8-7 -2-1-3-1-6-3 -3-2-4-3-6-5 -2-3-7-4-10-7 -3-2-8-5-12-7 -4-2-6-5-8-6 -4-2-7-3-10-5 -3-2-4-4-6-5 -3-2-3-4-6-7 -3-3-9-4-12-7 -3-2-5-4-8-6 -3-2-3-4-6-6 -2-1-4-3-8-5 -2-1-4-3-8-6 -2-2-8-4-10-7 -2-2-5-4-8-6 -3-2-4-4-6-5 -3-2-6-5-8-7 -4-3-6-5-12-9 -4-3-6-6-10-9 -2-2-6-4-6-5 -1-3-5-5-6-7 -2-2-6-5-10-8 -4-3-6-6-8-9 -3-4-4-6-6-8 -2-2-3-4-4-7 -1-2-5-4-6-6 -1-3-2-6-4-9 -2-3-2-6-4-8 -2-2-3-4-4-7 -1-2-4-4-4-6 0-2-1-5-2-8 -1-3-1-6-2-9 -1-3-3-6-4-9 -1-3 1-5 0-7 -1-2-2-4-2-6 0-3 0-6 0-9 0-2 0-5 0-8 0-3 0-9 0-12 0-3 1-6 2-9 1-2 5-5 6-8 1-3 2-6 4-10 2-3 1-5 4-7 2-1 3-4 6-6 3-2 6-3 8-7 1-2 3-4 6-6 3-2 7-4 10-7 3-3 4-5 6-7 2-3 5-5 8-7 3-2 8-6 12-8 4-2 5-4 8-8 2-2 6-4 8-7 2-2 4-5 6-7 2-2 3-4 4-6 2-3 5-5 8-7 3-2 7-4 10-7 3-2 4-4 6-6 2-2 5-4 6-6 1-2 3-4 4-6 1-2 3-4 8-7 4-2 11-6 16-9 7-4 12-7 18-10 4-3 10-7 14-9 4-2 6-4 10-7 2-2 4-4 6-6 4-3 5-4 8-7 3-2 4-4 6-7 2-2 2-4 4-7 2-2 3-5 4-8 1-3 3-5 4-8 1-3 1-6 2-10 1-3 0-6 0-9 0-3 0-6-2-9 -2-3-2-6-4-9 -2-3-3-6-4-9 -1-4-5-7-6-10 -1-2-2-5-4-7 -2-2-2-5-4-7 -2-2-4-4-6-7 -2-3-3-6-6-8 -3-2-6-5-8-7 -2-3-6-4-8-7 -1-1-2-3-4-4 -2-1-4-2-6-3 -4-1-7-3-8-5 0-1-3-2-4-3 -1-1-2-2-4-2 -3-1-1-2-2-3 -1-1-2-1-4-1l-2 0 -2 0" style="fill:none;stroke-width:5;stroke:#ce4444"/><path d="m588 815c0 0 1 0 2-1 2-2 6-3 10-6 4-2 5-5 8-7 3-2 10-3 12-6 1-1 3-2 6-4 3-2 6-4 10-6 2-1 5-1 6-2 1-1 1-1 4-3 3-2 6-2 10-5 2-2 6-4 10-7 2-2 4-4 8-6 7-4 10-6 16-10 4-3 13-7 18-11 7-5 12-10 16-12 6-4 11-5 14-8 5-3 10-6 12-8 4-3 9-6 14-10 5-3 10-10 16-15 6-5 12-10 18-14 4-3 9-6 14-10 6-4 9-7 14-12 4-4 9-9 12-12 5-6 13-11 18-17 7-7 11-12 16-18 5-6 4-10 8-15 3-4 4-7 6-11 2-4 4-7 6-10 3-5 5-7 8-11 3-5 3-9 6-14 2-3 2-6 4-10 2-5 4-9 6-14 2-5 4-10 6-15 2-7 4-14 6-23 2-8 4-16 6-24 2-9 3-16 4-24 1-8 2-14 2-22 0-9 2-16 2-24 0-8 0-15 0-24 0-10 0-17 0-26 0-10-1-17-2-25 -1-8 0-15-2-23 -2-8-4-15-6-24 -2-9-4-16-8-24 -4-9-8-16-10-23 -2-7-6-12-8-17 -2-6-4-10-6-16 -2-6-8-9-10-14 -1-3-5-5-8-9 -3-3-6-5-8-8 -2-2-2-4-4-7 -2-2-6-4-6-5 -1-3-5-5-6-7 -1-2-4-4-4-5 -1-2-3-2-4-3 -1-1-4-2-6-3 -2-1-2-2-4-3 -2-1-3-2-4-3 -1-1-1-1-2-2 -1-1-3-2-4-3 -1-1-2-1-4-2 -2-1-3-1-4-2 -1-1-2-2-4-3 -2-1-3-1-4-2 -1-1-1-1-2-2 -1-1-3-1-4-2 -1-1-1-2-4-4 -2-1-3-1-4-2 -1-1-1-2-2-3 -1-1-4-1-6-2 -2-1-4-2-4-3l-2 0" style="fill:none;stroke-width:5;stroke:#ce4444"/><path d="m726 104c0 0 4 0 8 1 6 1 12 3 20 7 10 4 17 6 22 9 4 2 8 4 12 7 4 2 8 4 8 6 1 4 5 7 8 10 3 3 7 7 8 10 1 3 3 6 4 9 1 3 2 6 2 9 0 3 0 7 0 10 0 6 0 10 0 16 0 6 0 12 0 19 0 6-1 13 2 22 3 8 4 15 4 22 0 6 0 12 0 19 0 5 1 12 0 19 -1 8-4 15-6 23 -2 8-2 16-2 25 0 9 0 18 0 27 0 9 1 18 0 26 -1 9-3 17-6 26 -3 9-8 18-12 27 -4 9-7 18-10 28 -3 9-6 19-10 29 -4 10-12 18-18 27 -6 9-14 17-20 25 -8 9-12 17-20 27 -8 10-16 18-24 27 -10 10-18 17-26 26 -8 8-18 16-26 24 -8 7-16 14-24 20 -8 6-16 12-24 18 -8 6-17 12-24 18 -7 6-14 11-24 18 -8 6-16 11-24 17 -8 6-14 11-22 15 -8 4-12 7-18 10 -4 2-8 3-10 5l0 1" style="fill:none;stroke-width:5;stroke:#ce4444"/><path d="m2542 669c-235 10-446 88-564-17 -118-106-108-121-463-133 -355-12-392 148-540-14 -148-163-363-107-191-234 172-126 22-155 457-162 434-7 371-84 674 29 302 112 300 48 359 228" style="fill-opacity:null;fill:none;opacity:0.5;stroke-opacity:null;stroke-width:50;stroke:#ce4444"/></g></svg>