<svg xmlns="http://www.w3.org/2000/svg" width="2560" height="800"><style>  .a{fill:#ffe500;stroke-opacity:null;stroke-width:2;stroke:#000;}.b{fill:#ff00e5;stroke-opacity:null;stroke-width:2;stroke:#000;}.c{fill:#f00;stroke-opacity:null;stroke-width:2;stroke:#000;}.d{fill-opacity:null;}</style><title>  background</title><title>  Layer 1</title><title>  background</title><rect height="802" width="2562" y="-1" x="-1" fill="none"/><title>  Layer 1</title><g stroke="null"><path d="m2489.56 799.789c0 0 6.088-0.951 10.146-2.852 4.058-1.901 10.566-3.624 14.205-5.704 4.639-2.651 9.979-4.807 14.205-7.605 5.86-3.88 9.215-6.372 12.175-9.506 3.385-3.584 5.06-7.49 6.088-10.457 1.3-3.753 0-6.654 0-9.506 0-2.852 0-5.704 0-8.556 0-2.852-2.873-6.427-6.088-9.506 -2.819-2.7-7.231-5.421-12.175-10.457 -2.681-2.731-8.511-7.499-14.205-12.358 -6.55-5.59-9.683-8.669-16.234-14.259 -5.694-4.859-16.15-8.586-22.322-12.358 -6.647-4.063-12.175-7.605-18.263-11.408 0 0-14.8-7.345-22.322-11.408 -6.648-3.591-15.257-6.218-22.322-10.457 -7.282-4.369-14.958-7.364-20.292-11.408 -2.386-1.808-7.129-3.417-10.146-5.704 -3.374-2.557-4.351-4.691-6.088-6.654 -2.456-2.777-2.029-4.753-4.058-7.605 -2.029-2.852-4.058-4.753-4.058-7.605 0-1.901-2.029-4.753-2.029-7.605 0-1.901 0-4.753 0-7.605 0-2.852 0-5.704 0-8.556 0-2.852 0-5.704 0-8.556 0-1.901-1.399-3.879 0-6.654 1.043-2.069 3.126-3.853 4.058-5.704 1.043-2.069 3.435-3.979 6.088-5.704 3.356-2.181 6.517-4.481 12.175-6.654 4.439-1.705 9.522-5.881 12.175-7.605 3.356-2.181 6.251-4.265 10.146-6.654 4.441-2.724 9.566-4.004 14.205-6.654 3.639-2.079 8.117-3.803 12.175-5.704 4.058-1.901 6.717-3.535 12.175-6.654 4.639-2.651 14.277-10.936 20.292-15.21 4.739-3.367 10.146-4.753 14.205-8.556 2.029-1.901 6.088-3.803 8.117-6.654 2.029-2.852 6.381-5.641 8.117-7.605 2.456-2.777 5.317-5.389 8.117-8.556 3.96-4.478 5.172-10.28 8.117-15.21 3.326-5.569 4.058-11.408 6.088-16.161 2.029-4.753 3.083-8.593 4.058-11.408 1.028-2.967 2.029-5.704 2.029-8.556 0-2.852-1.001-5.588-2.029-8.556 -0.975-2.815-3.031-5.588-4.058-8.556 -0.975-2.815-1.603-5.778-4.058-8.556 -3.473-3.928-7.186-5.421-10.146-8.556 -3.385-3.584-5.464-6.831-8.117-8.556 -5.034-3.272-10.593-6.459-16.234-9.506 -6.648-3.591-12.175-7.605-18.263-12.358 -6.088-4.753-13.229-9.086-18.263-12.358 -5.306-3.449-8.537-6.476-12.175-8.556 -4.639-2.651-6.79-5.424-10.146-7.605 -2.653-1.724-3.995-4.194-8.117-7.605 -4.242-3.51-11.463-6.84-16.234-10.457 -5.334-4.043-11.819-6.747-14.205-8.556 -5.334-4.043-8.961-6.427-12.175-9.506 -2.819-2.7-1.719-5.743-4.058-9.506 -1.794-2.886-4.058-4.753-4.058-7.605 0-2.852 0-5.704 0-8.556 0-2.852 0-5.704 0-8.556 0-3.803 3.036-5.616 4.058-9.506 0.744-2.831 2.322-5.641 4.058-7.605 2.456-2.777 2.029-4.753 4.058-7.605 2.029-2.852 5.06-5.588 6.088-8.556 0.975-2.815 5.06-4.638 6.088-7.605 0.65-1.877 3.143-4.535 6.088-8.556 3.358-4.585 6.387-6.601 10.146-11.408 2.207-2.823 5.921-4.17 8.117-6.654 1.553-1.757 1.862-3.856 6.088-6.654 5.86-3.88 7.333-5.035 12.175-7.605 3.003-1.594 5.06-2.736 6.088-5.704 0.325-0.938 3.016-2.684 4.058-4.753 0.932-1.85 3.016-2.684 4.058-4.753 0.466-0.925 3.016-1.734 4.058-3.802 0.466-0.925 2.624-2.18 4.058-2.852 2.87-1.344 1.405-2.078 4.058-3.803 1.678-1.091 2.879-3.25 6.088-4.753 3.209-1.503 4.761-3.523 8.117-5.704 2.653-1.724 6.474-3.69 10.146-6.654 2.278-1.839 5.942-4.383 10.146-6.654 2.973-1.606 4.989-2.56 6.088-3.803 0.777-0.878 2.96-1.61 4.058-2.852 1.553-1.757 2.029-1.901 2.029-2.852 0-0.951 2.029-1.901 2.029-2.852 0-0.951 0-2.852 0-3.803 0-1.901 0-2.852 0-3.803 0-0.951-1.007-1.814-2.029-5.704 -0.496-1.887-1.097-2.903-2.029-4.753 -1.043-2.069-2.029-3.803-4.058-4.753 -2.029-0.951-2.624-2.18-4.058-2.852 -1.435-0.672-2.96-1.61-4.058-2.852 -0.777-0.878-2.029-1.901-2.029-2.852l-2.029-0.951 -2.029-0.951 -2.029-0.951" style="fill:none;stroke-width:2;stroke:#ce4444"/><path d="m2160.824 98.223c0 0 0 2.852 2.029 5.704 2.029 2.852 5.42 7.807 12.175 12.358 7.418 4.998 13.965 10.526 20.292 15.21 7.825 5.793 13.415 10.608 16.234 13.309 3.215 3.079 7.691 7.68 10.146 10.457 3.473 3.928 5.169 7.712 8.117 12.358 3.114 4.907 9.082 9.375 12.175 15.21 2.975 5.612 2.571 10.5 4.058 16.161 1.022 3.89 3.036 8.468 4.058 12.358 1.24 4.718 0 8.556 0 14.259 0 4.753 1.2 11.435 0 17.111 -1.02 4.824-3.222 9.523-4.058 14.259 -1.018 5.763-4.399 8.48-8.117 12.358 -4.477 4.67-6.088 7.605-12.175 12.358 -6.088 4.753-11.936 8.625-18.263 13.309 -3.913 2.896-8.952 7.039-16.234 11.408 -7.064 4.239-10.962 8.122-20.292 12.358 -7.286 3.308-14.301 6.595-22.322 9.506 -10.272 3.728-16.108 7.68-26.38 11.408 -8.021 2.911-14.079 6.729-24.351 10.457 -8.021 2.911-13.65 6.934-22.322 10.457 -7.665 3.114-14.205 6.654-22.322 10.457 -6.088 2.852-15.349 6.053-22.322 9.506 -10.056 4.98-14.8 10.197-22.322 14.259 -6.648 3.591-10.593 7.41-16.234 10.457 -6.648 3.591-12.562 8.443-16.234 11.408 -6.833 5.516-10.843 9.389-14.205 14.259 -5.148 7.459-6.281 11.386-8.117 15.21 -2.27 4.729-2.859 9.534-4.058 15.21 -1.02 4.824-2.866 10.473-2.029 15.21 1.018 5.763 4.058 10.457 6.088 16.161 2.029 5.704 4.058 10.457 8.117 16.161 4.058 5.704 7.855 11.459 12.175 16.161 11.487 12.502 18.66 19.86 26.38 26.618 6.423 5.622 14.205 11.408 22.322 18.062 8.117 6.654 13.742 12.472 20.292 18.062 5.694 4.859 11.936 7.674 18.263 12.358 7.825 5.793 15.489 10.645 22.322 16.161 7.345 5.929 24.156 16.223 32.468 21.865 9.916 6.73 20.848 12.108 34.497 19.013 12.712 6.431 24.581 12.282 34.497 19.013 8.312 5.642 16.91 11.17 30.439 19.963 4.278 2.781 11.873 6.165 16.234 10.457 3.596 3.539 6.932 6.427 10.146 9.506 2.819 2.7 4.058 6.654 6.088 8.556 2.029 1.901 2.029 3.803 2.029 5.704 0 1.901 0 4.753 0 6.654 0 1.901-1.007 3.715-2.029 7.605 -0.744 2.831-1.097 4.804-2.029 6.654 -1.042 2.069-5.045 3.635-6.088 5.704 -1.399 2.776-2.96 4.462-4.058 5.704 -0.777 0.878 0 1.901-2.029 2.852l0 0.951" style="fill:none;stroke-width:2;stroke:#ce4444"/><path d="m1560.171 754.159c0 0 4.436-0.658 8.117-1.901 6.984-2.358 10.619-3.413 18.263-5.704 10.945-3.281 15.72-7.958 24.351-10.457 7.72-2.235 16.234-5.704 24.351-9.506 6.088-2.852 14.205-6.654 20.292-9.506 8.117-3.803 13.624-7.806 18.263-10.457 5.458-3.119 9.95-6.671 12.175-12.358 1.865-4.768 3.222-10.473 4.058-15.21 1.018-5.763 2.029-13.309 2.029-20.914 0-8.556-0.808-16.244-4.058-24.716 -2.96-7.715-7.363-15.336-14.205-23.766 -10.984-13.534-18.263-19.963-26.38-25.667 -16.234-11.408-23.829-17.293-34.497-23.766 -9.686-5.877-21.789-14.485-36.526-21.865 -25.487-12.763-42.676-19.929-56.818-25.667 -16.306-6.616-29.295-10.875-42.614-16.161 -10.948-4.345-23.264-8.047-30.438-11.408 -7.175-3.361-22.322-12.358-28.409-15.21 -8.117-3.803-13.786-6.738-18.263-11.408 -11.153-11.635-17.044-16.064-20.292-22.815 -2.714-5.641-5.073-12.336-6.088-27.568 -0.507-7.601-1.736-21.914 0-28.519 2.045-7.78 9.345-13.483 16.234-19.963 7.293-6.861 13.869-12.44 20.292-18.062 7.72-6.757 16.039-12.42 24.351-18.062 9.916-6.73 29.378-12.812 40.585-18.062 11.207-5.25 22.383-10.405 40.585-15.21 14.253-3.762 28.471-7.554 46.672-12.358 14.253-3.762 26.842-9.217 40.585-14.259 14.729-5.404 26.668-10.28 50.731-19.013 10.272-3.728 21.885-7.821 30.438-11.408 9.682-4.06 21.765-6.392 30.438-9.506 8.053-2.891 14.669-7.348 24.351-11.408 6.415-2.69 12.175-4.753 18.263-8.556 6.088-3.803 12.41-7.571 14.205-10.457 2.339-3.763 4.058-6.654 4.058-9.506 0-1.901 1.399-3.879 0-6.654 -1.043-2.069-8.117-4.753-12.175-6.654 -4.058-1.901-9.031-4.231-14.205-6.654 -5.174-2.424-13.634-5.048-20.292-7.605 -5.658-2.173-14.153-3.822-22.322-8.556 -2.853-1.653-6.088-3.803-8.117-4.753l-2.029 0" style="fill:none;stroke-width:2;stroke:#ce4444"/><path d="m1140.12 169.521c0 0 2.908 4.565 8.117 10.457 7.367 8.332 13.8 16.269 24.351 24.716 15.642 12.525 36.324 28.302 56.819 40.877 16.567 10.165 36.589 21.838 54.789 31.371 16.29 8.532 27.946 15.324 34.497 20.914 5.694 4.859 9.322 8.084 14.205 12.358 4.062 3.556 10.381 6.62 12.175 9.506 2.339 3.763 5.065 8.468 6.088 12.358 1.24 4.718 2.029 10.457 2.029 15.21 0 5.704-4.812 10.216-10.146 14.259 -7.157 5.425-12.248 10.936-18.263 15.21 -6.319 4.489-15.685 8.773-24.351 13.309 -11.483 6.01-22.675 12.429-40.585 18.062 -18.836 5.924-38.052 11.109-58.848 14.259 -23.883 3.618-50.731 6.654-75.082 9.506 -24.351 2.852-46.738 6.533-71.023 9.506 -22.385 2.741-42.969 7.213-62.906 11.408 -16.557 3.483-33.659 10.201-50.731 14.259 -19.49 4.633-38.984 8.224-52.76 12.358 -14.699 4.411-27.769 7.726-38.555 12.358 -9.577 4.113-17.348 7.231-24.351 12.358 -4.891 3.581-8.117 6.654-10.146 9.506 -2.029 2.852-5.067 12.373-4.058 19.963 1.017 7.649 8.117 17.111 20.292 26.618 12.175 9.506 30.439 19.013 48.702 27.568 12.175 5.704 29.73 13.72 44.643 19.013 17.496 6.209 39.35 11.666 66.965 17.111 31.352 6.182 72.765 11.846 117.696 18.062 44.379 6.14 93.135 11.014 135.959 14.259 30.314 2.297 55.132 2.622 79.14 4.753 20.815 1.848 36.526 4.753 50.731 5.704 14.205 0.951 26.739 2.229 36.526 3.803 12.876 2.07 24.351 5.704 36.526 8.556 12.175 2.852 24.748 5.37 32.468 7.605 8.631 2.499 14.205 4.753 20.292 7.605 2.029 0.951 4.058 1.901 4.058 2.852 0 0.951 1.067 2.043 0 2.852 -2.386 1.808-7.293 4.29-12.175 5.704 -5.459 1.58-14.352 4.641-24.351 7.605 -12.365 3.666-24.722 7.23-38.555 10.457 -14.645 3.416-28.178 7.83-44.643 11.408 -14.02 3.046-26.16 5.89-40.585 9.506 -12.002 3.009-24.528 4.557-34.497 6.654 -12.418 2.612-26.405 3.725-40.585 4.753 -12.198 0.884-24.243 2.375-38.555 2.852 -16.193 0.539-36.526 0-54.789 0 -18.263 0-38.571 0.356-56.818 0 -24.414-0.476-48.686-1.996-73.052-2.852 -30.421-1.069-58.797-3.327-89.286-3.803 -24.337-0.38-58.848-0.951-68.994-0.951l-4.058 0" style="fill:none;stroke-width:2;stroke:#ce4444"/><path d="m389.304 714.233c0 0 2.029 0 4.058 0 4.059 0 10.533 0.549 18.263-0.951 10.932-2.121 28.602-5.486 48.702-9.506 22.55-4.511 44.898-9.293 66.965-15.21 20.538-5.507 37.94-11.666 50.731-18.062 6.937-3.469 13.005-9.294 18.263-14.259 4.856-4.586 8.399-10.432 10.146-15.21 2.423-6.625 4.058-14.259 4.058-21.865 0-8.556-4.361-17.061-12.175-27.568 -8.445-11.355-18.536-22.314-32.468-33.272 -12.675-9.97-28.409-18.062-42.614-26.618 -14.205-8.556-26.622-15.067-44.643-21.865 -12.344-4.656-26.38-10.457-40.584-17.111 -12.176-5.704-24.801-9.207-36.526-13.309 -12.699-4.442-23.29-9.009-34.497-14.259 -11.207-5.25-22.322-11.408-34.497-19.013 -12.175-7.605-28.337-16.567-38.555-25.667 -10.175-9.061-20.006-16.818-24.351-23.766 -3.471-5.549-3.04-10.398-4.058-16.161 -1.172-6.632-1.689-11.463 0-17.111 2.049-6.854 6.598-11.761 16.234-19.963 10.583-9.008 21.816-16.331 36.526-25.667 13.741-8.72 32.468-18.062 50.731-27.568 18.263-9.506 36.589-18.986 54.789-28.519 16.29-8.532 43.595-24.225 58.848-31.371 15.253-7.146 28.409-11.408 38.555-16.161 12.175-5.704 23.161-10.101 30.438-14.259 4.639-2.651 10.849-5.424 14.205-7.605 2.653-1.724 7.089-4.638 8.117-7.605 0.975-2.815 3.016-5.536 4.058-7.605 1.399-2.776 0.426-4.828-2.029-7.605 -6.946-7.855-14.951-12.894-22.322-16.161 -10.63-4.711-22.321-5.704-30.438-9.506 -6.088-2.852-15.818-4.962-22.322-7.605 -7.665-3.114-13.308-5.247-20.292-7.605 -3.681-1.243-7.293-3.34-12.175-4.753 -5.459-1.58-10.306-2.652-16.234-3.802 -4.192-0.813-5.466-2.337-8.117-2.852 -1.875-0.364-2.184-0.587-4.059-0.951 -2.651-0.514-4.058-1.901-6.088-2.852l0-0.951 -2.029 0 -2.029 0" style="fill:none;stroke-width:2;stroke:#ce4444"/><path d="m1868.614 744.653c6.088 0 10.146-1.901 14.205-3.803 6.088-2.852 9.401-6.843 16.234-12.358 7.345-5.929 18.695-11.67 26.38-19.013 9.327-8.911 13.274-18.902 16.234-26.618 3.25-8.473 2.029-16.161 2.029-23.766 0-7.605 1.007-14.276 0-20.914 -1.017-6.705-4.419-13.228-10.146-19.013 -6.502-6.568-12.175-12.358-20.292-19.013 -8.117-6.654-15.712-15.392-26.38-21.865 -9.686-5.877-20.415-11.36-30.438-17.111 -8.218-4.715-14.834-8.289-20.292-11.408 -4.639-2.651-9.059-5.195-16.234-8.556 -7.174-3.361-15.074-8.007-24.351-13.309 -10.916-6.238-20.623-12.075-34.497-19.013 -12.791-6.396-23.157-11.792-30.438-16.161 -5.298-3.179-10.146-5.704-12.175-7.605 -2.029-1.901-4.058-3.803-4.058-5.704 0-2.852 0-6.654 0-12.358 0-3.803 1.722-9.549 6.088-16.161 3.793-5.744 10.146-12.358 16.234-19.013 6.088-6.654 14.417-14.636 22.322-21.865 6.671-6.101 16.234-12.358 24.351-19.013 8.117-6.654 17.779-12.493 26.38-19.013 7.693-5.831 16.234-9.506 24.351-14.259 8.117-4.753 16.234-9.506 24.351-15.21 8.117-5.704 15.75-11.542 24.351-18.062 7.693-5.831 16.631-14.157 24.351-20.914 8.564-7.497 16.58-16.091 24.351-24.716 8.498-9.433 17.199-17.675 20.292-25.667 2.172-5.612 2.355-10.422 4.058-14.259 2.513-5.661 3.339-11.42 4.058-16.161 1.017-6.705 3.164-11.424 2.029-19.963 -1.017-7.649-5.287-14.433-12.175-20.914 -7.293-6.861-13.69-11.561-20.292-16.161 -5.661-3.944-8.933-9.072-18.263-13.309 -7.286-3.308-12.805-6.387-18.263-9.506 -4.639-2.651-10.146-6.654-12.175-8.556 -2.029-1.901-2.38-3.663-4.058-4.753 -2.653-1.724-4.058-2.852-4.058-3.803l-2.029-0.951 -2.029-0.951" style="fill:none;stroke-width:2;stroke:#ce4444"/><path d="m379.157 758.912c4.059-0.951 10.146-0.951 16.234-1.901 6.088-0.951 14.119-2.976 26.38-4.753 14.113-2.045 28.322-4.857 48.701-8.556 16.167-2.934 33.826-6.249 50.731-10.457 17.649-4.393 34.092-7.045 71.023-15.21 18.074-3.996 34.373-8.631 52.76-15.21 16.126-5.77 31.115-11.17 44.643-19.963 12.834-8.342 27.128-16.888 38.555-25.667 10.877-8.356 21.466-16.888 28.409-25.667 7.361-9.307 14.08-19.019 16.234-27.568 1.918-7.611 2.029-17.111 2.029-24.716 0-8.556-4.819-16.315-10.146-24.716 -4.937-7.786-13.721-15.345-22.322-21.864 -7.693-5.831-18.263-11.408-30.438-17.111 -10.146-4.753-21.451-10.136-36.526-14.259 -29.008-7.934-48.702-11.408-64.936-14.259 -16.234-2.852-36.059-5.623-56.818-7.605 -18.005-1.719-40.638-2.896-83.199-1.901 -20.368 0.476-36.928 2.503-48.701 5.704 -12.656 3.441-20.166 6.699-26.38 10.457 -7.957 4.812-17.419 10.037-26.38 16.161 -11.812 8.073-24.692 15.076-36.526 21.865 -14.635 8.395-27.334 16.782-40.585 25.667 -10.964 7.352-23.969 16.234-32.468 25.667 -7.771 8.626-17.008 17.637-22.322 27.568 -4.467 8.35-4.058 18.062-4.058 25.667 0 7.605-1.151 15.229 0 22.815 1.017 6.705 3.376 14.529 8.117 21.865 3.945 6.103 8.842 11.649 14.205 17.111 4.944 5.036 11.757 9.589 16.234 14.259 3.717 3.878 10.02 7.65 16.234 11.408 7.957 4.812 18.162 9.564 30.438 14.259 10.064 3.85 22.132 7.742 34.497 11.408 9.998 2.964 20.56 5.471 28.409 7.605 6.328 1.72 12.259 3.657 20.292 4.753 6.161 0.84 12.102 2.011 18.263 2.852 8.033 1.096 14.205 0.951 20.292 0.951 6.088 0 12.176 0 16.234 0 4.059 0 10.146 0 14.205 0l2.029 0 4.059 0 6.088-0.951" style="fill:none;stroke-width:2;stroke:#ce4444"/><path d="m1418.125 651.491c0 0 5.389-1.32 12.175-3.803 9.326-3.411 15.435-5.275 26.38-8.556 11.466-3.437 25.117-6.086 38.555-10.457 13.018-4.235 29.71-10.675 44.643-17.111 17.981-7.751 34.331-17.507 46.672-27.568 14.476-11.801 28.351-23.774 36.526-36.124 10.075-15.22 20.034-30.288 24.351-45.63 3.458-12.288 5.072-23.733 6.088-34.223 1.103-11.396 2.218-20.098-2.029-31.371 -4.021-10.674-8.956-22.689-34.497-42.778 -12.675-9.97-27.331-19.372-40.585-27.568 -11.297-6.986-25.525-13.735-40.585-19.963 -17.345-7.173-34.037-10.867-52.76-15.21 -31.759-7.367-48.327-10.45-64.935-11.408 -16.112-0.929-33.056-1.023-66.965 3.803 -16.589 2.361-58.452 12.715-85.228 19.013 -30.019 7.06-60.877 14.259-87.257 20.914 -26.38 6.654-59.227 14.021-81.169 21.865 -20.66 7.385-36.315 16.601-46.672 25.667 -12.448 10.896-20.208 38.028-22.322 50.383 -1.952 11.411-3.041 22.825-2.029 34.223 1.016 11.437 5.119 21.949 10.146 33.272 5.111 11.512 14.683 23.177 28.409 35.173 14.633 12.789 38.679 30.374 64.935 45.63 24.466 14.216 48.18 28.799 68.994 37.075 19.812 7.878 37.763 16.692 54.789 21.865 17.529 5.325 33.152 8.923 48.702 13.309 14.955 4.218 30.135 7.963 44.643 10.457 25.911 4.454 38.405 5.226 48.702 5.704 12.116 0.562 20.371 0.457 26.38 0 6.334-0.482 12.102-2.011 18.263-2.852 8.033-1.096 12.804-2.222 18.263-3.803 4.882-1.414 10.146-2.852 16.234-4.753l4.058-0.951" style="fill:none;stroke-width:2;stroke:#ce4444"/><path d="m2108.064 662.898c8.117-1.901 17.921-4.012 28.409-7.605 11.812-4.046 24.823-7.351 36.526-12.358 14.834-6.346 33.386-12.79 50.731-19.963 19.363-8.008 34.983-15.939 52.76-24.716 18.79-9.278 37.417-18.711 54.789-30.42 19.276-12.992 35.506-29.227 48.702-41.828 17.605-16.811 30.712-31.331 40.585-46.581 10.436-16.12 14.127-30.423 16.234-43.729 1.957-12.361 3.858-24.749 2.029-36.124 -5.087-31.639-14.512-43.059-22.322-52.285 -8.364-9.88-23.219-18.664-36.526-26.618 -15.28-9.133-28.894-17.814-46.672-25.667 -18.792-8.301-33.99-15.527-52.76-21.865 -17.806-6.012-36.088-11.079-52.76-13.309 -9.95-1.331-22.322-1.901-32.468-1.901 -12.175 0-26.424-0.081-42.614 1.901 -22.385 2.741-46.32 6.388-77.111 9.506 -48.259 4.887-101.828 7.756-162.339 14.26 -55.167 5.93-104.306 12.468-146.105 21.864 -31.101 6.992-57.074 17.359-75.082 31.371 -21.064 16.39-35.889 39.564-46.672 65.594 -8.967 21.646-8.117 43.729-8.117 64.643 0 20.914 8.5 38.92 20.292 57.038 10.488 16.113 25.314 37.74 50.731 61.791 21.776 20.606 50.939 41.473 81.169 60.84 23.008 14.741 44.58 25.693 58.848 33.272 16.162 8.585 29.339 16.709 48.702 24.716 17.345 7.173 37.616 14.057 60.877 19.963 21.557 5.473 46.552 9.68 71.023 13.309 20.198 2.996 41.894 7.054 68.994 9.506 23.992 2.171 48.702 1.901 66.965 1.901 16.234 0 28.409-1.901 40.585-4.753l6.088-1.901 12.175-3.803" style="fill:none;stroke-width:2;stroke:#ce4444"/><path d="m72.743 792.184c0 0 2.623 0.672 4.058 0 1.435-0.672 2.96-1.61 4.059-2.852 0.777-0.878 0.154-1.538 2.029-1.901 2.651-0.514 2.96-1.61 4.059-2.852 0.777-0.878 3.016-1.734 4.058-3.803 0.466-0.925 2.96-1.61 4.059-2.852 0.777-0.878 0-1.901 0-2.852 0-1.901 1.001-2.736 2.029-5.704 0.325-0.938 0-1.901 0-2.852 0-1.901 0-3.803 0-4.753 0-1.901 0-3.803 0-5.704 0-1.901 0-3.803 0-5.704 0-1.901-0.987-4.586-2.029-6.654 -0.932-1.85-0.987-3.635-2.029-5.704 -0.932-1.85-1.097-4.804-2.029-6.654 -1.042-2.069-2.029-3.803-2.029-5.704 0-1.901-2.322-4.691-4.059-6.654 -2.456-2.777-2.223-5.682-4.058-9.506 -2.27-4.729-3.818-9.53-6.088-14.259 -1.836-3.824-2.819-7.641-4.058-12.358 -1.022-3.89-3.036-7.517-4.059-11.408 -0.744-2.831-2.029-7.605-2.029-11.408 0-3.803 0-6.654 0-11.408 0-4.753 0-10.457 0-15.21 0-5.704-0.8-10.475 0-14.259 1.02-4.824 3.03-7.49 4.058-10.457 1.3-3.753 2.412-6.601 4.059-9.506 2.656-4.685 5.065-8.468 6.088-12.358 1.24-4.718 2.171-9.496 4.058-15.21 2.194-6.643 4.059-11.408 6.088-17.111 2.029-5.704 2.762-10.592 6.088-16.161 2.945-4.93 6.852-9.399 10.146-15.21 2.656-4.685 4.823-10.35 8.117-16.161 2.656-4.685 4.791-10.592 8.117-16.161 2.945-4.93 8.587-9.438 12.176-15.21 2.339-3.763 5.214-9.633 8.117-13.309 6.297-7.975 12.175-12.358 18.263-18.062 6.088-5.704 14.576-15.126 22.322-22.815 8.529-8.467 15.472-16.35 24.351-23.766 9.364-7.822 20.472-13.254 28.409-19.013 10.384-7.534 21.952-13.525 34.497-18.062 13.817-4.998 26.83-9.207 38.555-13.309 12.699-4.442 24.079-8.754 36.526-12.358 13.917-4.029 30.546-10.39 46.672-16.161 18.387-6.579 37.675-14.778 62.906-23.766 25.54-9.098 50.731-17.111 77.111-23.766 26.38-6.654 48.702-13.309 71.023-19.013 22.322-5.704 42.527-11.511 62.906-15.21 16.167-2.934 34.497-6.654 52.76-8.556l20.292-0.951 18.263-0.951 24.351-0.951" style="fill:none;stroke-width:5;stroke:#ce4444"/><path d="m2473.326 800.74c2.029 0 2.029-0.951 4.058-0.951 2.029 0 4.99-0.659 6.088-1.901 0.777-0.878 2.624-1.229 4.058-1.901 1.435-0.672 2.96-0.659 4.058-1.901 0.777-0.878 0.594-1.229 2.029-1.901 1.435-0.672 2.624-0.278 4.058-0.951 1.435-0.672 0.594-1.229 2.029-1.901 1.435-0.672 2.029-0.951 4.058-1.901 2.029-0.951 2.029-1.901 4.058-2.852 2.029-0.951 3.282-1.023 4.058-1.901 1.098-1.242 4.058-1.901 6.088-2.852 2.029-0.951 0.594-2.18 2.029-2.852 1.435-0.672 2.96-0.659 4.058-1.901 0.777-0.878 0-1.901 0-2.852 0-0.951 2.029-1.901 2.029-2.852 0-0.951 0-2.852 0-3.803 0-0.951 0-1.901 0-2.852 0-0.951 0-1.901 0-2.852 0-0.951 0-1.901 0-2.852 0-0.951-2.029-1.901-2.029-2.852 0-0.951 0.777-1.974 0-2.852 -1.098-1.242-2.624-1.229-4.058-1.901 -1.435-0.672-0.594-2.18-2.029-2.852 -1.435-0.672-3.016-2.684-4.058-4.753 -0.466-0.925-3.016-2.684-4.058-4.753 -0.466-0.925-2.96-1.61-4.058-2.852 -1.553-1.757-2.96-1.61-4.058-2.852 -2.33-2.635-1.563-2.877-2.029-3.803 -1.043-2.069-4.989-2.56-6.088-3.803 -1.553-1.757-2.96-3.511-4.058-4.753 -1.553-1.757-2.96-3.511-4.058-4.753 -0.777-0.878-1.253-1.974-2.029-2.852 -1.098-1.242-1.189-2.458-4.058-3.803 -2.87-1.344-5.464-2.078-8.117-3.803 -3.356-2.181-7.074-3.635-8.117-5.704 -0.466-0.925-3.435-3.029-6.088-4.753 -1.678-1.091-2.505-2.046-4.058-3.803 -2.196-2.484-4.715-2.396-8.117-3.803 -5.485-2.268-6.298-3.713-8.117-4.753 -4.639-2.651-8.819-4.473-12.175-6.654 -2.653-1.724-6.394-2.314-10.146-4.753 -2.373-1.542-3.282-1.974-4.058-2.852 -1.098-1.242-4.653-1.229-6.088-1.901 -1.435-0.672-2.029-1.901-4.058-2.852 -2.029-0.951-4.436-2.56-8.117-3.803 -4.656-1.572-5.466-3.288-8.117-3.803 -1.875-0.364-2.96-0.659-4.058-1.901 -0.777-0.878-2.96-0.659-4.058-1.901 -0.777-0.878-2.992-2.043-4.058-2.852 -2.385-1.808-4.058-1.901-6.088-2.852 -2.029-0.951-2.96-1.61-4.058-2.852 -0.777-0.878-2.96-1.61-4.058-2.852 -0.777-0.878-1.563-1.927-2.029-2.852 -1.043-2.069-2.96-3.511-4.058-4.753 -0.777-0.878-2.029-1.901-2.029-3.803 0-1.901-0.931-2.56-2.029-3.803 -0.777-0.878 0-2.852 0-3.803 0-0.951-0.931-2.56-2.029-3.803 -1.553-1.757-0.931-3.511-2.029-4.753 -1.553-1.757 0.466-2.877 0-3.803 -1.043-2.069-2.96-2.56-4.058-3.803 -1.553-1.757 0-3.803 0-4.753 0-1.901 0-3.803 0-4.753 0-0.951 0-1.901 0-2.852 0-0.951 0-1.901 0-2.852 0-0.951 0-1.901 0-2.852 0-0.951 0-3.803 0-4.753 0-0.951-0.777-1.974 0-2.852 1.098-1.242 3.592-1.927 4.058-2.852 1.043-2.069 2.96-3.511 4.058-4.753 0.777-0.878 2.96-3.511 4.058-4.753 0.777-0.878 2.624-2.18 4.058-2.852 1.435-0.672 0.476-2.046 2.029-3.803 1.098-1.242 4.058-2.852 4.058-3.803 0-0.951 2.96-0.659 4.058-1.901 0.777-0.878 0.594-1.229 2.029-1.901 1.435-0.672 0.594-2.18 2.029-2.852 1.435-0.672 4.99-0.659 6.088-1.901 0.777-0.878 2.96-0.659 4.058-1.901 1.553-1.757 0.594-3.13 2.029-3.803 1.435-0.672 3.282-1.023 4.058-1.901 1.098-1.242 2.332-1.402 4.058-1.901 3.86-1.118 2.38-2.712 4.058-3.803 2.653-1.724 2.38-3.663 4.058-4.753 2.653-1.724 5.92-2.269 8.117-4.753 1.553-1.757 5.045-2.684 6.088-4.753 1.399-2.776 1.405-4.93 4.058-6.654 1.678-1.091 5.621-3.828 6.088-4.753 1.043-2.069 2.505-3.947 4.058-5.704 1.098-1.242 5.045-2.684 6.088-4.753 0.466-0.925 3.016-1.734 4.058-3.803 0.466-0.925 3.031-1.786 4.058-4.753 0.65-1.877 2.322-2.789 4.058-4.753 2.456-2.777 2.029-4.753 4.058-6.654 2.029-1.901 2.029-3.803 4.058-5.704 2.029-1.901 3.408-3.827 4.058-5.704 1.028-2.967 5.045-4.586 6.088-6.654 1.399-2.776 2.322-4.691 4.058-6.654 2.456-2.777 2.029-4.753 4.058-6.654 2.029-1.901 2.66-3.879 4.058-6.654 1.043-2.069 3.126-3.853 4.058-5.704 1.043-2.069 2.38-4.613 4.058-5.704 2.653-1.724 0.631-2.928 2.029-5.704 1.043-2.069 3.126-3.853 4.058-5.704 1.043-2.069 2.029-4.753 4.058-6.654 2.029-1.901 2.029-3.803 2.029-5.704 0-1.901 0-3.803 0-6.654 0-0.951 0.932-1.952 0-3.803 -1.043-2.069-2.029-2.852-4.058-4.753 -2.029-1.901-2.732-2.572-6.088-4.753 -2.653-1.724-4.761-3.523-8.117-5.704 -2.653-1.724-5.464-3.979-8.117-5.704 -3.356-2.181-7.971-5.334-12.175-7.605 -2.973-1.606-4.445-2.739-8.117-5.704 -2.277-1.839-2.732-2.572-6.088-4.753 -2.653-1.724-2.38-2.712-4.058-3.803 -2.653-1.724-4.058-3.803-6.088-5.704 -2.029-1.901-1.405-3.029-4.058-4.753 -3.356-2.181-6.439-2.712-8.117-3.803 -2.653-1.724-2.228-2.685-6.088-3.803 -1.726-0.5-2.624-0.278-4.058-0.951 -2.87-1.344-3.592-2.877-4.058-3.803 -1.043-2.069-3.435-3.029-6.088-4.753 -1.678-1.091-2.505-2.997-4.058-4.753 -1.098-1.242-2.882-1.983-4.058-3.803 -2.12-3.28-5.155-3.853-6.088-5.704 -1.043-2.069-3.126-3.853-4.058-5.704 -1.043-2.069-5.06-3.687-6.088-6.654 -0.65-1.877-2.029-3.803-4.058-5.704 -2.029-1.901-1.603-4.828-4.058-7.605 -1.736-1.964-4.058-3.803-4.058-5.704 0-1.901-0.987-4.586-2.029-6.654 -0.932-1.85-0.987-3.635-2.029-5.704 -0.932-1.85 0-3.802 0-6.654 0-2.852 0-4.753 0-6.654 0-1.901-0.975-3.839 0-6.654 1.028-2.967 3.315-5.725 4.058-8.556 1.022-3.89 4.384-6.619 6.088-10.457 2.513-5.661 5.07-9.447 6.088-15.21 0.669-3.79 2.411-7.551 4.058-10.457 2.656-4.685 3.083-7.642 4.058-10.457 1.028-2.967 5.06-4.638 6.088-7.605 0.975-2.815 2.264-5.669 4.058-8.556 2.339-3.763 4.058-6.654 6.088-8.556 2.029-1.901 4.351-3.74 6.088-5.704 2.456-2.777 3.126-4.804 4.058-6.654 1.043-2.069 1.729-4.02 4.058-6.654 1.098-1.242 5.045-2.684 6.088-4.753 0.932-1.85 2.96-3.511 4.058-4.753 2.33-2.635 2.38-4.613 4.058-5.704 2.653-1.724 2.029-4.753 4.058-6.654 2.029-1.901 2.322-3.74 4.058-5.704 2.456-2.777 3.126-4.804 4.058-6.654 1.043-2.069 5.045-3.635 6.088-5.704 1.399-2.776 0.931-4.462 2.029-5.704 1.553-1.757 2.029-3.803 2.029-4.753 0-0.951 0-1.901 0-2.852 0-0.951 0-1.901 0-2.852 0-0.951 0.466-1.927 0-2.852 -1.043-2.069-3.435-3.029-6.088-4.753 -1.678-1.091-2.029-1.901-4.058-2.852 -2.029-0.951-3.282-1.023-4.058-1.901 -1.098-1.242-2.029-1.901-4.058-1.901 -2.029 0-4.058 0-6.088 0l-2.029 0" style="fill:none;stroke-width:5;stroke:#ce4444"/><path d="m2205.467 764.616c0 0 0-0.951 0-1.901 0-0.951 0-1.901 0-2.852 0-1.901 0-2.852 2.029-4.753 2.029-1.901 2.029-4.753 2.029-6.654 0-1.901 0-3.803 0-5.704 0-1.901 0-3.803 0-5.704 0-0.951 0-1.901 0-2.852 0-0.951 0.466-1.927 0-2.852 -1.043-2.069-2.38-2.712-4.058-3.803 -2.653-1.724-3.891-4.17-6.088-6.654 -1.553-1.757-2.029-2.852-4.058-4.753 -2.029-1.901-2.029-3.803-4.058-5.704 -2.029-1.901-4.743-5.048-8.117-7.605 -3.017-2.287-9.158-3.417-12.175-5.704 -3.374-2.557-5.464-4.93-8.117-6.654 -1.678-1.091-2.879-1.349-6.088-2.852 -3.208-1.503-4.351-2.789-6.088-4.753 -2.456-2.777-6.79-4.473-10.146-6.654 -2.653-1.724-8.117-4.753-12.175-6.654 -4.058-1.901-6.088-4.753-8.117-5.704 -4.058-1.901-6.938-3.25-10.146-4.753 -3.209-1.503-4.41-3.663-6.088-4.753 -2.653-1.724-3.215-4.14-6.088-6.654 -3.452-3.022-8.802-4.097-12.175-6.654 -3.017-2.287-5.464-3.979-8.117-5.704 -3.356-2.181-3.435-3.979-6.088-5.704 -1.678-1.091-4.058-2.852-8.117-4.753 -2.029-0.951-4.445-2.739-8.117-5.704 -2.278-1.839-7.69-3.877-10.146-6.654 -1.736-1.964-4.761-3.523-8.117-5.704 -2.653-1.724-4.41-3.663-6.088-4.753 -2.653-1.724-5.839-4.816-8.117-6.654 -3.672-2.965-6.315-4.675-12.175-8.556 -4.226-2.798-6.474-5.591-10.146-8.556 -2.277-1.839-5.763-3.815-6.088-4.753 -1.028-2.967-4.535-4.898-6.088-6.654 -2.196-2.484-6.088-4.753-10.146-7.605 -4.058-2.852-5.661-5.778-8.117-8.556 -3.473-3.928-4.058-5.704-6.088-7.605 -2.029-1.901-2.66-3.879-4.058-6.654 -1.043-2.069-5.045-3.635-6.088-5.704 -1.399-2.776-2.029-5.704-4.058-8.556 -2.029-2.852-2.029-5.704-4.058-7.605 -2.029-1.901-2.66-3.879-4.058-6.654 -1.043-2.069-4.058-3.803-4.058-5.704 0-1.901-1.001-4.638-2.029-7.605 -0.975-2.815-1.054-5.741-2.029-8.556 -1.028-2.967-3.031-5.588-4.058-8.556 -0.975-2.815 0.932-4.804 0-6.654 -1.043-2.069-2.029-3.803-2.029-5.704 0-2.852 0-5.704 0-8.556 0-1.901 0-4.753 0-7.605 0-2.852 0-8.556 0-12.358 0-2.852 0.631-5.78 2.029-8.556 1.043-2.069 5.06-4.638 6.088-7.605 0.975-2.815 1.719-5.743 4.058-9.506 1.794-2.886 1.405-4.93 4.058-6.654 1.678-1.091 3.435-3.979 6.088-5.704 3.356-2.181 5.997-3.374 8.117-6.654 1.176-1.82 3.435-3.979 6.088-5.704 3.356-2.181 7.129-4.367 10.146-6.654 3.374-2.557 4.351-4.691 6.088-6.654 2.456-2.777 5.464-4.93 8.117-6.654 3.356-2.181 8.117-5.704 12.175-7.605 4.058-1.901 5.011-4.092 8.117-7.605 2.196-2.484 5.661-3.877 8.117-6.654 1.736-1.964 4.058-4.753 6.088-6.654 2.029-1.901 2.882-3.884 4.058-5.704 2.12-3.28 5.464-4.93 8.117-6.654 3.356-2.181 6.79-4.473 10.146-6.654 2.653-1.724 4.058-3.803 6.088-5.704 2.029-1.901 5.045-3.635 6.088-5.704 0.932-1.85 3.016-3.635 4.058-5.704 0.932-1.85 3.478-4.004 8.117-6.654 3.639-2.079 10.593-5.509 16.234-8.556 6.648-3.591 12.403-6.577 18.263-10.457 4.226-2.798 10.146-6.654 14.205-8.556 4.058-1.901 6.474-3.69 10.146-6.654 2.277-1.839 3.81-3.865 6.088-5.704 3.672-2.964 4.761-4.473 8.117-6.654 2.653-1.724 3.632-3.877 6.088-6.654 1.736-1.964 1.603-3.877 4.058-6.654 1.736-1.964 3.083-4.79 4.058-7.605 1.028-2.967 3.031-4.638 4.058-7.605 0.975-2.815 1.007-5.616 2.029-9.506 0.744-2.831 0-5.704 0-8.556 0-2.852 0-5.704-2.029-8.556 -2.029-2.852-2.029-5.704-4.058-8.556 -2.029-2.852-3.315-5.725-4.058-8.556 -1.022-3.89-5.06-6.539-6.088-9.506 -0.65-1.877-2.029-4.753-4.058-6.654 -2.029-1.901-2.029-4.753-4.058-6.654 -2.029-1.901-4.059-3.803-6.088-6.654 -2.029-2.852-3.435-5.881-6.088-7.605 -3.356-2.181-6.381-4.691-8.117-6.654 -2.456-2.777-5.92-4.17-8.117-6.654 -0.777-0.878-2.029-2.852-4.058-3.802 -2.029-0.951-4.362-2.352-6.088-2.852 -3.86-1.118-7.074-2.684-8.117-4.753 -0.466-0.925-3.282-1.974-4.058-2.852 -1.098-1.242-2.184-1.538-4.058-1.901 -2.651-0.514-0.594-2.18-2.029-2.852 -1.435-0.672-2.029-0.951-4.058-0.951l-2.029 0 -2.029 0" style="fill:none;stroke-width:5;stroke:#ce4444"/><path d="m588.168 814.999c0 0 1.253-0.072 2.029-0.951 2.196-2.484 5.705-2.98 10.146-5.704 3.895-2.389 5.464-4.93 8.117-6.654 3.356-2.181 9.979-3.22 12.175-5.704 0.777-0.878 3.435-2.078 6.088-3.803 3.356-2.181 6.088-3.803 10.146-5.704 2.029-0.951 4.653-1.229 6.088-1.901 1.435-0.672 0.85-1.349 4.058-2.852 3.208-1.503 6.474-1.789 10.146-4.753 2.278-1.839 6.474-3.69 10.146-6.654 2.278-1.839 4.356-3.673 8.117-5.704 6.648-3.591 10.374-5.626 16.234-9.506 4.226-2.798 12.602-7.463 18.263-11.408 6.602-4.6 12.008-9.56 16.234-12.358 5.86-3.88 10.849-5.424 14.205-7.605 5.306-3.449 9.898-5.767 12.175-7.605 3.672-2.965 9.171-6.234 14.205-9.506 5.306-3.449 9.684-9.62 16.234-15.21 5.694-4.859 11.936-9.576 18.263-14.259 3.912-2.896 9.465-6.139 14.205-9.506 6.016-4.274 8.511-7.499 14.205-12.358 4.367-3.727 9.273-8.682 12.175-12.358 4.723-5.981 12.536-11.326 18.263-17.111 6.502-6.568 11.025-12.17 16.234-18.062 4.911-5.555 4.3-9.711 8.117-15.21 2.806-4.043 3.818-6.678 6.088-11.408 1.836-3.824 3.513-6.728 6.088-10.457 3.362-4.871 5.172-7.386 8.117-11.408 3.358-4.585 3.112-8.647 6.088-14.259 1.547-2.918 2.223-5.682 4.058-9.506 2.27-4.729 3.862-8.572 6.088-14.259 1.865-4.768 4.341-10.432 6.088-15.21 2.423-6.625 3.933-14.266 6.088-22.815 1.918-7.611 4.17-16.154 6.088-23.766 2.154-8.549 3.05-16.175 4.058-23.766 1.017-7.649 2.029-14.259 2.029-21.864 0-8.556 2.029-16.161 2.029-23.766 0-7.605 0-15.21 0-23.766 0-9.506 0-17.111 0-25.667 0-9.506-1.013-17.067-2.029-24.716 -1.009-7.59 0-15.21-2.029-22.815 -2.029-7.605-4.058-15.21-6.088-23.766 -2.029-8.556-4.272-16.136-8.117-23.766 -4.298-8.53-8.117-16.161-10.146-22.815 -2.029-6.654-6.252-12.344-8.117-17.111 -2.225-5.688-4.058-10.457-6.088-16.161 -2.029-5.704-8.08-9.233-10.146-14.259 -1.151-2.8-4.902-5.477-8.117-8.556 -2.819-2.7-5.921-5.121-8.117-7.605 -1.553-1.757-1.729-4.02-4.058-6.654 -2.196-2.484-5.763-3.815-6.088-4.753 -1.028-2.967-5.155-4.804-6.088-6.654 -1.043-2.069-3.592-3.828-4.058-4.753 -1.043-2.069-3.282-1.974-4.058-2.852 -1.098-1.242-4.058-1.901-6.088-2.852 -2.029-0.951-2.029-1.901-4.058-2.852 -2.029-0.951-2.96-1.61-4.058-2.852 -0.777-0.878-0.594-1.229-2.029-1.901 -1.435-0.672-2.624-2.18-4.058-2.852 -1.435-0.672-2.029-0.951-4.058-1.901 -2.029-0.951-2.624-1.229-4.058-1.901 -1.435-0.672-2.029-1.901-4.058-2.852 -2.029-0.951-2.624-1.229-4.058-1.901 -1.435-0.672-1.253-1.023-2.029-1.901 -1.098-1.242-2.624-1.229-4.058-1.901 -1.435-0.672-1.405-2.078-4.058-3.803 -1.678-1.091-2.624-1.229-4.058-1.901 -1.435-0.672-0.594-2.18-2.029-2.852 -1.435-0.672-4.058-0.951-6.088-1.901 -2.029-0.951-4.058-1.901-4.058-2.852l-2.029 0" style="fill:none;stroke-width:5;stroke:#ce4444"/><path d="m726.156 103.927c0 0 3.925 0.137 8.117 0.951 5.928 1.15 11.739 3.068 20.292 6.654 9.682 4.06 16.663 6.383 22.322 8.556 4.439 1.705 7.537 4.004 12.175 6.654 3.639 2.079 7.621 3.817 8.117 5.704 1.022 3.89 5.298 6.806 8.117 9.506 3.215 3.079 7.142 6.691 8.117 9.506 1.028 2.967 3.083 5.741 4.058 8.556 1.028 2.967 2.029 5.704 2.029 8.556 0 2.852 0 6.654 0 10.457 0 5.704 0 10.457 0 16.161 0 5.704 0 12.358 0 19.013 0 5.704-1.221 13.392 2.029 21.865 2.96 7.716 4.058 15.21 4.058 21.865 0 5.704 0 12.358 0 19.013 0 4.753 0.883 12.371 0 19.013 -1.017 7.649-4.043 15.035-6.088 22.815 -1.983 7.548-2.029 16.161-2.029 24.716 0 8.556 0 18.062 0 26.618 0 8.556 0.898 18.074 0 25.667 -1.016 8.595-3.076 17.175-6.088 25.667 -3.067 8.646-8.311 18.042-12.175 26.618 -4.274 9.486-6.914 18.135-10.146 27.568 -2.965 8.654-5.89 19.161-10.146 29.47 -4.023 9.744-12.175 18.062-18.263 26.618 -6.088 8.556-13.725 17.199-20.292 24.716 -7.57 8.665-12.482 17.392-20.292 26.618 -8.364 9.88-15.821 18.151-24.351 26.618 -9.683 9.612-17.85 17.2-26.38 25.667 -7.746 7.689-17.816 16.269-26.38 23.766 -7.72 6.757-16.234 14.259-24.351 19.963 -8.117 5.704-16.234 12.358-24.351 18.062 -8.117 5.704-17.006 12.133-24.351 18.062 -6.832 5.516-14.435 11.332-24.351 18.062 -8.312 5.642-16.234 11.408-24.351 17.111 -8.117 5.704-13.656 10.674-22.322 15.21 -7.656 4.007-11.615 6.866-18.263 10.457 -3.76 2.031-8.117 2.852-10.146 4.753l0 0.951" style="fill:none;stroke-width:5;stroke:#ce4444"/><path d="m2542.32 668.602c-235.391 10.457-446.431 88.409-564.127-17.111 -117.696-105.52-107.549-120.73-462.665-133.088 -355.116-12.358-391.642 148.298-539.776-14.259 -148.134-162.558-363.233-107.421-190.748-233.855 172.485-126.434 22.322-154.953 456.577-161.607 434.256-6.654 371.35-83.656 673.705 28.519 302.356 112.175 300.326 47.532 359.174 228.152" style="fill-opacity:null;fill:none;opacity:0.5;stroke-opacity:null;stroke-width:50;stroke:#ce4444"/></g></svg>