<svg xmlns="http://www.w3.org/2000/svg" id="Oken" width="500" height="500" viewBox="0 0 500 500"><style>.a{stop-color:#2B1F16;}.b{stop-color:#140E09;}.c{stop-color:#291D14;}.d{stop-color:#0F0A06;}.e{stop-color:#1F130B;}.f{stop-color:#F2D4C4;}.g{stop-color:#F0D1C1;}.h{stop-color:#E9C9B8;}.i{stop-color:#DEBBA9;}.j{stop-color:#CEA794;}.k{stop-color:#CCA491;}.l{opacity:0.5;}.m{stop-color:#545436;}.n{stop-color:#3F3F25;}.o{stop-color:#32321A;}.p{stop-color:#2E2E17;}.q{stop-color:#313016;}.r{stop-color:#3A3513;}.s{stop-color:#4A3F0D;}.t{stop-color:#614D05;}.u{stop-color:#705600;}.v{fill:#FFD400;}.w{stop-color:#463223;}.x{stop-color:#332317;}.y{stop-color:#26190F;}.z{stop-color:#382314;}</style><radialGradient id="SVGID_1_" cx="260.4" cy="540.9" r="225.3" gradientTransform="matrix(1.4012 0.302 -0.2506 1.1626 -121.9492 -95.7979)" gradientUnits="userSpaceOnUse"><stop offset="0.5372" class="a"/><stop offset="0.5851" class="b"/><stop offset="0.6383" class="c"/><stop offset="0.6862" class="b"/><stop offset="0.734" class="c"/><stop offset="0.7819" class="b"/><stop offset="0.8245" class="c"/><stop offset="0.883" class="d"/><stop offset="0.9362" class="e"/></radialGradient><path d="M171 466.3c0 0-10.6-1.4-16.6 3.3 -6 4.7-5.7-13.7-10-8.2 -4.4 5.5 4.2-25.8-6.9-16.5 -11.1 9.2-0.4-34.1-13-5 0 0-2.2-2.2-2.9-16.1 -0.6-13.9 5.6-30.2-4.6-27.2 -10.2 3-20.8-5.4-17.2-24.4 3.6-19 3.3-45.3 6.9-49.2 3.6-4 28.3 30.1 33.4 29.5C145.3 351.9 198.1 420.5 171 466.3z" style="fill:url(#SVGID_1_);stroke:#000"/><radialGradient id="SVGID_2_" cx="513.4" cy="386.5" r="263.7" gradientUnits="userSpaceOnUse"><stop offset="0.5372" class="a"/><stop offset="0.5851" class="b"/><stop offset="0.6383" class="c"/><stop offset="0.6862" class="b"/><stop offset="0.734" class="c"/><stop offset="0.7819" class="b"/><stop offset="0.8245" class="c"/><stop offset="0.883" class="d"/><stop offset="0.9362" class="e"/></radialGradient><path d="M322.3 443.2c0 0 37.4 31.3 58.4 36 0 0-11.7-18.2-17.3-32.2 0 0 5.1 9.8 21 14.5 0 0-2.8-16.8 1.9-25.7 0 0-5.1 2.8 18.2 2.8s-27.1-89.7-54.7-43.9C322.3 440.4 322.3 443.2 322.3 443.2z" style="fill:url(#SVGID_2_);stroke:#000"/><radialGradient id="SVGID_3_" cx="246.9" cy="371.2" r="142.1" fx="179.1794" fy="326.0718" gradientTransform="matrix(0.9583 -0.2737 0.2275 0.7312 -74.1555 149.3848)" gradientUnits="userSpaceOnUse"><stop offset="0" class="f"/><stop offset="0.3536" class="g"/><stop offset="0.5916" class="h"/><stop offset="0.7956" class="i"/><stop offset="0.9795" class="j"/><stop offset="1" class="k"/></radialGradient><path d="M94.6 235.3c0 0 7.8 78.8 7.8 89.6 0 10.7 7.8 19.8 25.5 78.2 16.4 53.7 73.9 79.8 88.5 82.2 12.3 2 44.3-8.8 57.3-13.7 31.1-11.8 40.2-16.8 62-39.3 9-9.3 53.3-51.8 77.9-97.2C457.7 253.8 331.4 11.2 94.6 235.3z" style="fill:url(#SVGID_3_);stroke-width:3;stroke:#000"/><g class="l"><path d="M205.8 446.4c0 0 0.3 0 0.9 0 0.5 0 1.3 0 2.2 0.1 0.5 0 1 0 1.5 0 0.5 0 1.1 0 1.6 0 0.6 0 1.2-0.2 1.8-0.2 0.6 0 1.2-0.3 1.8-0.3 0.6 0 1.2 0 1.8 0 0.6 0 1.2 0.2 1.8 0.2 0.6 0 1.1 0.1 1.7 0.1 0.5 0 1 0 1.5 0 1.8-0.1 3.1 0.1 3.1 0.1s-1.1 0.5-3 1.1c-0.5 0.1-0.9 0.3-1.5 0.4 -0.5 0.1-1.1 0.2-1.7 0.3 -0.6 0.1-1.2 0.2-1.8 0.2 -0.6 0-1.3 0-1.9 0.1 -0.6 0-1.3 0-1.9 0 -0.6 0-1.2-0.1-1.8-0.2 -0.6 0-1.2-0.2-1.7-0.3 -0.5-0.1-1-0.2-1.5-0.4 -0.9-0.3-1.7-0.6-2.2-0.8C206.1 446.5 205.8 446.4 205.8 446.4z"/></g><path d="M239.1 298.2c0 0 0.6-0.5 1.7-1.1 0.5-0.3 1.2-0.7 2-1.2 0.8-0.4 1.7-0.9 2.6-1.4 1-0.5 2.1-1 3.2-1.4 1.1-0.5 2.4-1 3.7-1.4 2.6-0.8 5.4-1.5 8.2-2.2 1.4-0.3 2.8-0.7 4.2-0.9 1.4-0.3 2.8-0.6 4.1-0.8 1.3-0.2 2.6-0.5 3.9-0.6 1.2-0.1 2.4-0.3 3.5-0.4 1.1-0.1 2.1-0.2 3-0.2 0.9-0.1 1.7 0 2.3-0.1 1.3 0 2 0 2 0l0 0.3c0 0-0.7 0.1-2 0.3 -0.6 0.1-1.4 0.2-2.2 0.3 -0.9 0.1-1.8 0.3-2.9 0.5 -1.1 0.2-2.2 0.5-3.4 0.7 -1.2 0.2-2.5 0.6-3.8 0.9 -1.3 0.3-2.6 0.7-4 1.1 -1.4 0.4-2.7 0.8-4.1 1.2 -1.4 0.5-2.7 0.9-4 1.4 -1.3 0.5-2.6 1-3.9 1.4 -1.3 0.4-2.5 0.8-3.7 1.2 -1.2 0.3-2.3 0.7-3.3 1 -2.1 0.6-3.8 1-5.1 1.3 -1.2 0.3-2 0.4-2 0.4L239.1 298.2z"/><path d="M186.4 297.7c0 0-2.4-0.3-5.8-1.2 -0.8-0.2-1.8-0.5-2.7-0.7 -1-0.3-2-0.6-3-0.9 -1-0.4-2.1-0.8-3.1-1.2 -1.1-0.4-2.1-0.8-3.2-1.2 -2.2-0.8-4.4-1.5-6.5-2.1 -1-0.3-2.1-0.6-3-0.8 -1-0.2-1.9-0.5-2.7-0.7 -0.8-0.2-1.6-0.3-2.3-0.5 -0.7-0.2-1.3-0.2-1.8-0.3 -1-0.2-1.6-0.2-1.6-0.2l0-0.3c0 0 0.6 0 1.6 0 0.5 0 1.1 0 1.9 0.1 0.7 0.1 1.5 0.1 2.4 0.2 0.9 0.1 1.8 0.2 2.8 0.4 1 0.1 2 0.3 3.1 0.5 2.2 0.4 4.5 0.9 6.7 1.5 2.3 0.6 4.6 1.1 6.7 1.8 2.1 0.7 4 1.6 5.5 2.4 1.6 0.8 2.8 1.6 3.7 2.2 0.9 0.6 1.3 1 1.3 1L186.4 297.7z"/><g class="l"><radialGradient id="SVGID_4_" cx="212.7" cy="614.5" r="65.3" gradientTransform="matrix(0.7008 -0.7538 0.7188 -0.0801 -266.9789 624.2292)" gradientUnits="userSpaceOnUse"><stop offset="0" stop-color="#FFBAB5"/><stop offset="0.4174" stop-color="#FDB9B3"/><stop offset="0.5678" stop-color="#F6B3AD"/><stop offset="0.6749" stop-color="#EBAAA3"/><stop offset="0.7616" stop-color="#DA9E95"/><stop offset="0.8359" stop-color="#C48D81"/><stop offset="0.9015" stop-color="#A8786A"/><stop offset="0.9595" stop-color="#89604E"/><stop offset="1" stop-color="#6E4C37"/></radialGradient><path d="M268.7 442.2c0 0 4.2-1.7 10.7-5.9 1.2-0.8 2.3-1.9 3.8-2.6 2-0.9 2.6-2.6 4.5-3.4 2.2-0.9 3-3.6 5.4-4.6 2.6-1.1 3.5-3.9 5.7-5.5 2.8-2 3-4 5.1-5.5 2-1.5 2.8-3.3 4.2-5 0.8-1 1.6-1.3 2.4-3.1 0.8-1.7 1.6-3 2.9-4 1.6-1.2 1.4-2.9 2.6-3.8 1.6-1.4 1.9-3.7 3.2-5.1 1.1-1.2 1.1-2.5 2-3.5 1.5-1.7 2.2-4.1 3.3-6.2 3.7-7.3 6.6-14.7 8.4-21.5 0 0 0.5 4.8-1.7 14 -0.6 2.7-2.1 5.8-2.7 9.1 -0.3 1.7-1.7 3.2-2 5.2 -0.3 1.5-1.8 3-2.1 4.6 -0.3 1.9-2.4 3.2-2.9 5.6 -0.4 1.5-2 2.4-2.5 4.2 -0.5 1.7-2.4 2.7-3 4.5 -0.6 1.5-2.2 2.1-3 4 -0.7 1.6-2.7 2.3-3.5 4.2 -1.2 2.9-4.9 4.2-6.9 6.9 -1.5 2-4.6 2.9-5.9 4.8 -1.4 1.9-4.3 2-6.1 4.1 -1.3 1.5-3.8 1.3-5.4 3 -1.1 1.1-2.8 1.3-4.3 1.9C277.1 440.1 273 441.4 268.7 442.2z" fill="url(#SVGID_4_)"/><path d="M268.6 442.1c3.2-1.6 6.3-3.4 9.5-5.4 1.7-0.9 2.9-2.4 4.8-3.2 1.8-0.7 2.7-2.7 4.7-3.5 1.8-0.8 2.6-2.9 4.4-4.1 1-0.6 1.9-0.9 2.6-1.7 0.7-0.7 1.3-1.6 2-2.4 0.6-0.8 1.6-1.6 2.4-2.3 0.9-0.6 1.5-1.4 2.1-2.3 0.6-0.8 1.3-1.8 2.2-2.5 0.9-0.7 1.7-1.4 2.3-2.2 0.7-0.9 1.3-1.8 2-2.7 0.7-0.9 1.6-1.6 2.2-2.5 0.6-0.9 1-2 1.7-3 0.7-1 1.7-1.7 2.4-2.5 0.7-0.8 0.8-2 1.8-3 0.9-0.8 1.4-1.7 1.9-2.8 0.4-1.1 1.2-2.2 1.9-3.1 0.6-0.9 0.9-2.2 1.8-3.1 1.5-1.8 2.2-4.2 3.4-6.4 1-2.2 2.2-4.4 3.1-6.7 1-2.3 1.9-4.6 2.7-7 0.9-2.4 1.5-4.7 2.3-7.1 0.1-0.4 0.3-0.8 0.4-1.2 0 0.4 0 0.8 0.1 1.1 0.2 4.7-0.5 9.7-1.7 14.7 -0.6 2.5-1.7 4.9-2.2 7.3 -0.1 0.6-0.3 1.2-0.4 1.8 -0.2 0.7-0.5 1.3-0.8 1.9 -0.6 1.2-0.9 2.1-1.2 3.4 -0.5 1.4-1.4 2.4-1.8 3.4 -0.2 0.5-0.2 1.1-0.6 1.8 -0.3 0.7-0.7 1.2-1.1 1.7 -0.8 1-1.2 1.9-1.6 3.1 -0.6 1.4-1.6 2.1-2.1 3.1 -0.2 0.5-0.4 1.1-0.7 1.7 -0.4 0.7-0.8 1.1-1.2 1.5 -0.4 0.5-0.8 0.9-1 1.4 -0.3 0.4-0.4 1-0.9 1.6 -0.9 1.1-1.8 1.7-2.3 2.7 -0.2 0.4-0.5 1.1-1 1.6 -0.4 0.5-0.9 0.9-1.3 1.2 -0.9 0.7-1.3 1.6-1.9 2.7 -0.7 1.1-1.6 1.9-2.5 2.6 -0.9 0.7-1.8 1.4-2.6 2.1 -0.8 0.7-1.4 1.6-2.3 2.4 -1.8 1.5-3.9 2.3-5.2 4 -1.6 1.8-4.1 2-5.5 3.4 -0.7 0.7-1.7 1.4-2.7 1.7 -1 0.4-2 0.7-2.8 1.3 -1.4 1.5-3.8 1.8-5.6 2.6 -3.9 1.3-7.7 2.4-11.5 3.2C268.7 442.2 268.7 442.2 268.6 442.1zM268.6 442.1c3.7-0.9 7.5-2.1 11.3-3.5 1.9-0.8 4.1-1.1 5.4-2.6 1.8-1.3 4.1-1.3 5.4-3 1.6-1.5 4.1-1.9 5.4-3.4 1.3-1.8 3.6-2.8 5.2-4.1 0.8-0.6 1.4-1.7 2.3-2.4 0.9-0.8 1.8-1.5 2.7-2.2s1.7-1.5 2.3-2.3c0.3-0.4 0.5-1 0.8-1.5 0.4-0.5 0.8-1 1.3-1.4 1-0.9 1.6-1.4 2.1-2.5 0.6-1.2 1.7-2 2.3-2.8 0.3-0.4 0.5-1 0.8-1.6 0.4-0.6 0.8-1.1 1.2-1.5 0.9-0.9 1.3-1.6 1.8-3 0.6-1.2 1.7-2.1 2-3 0.3-1.1 1-2.5 1.7-3.4 0.8-1.1 1.2-1.8 1.5-3.2 0.5-1.3 1.4-2.4 1.7-3.3 0.2-1.1 0.7-2.6 1.3-3.6 0.7-1.1 0.9-2.1 1.2-3.4 0.6-2.5 1.6-4.8 2.3-7.3 1.2-4.8 2.1-9.8 1.9-14.4 0.1 0 0.3-0.1 0.4-0.1 -0.8 2.4-1.4 4.8-2.3 7.2 -0.8 2.4-1.8 4.7-2.8 7 -0.9 2.3-2.1 4.5-3.1 6.8 -1.1 2.2-1.8 4.6-3.3 6.5 -0.9 0.9-1 2-1.7 3.1 -0.8 1-1.4 1.9-1.8 3 -0.4 1-1.1 2.3-2 3 -0.8 0.7-0.9 2-1.7 3 -0.8 0.9-1.7 1.5-2.3 2.5 -0.6 0.9-1 1.9-1.6 3 -0.6 1.1-1.6 1.8-2.2 2.6 -0.6 0.9-1.3 1.8-1.9 2.7 -0.7 0.9-1.6 1.7-2.4 2.4 -0.8 0.7-1.4 1.6-2 2.4 -0.6 0.9-1.4 1.8-2.2 2.5 -0.9 0.7-1.6 1.3-2.3 2.1 -0.7 0.8-1.3 1.7-2.1 2.4 -0.8 0.8-1.9 1.3-2.7 1.7 -1.7 1-2.5 3.1-4.5 4.1 -1.9 0.7-2.8 2.7-4.8 3.5 -1.8 0.8-3.1 2.3-4.8 3.1 -3.3 1.9-6.6 3.6-9.8 5.1C268.7 442.2 268.7 442.2 268.6 442.1z" fill="#3A0000"/></g><path d="M185.5 438.7c0.6-0.3 1.3-0.6 1.9-0.9 0.6-0.3 1.2-0.6 1.8-1 1.2-0.7 2.3-1.4 3.4-2.3 0.6-0.4 1.1-0.8 1.6-1.2 0.6-0.4 1.1-0.8 1.6-1.3 0.5-0.4 1.1-0.9 1.5-1.3l1.5-1.4 1.4-1.4c0.5-0.5 0.9-1 1.4-1.5 0.4-0.5 0.9-1 1.4-1.5l1.3-1.6c0.9-1 1.7-2.2 2.5-3.2 0.4-0.5 0.8-1.1 1.2-1.7l1.2-1.7c0.5-0.7 1.4-0.8 2.1-0.4 0.2 0.1 0.3 0.3 0.4 0.5 0.3 0.6 0.7 1.2 1.1 1.8l1.2 1.8c0.8 1.2 1.6 2.3 2.5 3.5 0.9 1.1 1.8 2.2 2.7 3.3 0.9 1.1 1.9 2.1 2.9 3.1 1 1 2.1 1.9 3.2 2.7 1.1 0.8 2.3 1.5 3.6 1.9 1.3 0.4 2.7 0.6 4 0.3 1.4-0.2 2.7-0.9 3.8-1.8 -0.9 1.1-2.1 2.1-3.6 2.7 -1.4 0.6-3.1 0.7-4.6 0.4 -1.5-0.3-3-0.9-4.4-1.6 -1.3-0.7-2.6-1.6-3.8-2.6 -1.2-1-2.3-2-3.3-3.1 -1-1.1-2-2.2-2.9-3.4 -0.9-1.2-1.8-2.4-2.7-3.6 -0.4-0.6-0.8-1.2-1.2-1.9 -0.4-0.6-0.8-1.3-1.2-1.9l2.5 0.1 -1.2 1.7c-0.4 0.6-0.8 1.2-1.3 1.7 -0.9 1.1-1.8 2.2-2.7 3.2 -1 1-1.9 2.1-3 3.1 -0.5 0.5-1 1-1.6 1.4l-1.6 1.4 -1.7 1.3c-0.6 0.4-1.2 0.8-1.7 1.2 -0.6 0.4-1.2 0.8-1.8 1.1 -0.6 0.4-1.2 0.7-1.8 1 -1.2 0.7-2.5 1.3-3.8 1.8C188.2 437.9 186.9 438.4 185.5 438.7z"/><g opacity="0.8"><path d="M206 366.1c0 0-0.1 1.6-0.7 3.9 -0.3 1.2-0.6 2.5-1.1 3.9 -0.2 0.7-0.6 1.4-0.9 2.1 -0.1 0.4-0.4 0.7-0.5 1.1l-0.5 1c-0.2 0.3-0.4 0.7-0.5 1 -0.1 0.3-0.2 0.5-0.3 0.8 -0.2 0.6-0.1 1.2 0 1.7 0.2 0.5 0.5 1.1 0.9 1.5 0.4 0.5 0.8 0.9 1.2 1.2 0.9 0.7 1.7 1.3 2.2 1.6 0.6 0.4 0.9 0.6 0.9 0.6s-0.4-0.1-1-0.3c-0.7-0.2-1.6-0.5-2.7-1 -0.5-0.3-1.1-0.6-1.7-1.1 -0.6-0.5-1.1-1.1-1.4-2 -0.1-0.4-0.3-0.9-0.3-1.3 0-0.2-0.1-0.5 0-0.7l0.1-0.7c0-0.5 0.2-0.9 0.4-1.4 0.2-0.4 0.4-0.7 0.5-1.1l0.6-1c0.2-0.3 0.4-0.6 0.5-1 0.3-0.7 0.7-1.3 1-2 0.6-1.3 1.2-2.5 1.7-3.6C205.3 367.5 206 366.1 206 366.1z"/></g><radialGradient id="SVGID_5_" cx="383.8" cy="517.9" r="13.6" fx="385.6881" fy="522.5721" gradientTransform="matrix(-0.9899 0.0116 0.3883 2.6515 439.1939 -1061.6935)" gradientUnits="userSpaceOnUse"><stop offset="0" class="m"/><stop offset="0.1593" class="n"/><stop offset="0.3154" class="o"/><stop offset="0.4628" class="p"/><stop offset="0.6261" class="q"/><stop offset="0.7455" class="r"/><stop offset="0.8509" class="s"/><stop offset="0.9477" class="t"/><stop offset="1" class="u"/></radialGradient><path d="M263.1 364.9c1.3 0.3 4.6-1.3 6.1-5 4.5-11.5 10.7-29.6 0.1-52.7 -1.3-2.8-3-3.6-5.1-3.8 -2.1-0.2-5.3 1-6.5 3.7 -4.9 8.8-9.2 25.3-0.3 52.7C258.6 363.3 261.9 364.6 263.1 364.9z" fill="url(#SVGID_5_)"/><path d="M263.2 364.7c0.7 0.1 1.5-0.3 2.2-0.6 0.7-0.4 1.3-0.9 1.8-1.5s0.9-1.2 1.2-1.9c0.3-0.7 0.5-1.5 0.8-2.2 1-3.1 1.9-6.1 2.6-9.2 0.7-3.1 1.2-6.2 1.5-9.4 0.2-1.6 0.3-3.1 0.3-4.7 0.1-1.6 0-3.1 0-4.7 -0.1-1.6-0.2-3.1-0.4-4.7 -0.2-1.6-0.4-3.1-0.8-4.6 -0.3-1.5-0.7-3.1-1.1-4.6 -0.4-1.5-0.9-3-1.4-4.5l-0.8-2.2 -0.9-2.2c-0.6-1.3-1.4-2.3-2.6-2.7 -0.3-0.1-0.6-0.2-1-0.3 -0.1 0-0.4 0.1-0.5 0.1L263.8 305h-0.2c-0.6 0-1.3 0-1.9 0.2 -1.3 0.5-2.4 1.3-3 2.4l0 0h0l-0.9 1.6 -0.8 1.7c-0.5 1.2-1 2.3-1.4 3.5 -0.4 1.2-0.7 2.4-1.1 3.6 -0.3 1.2-0.6 2.5-0.7 3.7 -0.2 1.3-0.4 2.5-0.5 3.8 -0.2 1.3-0.2 2.6-0.2 3.8 0 1.3 0 2.6 0 3.8l0.2 3.8 0.4 3.8 0.5 3.8c0.2 1.3 0.5 2.5 0.7 3.8 0.2 1.3 0.5 2.5 0.8 3.8 0.3 1.3 0.6 2.5 1 3.8 0.4 1.2 0.7 2.5 1.1 3.7 0.4 1.2 1.2 2.3 2.1 3.1 1 0.8 2.2 1.4 3.4 1.7L263.2 364.7zM263.1 365h0c-1.3 0-2.5-0.9-3.5-1.8 -1-0.8-1.8-1.9-2.3-3.2 -0.4-1.2-0.8-2.5-1.2-3.7 -0.4-1.2-0.8-2.5-1.1-3.7 -0.4-1.3-0.7-2.5-1-3.8 -0.3-1.3-0.6-2.5-0.9-3.8l-0.7-3.8 -0.5-3.9 -0.3-3.9c0-1.3-0.1-2.6-0.1-3.9 0.1-1.3 0-2.6 0.2-3.9 0.1-1.3 0.2-2.6 0.4-3.9 0.1-1.3 0.4-2.6 0.7-3.9 0.3-1.3 0.6-2.6 1-3.8 0.4-1.3 0.9-2.5 1.3-3.7l0.8-1.8 0.9-1.8 0 0.1c0.8-1.8 2.4-3.1 4-3.8 0.9-0.4 1.7-0.6 2.8-0.6l0.4 0 0.3 0c0.3 0 0.5 0 0.7 0.1 0.5 0.1 0.9 0.2 1.4 0.3 0.9 0.3 1.8 0.9 2.5 1.6 0.3 0.4 0.6 0.7 0.9 1.1 0.3 0.4 0.5 0.9 0.7 1.2l1 2.3 1 2.3c0.6 1.5 1.2 3.1 1.7 4.7 0.5 1.6 0.9 3.2 1.3 4.8 0.4 1.6 0.6 3.2 0.9 4.9 0.2 1.6 0.4 3.3 0.4 4.9 0.1 3.3-0.1 6.6-0.6 9.9 -0.2 1.6-0.6 3.2-1 4.8 -0.4 1.6-0.9 3.2-1.4 4.7 -1 3.1-2.2 6.1-3.5 9.1 -0.3 0.7-0.6 1.5-1.1 2.2 -0.5 0.7-1 1.4-1.6 2 -0.6 0.6-1.3 1.1-2 1.4 -0.7 0.4-1.6 0.7-2.4 0.5L263.1 365z" class="v"/><radialGradient id="SVGID_6_" cx="508.6" cy="547.9" r="13.6" fx="510.5124" fy="552.5372" gradientTransform="matrix(-0.9213 0.0173 0.345 2.5699 442.1535 -1100.4609)" gradientUnits="userSpaceOnUse"><stop offset="0" class="m"/><stop offset="0.1593" class="n"/><stop offset="0.3154" class="o"/><stop offset="0.4628" class="p"/><stop offset="0.6261" class="q"/><stop offset="0.7455" class="r"/><stop offset="0.8509" class="s"/><stop offset="0.9477" class="t"/><stop offset="1" class="u"/></radialGradient><path d="M164.8 363.7c1.2 0.3 4.3-1.3 5.7-4.9 4.3-11.2 10.2-28.8 0.4-51.1 -1.2-2.7-2.7-3.4-4.7-3.7 -2-0.2-5 1-6.1 3.6 -4.7 8.6-8.8 24.6-0.6 51.1C160.6 362.2 163.7 363.4 164.8 363.7z" fill="url(#SVGID_6_)"/><path d="M164.8 363.5c0.7 0.1 1.4-0.3 2.1-0.7 0.6-0.4 1.2-0.9 1.7-1.5 0.5-0.6 0.9-1.2 1.1-1.9 0.3-0.7 0.5-1.4 0.7-2.2 0.9-2.9 1.8-5.9 2.4-8.9 0.3-1.5 0.6-3 0.9-4.5 0.3-1.5 0.4-3 0.6-4.5 0.2-1.5 0.3-3 0.3-4.5 0.1-1.5 0.1-3 0-4.5 0-1.5-0.2-3-0.3-4.5 -0.2-1.5-0.4-3-0.7-4.5 -0.3-1.5-0.6-3-1-4.4 -0.4-1.5-0.8-2.9-1.3-4.4 -0.5-1.4-1-2.9-1.6-4.3 -0.5-1.3-1.2-2.3-2.3-2.7 -0.3-0.1-0.6-0.2-0.9-0.3 -0.3-0.1-0.7-0.1-0.9-0.1 -0.5 0-1.2 0.1-1.8 0.4 -1.2 0.5-2.3 1.4-2.8 2.5l0 0.1 0 0 -0.8 1.6 -0.8 1.7c-0.5 1.1-0.9 2.3-1.3 3.4 -0.4 1.1-0.7 2.3-1 3.5 -0.3 1.2-0.6 2.4-0.7 3.6 -0.2 1.2-0.4 2.4-0.5 3.7 -0.2 1.2-0.2 2.5-0.3 3.7 0 1.2 0 2.5 0 3.7l0.1 3.7 0.3 3.7 0.5 3.7c0.1 1.2 0.4 2.5 0.6 3.7 0.2 1.2 0.5 2.4 0.7 3.7 0.3 1.2 0.5 2.4 0.9 3.6l1 3.6c0.3 1.2 1 2.2 1.9 3.1 0.9 0.8 2 1.4 3.2 1.7L164.8 363.5zM164.8 364h0c-1.2 0-2.4-1-3.3-1.9 -1-0.8-1.7-2-2.1-3.2l-1.1-3.6c-0.4-1.2-0.7-2.4-1-3.6 -0.3-1.2-0.7-2.4-0.9-3.7 -0.3-1.2-0.6-2.4-0.8-3.7 -0.2-1.2-0.4-2.5-0.6-3.7l-0.5-3.8 -0.3-3.8c0-1.3-0.1-2.5 0-3.8 0.1-1.3 0-2.5 0.2-3.8 0.1-1.3 0.2-2.5 0.4-3.8 0.1-1.3 0.4-2.5 0.7-3.8 0.3-1.2 0.6-2.5 1-3.7 0.4-1.2 0.8-2.4 1.3-3.6l0.8-1.8 0.9-1.7 0 0.1c0.8-1.7 2.2-3 3.8-3.7 0.8-0.4 1.7-0.6 2.7-0.6 0.5 0 0.9 0 1.4 0.1 0.4 0.1 0.9 0.2 1.4 0.4 0.9 0.3 1.8 1 2.4 1.7 0.3 0.4 0.6 0.7 0.8 1.1l0.3 0.6c0.1 0.2 0.2 0.3 0.3 0.6 0.6 1.4 1.3 2.9 1.8 4.4 0.5 1.5 1.1 3 1.5 4.5 0.4 1.5 0.8 3.1 1.1 4.6 0.3 1.6 0.6 3.1 0.8 4.7 0.2 1.6 0.3 3.2 0.3 4.8 0.1 3.2-0.1 6.4-0.6 9.5 -0.2 1.6-0.6 3.1-0.9 4.7 -0.4 1.5-0.8 3-1.3 4.5 -1 3-2.1 5.9-3.4 8.8 -0.3 0.7-0.6 1.4-1 2.2 -0.4 0.7-0.9 1.4-1.5 1.9s-1.2 1.1-1.9 1.4c-0.7 0.4-1.5 0.8-2.3 0.7L164.8 364z" class="v"/><radialGradient id="SVGID_7_" cx="483.4" cy="99.3" r="119.6" gradientTransform="matrix(-0.9701 0.2427 0.2427 0.9701 533.4033 -63.2578)" gradientUnits="userSpaceOnUse"><stop offset="0.5372" class="w"/><stop offset="0.5851" class="x"/><stop offset="0.6383" class="w"/><stop offset="0.6862" class="x"/><stop offset="0.734" class="w"/><stop offset="0.7819" class="x"/><stop offset="0.8245" class="w"/><stop offset="0.883" class="y"/><stop offset="0.9362" class="z"/></radialGradient><path d="M181.7 112.3c0 0-32.4-19.6-50.3-23.3C105.2 83.5 84.5 71.7 75.5 66.5c-2.5-1.5-6.8-5.3-7.2-14.7 -2.3 5.5-3.1 8.2-4.6 7.1 -2.1-1.6-3.8-3.1-5.4-4.7 0 0-1.1 14.6 1.7 16.8 0 0-4.6-4.6-6-5.7 0 0 3.3 10.2 4.5 11.3 1.3 1.1 23.2 56.8 36.8 68.8 0 0-2.8 1.7-5.1 0.3 0 0 4.4 3.8 5.6 3.9 0 0-2.9 3.6-5.8 2.4 0 0 3.9 3.5 7.4 3.9" fill="url(#SVGID_7_)"/><path d="M181.7 112.3c-2.5-1.3-4.9-2.6-7.4-3.8 -2.5-1.3-5-2.5-7.4-3.7 -5-2.4-10-4.7-15.1-6.8 -2.6-1-5-2.2-7.6-3.3 -2.5-1-5.1-2-7.7-2.8 -1.3-0.4-2.6-0.8-3.9-1.1l-4-0.9c-1.4-0.3-2.7-0.6-4.1-1 -1.4-0.4-2.7-0.7-4.1-1.1 -1.3-0.4-2.7-0.8-4-1.2l-4-1.3 -4-1.4 -3.9-1.5c-2.6-1-5.2-2.1-7.7-3.2 -2.6-1.1-5.1-2.3-7.6-3.6 -2.5-1.2-5-2.5-7.4-3.9 -2.5-1.3-4.8-2.7-7.3-4.1 -2.7-1.7-4.6-4.3-5.8-7 -1.2-2.8-1.7-5.7-1.9-8.6l2.9 0.5 -1.6 3.8c-0.3 0.6-0.5 1.3-0.9 2 -0.2 0.3-0.4 0.7-0.6 1.1 -0.3 0.4-0.5 0.8-1.3 1.2 -0.4 0.2-1 0.3-1.5 0.2 -0.5-0.1-0.8-0.3-1-0.5l-0.8-0.7c-0.5-0.4-1.1-0.9-1.6-1.3 -0.6-0.5-1.1-0.9-1.6-1.4 -0.5-0.5-1-1-1.5-1.5l2.6-0.9c-0.1 1.4-0.2 2.8-0.2 4.2 0 1.4 0 2.8 0 4.2 0.1 1.4 0.1 2.8 0.4 4.1 0.1 0.7 0.2 1.3 0.4 1.9 0.1 0.3 0.2 0.5 0.3 0.7 0.1 0.2 0.2 0.3 0.3 0.4l-2 2.3 -3-2.9 -1.5-1.4 -1.5-1.4 2.4-1.6c0.6 1.8 1.2 3.6 1.8 5.3 0.6 1.7 1.3 3.5 2.1 5 0.1 0.2 0.2 0.3 0.2 0.4 0 0 0 0 0 0l0 0c-0.1-0.1 0.2 0.2 0.1 0.1l0 0 0.1 0.1c0.1 0.1 0.2 0.2 0.3 0.4l0.1 0.2c0.3 0.5 0.5 0.9 0.7 1.4l1.2 2.6 2.3 5.2c3 6.9 6.1 13.8 9.3 20.6 3.2 6.8 6.5 13.6 10.2 20.1 1.8 3.3 3.7 6.5 5.8 9.6 1.1 1.5 2.1 3.1 3.1 4.6 1.1 1.5 2.2 2.9 3.5 4.2l1.2 1.1 -1.3 0.8c-0.2 0.1-0.3 0.1-0.4 0.2l-0.4 0.2c-0.2 0.1-0.5 0.2-0.7 0.3 -0.5 0.1-1 0.2-1.6 0.3s-1.1 0-1.6-0.1c-0.3-0.1-0.5-0.2-0.8-0.3 -0.3-0.1-0.5-0.3-0.7-0.4l1.2-1.5c0.8 0.8 1.7 1.5 2.5 2.2 0.4 0.4 0.9 0.7 1.3 1 0.2 0.2 0.4 0.3 0.7 0.4 0.1 0.1 0.2 0.1 0.3 0.2l0.2 0.1 1.1 0.5 -0.6 0.7c-0.2 0.2-0.4 0.4-0.6 0.6 -0.2 0.2-0.4 0.4-0.7 0.6 -0.5 0.4-1 0.7-1.5 1 -0.5 0.3-1.1 0.5-1.8 0.5 -0.6 0.1-1.3-0.1-1.9-0.3l0.4-0.7c1 1 2.1 1.8 3.3 2.6 1.2 0.7 2.5 1.4 3.9 1.6 -1.4-0.1-2.8-0.6-4.1-1.3 -1.3-0.7-2.5-1.4-3.6-2.3l-2-1.5 2.4 0.8c0.5 0.2 0.9 0.2 1.4 0.1 0.5-0.1 0.9-0.3 1.4-0.5 0.4-0.3 0.9-0.6 1.2-0.9 0.2-0.2 0.4-0.4 0.6-0.6 0.2-0.2 0.4-0.4 0.5-0.6l0.5 1.1c-0.3 0-0.4-0.1-0.6-0.2 -0.2-0.1-0.3-0.1-0.5-0.2 -0.3-0.1-0.5-0.3-0.8-0.4 -0.5-0.3-1-0.6-1.5-1 -1-0.7-1.9-1.4-2.8-2.1l-5.2-4.1 6.4 2.5c0.2 0.1 0.3 0.2 0.4 0.2 0.1 0.1 0.3 0.1 0.5 0.1 0.3 0 0.7 0.1 1 0 0.3-0.1 0.7-0.2 1-0.3 0.2-0.1 0.3-0.1 0.5-0.2l0.2-0.1c0.1 0 0.2-0.1 0.2-0.1l-0.2 1.9c-1.5-1.3-2.9-2.7-4.1-4.2 -1.3-1.5-2.4-3-3.4-4.6 -2.1-3.2-4-6.5-5.9-9.8 -3.7-6.7-7-13.5-10.2-20.3 -3.2-6.8-6.3-13.8-9.3-20.7l-2.3-5.2 -1.2-2.6c-0.2-0.4-0.4-0.8-0.6-1.2l-0.1-0.1c0 0 0 0.1 0.1 0.1l-0.1-0.1 0 0c0 0 0.3 0.3 0.1 0.1l-0.1-0.1c-0.1-0.1-0.2-0.2-0.3-0.3 -0.3-0.3-0.4-0.6-0.5-0.8 -1-1.9-1.6-3.6-2.3-5.4 -0.6-1.8-1.3-3.6-1.8-5.4l-1.7-5.4 4.1 3.8 1.6 1.5 1.5 1.4 3 2.9 -2 2.3c-0.5-0.4-0.8-0.9-1.1-1.3 -0.2-0.4-0.4-0.8-0.5-1.2 -0.3-0.8-0.4-1.6-0.5-2.3 -0.2-1.5-0.3-3-0.4-4.5 -0.1-1.5-0.1-2.9 0-4.4 0-1.5 0.1-2.9 0.2-4.4L57 50.9l2.3 2.2c0.5 0.5 0.9 0.9 1.4 1.4 0.5 0.4 1 0.9 1.5 1.3 0.5 0.4 1 0.8 1.5 1.3l0.8 0.6c0 0 0 0-0.1 0 -0.1 0-0.4 0-0.5 0 -0.2 0.1 0 0 0.1-0.2 0.1-0.2 0.3-0.4 0.4-0.7 0.3-0.5 0.5-1.2 0.8-1.8l1.6-3.8 2.5-6 0.4 6.5c0.2 2.6 0.6 5.2 1.6 7.6 1 2.3 2.6 4.4 4.6 5.7 2.3 1.4 4.8 2.8 7.2 4.1 2.4 1.3 4.9 2.6 7.3 3.8 2.5 1.2 5 2.4 7.5 3.5 2.5 1.1 5.1 2.2 7.6 3.2l3.9 1.5 3.9 1.4 3.9 1.3c1.3 0.4 2.6 0.8 4 1.2 1.3 0.4 2.6 0.7 4 1.1 1.3 0.4 2.7 0.7 4 1l4.1 0.9c1.4 0.3 2.8 0.7 4.1 1.2 2.7 0.9 5.3 1.9 7.9 2.9 2.6 1 5.2 2.1 7.7 3.4 5 2.6 9.8 5.3 14.6 8.1C172.3 106.2 177 109.2 181.7 112.3z"/><radialGradient id="SVGID_8_" cx="436.3" cy="62.6" r="40.1" gradientTransform="matrix(-0.7875 0.6164 1.3987 1.787 381.3796 -277.4018)" gradientUnits="userSpaceOnUse"><stop offset="0" class="f"/><stop offset="0.3536" class="g"/><stop offset="0.5916" class="h"/><stop offset="0.7956" class="i"/><stop offset="0.9795" class="j"/><stop offset="1" class="k"/></radialGradient><path d="M157.4 133.2c0 0-40.2-22.2-48.7-29.6 -8.5-7.3-37.5-25.3-43.6-27.7 0 0 1.2 22.6 35.8 66.3C100.8 142.2 107.1 162.8 157.4 133.2z" style="fill:url(#SVGID_8_);stroke-width:0.8;stroke:#000"/><path d="M168.7 149.6c-2.7-0.5-5.5-1-8.3-1.3 -1.4-0.1-2.8-0.2-4.2-0.3 -1.4 0-2.8 0-4.1 0.5l-0.4 0.1 0.3-0.3c1.6-1.6 3.3-3.1 5-4.6 0.9-0.7 1.7-1.4 2.6-2.1 0.5-0.3 0.9-0.7 1.4-1 0.5-0.3 1-0.6 1.5-0.8l0 0.3c-2.9-1.4-5.9-2.8-8.7-4.4 -1.4-0.8-2.9-1.6-4.3-2.4 -0.7-0.4-1.4-0.9-2.1-1.3 -0.7-0.5-1.3-0.9-2-1.5l-0.6-0.5 0.7 0.1c2 0.2 4 0.5 6 0.9 2 0.4 4 0.9 5.9 1.7l-0.2 0.4c-7.9-4.4-15.8-8.9-23.7-13.4 -3.9-2.3-7.8-4.6-11.7-7 -3.9-2.4-7.7-4.8-11.4-7.5 -1.9-1.3-3.5-2.9-5.4-4.2 -1.8-1.4-3.6-2.7-5.5-4 -3.7-2.6-7.5-5.1-11.3-7.5s-7.7-4.8-11.5-7.2c-1.9-1.2-3.9-2.3-5.9-3.4 -2-1.1-3.9-2.2-6-3.1l0.4-0.3c0.1 1.5 0.5 3.1 0.8 4.6 0.4 1.5 0.8 3 1.3 4.6 0.5 1.5 1 3 1.6 4.5 0.6 1.5 1.1 3 1.8 4.4 0.6 1.4 1.2 2.9 2 4.3 0.7 1.4 1.4 2.9 2.1 4.3l2.2 4.2c0.7 1.4 1.6 2.7 2.4 4.1 0.8 1.4 1.6 2.7 2.4 4.1l2.5 4c0.8 1.4 1.7 2.6 2.6 4l2.6 4 2.8 3.9c0.9 1.3 1.8 2.6 2.8 3.9l5.7 7.6 -5.8-7.5c-1-1.3-1.9-2.6-2.8-3.8l-2.8-3.8 -2.7-3.9c-0.9-1.3-1.8-2.6-2.7-3.9l-2.5-4c-0.9-1.3-1.7-2.7-2.4-4.1 -0.8-1.4-1.6-2.7-2.4-4.1l-2.2-4.2c-0.7-1.4-1.4-2.8-2.1-4.3 -0.7-1.4-1.3-2.9-2-4.3 -0.7-1.4-1.2-2.9-1.8-4.4 -0.6-1.5-1.1-3-1.6-4.5 -0.5-1.5-0.9-3-1.3-4.6 -0.4-1.6-0.7-3.1-0.9-4.7l0-0.4 0.4 0.2c2.1 0.9 4.1 2 6.1 3.1 2 1.1 3.9 2.3 5.9 3.4 3.9 2.3 7.8 4.7 11.6 7.1 3.8 2.4 7.6 4.9 11.4 7.5 1.9 1.3 3.7 2.6 5.5 4 1.9 1.3 3.5 2.9 5.3 4.2 3.6 2.7 7.5 5.1 11.3 7.5 3.9 2.4 7.7 4.7 11.6 7 7.8 4.6 15.7 9.1 23.6 13.5l-0.2 0.4c-1.8-0.8-3.8-1.3-5.7-1.7 -2-0.4-4-0.7-6-0.9l0.2-0.4c0.6 0.5 1.3 1 1.9 1.4 0.7 0.4 1.4 0.9 2.1 1.3 1.4 0.8 2.8 1.6 4.2 2.4 2.9 1.5 5.8 3 8.7 4.4l0.4 0.2 -0.4 0.2c-0.5 0.2-1 0.5-1.5 0.8 -0.5 0.3-0.9 0.6-1.4 0.9 -0.9 0.7-1.8 1.3-2.6 2.1 -1.7 1.4-3.4 2.9-5 4.5l-0.1-0.2c1.4-0.4 2.8-0.5 4.2-0.4 1.4 0 2.8 0.2 4.2 0.3C163.2 148.6 165.9 149.1 168.7 149.6z"/><radialGradient id="SVGID_9_" cx="1257.4" cy="248.5" r="1263.5" gradientTransform="matrix(0.9963 -0.0858 0.0858 0.9963 2.3203 30.9395)" gradientUnits="userSpaceOnUse"><stop offset="0.5372" class="w"/><stop offset="0.5851" class="x"/><stop offset="0.6383" class="w"/><stop offset="0.6862" class="x"/><stop offset="0.734" class="w"/><stop offset="0.7819" class="x"/><stop offset="0.8245" class="w"/><stop offset="0.883" class="y"/><stop offset="0.9362" class="z"/></radialGradient><path d="M181.2 242.9c-22.9 20.8-27.1 17.8-36.1 25.5 -9 7.8-23.2 36.7-23.2 36.7s-3.3-10-1.4-17.8c1.9-7.7-13.1-28.6-10.9 22.5 0.3 7.4-4.1-14.7-5-4.2 -2.6 31.4-1.5 70.6 0.3 74.5 2.5 5.1 6.6 31.4 6.6 31.4 -0.5-5.8-9.6-18.2-9.6-18.2 -7.6-7.2-11.9-28.3-11.9-28.3 -0.5-28.7-7.7-49.2-7.7-49.2 5.2 11.5 6.8 48.8 6.8 48.8 -17.4-8.8-21.6-41.3-21.6-41.3 4.1 24.2 14 35.8 14 35.8 -20.4-7.3-18.3-36.9-20.4-47.4 -2.1-10.5 0.2-32.9 0.2-32.9 1.9 4.4 2.3-6.7 2.3-6.7 -2.1-4.5 1.3-7.2 1.3-7.2 4 11.1 8.2 8.6 8.2 8.6 1.2 4.4 1.5 10.5 1.5 10.5 1.3-10.4-12.8-38.6-11.1-40.4 1.7-1.9 5.6-0.3 5.6-0.3 -2.4-6.3-1.6-12.1-1.6-12.1 2.5 24.1 11.2 18.7 11.2 18.7 -3.3-13.6-5.3-24.6-1.2-29.8 4.1-5.1-0.4-20.3-0.4-20.3 6.2 17.3 10.9 13.4 11.4 4.6 0.4-8.8-7.7-13.7-7.7-13.7 6.7 1.6-8.4-28.2-8.4-28.2 -6.4-9.3-5.5-20.6-5.5-20.6 4.4 8.1 21.9 10.9 21.9 10.9 -3.9-2.3-0.7-7.9-0.7-7.9 2.9 3.7 8.5 9.4 12.2 6.7 3.7-2.7 11.1-5 11.1-5 -7-12.2-17.5-12-17.5-12 8.9-4.7 29.6-10 29.6-10 14.6 3.7 18.6-8.9 18.6-8.9 -1.9-11.8 7.6-12.4 7.6-12.4 14.5-15.9 27.5-10.9 27.5-10.9 2.9-4.8 24-16.4 33.1-13.5 9.1 2.9 15.9 3 15.9 3 -4.2-5.5 3-12.5 3-12.5 1.9 5.8 8.7 4.5 8.7 4.5 -8-8-9.6-15.4-9.6-15.4 3 8.5 10.2 15.2 10.2 15.2 -3.5-3.7-1.3-6.8-1.3-6.8 6.4 9.2 14.4 14.2 14.4 14.2 -2.7-0.3-2.4-2.2-2.4-2.2 0.9-4.1 0.8-9.5-1.5-12.8 -2.3-3.3-2.4-8.4-2.4-8.4 11.6 15.9 11.5 7 15.6 11.4 4.1 4.4 2.4 9.9 15.7 9.7 13.3-0.3 14.1-14.7 14.1-14.7l18.8 12.8 4.9-18.5 29.9 16.6 7.1-9.1c0 0 47.6 43.6 43.2 31.2 0 0 23.8-0.9 23.8-10.7 0-9.8 9.8 9.9 1.2 19.2 -6.7 7.2-3.3 16.4-3.3 16.4 4.6-7.7 16-9.2 16-9.2 -17.9 28.4-9.9 33.6-9.9 33.6 16.7-10.4 12.7-21.7 12.7-21.7 0.4 2.4 2.6 9.1 2.6 9.1 1.4-2.8 8.4-4 8.4-4 -0.2 16.8-13.7 33.5-13.7 33.5 4.7-7.1 14.6-14.6 14.6-14.6 -1.2 2.2-1.6 16.4-2.2 26.3 -0.5 9.9-8.4 24.2-6.3 26.4 2.1 2.2 4.4 2.8 7 2.3 2.5-0.5 4.5 3.9 4.5 3.9 3-2.7 6.8-12.8 6.8-12.8 0.5 41.2-11.5 40.1-11.5 40.1 12.8-5.1 27.2-19.1 27.2-19.1 -1.4 16.6-27.7 51.1-27.7 51.1 12-3.7 19.7-16.9 19.7-16.9 -7.1 31.2-31.8 31.2-17.2 40.6 14.6 9.4 19.8-5.2 17 8.8 -2.7 14.1-4.6 21.8-4.6 21.8 7.6 4.4 12.6 16.5 12.6 16.5 -0.8-1.5-1.1-1.5-4-0.5 -2.9 1.1-8.6-2.2-8.6-2.2 -3.2 3.5-7.5 2-7.5 2 -0.7 8.1 9.5 18.9 9.5 18.9 -5.2-3.5-6.7-10.1-8.8-2.4 -2.1 7.6-3.5 13.1-3.5 13.1 1.3-4.1 1.7-7.1 1.7-7.1 7.8 4.1 0.8 15.9 2.3 22.2 1.5 6.3 12.1 6.9 12.1 6.9 -15.3 14.6-2.2 29.6-20.6 21.8 2 12.2 9.3 20.5 9.3 20.5 -7.2-3.9 6.5 14.6 6.5 14.6 -10.4-10.4-19.5-27.4-19.5-27.4 2.4 5.1 6.1 14.2 6.1 14.2 -1-3.1-4.9-4.6-4.9-4.6 7.9 14.4 17.2 30.5 17.2 30.5 -1.7-3.4-5.5-2.7-5.5-2.7 1.3 4 5.7 10.8 5.7 10.8 -6.7-3.3-13.8-14-13.8-14 0.1 5.1 3 10.9 3 10.9 -12.7-12-15.4-21.6-15.4-21.6 8.4 37.6 0.3 25 0.3 25 -4.2-3.1 9.9 21.6 9.9 21.6 -15.9-4-20.3-41.5-20.3-41.5 -3.1 9.3-2.2 18.3-2.2 18.3 -3.9-9.3-2.6-1.7-3 7 -0.3 8.7 7.9 21.3 7.9 21.3 -7.9 1.9-10.1 12.9-18.9-18.8 -8.8-31.7-7.7-50.3-7.7-50.3 -1.9 15.8 5.1 37.6 5.1 37.6 0.1 8.2-5.3 13.3-5.3 13.3 0.4-10.2-7-52.5-7-52.5 -0.1 5.6-3.5 15.1-3.5 15.1 0.8-9.7-4.6-37-4.6-37 -2.1 12-14.7 36.5-14.7 36.5 2.6-28.3-5.4-37.9 2.2-51.4 7.2-12.8 5.8-39.3 5.4-55.6 -0.2-8.3 10.2 24.6 10.2 24.6 2.4 4 4.2 7.5 4.2 7.5 -1.4-28.6-7.7-47.9-7.7-47.9 5.2 13.9 7.4 47.6 7.4 47.6 0.2-1.9-3.7-7.5-3.7-7.5 -7-8.4-9.7-24.3-9.7-24.3 0.6 11.9-9.9-30.4-9.9-30.4 -4.7 7.3-5.4 74.2-5.4 74.2 -5-8.1-8.7-28.4-9.6-35.8 -0.9-7.4-4.7-29.8-4.7-29.8 -7.4 15.2-0.7-18.1-4.2-11.4 -3.5 6.7-9.6 36.5-9.6 36.5 -1.5 10.3 9.1-45.9 3-84.2 -2-12.6-4.4 53.2-6.7 49.5 -2.3-3.7-3.2-8.4-3.7-12.8 -0.5-4.4-6-15.5-6-15.5 0.3 4.8-2.5 8.5-2.5 8.5 -0.7-8.3-7.8-10.3-7.8-14 -0.1-3.7-7-14.5-7-14.5 -3.3 0.4-11.3 16.2-11.3 16.2 -2.1-3.3-1.1 2.9-7 0.5 -5.8-2.4-8 4-8 4 -2.6-5.6-3-20.4-3-20.4 0.4 14.9 4.9 27.9 4.9 27.9 -8-1.2-14.9-19.9-14.9-19.9 -2.4 7.9-27.5-20.8-30.9-8.6 -4.4 15.9-17.1 37.2-13.1 49.8 0 0-10-6.5-10-15.4 0 0-16.8 5.4-9.6 17.1C201.3 301.7 176.3 267.7 181.2 242.9z" style="fill:url(#SVGID_9_);stroke-width:3;stroke:#000"/><radialGradient id="SVGID_10_" cx="241.4" cy="162.6" r="148.4" gradientTransform="matrix(-0.9989 0.0473 0.0473 0.9989 528.272 -21.5801)" gradientUnits="userSpaceOnUse"><stop offset="0.2447" style="stop-color:#463223;stop-opacity:0"/><stop offset="0.5372" class="w"/><stop offset="0.5851" class="x"/><stop offset="0.6383" class="w"/><stop offset="0.6862" class="x"/><stop offset="0.734" class="w"/><stop offset="0.7819" class="x"/><stop offset="0.8245" class="w"/><stop offset="0.883" class="y"/><stop offset="0.9362" class="z"/></radialGradient><path d="M380.2 130.3c0 0-15-35-28.8-48.5C331.4 62 317 41.3 312.7 31.8c-4.3-9.5-7.2-8.9-7.7-14.2 0 0-8.4 2.4-7.5 5.8 0 0-7.1-1.5-7.5-3.3 0 0 3 7.3 3.3 9 0.3 1.7-22.2 60.3-18.8 78.1 0 0-3.9-0.2-4.9-2.7 0 0 1.2 5.7 2.2 6.5 0 0-5.5 1.3-7.2-1.4 0 0 0.9 5.2 3.9 7.6" fill="url(#SVGID_10_)"/><path d="M380.2 130.3c-1.3-2.5-2.6-5.1-3.9-7.6 -1.3-2.5-2.7-5-4.1-7.5l-2.1-3.7 -2.2-3.7c-1.5-2.4-3-4.8-4.5-7.2 -1.5-2.4-2.9-4.8-4.5-7.1 -0.8-1.2-1.6-2.3-2.4-3.4 -0.4-0.6-0.8-1.1-1.2-1.7l-1.3-1.6c-0.9-1.1-1.8-2.1-2.7-3.1l-0.7-0.8 -0.8-0.8 -1.5-1.5c-2-2.1-4-4-5.9-6.1l-5.8-6.4 -5.5-6.6c-1.8-2.2-3.5-4.5-5.3-6.7 -1.7-2.3-3.4-4.6-5.1-6.9 -0.8-1.2-1.6-2.4-2.4-3.6 -0.8-1.2-1.6-2.4-2.3-3.6l-2.2-3.7c-0.7-1.3-1.3-2.6-2-3.9l-1.9-3.8c-0.7-1.1-1.3-2.3-2.1-3.4 -0.8-1.1-1.7-2.1-2.6-3.5 -0.2-0.4-0.4-0.7-0.6-1.1l-0.4-1.2c-0.2-0.4-0.2-0.8-0.3-1.2l-0.2-1.2 1.9 1.3c-0.3 0.1-0.8 0.2-1.1 0.4 -0.4 0.1-0.8 0.3-1.1 0.4 -0.7 0.3-1.5 0.6-2.1 1 -0.7 0.4-1.3 0.8-1.7 1.3 -0.1 0.1-0.2 0.2-0.2 0.3 -0.1 0.1-0.1 0.2-0.1 0.3 0 0.1 0 0.1 0 0.2 0 0.1 0 0.1 0 0.2l0.4 2.3 -2.1-0.5c-0.7-0.2-1.4-0.3-2.1-0.5 -0.7-0.2-1.4-0.4-2.1-0.6 -0.7-0.2-1.4-0.5-2.1-0.9 -0.2-0.1-0.4-0.2-0.6-0.3 -0.2-0.1-0.4-0.2-0.6-0.4l-0.3-0.2c-0.1-0.1-0.2-0.2-0.3-0.4 -0.2-0.2-0.4-0.7-0.5-1.1l2.9-0.9c0.7 1.8 1.4 3.5 2.1 5.3 0.3 0.9 0.7 1.8 1 2.8l0.2 0.7 0.1 0.4 0 0c0 0.1 0-0.3 0 0.3l0 0 0 0.1 0 0.2c0 0.3-0.1 0.8-0.2 1.1l-0.2 0.7c-0.6 1.9-1.2 3.6-1.8 5.4l-1.8 5.4c-2.4 7.1-4.7 14.3-6.9 21.5 -2.2 7.2-4.2 14.4-5.8 21.7 -0.4 1.8-0.8 3.7-1.1 5.5 -0.3 1.8-0.6 3.7-0.9 5.5 -0.1 0.9-0.2 1.8-0.3 2.8l-0.2 2.7c-0.1 1.8-0.1 3.6 0.1 5.3l0.2 1.7 -1.5-0.1c-0.2 0-0.3 0-0.5-0.1l-0.4-0.1c-0.3-0.1-0.5-0.1-0.8-0.2 -0.5-0.2-1.1-0.3-1.6-0.6 -0.5-0.3-1-0.6-1.5-1.1 -0.2-0.2-0.4-0.5-0.6-0.8 -0.2-0.3-0.3-0.6-0.4-0.9l2-0.6c0.2 1.1 0.4 2.2 0.7 3.3 0.1 0.5 0.3 1.1 0.4 1.6 0.1 0.3 0.2 0.5 0.3 0.7 0 0.1 0.1 0.2 0.2 0.3 0.1 0.1 0.1 0.1 0.1 0.2l0.4 1.2 -0.7 0.1c-0.4 0.1-0.7 0.1-1 0.1 -0.3 0-0.7 0.1-1 0.1 -0.7 0-1.4 0-2-0.1 -0.3 0-0.7-0.1-1-0.2 -0.3-0.1-0.7-0.2-1-0.4 -0.2-0.1-0.3-0.2-0.5-0.3 -0.2-0.1-0.3-0.2-0.4-0.3 -0.1-0.1-0.3-0.2-0.4-0.4l-0.3-0.5 0.8-0.3c0.1 0.7 0.3 1.4 0.4 2.1 0.1 0.3 0.2 0.7 0.3 1l0.4 1 0.5 1c0.1 0.3 0.3 0.6 0.5 0.9 0.2 0.3 0.4 0.6 0.6 0.9l0.7 0.8 -0.8-0.7c-0.3-0.2-0.5-0.5-0.7-0.8 -0.2-0.3-0.5-0.6-0.6-0.9l-0.6-0.9 -0.5-1c-0.2-0.3-0.3-0.7-0.4-1 -0.3-0.7-0.5-1.4-0.7-2.1l-0.4-1.7 1.2 1.4 0.3 0.3c0.1 0.1 0.2 0.2 0.3 0.3 0.1 0.1 0.2 0.2 0.4 0.2 0.1 0.1 0.2 0.1 0.4 0.2 0.3 0.1 0.6 0.2 0.8 0.2 0.3 0 0.6 0.1 0.9 0.1 0.6 0 1.2 0 1.8-0.1 0.3 0 0.6-0.1 0.9-0.1 0.3-0.1 0.6-0.1 0.9-0.2l-0.3 1.3c-0.2-0.2-0.4-0.4-0.5-0.5 -0.1-0.2-0.2-0.3-0.3-0.4 -0.2-0.3-0.3-0.6-0.4-0.9 -0.2-0.6-0.4-1.1-0.6-1.7 -0.4-1.1-0.7-2.2-1-3.4l-1.5-6 3.5 5.4c0.1 0.1 0.1 0.3 0.3 0.4 0.1 0.1 0.2 0.2 0.3 0.4 0.3 0.2 0.6 0.4 1 0.6 0.4 0.2 0.8 0.3 1.2 0.3 0.2 0 0.4 0.1 0.6 0.1l0.3 0 0.3 0 -1.3 1.5c-0.4-2-0.6-4-0.6-5.9 0-1 0.1-1.9 0.2-2.9l0.3-2.9c0.3-1.9 0.6-3.8 0.9-5.7 0.3-1.9 0.7-3.7 1.1-5.6 1.7-7.4 3.7-14.7 5.8-21.9s4.5-14.4 6.9-21.6l1.8-5.4c0.6-1.8 1.2-3.6 1.7-5.3l0.2-0.6c0-0.1 0.1-0.2 0.1-0.3l0-0.2 0-0.1 0 0c0.1 0.6 0 0.2 0 0.3l0 0 -0.1-0.3 -0.2-0.6c-0.2-0.8-0.6-1.7-0.9-2.5 -0.6-1.7-1.3-3.5-2-5.2l2.9-0.9c0-0.1-0.1-0.2 0-0.2 0 0 0 0 0 0l0.1 0.1c0.1 0.1 0.2 0.1 0.3 0.2 0.1 0.1 0.2 0.1 0.4 0.2 0.5 0.3 1.1 0.5 1.7 0.7 0.6 0.2 1.3 0.4 1.9 0.6 0.6 0.2 1.3 0.3 1.9 0.5l-1.8 1.9c-0.1-0.4-0.1-0.7-0.1-1.1 0-0.4 0.1-0.7 0.2-1.1 0.1-0.3 0.3-0.6 0.4-0.9 0.2-0.3 0.4-0.5 0.5-0.7 0.8-0.8 1.6-1.4 2.4-1.8 0.8-0.5 1.7-0.9 2.5-1.2 0.4-0.2 0.8-0.3 1.3-0.5 0.4-0.1 0.8-0.3 1.3-0.4l1.6-0.5 0.3 1.8 0.2 0.9c0.1 0.3 0.1 0.6 0.2 0.9l0.3 0.8c0.1 0.3 0.3 0.5 0.4 0.8 0.7 1 1.6 2.1 2.5 3.4 0.9 1.2 1.6 2.5 2.4 3.8l1.9 3.9c0.6 1.2 1.2 2.5 1.9 3.7l2.2 3.6c0.7 1.2 1.5 2.4 2.3 3.5 0.8 1.2 1.5 2.4 2.4 3.5 1.7 2.3 3.3 4.6 5 6.8 1.8 2.2 3.4 4.5 5.2 6.7l5.5 6.5 5.7 6.3c1.9 2.1 3.9 4.1 5.9 6.1l1.5 1.5 0.7 0.7 0.8 0.8c1 1.1 2 2.1 2.9 3.3l1.4 1.7c0.5 0.6 0.9 1.2 1.3 1.7 0.9 1.2 1.7 2.3 2.5 3.5 1.6 2.4 3.2 4.8 4.6 7.3 1.4 2.5 2.7 5.1 3.9 7.6l1.9 3.9 1.8 3.9c1.2 2.6 2.3 5.2 3.4 7.8C378.1 125 379.2 127.6 380.2 130.3z"/><radialGradient id="SVGID_11_" cx="206.1" cy="99.2" r="43.4" gradientTransform="matrix(-0.9317 0.3633 0.805 2.0644 439.2295 -192.4356)" gradientUnits="userSpaceOnUse"><stop offset="0" class="f"/><stop offset="0.3536" class="g"/><stop offset="0.5916" class="h"/><stop offset="0.7956" class="i"/><stop offset="0.9795" class="j"/><stop offset="1" class="k"/></radialGradient><path d="M345.6 124.5c0 0 7.2 6.4 6.1 4 -1.4-3-9.9-11.4-12.3-16.6 6.9 3.9 4.8 0.6 4.1-1.1 -5.4-12-11.3-25.6-12.4-31.3 -2.3-11-27.3-41.7-31.1-47.2 0 0-16.2 19.3-17.7 75.5 0 0 1.8 18.5 65.8 24C349.8 132.1 345.6 124.5 345.6 124.5z" style="fill:url(#SVGID_11_);stroke-width:0.5;stroke:#000"/><path d="M351.4 152.5c-2.2-2.1-4.4-4.1-6.8-6 -1.2-0.9-2.4-1.8-3.7-2.6 -1.3-0.8-2.6-1.6-4.1-1.9l-0.3-0.1 0.4 0c2.7-0.4 5.4-0.6 8.1-0.8 1.3-0.1 2.7-0.2 4.1-0.2 0.7 0 1.4 0 2 0 0.7 0 1.4 0.1 2 0.2l-0.1 0.2c-1.6-2.8-3.2-5.7-4.7-8.7 -0.7-1.5-1.4-3-2.1-4.5 -0.3-0.8-0.6-1.5-0.9-2.3 -0.3-0.8-0.5-1.6-0.7-2.4l-0.1-0.3 0.3 0.1c1.4 0.5 2.7 1.3 3.9 2.2 0.6 0.4 1.2 1 1.7 1.5 0.5 0.5 1 1.2 1.4 1.8l-0.1-0.1c-0.2 0-0.2 0.1-0.2 0.1 0 0 0 0 0 0 0 0 0 0 0 0l0-0.1 -0.1-0.2 -0.2-0.4 -0.4-0.9c-0.2-0.6-0.5-1.2-0.8-1.7 -0.3-0.6-0.5-1.2-0.8-1.7 -0.3-0.5-0.8-1-1.2-1.4 -1.7-1.8-3.6-3.6-5.4-5.4 -0.9-0.9-1.8-1.8-2.6-2.7 -0.4-0.5-0.8-1-1.2-1.5 -0.1-0.1-0.2-0.3-0.3-0.4 0-0.1-0.1-0.1-0.1-0.3 0-0.1 0-0.2 0.1-0.3 0.1 0 0.2-0.1 0.2-0.1 0.4 0 0.7 0.1 1 0.2 1.2 0.5 2.3 1 3.5 1.5 0.3 0.1 0.6 0.2 0.9 0.3 0.1 0 0.3 0.1 0.4 0.1 0.1 0 0 0 0 0 0 0 0-0.1 0-0.1l-0.8-1.7c-2.1-4.6-4.2-9.3-6.2-13.9 -2-4.7-3.9-9.4-5.6-14.2 -0.4-1.2-0.8-2.4-1.1-3.7 -0.3-1.2-0.7-2.4-1.2-3.6 -1-2.3-2.2-4.5-3.5-6.7 -2.6-4.4-5.4-8.6-8.3-12.7 -2.9-4.1-5.9-8.2-9-12.3l-4.6-6.1c-1.5-2-3.1-4-4.6-6.1l0.3 0c-1 1.3-1.9 2.7-2.7 4.1 -0.8 1.4-1.6 2.9-2.2 4.3 -1.4 2.9-2.6 6-3.7 9.1 -1.1 3.1-2 6.2-2.9 9.4 -0.4 1.6-0.8 3.2-1.2 4.8 -0.4 1.6-0.7 3.2-1 4.8 -0.3 1.6-0.6 3.2-0.9 4.8 -0.3 1.6-0.5 3.2-0.8 4.8 -0.5 3.2-0.9 6.5-1.2 9.7l-0.5 4.9 -0.4 4.9 -0.3 4.9 -0.2 4.9 0.2-4.9 0.2-4.9 0.3-4.9 0.4-4.9c0.3-3.3 0.7-6.5 1.2-9.7 0.2-1.6 0.5-3.2 0.8-4.9 0.3-1.6 0.6-3.2 0.9-4.8 0.3-1.6 0.6-3.2 1-4.8 0.4-1.6 0.8-3.2 1.2-4.8 0.8-3.2 1.8-6.3 2.9-9.4 1.1-3.1 2.3-6.1 3.7-9.1 0.7-1.5 1.4-2.9 2.3-4.4 0.8-1.4 1.7-2.8 2.7-4.1l0.1-0.2 0.1 0.2c1.5 2.1 3 4.1 4.6 6.1l4.6 6.1c3.1 4.1 6.1 8.1 9 12.3 2.9 4.1 5.8 8.4 8.4 12.7 1.3 2.2 2.5 4.4 3.5 6.8 0.5 1.2 0.9 2.4 1.2 3.7 0.3 1.2 0.7 2.4 1 3.6 1.6 4.8 3.5 9.5 5.5 14.2 2 4.7 4 9.3 6.1 13.9l0.8 1.7c0 0.1 0.1 0.2 0.1 0.3 0 0.1-0.1 0.2-0.1 0.2 -0.1 0-0.1 0.1-0.2 0.1 -0.2 0-0.4 0-0.5-0.1 -0.3-0.1-0.6-0.2-0.9-0.3 -1.2-0.5-2.3-1-3.5-1.5 -0.3-0.1-0.6-0.2-0.8-0.2 0 0 0 0 0 0 0 0 0-0.1 0-0.1 0 0 0 0.1 0.1 0.1 0.1 0.1 0.2 0.3 0.2 0.4 0.4 0.5 0.8 1 1.2 1.5 0.8 0.9 1.7 1.8 2.6 2.7 1.8 1.8 3.6 3.5 5.4 5.4 0.4 0.5 0.9 0.9 1.2 1.5 0.3 0.6 0.5 1.2 0.8 1.7 0.3 0.6 0.5 1.2 0.8 1.7l0.4 0.9 0.2 0.5 0.1 0.2c0 0 0 0.1 0 0.1 0 0 0 0 0 0.1 0 0 0 0.1 0 0.1 0 0 0 0.2-0.2 0.2h0l0-0.1c-0.4-0.6-0.8-1.2-1.3-1.7 -0.5-0.5-1-1-1.6-1.5 -1.2-0.9-2.5-1.6-3.8-2.1l0.2-0.2c0.2 0.8 0.4 1.6 0.7 2.3 0.3 0.8 0.6 1.5 0.9 2.3 0.7 1.5 1.4 3 2.1 4.5 1.5 2.9 3 5.8 4.7 8.7l0.1 0.2 -0.3 0c-0.7-0.1-1.3-0.2-2-0.2 -0.7 0-1.3 0-2 0 -1.3 0-2.7 0.1-4 0.2 -2.7 0.2-5.4 0.5-8.1 0.8l0-0.1c1.5 0.4 2.8 1.2 4.1 2 1.3 0.8 2.5 1.7 3.7 2.7C346.9 148.4 349.2 150.4 351.4 152.5z"/></svg>